G04 Layer_Color=16711935*
%FSLAX25Y25*%
%MOIN*%
G70*
G01*
G75*
%ADD43C,0.02000*%
%ADD45C,0.01000*%
%ADD57C,0.00600*%
D43*
X875000Y401997D02*
Y392000D01*
X879998D01*
X881664Y393666D01*
Y395332D01*
X879998Y396998D01*
X875000D01*
X879998D01*
X881664Y398664D01*
Y400331D01*
X879998Y401997D01*
X875000D01*
X886663Y392000D02*
X889995D01*
X891661Y393666D01*
Y396998D01*
X889995Y398664D01*
X886663D01*
X884997Y396998D01*
Y393666D01*
X886663Y392000D01*
X896660Y398664D02*
X899992D01*
X901658Y396998D01*
Y392000D01*
X896660D01*
X894993Y393666D01*
X896660Y395332D01*
X901658D01*
X904990Y398664D02*
Y392000D01*
Y395332D01*
X906656Y396998D01*
X908323Y398664D01*
X909989D01*
X921652Y401997D02*
Y392000D01*
X916653D01*
X914987Y393666D01*
Y396998D01*
X916653Y398664D01*
X921652D01*
X939979Y401997D02*
X936647D01*
X934981Y400331D01*
Y393666D01*
X936647Y392000D01*
X939979D01*
X941645Y393666D01*
Y400331D01*
X939979Y401997D01*
X944977Y398664D02*
Y393666D01*
X946644Y392000D01*
X951642D01*
Y398664D01*
X956640Y400331D02*
Y398664D01*
X954974D01*
X958306D01*
X956640D01*
Y393666D01*
X958306Y392000D01*
X963305D02*
X966637D01*
X964971D01*
Y401997D01*
X963305D01*
X971635Y392000D02*
X974968D01*
X973302D01*
Y398664D01*
X971635D01*
X979966Y392000D02*
Y398664D01*
X984964D01*
X986631Y396998D01*
Y392000D01*
X994961D02*
X991629D01*
X989963Y393666D01*
Y396998D01*
X991629Y398664D01*
X994961D01*
X996627Y396998D01*
Y395332D01*
X989963D01*
D45*
X393701Y380465D02*
Y390201D01*
X787402Y380465D02*
Y390201D01*
X393701Y383465D02*
X574355D01*
X603547D02*
X787402D01*
X393701D02*
X399701Y381465D01*
X393701Y383465D02*
X399701Y385465D01*
X781402D02*
X787402Y383465D01*
X781402Y381465D02*
X787402Y383465D01*
X790902Y393701D02*
X800638D01*
X790902Y787402D02*
X800638D01*
X797638Y393701D02*
Y574355D01*
Y603547D02*
Y787402D01*
Y393701D02*
X799638Y399701D01*
X795638D02*
X797638Y393701D01*
X795638Y781402D02*
X797638Y787402D01*
X799638Y781402D01*
X393701Y393701D02*
X787402D01*
Y787402D01*
X393701D02*
X787402D01*
X393701Y393701D02*
Y787402D01*
D57*
X575955Y379866D02*
X577955D01*
X576955D01*
Y385864D01*
X575955Y384864D01*
X580954D02*
X581953Y385864D01*
X583953D01*
X584952Y384864D01*
Y380865D01*
X583953Y379866D01*
X581953D01*
X580954Y380865D01*
Y384864D01*
X586952D02*
X587952Y385864D01*
X589951D01*
X590950Y384864D01*
Y380865D01*
X589951Y379866D01*
X587952D01*
X586952Y380865D01*
Y384864D01*
X592950Y379866D02*
Y380865D01*
X593950D01*
Y379866D01*
X592950D01*
X597948Y384864D02*
X598948Y385864D01*
X600947D01*
X601947Y384864D01*
Y380865D01*
X600947Y379866D01*
X598948D01*
X597948Y380865D01*
Y384864D01*
X801237Y575955D02*
Y577955D01*
Y576955D01*
X795239D01*
X796238Y575955D01*
Y580954D02*
X795239Y581953D01*
Y583953D01*
X796238Y584952D01*
X800237D01*
X801237Y583953D01*
Y581953D01*
X800237Y580954D01*
X796238D01*
Y586952D02*
X795239Y587952D01*
Y589951D01*
X796238Y590950D01*
X800237D01*
X801237Y589951D01*
Y587952D01*
X800237Y586952D01*
X796238D01*
X801237Y592950D02*
X800237D01*
Y593950D01*
X801237D01*
Y592950D01*
X796238Y597948D02*
X795239Y598948D01*
Y600947D01*
X796238Y601947D01*
X800237D01*
X801237Y600947D01*
Y598948D01*
X800237Y597948D01*
X796238D01*
M02*
