G04 Layer_Color=8421504*
%FSLAX25Y25*%
%MOIN*%
G70*
G01*
G75*
%ADD10R,0.03150X0.02756*%
%ADD11R,0.02362X0.05905*%
%ADD12R,0.02362X0.03347*%
%ADD13R,0.03937X0.03347*%
%ADD14R,0.09055X0.09055*%
G04:AMPARAMS|DCode=15|XSize=27.56mil|YSize=31.5mil|CornerRadius=0mil|HoleSize=0mil|Usage=FLASHONLY|Rotation=225.000|XOffset=0mil|YOffset=0mil|HoleType=Round|Shape=Rectangle|*
%AMROTATEDRECTD15*
4,1,4,-0.00139,0.02088,0.02088,-0.00139,0.00139,-0.02088,-0.02088,0.00139,-0.00139,0.02088,0.0*
%
%ADD15ROTATEDRECTD15*%

%ADD16R,0.03543X0.03937*%
%ADD17R,0.05315X0.01575*%
%ADD18R,0.07480X0.07087*%
%ADD19R,0.06299X0.08268*%
%ADD20R,0.03937X0.03543*%
%ADD21R,0.29528X0.29528*%
%ADD22R,0.00984X0.03150*%
%ADD23R,0.03150X0.00984*%
G04:AMPARAMS|DCode=24|XSize=29.53mil|YSize=33.47mil|CornerRadius=2.21mil|HoleSize=0mil|Usage=FLASHONLY|Rotation=180.000|XOffset=0mil|YOffset=0mil|HoleType=Round|Shape=RoundedRectangle|*
%AMROUNDEDRECTD24*
21,1,0.02953,0.02904,0,0,180.0*
21,1,0.02510,0.03347,0,0,180.0*
1,1,0.00443,-0.01255,0.01452*
1,1,0.00443,0.01255,0.01452*
1,1,0.00443,0.01255,-0.01452*
1,1,0.00443,-0.01255,-0.01452*
%
%ADD24ROUNDEDRECTD24*%
%ADD25R,0.02756X0.03150*%
%ADD26C,0.01378*%
%ADD27R,0.41339X0.33071*%
%ADD28R,0.04134X0.12992*%
%ADD29R,0.06102X0.05118*%
%ADD30R,0.03937X0.01181*%
%ADD31R,0.02362X0.01181*%
%ADD32R,0.03937X0.01575*%
%ADD33R,0.02920X0.02126*%
G04:AMPARAMS|DCode=34|XSize=39.37mil|YSize=35.43mil|CornerRadius=0mil|HoleSize=0mil|Usage=FLASHONLY|Rotation=135.000|XOffset=0mil|YOffset=0mil|HoleType=Round|Shape=Rectangle|*
%AMROTATEDRECTD34*
4,1,4,0.02645,-0.00139,0.00139,-0.02645,-0.02645,0.00139,-0.00139,0.02645,0.02645,-0.00139,0.0*
%
%ADD34ROTATEDRECTD34*%

G04:AMPARAMS|DCode=35|XSize=27.56mil|YSize=31.5mil|CornerRadius=0mil|HoleSize=0mil|Usage=FLASHONLY|Rotation=315.000|XOffset=0mil|YOffset=0mil|HoleType=Round|Shape=Rectangle|*
%AMROTATEDRECTD35*
4,1,4,-0.02088,-0.00139,0.00139,0.02088,0.02088,0.00139,-0.00139,-0.02088,-0.02088,-0.00139,0.0*
%
%ADD35ROTATEDRECTD35*%

%ADD36R,0.02000X0.05800*%
%ADD37R,0.05800X0.02000*%
%ADD38R,0.05800X0.00900*%
%ADD39R,0.00900X0.05800*%
%ADD43C,0.02000*%
D10*
X682875Y663386D02*
D03*
X687599D02*
D03*
X679134Y685039D02*
D03*
X674409D02*
D03*
X617717Y472441D02*
D03*
X622441D02*
D03*
X570079Y463583D02*
D03*
X574803D02*
D03*
X466929Y472441D02*
D03*
X462205D02*
D03*
X466929Y492126D02*
D03*
X462205D02*
D03*
X466929Y511811D02*
D03*
X462205D02*
D03*
X469095Y628937D02*
D03*
X473819D02*
D03*
X466929Y669291D02*
D03*
X462205D02*
D03*
X466929Y688976D02*
D03*
X462205D02*
D03*
X466929Y708661D02*
D03*
X462205D02*
D03*
X419882Y600394D02*
D03*
X424606D02*
D03*
X522047Y588583D02*
D03*
X517323D02*
D03*
X461614Y592520D02*
D03*
X466339D02*
D03*
X462205Y602362D02*
D03*
X466929D02*
D03*
X551378Y541339D02*
D03*
X556102D02*
D03*
X627362Y482283D02*
D03*
X622638D02*
D03*
X627362Y489173D02*
D03*
X622638D02*
D03*
X552756Y480315D02*
D03*
X557480D02*
D03*
X552756Y485236D02*
D03*
X557480D02*
D03*
X535039Y595472D02*
D03*
X539764D02*
D03*
X534646Y612598D02*
D03*
X539370D02*
D03*
X543898Y633858D02*
D03*
X548622D02*
D03*
X424606Y580709D02*
D03*
X419882D02*
D03*
X683661Y570866D02*
D03*
X688386D02*
D03*
X648032Y585630D02*
D03*
X643307D02*
D03*
X648032Y567913D02*
D03*
X643307D02*
D03*
X561614Y737205D02*
D03*
X566339D02*
D03*
X586024Y737205D02*
D03*
X581299D02*
D03*
X595079Y737205D02*
D03*
X599803D02*
D03*
X626378Y737205D02*
D03*
X621654D02*
D03*
D11*
X679134Y677953D02*
D03*
X682874Y670472D02*
D03*
X675394D02*
D03*
D12*
X618110Y460433D02*
D03*
Y466732D02*
D03*
D13*
X613976Y460433D02*
D03*
X622244D02*
D03*
Y466732D02*
D03*
X613976D02*
D03*
D14*
X448000Y619142D02*
D03*
Y636858D02*
D03*
D15*
X494781Y560337D02*
D03*
X491440Y563678D02*
D03*
X501670Y562306D02*
D03*
X498330Y565647D02*
D03*
X617812Y535731D02*
D03*
X614471Y539072D02*
D03*
D16*
X568110Y457677D02*
D03*
X574803D02*
D03*
X574213Y661417D02*
D03*
X567520D02*
D03*
X696260Y611221D02*
D03*
X689567D02*
D03*
X663779Y588583D02*
D03*
X657087D02*
D03*
D17*
X410138Y595669D02*
D03*
Y585433D02*
D03*
Y590551D02*
D03*
Y593110D02*
D03*
Y587992D02*
D03*
D18*
X399606Y605512D02*
D03*
Y575591D02*
D03*
D19*
X409646Y602756D02*
D03*
Y578346D02*
D03*
D20*
X475197Y622244D02*
D03*
X467717D02*
D03*
Y613976D02*
D03*
X475197D02*
D03*
X735394Y641339D02*
D03*
Y648032D02*
D03*
X725394Y641339D02*
D03*
Y648032D02*
D03*
X457677Y578346D02*
D03*
Y585039D02*
D03*
X638779Y481890D02*
D03*
Y488583D02*
D03*
X542323Y485630D02*
D03*
Y478937D02*
D03*
X523622Y605905D02*
D03*
Y612598D02*
D03*
D21*
X492126Y590551D02*
D03*
D22*
X506890Y573130D02*
D03*
X504921D02*
D03*
X502953Y573130D02*
D03*
X500984Y573130D02*
D03*
X499016D02*
D03*
X497047D02*
D03*
X495079D02*
D03*
X493110D02*
D03*
X491142Y573130D02*
D03*
X489173Y573130D02*
D03*
X487205D02*
D03*
X485236D02*
D03*
X483268D02*
D03*
X481299D02*
D03*
X479331Y573130D02*
D03*
X477362D02*
D03*
Y607972D02*
D03*
X479331D02*
D03*
X481299Y607972D02*
D03*
X483268D02*
D03*
X485236D02*
D03*
X487205D02*
D03*
X489173D02*
D03*
X491142D02*
D03*
X493110D02*
D03*
X495079D02*
D03*
X497047D02*
D03*
X499016D02*
D03*
X500984D02*
D03*
X502953D02*
D03*
X504921D02*
D03*
X506890D02*
D03*
D23*
X474705Y575787D02*
D03*
Y577756D02*
D03*
Y579724D02*
D03*
Y581693D02*
D03*
Y583661D02*
D03*
Y585630D02*
D03*
Y587598D02*
D03*
Y589567D02*
D03*
Y591535D02*
D03*
Y593504D02*
D03*
Y595472D02*
D03*
Y597441D02*
D03*
Y599409D02*
D03*
Y601378D02*
D03*
Y603346D02*
D03*
Y605315D02*
D03*
X509547Y605315D02*
D03*
Y603346D02*
D03*
Y601378D02*
D03*
Y599409D02*
D03*
X509547Y597441D02*
D03*
Y595472D02*
D03*
Y593504D02*
D03*
X509547Y591535D02*
D03*
X509547Y589567D02*
D03*
X509547Y587598D02*
D03*
Y585630D02*
D03*
Y583661D02*
D03*
X509547Y581693D02*
D03*
Y579724D02*
D03*
Y577756D02*
D03*
Y575787D02*
D03*
D24*
X455709Y472441D02*
D03*
X449803D02*
D03*
X455709Y492126D02*
D03*
X449803D02*
D03*
X455709Y511811D02*
D03*
X449803D02*
D03*
X455709Y669291D02*
D03*
X449803D02*
D03*
X455709Y688976D02*
D03*
X449803D02*
D03*
X455709Y708661D02*
D03*
X449803D02*
D03*
D25*
X490158Y620472D02*
D03*
Y615748D02*
D03*
X426181Y614567D02*
D03*
Y609842D02*
D03*
X427165Y509252D02*
D03*
Y504528D02*
D03*
X524606Y706299D02*
D03*
Y711024D02*
D03*
X516732Y706299D02*
D03*
Y711024D02*
D03*
X524606Y514173D02*
D03*
Y509449D02*
D03*
X516732Y514173D02*
D03*
Y509449D02*
D03*
X583661Y536024D02*
D03*
Y540748D02*
D03*
X627953Y536024D02*
D03*
Y540748D02*
D03*
X582677Y455315D02*
D03*
Y460039D02*
D03*
X546260Y544882D02*
D03*
Y549606D02*
D03*
X595472Y455315D02*
D03*
Y460039D02*
D03*
X607283Y457283D02*
D03*
Y462008D02*
D03*
X577756Y644095D02*
D03*
Y639370D02*
D03*
X419291Y609842D02*
D03*
Y614567D02*
D03*
X503583Y447933D02*
D03*
Y443209D02*
D03*
X513583Y447933D02*
D03*
Y443209D02*
D03*
X596850Y646063D02*
D03*
Y641339D02*
D03*
X611221Y644095D02*
D03*
Y639370D02*
D03*
X673228Y590945D02*
D03*
Y586221D02*
D03*
X705709Y588189D02*
D03*
Y592913D02*
D03*
X633858Y637205D02*
D03*
Y632480D02*
D03*
X642717Y618504D02*
D03*
Y613779D02*
D03*
D26*
X696850Y582677D02*
D03*
X692913D02*
D03*
X688976D02*
D03*
X685039D02*
D03*
X681102D02*
D03*
X696850Y586614D02*
D03*
X692913D02*
D03*
X688976D02*
D03*
X685039D02*
D03*
X681102D02*
D03*
X696850Y590551D02*
D03*
X692913D02*
D03*
X688976D02*
D03*
X685039D02*
D03*
X681102D02*
D03*
X696850Y594488D02*
D03*
X692913D02*
D03*
X688976D02*
D03*
X685039D02*
D03*
X681102D02*
D03*
X696850Y598425D02*
D03*
X692913D02*
D03*
X688976D02*
D03*
X685039D02*
D03*
X681102D02*
D03*
D27*
X725394Y699803D02*
D03*
D28*
X735394Y662205D02*
D03*
X715394D02*
D03*
X725394D02*
D03*
D29*
X476476Y520669D02*
D03*
X507776D02*
D03*
X476476Y502953D02*
D03*
X507776D02*
D03*
Y699803D02*
D03*
X476476D02*
D03*
X507776Y717520D02*
D03*
X476476D02*
D03*
Y481299D02*
D03*
X507776D02*
D03*
X476476Y463583D02*
D03*
X507776D02*
D03*
X476476Y678150D02*
D03*
X507776D02*
D03*
X476476Y660433D02*
D03*
X507776D02*
D03*
D30*
X445472Y597441D02*
D03*
X445472Y599409D02*
D03*
X440354Y597441D02*
D03*
D31*
X439567Y595472D02*
D03*
X439567Y593504D02*
D03*
X446260D02*
D03*
Y595472D02*
D03*
D32*
X440354Y599606D02*
D03*
D33*
X442913Y593976D02*
D03*
D34*
X597043Y530114D02*
D03*
X601776Y534847D02*
D03*
D35*
X504623Y619781D02*
D03*
X501282Y616440D02*
D03*
D36*
X606251Y470026D02*
D03*
X603151D02*
D03*
X599951D02*
D03*
X596851D02*
D03*
X593651D02*
D03*
X590551D02*
D03*
X587451D02*
D03*
X584251D02*
D03*
X581151D02*
D03*
X577951D02*
D03*
X574851D02*
D03*
Y514226D02*
D03*
X577951D02*
D03*
X581151D02*
D03*
X584251D02*
D03*
X587451D02*
D03*
X590551D02*
D03*
X593651D02*
D03*
X596851D02*
D03*
X599951D02*
D03*
X603151D02*
D03*
X606251D02*
D03*
D37*
X568451Y476426D02*
D03*
Y479526D02*
D03*
Y482726D02*
D03*
Y485826D02*
D03*
Y489026D02*
D03*
Y492126D02*
D03*
Y495226D02*
D03*
Y498426D02*
D03*
Y501526D02*
D03*
Y504726D02*
D03*
Y507826D02*
D03*
X612651D02*
D03*
Y504726D02*
D03*
Y501526D02*
D03*
Y498426D02*
D03*
Y495226D02*
D03*
Y492126D02*
D03*
Y489026D02*
D03*
Y485826D02*
D03*
Y482726D02*
D03*
Y479526D02*
D03*
Y476426D02*
D03*
D38*
X548751Y625000D02*
D03*
Y623032D02*
D03*
Y621063D02*
D03*
Y619095D02*
D03*
Y617126D02*
D03*
Y615158D02*
D03*
Y613189D02*
D03*
Y611221D02*
D03*
Y609252D02*
D03*
Y607283D02*
D03*
Y605315D02*
D03*
Y603346D02*
D03*
Y601378D02*
D03*
Y599409D02*
D03*
Y597441D02*
D03*
Y595472D02*
D03*
Y593504D02*
D03*
Y591535D02*
D03*
Y589567D02*
D03*
Y587598D02*
D03*
Y585630D02*
D03*
Y583661D02*
D03*
Y581693D02*
D03*
Y579724D02*
D03*
Y577756D02*
D03*
Y575787D02*
D03*
Y573819D02*
D03*
Y571850D02*
D03*
Y569882D02*
D03*
Y567913D02*
D03*
Y565945D02*
D03*
Y563976D02*
D03*
Y562008D02*
D03*
Y560039D02*
D03*
Y558071D02*
D03*
Y556102D02*
D03*
X632351D02*
D03*
Y558071D02*
D03*
Y560039D02*
D03*
Y562008D02*
D03*
Y563976D02*
D03*
Y565945D02*
D03*
Y567913D02*
D03*
Y569882D02*
D03*
Y571850D02*
D03*
Y573819D02*
D03*
Y575787D02*
D03*
Y577756D02*
D03*
Y579724D02*
D03*
Y581693D02*
D03*
Y583661D02*
D03*
Y585630D02*
D03*
Y587598D02*
D03*
Y589567D02*
D03*
Y591535D02*
D03*
Y593504D02*
D03*
Y595472D02*
D03*
Y597441D02*
D03*
Y599409D02*
D03*
Y601378D02*
D03*
Y603346D02*
D03*
Y605315D02*
D03*
Y607283D02*
D03*
Y609252D02*
D03*
Y611221D02*
D03*
Y613189D02*
D03*
Y615158D02*
D03*
Y617126D02*
D03*
Y619095D02*
D03*
Y621063D02*
D03*
Y623032D02*
D03*
Y625000D02*
D03*
D39*
X556102Y548751D02*
D03*
X558071D02*
D03*
X560039D02*
D03*
X562008D02*
D03*
X563976D02*
D03*
X565945D02*
D03*
X567913D02*
D03*
X569882D02*
D03*
X571850D02*
D03*
X573819D02*
D03*
X575787D02*
D03*
X577756D02*
D03*
X579724D02*
D03*
X581693D02*
D03*
X583661D02*
D03*
X585630D02*
D03*
X587598D02*
D03*
X589567D02*
D03*
X591535D02*
D03*
X593504D02*
D03*
X595472D02*
D03*
X597441D02*
D03*
X599409D02*
D03*
X601378D02*
D03*
X603346D02*
D03*
X605315D02*
D03*
X607283D02*
D03*
X609252D02*
D03*
X611221D02*
D03*
X613189D02*
D03*
X615158D02*
D03*
X617126D02*
D03*
X619095D02*
D03*
X621063D02*
D03*
X623032D02*
D03*
X625000D02*
D03*
Y632351D02*
D03*
X623032D02*
D03*
X621063D02*
D03*
X619095D02*
D03*
X617126D02*
D03*
X615158D02*
D03*
X613189D02*
D03*
X611221D02*
D03*
X609252D02*
D03*
X607283D02*
D03*
X605315D02*
D03*
X603346D02*
D03*
X601378D02*
D03*
X599409D02*
D03*
X597441D02*
D03*
X595472D02*
D03*
X593504D02*
D03*
X591535D02*
D03*
X589567D02*
D03*
X587598D02*
D03*
X585630D02*
D03*
X583661D02*
D03*
X581693D02*
D03*
X579724D02*
D03*
X577756D02*
D03*
X575787D02*
D03*
X573819D02*
D03*
X571850D02*
D03*
X569882D02*
D03*
X567913D02*
D03*
X565945D02*
D03*
X563976D02*
D03*
X562008D02*
D03*
X560039D02*
D03*
X558071D02*
D03*
X556102D02*
D03*
D43*
X875000Y581997D02*
X881664D01*
X878332D01*
Y572000D01*
X886663D02*
X889995D01*
X891661Y573666D01*
Y576998D01*
X889995Y578664D01*
X886663D01*
X884997Y576998D01*
Y573666D01*
X886663Y572000D01*
X894993Y568668D02*
Y578664D01*
X899992D01*
X901658Y576998D01*
Y573666D01*
X899992Y572000D01*
X894993D01*
X914987D02*
Y581997D01*
X919985D01*
X921652Y580331D01*
Y576998D01*
X919985Y575332D01*
X914987D01*
X926650Y578664D02*
X929982D01*
X931648Y576998D01*
Y572000D01*
X926650D01*
X924984Y573666D01*
X926650Y575332D01*
X931648D01*
X934981Y572000D02*
X939979D01*
X941645Y573666D01*
X939979Y575332D01*
X936647D01*
X934981Y576998D01*
X936647Y578664D01*
X941645D01*
X946644Y580331D02*
Y578664D01*
X944977D01*
X948310D01*
X946644D01*
Y573666D01*
X948310Y572000D01*
X958306D02*
X954974D01*
X953308Y573666D01*
Y576998D01*
X954974Y578664D01*
X958306D01*
X959972Y576998D01*
Y575332D01*
X953308D01*
M02*
