G04 Layer_Color=8388736*
%FSLAX25Y25*%
%MOIN*%
G70*
G01*
G75*
%ADD43C,0.02000*%
%ADD63R,0.03950X0.03556*%
%ADD64R,0.03162X0.06706*%
%ADD65R,0.03071X0.04055*%
%ADD66R,0.04646X0.04055*%
%ADD67R,0.09855X0.09855*%
G04:AMPARAMS|DCode=68|XSize=35.56mil|YSize=39.5mil|CornerRadius=0mil|HoleSize=0mil|Usage=FLASHONLY|Rotation=225.000|XOffset=0mil|YOffset=0mil|HoleType=Round|Shape=Rectangle|*
%AMROTATEDRECTD68*
4,1,4,-0.00139,0.02654,0.02654,-0.00139,0.00139,-0.02654,-0.02654,0.00139,-0.00139,0.02654,0.0*
%
%ADD68ROTATEDRECTD68*%

%ADD69R,0.04343X0.04737*%
%ADD70R,0.06115X0.02375*%
%ADD71R,0.08280X0.07887*%
%ADD72R,0.07099X0.09068*%
%ADD73R,0.04737X0.04343*%
%ADD74R,0.30328X0.30328*%
%ADD75R,0.01784X0.03950*%
%ADD76R,0.03950X0.01784*%
G04:AMPARAMS|DCode=77|XSize=37.53mil|YSize=41.47mil|CornerRadius=6.22mil|HoleSize=0mil|Usage=FLASHONLY|Rotation=180.000|XOffset=0mil|YOffset=0mil|HoleType=Round|Shape=RoundedRectangle|*
%AMROUNDEDRECTD77*
21,1,0.03753,0.02904,0,0,180.0*
21,1,0.02510,0.04147,0,0,180.0*
1,1,0.01243,-0.01255,0.01452*
1,1,0.01243,0.01255,0.01452*
1,1,0.01243,0.01255,-0.01452*
1,1,0.01243,-0.01255,-0.01452*
%
%ADD77ROUNDEDRECTD77*%
%ADD78R,0.03556X0.03950*%
%ADD79C,0.02178*%
%ADD80R,0.42139X0.33871*%
%ADD81R,0.04934X0.13792*%
%ADD82R,0.06902X0.05918*%
%ADD83R,0.04567X0.01811*%
%ADD84R,0.02953X0.01772*%
%ADD85R,0.04567X0.02205*%
%ADD86R,0.03511X0.02716*%
G04:AMPARAMS|DCode=87|XSize=47.37mil|YSize=43.43mil|CornerRadius=0mil|HoleSize=0mil|Usage=FLASHONLY|Rotation=135.000|XOffset=0mil|YOffset=0mil|HoleType=Round|Shape=Rectangle|*
%AMROTATEDRECTD87*
4,1,4,0.03210,-0.00139,0.00139,-0.03210,-0.03210,0.00139,-0.00139,0.03210,0.03210,-0.00139,0.0*
%
%ADD87ROTATEDRECTD87*%

G04:AMPARAMS|DCode=88|XSize=35.56mil|YSize=39.5mil|CornerRadius=0mil|HoleSize=0mil|Usage=FLASHONLY|Rotation=315.000|XOffset=0mil|YOffset=0mil|HoleType=Round|Shape=Rectangle|*
%AMROTATEDRECTD88*
4,1,4,-0.02654,-0.00139,0.00139,0.02654,0.02654,0.00139,-0.00139,-0.02654,-0.02654,-0.00139,0.0*
%
%ADD88ROTATEDRECTD88*%

%ADD89R,0.02800X0.06600*%
%ADD90R,0.06600X0.02800*%
%ADD91R,0.06600X0.01700*%
%ADD92R,0.01700X0.06600*%
%ADD93C,0.05800*%
%ADD94C,0.07300*%
%ADD95R,0.07300X0.07300*%
%ADD96O,0.05131X0.04343*%
%ADD97R,0.05131X0.04343*%
%ADD98R,0.07300X0.07300*%
%ADD99C,0.25800*%
%ADD100C,0.09213*%
%ADD101C,0.11824*%
%ADD102C,0.03200*%
D43*
X875000Y545997D02*
X881664D01*
X878332D01*
Y536000D01*
X886663D02*
X889995D01*
X891661Y537666D01*
Y540998D01*
X889995Y542664D01*
X886663D01*
X884997Y540998D01*
Y537666D01*
X886663Y536000D01*
X894993Y532668D02*
Y542664D01*
X899992D01*
X901658Y540998D01*
Y537666D01*
X899992Y536000D01*
X894993D01*
X921652Y544331D02*
X919985Y545997D01*
X916653D01*
X914987Y544331D01*
Y542664D01*
X916653Y540998D01*
X919985D01*
X921652Y539332D01*
Y537666D01*
X919985Y536000D01*
X916653D01*
X914987Y537666D01*
X926650Y536000D02*
X929982D01*
X931648Y537666D01*
Y540998D01*
X929982Y542664D01*
X926650D01*
X924984Y540998D01*
Y537666D01*
X926650Y536000D01*
X934981D02*
X938313D01*
X936647D01*
Y545997D01*
X934981D01*
X949976D02*
Y536000D01*
X944977D01*
X943311Y537666D01*
Y540998D01*
X944977Y542664D01*
X949976D01*
X958306Y536000D02*
X954974D01*
X953308Y537666D01*
Y540998D01*
X954974Y542664D01*
X958306D01*
X959972Y540998D01*
Y539332D01*
X953308D01*
X963305Y542664D02*
Y536000D01*
Y539332D01*
X964971Y540998D01*
X966637Y542664D01*
X968303D01*
D63*
X682875Y663386D02*
D03*
X687599D02*
D03*
X679134Y685039D02*
D03*
X674409D02*
D03*
X617717Y472441D02*
D03*
X622441D02*
D03*
X570079Y463583D02*
D03*
X574803D02*
D03*
X466929Y472441D02*
D03*
X462205D02*
D03*
X466929Y492126D02*
D03*
X462205D02*
D03*
X466929Y511811D02*
D03*
X462205D02*
D03*
X469095Y628937D02*
D03*
X473819D02*
D03*
X466929Y669291D02*
D03*
X462205D02*
D03*
X466929Y688976D02*
D03*
X462205D02*
D03*
X466929Y708661D02*
D03*
X462205D02*
D03*
X419882Y600394D02*
D03*
X424606D02*
D03*
X522047Y588583D02*
D03*
X517323D02*
D03*
X461614Y592520D02*
D03*
X466339D02*
D03*
X462205Y602362D02*
D03*
X466929D02*
D03*
X551378Y541339D02*
D03*
X556102D02*
D03*
X627362Y482283D02*
D03*
X622638D02*
D03*
X627362Y489173D02*
D03*
X622638D02*
D03*
X552756Y480315D02*
D03*
X557480D02*
D03*
X552756Y485236D02*
D03*
X557480D02*
D03*
X535039Y595472D02*
D03*
X539764D02*
D03*
X534646Y612598D02*
D03*
X539370D02*
D03*
X543898Y633858D02*
D03*
X548622D02*
D03*
X424606Y580709D02*
D03*
X419882D02*
D03*
X683661Y570866D02*
D03*
X688386D02*
D03*
X648032Y585630D02*
D03*
X643307D02*
D03*
X648032Y567913D02*
D03*
X643307D02*
D03*
X561614Y737205D02*
D03*
X566339D02*
D03*
X586024Y737205D02*
D03*
X581299D02*
D03*
X595079Y737205D02*
D03*
X599803D02*
D03*
X626378Y737205D02*
D03*
X621654D02*
D03*
D64*
X679134Y677953D02*
D03*
X682874Y670472D02*
D03*
X675394D02*
D03*
D65*
X618110Y460433D02*
D03*
Y466732D02*
D03*
D66*
X613976Y460433D02*
D03*
X622244D02*
D03*
Y466732D02*
D03*
X613976D02*
D03*
D67*
X448000Y619142D02*
D03*
Y636858D02*
D03*
D68*
X494781Y560337D02*
D03*
X491440Y563678D02*
D03*
X501670Y562306D02*
D03*
X498330Y565647D02*
D03*
X617812Y535731D02*
D03*
X614471Y539072D02*
D03*
D69*
X568110Y457677D02*
D03*
X574803D02*
D03*
X574213Y661417D02*
D03*
X567520D02*
D03*
X696260Y611221D02*
D03*
X689567D02*
D03*
X663779Y588583D02*
D03*
X657087D02*
D03*
D70*
X410138Y595669D02*
D03*
Y585433D02*
D03*
Y590551D02*
D03*
Y593110D02*
D03*
Y587992D02*
D03*
D71*
X399606Y605512D02*
D03*
Y575591D02*
D03*
D72*
X409646Y602756D02*
D03*
Y578346D02*
D03*
D73*
X475197Y622244D02*
D03*
X467717D02*
D03*
Y613976D02*
D03*
X475197D02*
D03*
X735394Y641339D02*
D03*
Y648032D02*
D03*
X725394Y641339D02*
D03*
Y648032D02*
D03*
X457677Y578346D02*
D03*
Y585039D02*
D03*
X638779Y481890D02*
D03*
Y488583D02*
D03*
X542323Y485630D02*
D03*
Y478937D02*
D03*
X523622Y605905D02*
D03*
Y612598D02*
D03*
D74*
X492126Y590551D02*
D03*
D75*
X506890Y573130D02*
D03*
X504921D02*
D03*
X502953Y573130D02*
D03*
X500984Y573130D02*
D03*
X499016D02*
D03*
X497047D02*
D03*
X495079D02*
D03*
X493110D02*
D03*
X491142Y573130D02*
D03*
X489173Y573130D02*
D03*
X487205D02*
D03*
X485236D02*
D03*
X483268D02*
D03*
X481299D02*
D03*
X479331Y573130D02*
D03*
X477362D02*
D03*
Y607972D02*
D03*
X479331D02*
D03*
X481299Y607972D02*
D03*
X483268D02*
D03*
X485236D02*
D03*
X487205D02*
D03*
X489173D02*
D03*
X491142D02*
D03*
X493110D02*
D03*
X495079D02*
D03*
X497047D02*
D03*
X499016D02*
D03*
X500984D02*
D03*
X502953D02*
D03*
X504921D02*
D03*
X506890D02*
D03*
D76*
X474705Y575787D02*
D03*
Y577756D02*
D03*
Y579724D02*
D03*
Y581693D02*
D03*
Y583661D02*
D03*
Y585630D02*
D03*
Y587598D02*
D03*
Y589567D02*
D03*
Y591535D02*
D03*
Y593504D02*
D03*
Y595472D02*
D03*
Y597441D02*
D03*
Y599409D02*
D03*
Y601378D02*
D03*
Y603346D02*
D03*
Y605315D02*
D03*
X509547Y605315D02*
D03*
Y603346D02*
D03*
Y601378D02*
D03*
Y599409D02*
D03*
X509547Y597441D02*
D03*
Y595472D02*
D03*
Y593504D02*
D03*
X509547Y591535D02*
D03*
X509547Y589567D02*
D03*
X509547Y587598D02*
D03*
Y585630D02*
D03*
Y583661D02*
D03*
X509547Y581693D02*
D03*
Y579724D02*
D03*
Y577756D02*
D03*
Y575787D02*
D03*
D77*
X455709Y472441D02*
D03*
X449803D02*
D03*
X455709Y492126D02*
D03*
X449803D02*
D03*
X455709Y511811D02*
D03*
X449803D02*
D03*
X455709Y669291D02*
D03*
X449803D02*
D03*
X455709Y688976D02*
D03*
X449803D02*
D03*
X455709Y708661D02*
D03*
X449803D02*
D03*
D78*
X490158Y620472D02*
D03*
Y615748D02*
D03*
X426181Y614567D02*
D03*
Y609842D02*
D03*
X427165Y509252D02*
D03*
Y504528D02*
D03*
X524606Y706299D02*
D03*
Y711024D02*
D03*
X516732Y706299D02*
D03*
Y711024D02*
D03*
X524606Y514173D02*
D03*
Y509449D02*
D03*
X516732Y514173D02*
D03*
Y509449D02*
D03*
X583661Y536024D02*
D03*
Y540748D02*
D03*
X627953Y536024D02*
D03*
Y540748D02*
D03*
X582677Y455315D02*
D03*
Y460039D02*
D03*
X546260Y544882D02*
D03*
Y549606D02*
D03*
X595472Y455315D02*
D03*
Y460039D02*
D03*
X607283Y457283D02*
D03*
Y462008D02*
D03*
X577756Y644095D02*
D03*
Y639370D02*
D03*
X419291Y609842D02*
D03*
Y614567D02*
D03*
X503583Y447933D02*
D03*
Y443209D02*
D03*
X513583Y447933D02*
D03*
Y443209D02*
D03*
X596850Y646063D02*
D03*
Y641339D02*
D03*
X611221Y644095D02*
D03*
Y639370D02*
D03*
X673228Y590945D02*
D03*
Y586221D02*
D03*
X705709Y588189D02*
D03*
Y592913D02*
D03*
X633858Y637205D02*
D03*
Y632480D02*
D03*
X642717Y618504D02*
D03*
Y613779D02*
D03*
D79*
X696850Y582677D02*
D03*
X692913D02*
D03*
X688976D02*
D03*
X685039D02*
D03*
X681102D02*
D03*
X696850Y586614D02*
D03*
X692913D02*
D03*
X688976D02*
D03*
X685039D02*
D03*
X681102D02*
D03*
X696850Y590551D02*
D03*
X692913D02*
D03*
X688976D02*
D03*
X685039D02*
D03*
X681102D02*
D03*
X696850Y594488D02*
D03*
X692913D02*
D03*
X688976D02*
D03*
X685039D02*
D03*
X681102D02*
D03*
X696850Y598425D02*
D03*
X692913D02*
D03*
X688976D02*
D03*
X685039D02*
D03*
X681102D02*
D03*
D80*
X725394Y699803D02*
D03*
D81*
X735394Y662205D02*
D03*
X715394D02*
D03*
X725394D02*
D03*
D82*
X476476Y520669D02*
D03*
X507776D02*
D03*
X476476Y502953D02*
D03*
X507776D02*
D03*
Y699803D02*
D03*
X476476D02*
D03*
X507776Y717520D02*
D03*
X476476D02*
D03*
Y481299D02*
D03*
X507776D02*
D03*
X476476Y463583D02*
D03*
X507776D02*
D03*
X476476Y678150D02*
D03*
X507776D02*
D03*
X476476Y660433D02*
D03*
X507776D02*
D03*
D83*
X445472Y597441D02*
D03*
X445472Y599409D02*
D03*
X440354Y597441D02*
D03*
D84*
X439567Y595472D02*
D03*
X439567Y593504D02*
D03*
X446260D02*
D03*
Y595472D02*
D03*
D85*
X440354Y599606D02*
D03*
D86*
X442913Y593976D02*
D03*
D87*
X597043Y530114D02*
D03*
X601776Y534847D02*
D03*
D88*
X504623Y619781D02*
D03*
X501282Y616440D02*
D03*
D89*
X606251Y470026D02*
D03*
X603151D02*
D03*
X599951D02*
D03*
X596851D02*
D03*
X593651D02*
D03*
X590551D02*
D03*
X587451D02*
D03*
X584251D02*
D03*
X581151D02*
D03*
X577951D02*
D03*
X574851D02*
D03*
Y514226D02*
D03*
X577951D02*
D03*
X581151D02*
D03*
X584251D02*
D03*
X587451D02*
D03*
X590551D02*
D03*
X593651D02*
D03*
X596851D02*
D03*
X599951D02*
D03*
X603151D02*
D03*
X606251D02*
D03*
D90*
X568451Y476426D02*
D03*
Y479526D02*
D03*
Y482726D02*
D03*
Y485826D02*
D03*
Y489026D02*
D03*
Y492126D02*
D03*
Y495226D02*
D03*
Y498426D02*
D03*
Y501526D02*
D03*
Y504726D02*
D03*
Y507826D02*
D03*
X612651D02*
D03*
Y504726D02*
D03*
Y501526D02*
D03*
Y498426D02*
D03*
Y495226D02*
D03*
Y492126D02*
D03*
Y489026D02*
D03*
Y485826D02*
D03*
Y482726D02*
D03*
Y479526D02*
D03*
Y476426D02*
D03*
D91*
X548751Y625000D02*
D03*
Y623032D02*
D03*
Y621063D02*
D03*
Y619095D02*
D03*
Y617126D02*
D03*
Y615158D02*
D03*
Y613189D02*
D03*
Y611221D02*
D03*
Y609252D02*
D03*
Y607283D02*
D03*
Y605315D02*
D03*
Y603346D02*
D03*
Y601378D02*
D03*
Y599409D02*
D03*
Y597441D02*
D03*
Y595472D02*
D03*
Y593504D02*
D03*
Y591535D02*
D03*
Y589567D02*
D03*
Y587598D02*
D03*
Y585630D02*
D03*
Y583661D02*
D03*
Y581693D02*
D03*
Y579724D02*
D03*
Y577756D02*
D03*
Y575787D02*
D03*
Y573819D02*
D03*
Y571850D02*
D03*
Y569882D02*
D03*
Y567913D02*
D03*
Y565945D02*
D03*
Y563976D02*
D03*
Y562008D02*
D03*
Y560039D02*
D03*
Y558071D02*
D03*
Y556102D02*
D03*
X632351D02*
D03*
Y558071D02*
D03*
Y560039D02*
D03*
Y562008D02*
D03*
Y563976D02*
D03*
Y565945D02*
D03*
Y567913D02*
D03*
Y569882D02*
D03*
Y571850D02*
D03*
Y573819D02*
D03*
Y575787D02*
D03*
Y577756D02*
D03*
Y579724D02*
D03*
Y581693D02*
D03*
Y583661D02*
D03*
Y585630D02*
D03*
Y587598D02*
D03*
Y589567D02*
D03*
Y591535D02*
D03*
Y593504D02*
D03*
Y595472D02*
D03*
Y597441D02*
D03*
Y599409D02*
D03*
Y601378D02*
D03*
Y603346D02*
D03*
Y605315D02*
D03*
Y607283D02*
D03*
Y609252D02*
D03*
Y611221D02*
D03*
Y613189D02*
D03*
Y615158D02*
D03*
Y617126D02*
D03*
Y619095D02*
D03*
Y621063D02*
D03*
Y623032D02*
D03*
Y625000D02*
D03*
D92*
X556102Y548751D02*
D03*
X558071D02*
D03*
X560039D02*
D03*
X562008D02*
D03*
X563976D02*
D03*
X565945D02*
D03*
X567913D02*
D03*
X569882D02*
D03*
X571850D02*
D03*
X573819D02*
D03*
X575787D02*
D03*
X577756D02*
D03*
X579724D02*
D03*
X581693D02*
D03*
X583661D02*
D03*
X585630D02*
D03*
X587598D02*
D03*
X589567D02*
D03*
X591535D02*
D03*
X593504D02*
D03*
X595472D02*
D03*
X597441D02*
D03*
X599409D02*
D03*
X601378D02*
D03*
X603346D02*
D03*
X605315D02*
D03*
X607283D02*
D03*
X609252D02*
D03*
X611221D02*
D03*
X613189D02*
D03*
X615158D02*
D03*
X617126D02*
D03*
X619095D02*
D03*
X621063D02*
D03*
X623032D02*
D03*
X625000D02*
D03*
Y632351D02*
D03*
X623032D02*
D03*
X621063D02*
D03*
X619095D02*
D03*
X617126D02*
D03*
X615158D02*
D03*
X613189D02*
D03*
X611221D02*
D03*
X609252D02*
D03*
X607283D02*
D03*
X605315D02*
D03*
X603346D02*
D03*
X601378D02*
D03*
X599409D02*
D03*
X597441D02*
D03*
X595472D02*
D03*
X593504D02*
D03*
X591535D02*
D03*
X589567D02*
D03*
X587598D02*
D03*
X585630D02*
D03*
X583661D02*
D03*
X581693D02*
D03*
X579724D02*
D03*
X577756D02*
D03*
X575787D02*
D03*
X573819D02*
D03*
X571850D02*
D03*
X569882D02*
D03*
X567913D02*
D03*
X565945D02*
D03*
X563976D02*
D03*
X562008D02*
D03*
X560039D02*
D03*
X558071D02*
D03*
X556102D02*
D03*
D93*
X767717Y590551D02*
D03*
X537402Y535350D02*
D03*
Y545350D02*
D03*
Y555350D02*
D03*
Y565350D02*
D03*
X767717Y708661D02*
D03*
Y669291D02*
D03*
Y629921D02*
D03*
X574803Y443898D02*
D03*
X596850Y659449D02*
D03*
X606850D02*
D03*
X616850D02*
D03*
X626850D02*
D03*
D94*
X708347Y768701D02*
D03*
X718347D02*
D03*
X728346D02*
D03*
X453583Y412402D02*
D03*
X463583D02*
D03*
X473583D02*
D03*
X483583D02*
D03*
X493583D02*
D03*
X503583D02*
D03*
X513583D02*
D03*
X412402Y657835D02*
D03*
Y727835D02*
D03*
Y717835D02*
D03*
Y707835D02*
D03*
Y697835D02*
D03*
Y687835D02*
D03*
Y677835D02*
D03*
Y667835D02*
D03*
Y647835D02*
D03*
X689134Y412402D02*
D03*
X768701Y512913D02*
D03*
Y502913D02*
D03*
Y492913D02*
D03*
Y482913D02*
D03*
Y472913D02*
D03*
Y462913D02*
D03*
Y452913D02*
D03*
X555472Y768701D02*
D03*
X565472D02*
D03*
X575472D02*
D03*
X585472D02*
D03*
X595472D02*
D03*
X605472D02*
D03*
X615472D02*
D03*
X442913D02*
D03*
X452913D02*
D03*
X462913D02*
D03*
X472913D02*
D03*
X482913D02*
D03*
D95*
X738346D02*
D03*
X443583Y412402D02*
D03*
X679134D02*
D03*
X625472Y768701D02*
D03*
X492913D02*
D03*
D96*
X403543Y542323D02*
D03*
Y547244D02*
D03*
Y488189D02*
D03*
Y502953D02*
D03*
Y493110D02*
D03*
Y498032D02*
D03*
D97*
Y552165D02*
D03*
Y507874D02*
D03*
D98*
X412402Y737835D02*
D03*
X768701Y442913D02*
D03*
D99*
X767717Y413386D02*
D03*
Y767717D02*
D03*
X413386D02*
D03*
Y413386D02*
D03*
D100*
X570866D02*
D03*
X610236D02*
D03*
D101*
X580866Y403386D02*
D03*
Y423386D02*
D03*
X560866D02*
D03*
Y403386D02*
D03*
X620236D02*
D03*
Y423386D02*
D03*
X600236D02*
D03*
Y403386D02*
D03*
D102*
X569685Y467717D02*
D03*
X564173Y463386D02*
D03*
X563386Y457874D02*
D03*
X568110Y453150D02*
D03*
X579134Y453937D02*
D03*
Y459842D02*
D03*
X586221D02*
D03*
Y453937D02*
D03*
X541339Y490158D02*
D03*
X537402Y485433D02*
D03*
Y478346D02*
D03*
X546063Y475197D02*
D03*
X552165Y476378D02*
D03*
Y489173D02*
D03*
X599213Y455512D02*
D03*
X627953Y478346D02*
D03*
X643701Y481299D02*
D03*
X635827Y478346D02*
D03*
X643701Y489173D02*
D03*
X635827Y492126D02*
D03*
X682875Y616142D02*
D03*
X682677Y611221D02*
D03*
X684646Y611221D02*
D03*
X703150Y611220D02*
D03*
X701181Y611221D02*
D03*
X675394Y659646D02*
D03*
X675394Y661614D02*
D03*
Y663583D02*
D03*
X687599Y658465D02*
D03*
X687599Y656496D02*
D03*
X674409Y691929D02*
D03*
X674409Y689961D02*
D03*
X679134Y693898D02*
D03*
X682875Y620079D02*
D03*
Y618110D02*
D03*
X679134Y691929D02*
D03*
Y689961D02*
D03*
X698817Y589566D02*
D03*
X701772Y581693D02*
D03*
X642717Y607283D02*
D03*
X660433Y583661D02*
D03*
X617126Y643701D02*
D03*
X615158Y639764D02*
D03*
X596850Y637795D02*
D03*
X612205Y648622D02*
D03*
X616142Y648622D02*
D03*
X621063D02*
D03*
X638779Y589567D02*
D03*
Y585630D02*
D03*
X622244Y455512D02*
D03*
X613976Y449606D02*
D03*
X609252Y466535D02*
D03*
X607283Y452756D02*
D03*
X601378Y450787D02*
D03*
Y459646D02*
D03*
X448000Y626150D02*
D03*
Y628118D02*
D03*
Y630087D02*
D03*
X450000Y606000D02*
D03*
X490158Y552734D02*
D03*
X509842Y557086D02*
D03*
X574803Y559055D02*
D03*
X569882Y561024D02*
D03*
X497688Y569243D02*
D03*
X505905Y562008D02*
D03*
X488189Y565945D02*
D03*
X492942Y568898D02*
D03*
X590551Y737205D02*
D03*
X577756Y692913D02*
D03*
X586614Y701772D02*
D03*
X580709Y705709D02*
D03*
X586614Y711614D02*
D03*
X529134Y514173D02*
D03*
X512402D02*
D03*
X534449Y577756D02*
D03*
X725394Y695866D02*
D03*
X717520D02*
D03*
X721457D02*
D03*
X729331D02*
D03*
X733268D02*
D03*
X729331Y699803D02*
D03*
X733268D02*
D03*
Y703740D02*
D03*
X729331D02*
D03*
X725394D02*
D03*
X721457D02*
D03*
X717520D02*
D03*
Y699803D02*
D03*
X721457D02*
D03*
X725394D02*
D03*
X558071Y491142D02*
D03*
X558119Y476426D02*
D03*
X596851Y508858D02*
D03*
X587451D02*
D03*
X570866Y520669D02*
D03*
X573819Y526575D02*
D03*
X620079Y542323D02*
D03*
X556102Y534449D02*
D03*
X561024D02*
D03*
X581151Y520669D02*
D03*
X595472D02*
D03*
X576772Y522638D02*
D03*
X609252Y554134D02*
D03*
X599409Y523622D02*
D03*
X608268Y543307D02*
D03*
X565945Y534449D02*
D03*
X603839Y540354D02*
D03*
X568451Y531050D02*
D03*
X598425Y538878D02*
D03*
X524606Y570865D02*
D03*
X489605Y568929D02*
D03*
X492126Y590551D02*
D03*
X480315D02*
D03*
X503937D02*
D03*
X492126Y578740D02*
D03*
X531496Y608268D02*
D03*
X535433Y586614D02*
D03*
X492126Y520669D02*
D03*
Y463583D02*
D03*
X541339Y601841D02*
D03*
X522638Y581693D02*
D03*
X539370Y599409D02*
D03*
X528543Y605315D02*
D03*
X593504Y638779D02*
D03*
X439961Y492126D02*
D03*
Y511811D02*
D03*
Y472441D02*
D03*
X480315Y563976D02*
D03*
X483268Y561024D02*
D03*
X508504Y447933D02*
D03*
X479331Y552165D02*
D03*
X741142Y664370D02*
D03*
Y660433D02*
D03*
Y662402D02*
D03*
X415748Y614567D02*
D03*
X429724D02*
D03*
X422736D02*
D03*
X720079Y641339D02*
D03*
X730315D02*
D03*
X740551D02*
D03*
X715394Y653937D02*
D03*
Y649606D02*
D03*
Y651772D02*
D03*
X520669Y570866D02*
D03*
X521654Y565551D02*
D03*
X502953Y551181D02*
D03*
X463583Y564961D02*
D03*
X465551Y555118D02*
D03*
X481299Y567913D02*
D03*
X473425Y561024D02*
D03*
X480315Y578740D02*
D03*
X503937D02*
D03*
Y602362D02*
D03*
X497047Y558071D02*
D03*
X499016Y553150D02*
D03*
X492126Y544291D02*
D03*
X620079Y556102D02*
D03*
X623032Y559055D02*
D03*
X625000Y543701D02*
D03*
X436024Y488189D02*
D03*
X502953Y612205D02*
D03*
X506890Y616142D02*
D03*
X605315Y531307D02*
D03*
X593504Y533653D02*
D03*
X627953Y531496D02*
D03*
X417126Y585433D02*
D03*
X415158D02*
D03*
X419095D02*
D03*
X420669Y605315D02*
D03*
X424606D02*
D03*
X422638D02*
D03*
X499902Y612205D02*
D03*
X481299D02*
D03*
X483268Y615158D02*
D03*
X490158Y612205D02*
D03*
X494488Y620472D02*
D03*
X486221Y602362D02*
D03*
X498032D02*
D03*
X492126D02*
D03*
X480315D02*
D03*
X486221Y590551D02*
D03*
X498032D02*
D03*
X470472Y602362D02*
D03*
X433071Y493110D02*
D03*
X431102Y509252D02*
D03*
X464567Y628937D02*
D03*
X467717Y618307D02*
D03*
X459449Y622244D02*
D03*
X475197Y617913D02*
D03*
X513779Y607283D02*
D03*
X515748Y595472D02*
D03*
X467520Y578740D02*
D03*
X465551Y584646D02*
D03*
X469488Y588583D02*
D03*
X450787D02*
D03*
X462008Y585039D02*
D03*
Y578346D02*
D03*
X470472Y592520D02*
D03*
X457677D02*
D03*
X513189Y706299D02*
D03*
X528150D02*
D03*
X484252Y621063D02*
D03*
X478346Y644685D02*
D03*
X495079Y612205D02*
D03*
X508858Y622047D02*
D03*
X506890Y612205D02*
D03*
X513604Y603522D02*
D03*
X520669Y598425D02*
D03*
X526575Y591535D02*
D03*
X513779Y588583D02*
D03*
X478346Y533465D02*
D03*
X497206Y616967D02*
D03*
X518700Y562991D02*
D03*
X514763Y566928D02*
D03*
X529528Y557087D02*
D03*
X474409Y539370D02*
D03*
X478505Y537243D02*
D03*
X511811Y541339D02*
D03*
X520669Y509449D02*
D03*
X554134Y537402D02*
D03*
X550197D02*
D03*
X583661Y526575D02*
D03*
X587598Y522638D02*
D03*
X589567Y537402D02*
D03*
X587598Y554134D02*
D03*
X587205Y532480D02*
D03*
X621063Y537402D02*
D03*
X613189Y543307D02*
D03*
X621063Y532480D02*
D03*
X574803Y554134D02*
D03*
X607283Y492126D02*
D03*
X573624Y479526D02*
D03*
X573672Y495226D02*
D03*
X607283Y485826D02*
D03*
X562008Y485236D02*
D03*
Y480315D02*
D03*
X548228D02*
D03*
X541339Y474409D02*
D03*
X582677Y464567D02*
D03*
Y450787D02*
D03*
X595669Y451181D02*
D03*
X595472Y464567D02*
D03*
X584251Y475350D02*
D03*
X577951D02*
D03*
X593651D02*
D03*
X521654Y557087D02*
D03*
X513221Y563453D02*
D03*
X535433Y604138D02*
D03*
X618110Y482283D02*
D03*
Y489173D02*
D03*
X631890D02*
D03*
X631890Y482283D02*
D03*
X640748Y493110D02*
D03*
Y477362D02*
D03*
X543307Y572835D02*
D03*
Y568898D02*
D03*
Y595472D02*
D03*
X535039Y591929D02*
D03*
X538386Y606299D02*
D03*
X543307Y612598D02*
D03*
X527953D02*
D03*
X523622Y601378D02*
D03*
X546260Y553150D02*
D03*
X546260Y540354D02*
D03*
X581693Y687992D02*
D03*
X574803D02*
D03*
X588583Y650591D02*
D03*
X586614Y647638D02*
D03*
X590551Y653543D02*
D03*
X599409Y649606D02*
D03*
X603346Y646654D02*
D03*
X607283Y643701D02*
D03*
X513548Y623784D02*
D03*
X523622Y617126D02*
D03*
X515748Y660433D02*
D03*
X553150Y633858D02*
D03*
X539370Y633858D02*
D03*
X573819Y638779D02*
D03*
X577756Y647638D02*
D03*
X554134Y611221D02*
D03*
Y591535D02*
D03*
Y569882D02*
D03*
X575787Y626968D02*
D03*
X595472D02*
D03*
X611221D02*
D03*
X593504Y649606D02*
D03*
X567520Y656890D02*
D03*
X574213D02*
D03*
X702756Y601378D02*
D03*
X671260Y580709D02*
D03*
X692913Y570866D02*
D03*
X669291Y587598D02*
D03*
X702756Y596457D02*
D03*
X705709Y583661D02*
D03*
X633858Y627953D02*
D03*
Y641732D02*
D03*
X625000Y640748D02*
D03*
X664370Y582677D02*
D03*
X652559Y585630D02*
D03*
X638779Y567913D02*
D03*
X652559D02*
D03*
X626968Y569882D02*
D03*
X679134Y570866D02*
D03*
X658465Y599409D02*
D03*
X652559Y605315D02*
D03*
X646654Y611221D02*
D03*
X638779Y613189D02*
D03*
X626968Y611221D02*
D03*
X639173Y618504D02*
D03*
X651575Y589567D02*
D03*
X669290Y592519D02*
D03*
X441929Y602362D02*
D03*
X449803D02*
D03*
X445866D02*
D03*
X453740D02*
D03*
X456693Y610236D02*
D03*
X651024Y609385D02*
D03*
X656810Y603660D02*
D03*
X662715Y597754D02*
D03*
X525591Y583661D02*
D03*
X529528Y586614D02*
D03*
X530511Y581692D02*
D03*
X530512Y577756D02*
D03*
X399606Y575787D02*
D03*
Y605315D02*
D03*
X409646Y602756D02*
D03*
Y578346D02*
D03*
X546063Y489370D02*
D03*
X627953Y494095D02*
D03*
X548228Y485236D02*
D03*
X581151Y475350D02*
D03*
X596851D02*
D03*
X573776Y482726D02*
D03*
Y485826D02*
D03*
X607327Y482726D02*
D03*
Y489026D02*
D03*
X444882Y669291D02*
D03*
Y688976D02*
D03*
Y708661D02*
D03*
X512795Y627953D02*
D03*
X506890Y633858D02*
D03*
X508858Y629921D02*
D03*
X502953Y635827D02*
D03*
X517717Y616142D02*
D03*
Y621063D02*
D03*
X432087Y591535D02*
D03*
Y593504D02*
D03*
X430118Y592520D02*
D03*
X513779Y678150D02*
D03*
Y699803D02*
D03*
M02*
