G04 Layer_Color=65535*
%FSLAX25Y25*%
%MOIN*%
G70*
G01*
G75*
%ADD40C,0.00800*%
%ADD43C,0.02000*%
%ADD44C,0.01200*%
%ADD45C,0.01000*%
%ADD56C,0.00984*%
%ADD57C,0.00600*%
%ADD58C,0.00630*%
%ADD59C,0.00500*%
%ADD60C,0.00787*%
%ADD61C,0.04000*%
%ADD62R,0.75787X0.11811*%
G36*
X673282Y520580D02*
X673606Y520441D01*
X673792Y520256D01*
X673838Y520210D01*
Y520163D01*
X674069Y519747D01*
X674162Y519330D01*
Y519191D01*
Y519052D01*
Y518960D01*
Y518913D01*
X673560Y509516D01*
X673421Y509007D01*
X673190Y508637D01*
X673051Y508359D01*
X672958Y508313D01*
Y508267D01*
X672820Y508081D01*
X672634Y507989D01*
X672310Y507804D01*
X672079Y507758D01*
X668653D01*
X668422Y507804D01*
X668237Y507850D01*
X667959Y508035D01*
X667728Y508174D01*
X667681Y508267D01*
X667496Y508683D01*
X667404Y509100D01*
Y509239D01*
Y509378D01*
Y509470D01*
Y509516D01*
X668052Y519515D01*
X668144Y519839D01*
X668237Y520071D01*
X668329Y520256D01*
X668376Y520302D01*
X668607Y520534D01*
X668885Y520626D01*
X669070Y520672D01*
X670088D01*
X669996Y519515D01*
X669348Y510674D01*
X669394Y510396D01*
X669440Y510303D01*
Y510257D01*
X669533Y510165D01*
X669672Y510118D01*
X669718Y510072D01*
X671199D01*
X671338Y510118D01*
X671431Y510165D01*
X671523Y510211D01*
Y510257D01*
X671709Y510535D01*
X671755Y510628D01*
Y510674D01*
X672218Y517756D01*
Y517895D01*
X672171Y518034D01*
X672125Y518080D01*
X672079Y518126D01*
X671986Y518219D01*
X671894Y518312D01*
X670274D01*
X670459Y520672D01*
X673097D01*
X673282Y520580D01*
D02*
G37*
G36*
X724109Y518636D02*
Y518589D01*
X724063Y518450D01*
X724016Y518404D01*
X723924Y518312D01*
X719850D01*
X719295Y510072D01*
X723322D01*
X723415Y510026D01*
X723461Y509979D01*
X723553Y509840D01*
Y509794D01*
X723368Y507758D01*
X717212D01*
X718184Y520672D01*
X724248D01*
X724109Y518636D01*
D02*
G37*
G36*
X710083Y520580D02*
X710361Y520441D01*
X710546Y520256D01*
X710592Y520210D01*
Y520163D01*
X710824Y519747D01*
X710916Y519330D01*
Y519191D01*
Y519052D01*
Y518960D01*
Y518913D01*
X710315Y509516D01*
X710222Y509007D01*
X710037Y508637D01*
X709898Y508359D01*
X709805Y508313D01*
Y508267D01*
X709620Y508081D01*
X709435Y507989D01*
X709111Y507804D01*
X708833Y507758D01*
X705454D01*
X705269Y507804D01*
X705084Y507850D01*
X704760Y508035D01*
X704574Y508174D01*
X704482Y508267D01*
X704297Y508683D01*
X704204Y509100D01*
X704158Y509239D01*
Y509378D01*
Y509470D01*
Y509516D01*
X704899Y519515D01*
X704945Y519839D01*
X705037Y520071D01*
X705130Y520256D01*
X705176Y520302D01*
X705408Y520534D01*
X705686Y520626D01*
X705871Y520672D01*
X706843D01*
X706750Y519515D01*
X706148Y510674D01*
Y510535D01*
Y510396D01*
X706195Y510303D01*
Y510257D01*
X706333Y510165D01*
X706426Y510118D01*
X706519Y510072D01*
X707954D01*
X708092Y510118D01*
X708185Y510165D01*
X708278Y510211D01*
Y510257D01*
X708417Y510396D01*
X708463Y510535D01*
X708509Y510628D01*
Y510674D01*
X708972Y517756D01*
Y517895D01*
X708926Y518034D01*
X708880Y518080D01*
X708833Y518126D01*
X708741Y518219D01*
X708648Y518312D01*
X707028D01*
X707213Y520672D01*
X709898D01*
X710083Y520580D01*
D02*
G37*
G36*
X660090D02*
X660367Y520441D01*
X660599Y520256D01*
X660645Y520210D01*
Y520163D01*
X660784Y519978D01*
X660877Y519747D01*
X660969Y519330D01*
Y519191D01*
Y519052D01*
Y518960D01*
Y518913D01*
X660692Y514794D01*
X660599Y514284D01*
X660414Y513914D01*
X660275Y513636D01*
X660182Y513590D01*
Y513544D01*
X659997Y513359D01*
X659812Y513266D01*
X659488Y513081D01*
X659210Y513034D01*
X656803D01*
X656942Y515395D01*
X658377D01*
X658516Y515442D01*
X658608Y515488D01*
X658701Y515534D01*
X658840Y515766D01*
X658886Y515858D01*
Y515905D01*
Y515951D01*
Y515997D01*
X658979Y517756D01*
Y517895D01*
Y518034D01*
X658932Y518080D01*
Y518126D01*
X658747Y518265D01*
X658701Y518312D01*
X656711D01*
X655970Y507758D01*
X654072D01*
X654998Y520672D01*
X659905D01*
X660090Y520580D01*
D02*
G37*
G36*
X690410Y511831D02*
X687355D01*
X687679Y516553D01*
X690780D01*
X690410Y511831D01*
D02*
G37*
G36*
X704343Y518636D02*
X704250Y518497D01*
X704204Y518450D01*
Y518404D01*
X704112Y518312D01*
X700408D01*
X700316Y518265D01*
X700270Y518219D01*
X700223Y518173D01*
X700084Y517941D01*
X700038Y517895D01*
Y517849D01*
Y517802D01*
Y517756D01*
X699992D01*
X699529Y510674D01*
X699575Y510442D01*
X699621Y510350D01*
Y510303D01*
X699714Y510211D01*
X699807Y510118D01*
X699853Y510072D01*
X703510D01*
X703602Y510026D01*
X703649Y509979D01*
X703695Y509887D01*
Y509840D01*
Y509794D01*
X703556Y507758D01*
X698835D01*
X698603Y507804D01*
X698418Y507850D01*
X698140Y508035D01*
X697909Y508174D01*
X697862Y508267D01*
X697677Y508683D01*
X697585Y509100D01*
X697538Y509239D01*
Y509378D01*
Y509470D01*
Y509516D01*
X698233Y518913D01*
X698325Y519423D01*
X698464Y519839D01*
X698649Y520071D01*
X698696Y520163D01*
X698881Y520348D01*
X699066Y520441D01*
X699390Y520626D01*
X699668Y520672D01*
X704482D01*
X704343Y518636D01*
D02*
G37*
G36*
X666663Y520580D02*
X666941Y520441D01*
X667172Y520256D01*
X667218Y520210D01*
Y520163D01*
X667450Y519747D01*
X667543Y519330D01*
X667589Y519191D01*
Y519052D01*
Y518960D01*
Y518913D01*
X667311Y514794D01*
X667172Y514284D01*
X666987Y513914D01*
X666848Y513636D01*
X666756Y513590D01*
Y513544D01*
X666570Y513359D01*
X666385Y513266D01*
X666061Y513081D01*
X665830Y513034D01*
X665274D01*
X666802Y507758D01*
X664904D01*
X663376Y513034D01*
X663561Y515395D01*
X664996D01*
X665089Y515442D01*
X665182Y515488D01*
X665274Y515534D01*
X665459Y515766D01*
X665506Y515858D01*
Y515905D01*
Y515951D01*
Y515997D01*
X665645Y517756D01*
Y517895D01*
X665598Y518034D01*
X665552Y518080D01*
X665506Y518126D01*
X665321Y518265D01*
X665274Y518312D01*
X663284D01*
X662543Y507758D01*
X660645D01*
X661571Y520672D01*
X666478D01*
X666663Y520580D01*
D02*
G37*
G36*
X670366Y534004D02*
X670551Y533911D01*
X670690Y533819D01*
X670737Y533773D01*
X670922Y533541D01*
X670968Y533356D01*
X671014Y533217D01*
Y533171D01*
Y531458D01*
X671523Y531273D01*
X671986Y531134D01*
X672264Y531041D01*
X672310Y530995D01*
X672357D01*
X672820Y530856D01*
X673190Y530764D01*
X673468Y530717D01*
X673514Y530671D01*
X673560D01*
X673977Y530578D01*
X674347Y530486D01*
X674579Y530440D01*
X674671D01*
X675041Y530393D01*
X675319Y530347D01*
X675504Y530301D01*
X675597D01*
X675875Y530254D01*
X676060D01*
X676199Y530208D01*
X723322D01*
X723924Y530116D01*
X724525Y530023D01*
X724988Y529930D01*
X725405Y529838D01*
X725729Y529745D01*
X725914Y529699D01*
X726007Y529653D01*
X726562Y529421D01*
X727071Y529190D01*
X727534Y528912D01*
X727951Y528634D01*
X728275Y528403D01*
X728506Y528218D01*
X728645Y528079D01*
X728692Y528032D01*
X729108Y527616D01*
X729479Y527153D01*
X729803Y526690D01*
X730034Y526273D01*
X730265Y525903D01*
X730404Y525625D01*
X730451Y525440D01*
X730497Y525348D01*
X730682Y524746D01*
X730867Y524190D01*
X730960Y523635D01*
X731006Y523126D01*
X731052Y522663D01*
X731099Y522339D01*
Y522107D01*
Y522015D01*
Y510535D01*
X731052Y509887D01*
X731006Y509239D01*
X730913Y508683D01*
X730821Y508174D01*
X730682Y507758D01*
X730589Y507433D01*
X730543Y507248D01*
X730497Y507156D01*
X730265Y506600D01*
X729941Y506091D01*
X729664Y505628D01*
X729386Y505211D01*
X729108Y504887D01*
X728877Y504656D01*
X728738Y504517D01*
X728692Y504471D01*
X728275Y504101D01*
X727812Y503777D01*
X727349Y503499D01*
X726933Y503267D01*
X726562Y503082D01*
X726285Y502943D01*
X726099Y502897D01*
X726007Y502851D01*
X725405Y502666D01*
X724803Y502527D01*
X724248Y502434D01*
X723739Y502388D01*
X723322Y502342D01*
X722998Y502295D01*
X656063D01*
X655183Y502249D01*
X654813Y502203D01*
X654489Y502156D01*
X654257Y502064D01*
X654072Y502017D01*
X653933Y501971D01*
X653887D01*
X653285Y501740D01*
X652822Y501462D01*
X652683Y501323D01*
X652544Y501231D01*
X652498Y501184D01*
X652452Y501138D01*
X652035Y500675D01*
X651758Y500212D01*
X651665Y499981D01*
X651572Y499842D01*
X651526Y499749D01*
Y499703D01*
X651341Y499055D01*
X651248Y498407D01*
X651202Y498083D01*
Y497898D01*
Y497713D01*
Y497666D01*
Y497203D01*
X651248Y496833D01*
X651295Y496463D01*
X651387Y496139D01*
X651434Y495907D01*
X651480Y495722D01*
X651526Y495630D01*
Y495583D01*
X651804Y495028D01*
X652128Y494565D01*
X652359Y494287D01*
X652406Y494241D01*
X652452Y494195D01*
X652915Y493870D01*
X653378Y493593D01*
X653563Y493500D01*
X653748Y493408D01*
X653841Y493361D01*
X653887D01*
X654628Y493176D01*
X655322Y493084D01*
X655600Y493037D01*
X656479D01*
X656942Y493084D01*
X657173D01*
X657359Y493130D01*
X657544D01*
X658007Y493222D01*
X658516Y493315D01*
X658979Y493408D01*
X659442Y493546D01*
X659858Y493685D01*
X660229Y493778D01*
X660414Y493824D01*
X660506Y493870D01*
X660553D01*
X660599Y493917D01*
X661479Y494195D01*
X661895Y494333D01*
X662265Y494519D01*
X662590Y494657D01*
X662867Y494750D01*
X663052Y494796D01*
X663099Y494843D01*
X664163Y495305D01*
X664673Y495583D01*
X665135Y495768D01*
X665506Y496000D01*
X665830Y496139D01*
X666015Y496231D01*
X666108Y496278D01*
X666246Y496324D01*
X666293D01*
X666478Y496370D01*
X668885D01*
X671199Y496324D01*
X673421D01*
X674440Y496278D01*
X677819D01*
X678421Y496231D01*
X679578D01*
X682078Y496185D01*
X684531Y496139D01*
X686799D01*
X687817Y496092D01*
X688790D01*
X689715Y496046D01*
X691798D01*
X692308Y496000D01*
X692956D01*
X695409Y495954D01*
X697770D01*
X698881Y495907D01*
X700918D01*
X701843Y495861D01*
X704158D01*
X704713Y495815D01*
X705778D01*
X708046Y495768D01*
X710176D01*
X711148Y495722D01*
X712953D01*
X713740Y495676D01*
X715684D01*
X716193Y495630D01*
X717397D01*
X717675Y495676D01*
X717906D01*
X718138Y495768D01*
X718323Y495815D01*
X718415Y495861D01*
X718462D01*
X718600Y495954D01*
X718647Y496000D01*
X718693Y496046D01*
X718739Y496185D01*
X718785Y496370D01*
Y496555D01*
Y496602D01*
X718878Y497111D01*
X719017Y497527D01*
X719156Y497759D01*
X719248Y497851D01*
X719434Y498037D01*
X719619Y498175D01*
X719989Y498361D01*
X720267Y498407D01*
X720591D01*
X720822Y498314D01*
X721193Y498129D01*
X721378Y497944D01*
X721470Y497898D01*
Y497851D01*
X721748Y497435D01*
X721887Y497018D01*
X721933Y496879D01*
Y496740D01*
Y496648D01*
Y496602D01*
Y494195D01*
X726562D01*
X726979Y494148D01*
X727349Y494102D01*
X727673Y493963D01*
X727951Y493824D01*
X728182Y493685D01*
X728368Y493593D01*
X728460Y493500D01*
X728506Y493454D01*
X728784Y493176D01*
X729016Y492898D01*
X729201Y492574D01*
X729293Y492297D01*
X729386Y492065D01*
X729432Y491880D01*
X729479Y491741D01*
Y491695D01*
X731886D01*
X731978Y491649D01*
X732024Y491602D01*
Y491556D01*
X732117Y491463D01*
X732163Y491325D01*
Y491278D01*
Y491232D01*
Y491093D01*
X732117Y491001D01*
X732071Y490954D01*
X732024Y490908D01*
X731839Y490815D01*
X729479D01*
X729386Y490399D01*
X729247Y490075D01*
X729108Y489751D01*
X728923Y489473D01*
X728784Y489242D01*
X728645Y489103D01*
X728553Y489010D01*
X728506Y488964D01*
X728182Y488732D01*
X727858Y488547D01*
X727534Y488455D01*
X727210Y488362D01*
X726979Y488316D01*
X726747Y488269D01*
X721933D01*
Y485909D01*
X721841Y485399D01*
X721702Y485029D01*
X721563Y484751D01*
X721470Y484705D01*
Y484659D01*
X721285Y484474D01*
X721100Y484335D01*
X720776Y484196D01*
X720498Y484103D01*
X720359D01*
X720128Y484150D01*
X719897Y484196D01*
X719572Y484381D01*
X719341Y484566D01*
X719248Y484659D01*
X718971Y485075D01*
X718832Y485492D01*
X718785Y485816D01*
Y485862D01*
Y485909D01*
Y486186D01*
X718739Y486372D01*
X718693Y486464D01*
X718647Y486557D01*
X718554Y486603D01*
X718508Y486649D01*
X718462D01*
X718276Y486742D01*
X718138Y486788D01*
X717952Y486834D01*
X717906D01*
X717628Y486881D01*
X717073D01*
X715129Y486834D01*
X713184D01*
X711240Y486788D01*
X710361D01*
X709527Y486742D01*
X707352D01*
X706843Y486695D01*
X705778D01*
X703464Y486649D01*
X701149D01*
X700038Y486603D01*
X698001D01*
X697029Y486557D01*
X694668D01*
X694067Y486510D01*
X692956D01*
X690502Y486464D01*
X688095Y486418D01*
X685827D01*
X684762Y486372D01*
X683790D01*
X682865Y486325D01*
X680735D01*
X680226Y486279D01*
X679578D01*
X677078Y486233D01*
X674671D01*
X673560Y486186D01*
X669672D01*
X668885Y486140D01*
X666524D01*
X666385Y486186D01*
X666293D01*
X666154Y486233D01*
X666108D01*
X664580Y487020D01*
X663839Y487344D01*
X663191Y487621D01*
X662590Y487853D01*
X662034Y488084D01*
X661479Y488269D01*
X661016Y488455D01*
X660599Y488593D01*
X660229Y488686D01*
X659951Y488779D01*
X659673Y488871D01*
X659488Y488917D01*
X659349Y488964D01*
X659210D01*
X658747Y489056D01*
X658331Y489103D01*
X657636Y489242D01*
X657127Y489334D01*
X656711Y489380D01*
X656433Y489427D01*
X656248Y489473D01*
X656063D01*
X655414Y489519D01*
X654813Y489566D01*
X654211Y489658D01*
X653702Y489751D01*
X653285Y489843D01*
X652961Y489889D01*
X652776Y489982D01*
X652683D01*
X652128Y490214D01*
X651572Y490445D01*
X651110Y490723D01*
X650739Y491001D01*
X650415Y491232D01*
X650137Y491417D01*
X649999Y491556D01*
X649952Y491602D01*
X649582Y492019D01*
X649212Y492482D01*
X648934Y492945D01*
X648702Y493361D01*
X648471Y493685D01*
X648332Y494009D01*
X648286Y494195D01*
X648240Y494241D01*
X648054Y494843D01*
X647916Y495444D01*
X647777Y496000D01*
X647730Y496555D01*
X647684Y497018D01*
X647638Y497342D01*
Y497574D01*
Y497666D01*
X647684Y498314D01*
X647730Y498962D01*
X647823Y499518D01*
X647962Y500027D01*
X648054Y500444D01*
X648147Y500768D01*
X648193Y500953D01*
X648240Y501045D01*
X648471Y501601D01*
X648749Y502110D01*
X649026Y502573D01*
X649304Y502990D01*
X649582Y503314D01*
X649767Y503545D01*
X649906Y503684D01*
X649952Y503730D01*
X650415Y504101D01*
X650878Y504425D01*
X651341Y504702D01*
X651758Y504934D01*
X652128Y505073D01*
X652406Y505211D01*
X652637Y505304D01*
X652683D01*
X653285Y505489D01*
X653887Y505628D01*
X654489Y505721D01*
X654998Y505813D01*
X655414D01*
X655785Y505860D01*
X723137D01*
X723553Y505906D01*
X723877Y505952D01*
X724201Y506045D01*
X724479Y506091D01*
X724664Y506137D01*
X724757Y506184D01*
X724803D01*
X725405Y506461D01*
X725868Y506739D01*
X726053Y506878D01*
X726192Y506971D01*
X726238Y507063D01*
X726285D01*
X726655Y507480D01*
X726933Y507943D01*
X727025Y508128D01*
X727118Y508267D01*
X727164Y508359D01*
Y508405D01*
X727395Y509100D01*
X727488Y509794D01*
X727534Y510072D01*
Y510303D01*
Y510489D01*
Y510535D01*
Y522015D01*
Y522478D01*
X727488Y522848D01*
X727442Y523218D01*
X727349Y523542D01*
X727303Y523774D01*
X727210Y523959D01*
X727164Y524052D01*
Y524098D01*
X726886Y524653D01*
X726609Y525070D01*
X726377Y525348D01*
X726331Y525440D01*
X726285D01*
X725822Y525811D01*
X725312Y526088D01*
X725127Y526181D01*
X724942Y526273D01*
X724850Y526320D01*
X724803D01*
X724109Y526505D01*
X723415Y526597D01*
X723137Y526644D01*
X675828D01*
X675643Y526597D01*
X675597D01*
X675273Y526551D01*
X674995Y526505D01*
X674764Y526459D01*
X674717Y526412D01*
X674671D01*
X674301Y526320D01*
X673931Y526227D01*
X673653Y526181D01*
X673606Y526135D01*
X673560D01*
X673144Y526042D01*
X672773Y525903D01*
X672449Y525857D01*
X672403Y525811D01*
X672357D01*
X671894Y525672D01*
X671477Y525533D01*
X671292Y525440D01*
X671153Y525394D01*
X671061Y525348D01*
X671014D01*
Y523681D01*
X670968Y523404D01*
X670875Y523218D01*
X670783Y523079D01*
X670737Y523033D01*
X670505Y522894D01*
X670320Y522802D01*
X670181Y522755D01*
X657081D01*
X656803Y522802D01*
X656618Y522894D01*
X656479Y522987D01*
X656433Y523033D01*
X656294Y523265D01*
X656248Y523450D01*
X656201Y523635D01*
Y523681D01*
Y524607D01*
X650554D01*
X650323Y524653D01*
X650137Y524700D01*
X650045Y524746D01*
X649999Y524792D01*
X649906Y524977D01*
X649860Y525116D01*
X649813Y525255D01*
Y525301D01*
Y525348D01*
Y531504D01*
X649860Y531689D01*
X649906Y531828D01*
X649952Y531921D01*
X649999Y531967D01*
X650184Y532106D01*
X650369Y532152D01*
X650508Y532199D01*
X656201D01*
Y533171D01*
X656248Y533402D01*
X656340Y533587D01*
X656387Y533726D01*
X656433Y533773D01*
X656664Y533958D01*
X656849Y534004D01*
X657035Y534050D01*
X670135D01*
X670366Y534004D01*
D02*
G37*
G36*
X679902Y520580D02*
X680180Y520441D01*
X680411Y520256D01*
X680457Y520210D01*
Y520163D01*
X680689Y519747D01*
X680781Y519330D01*
Y519191D01*
Y519052D01*
Y518960D01*
Y518913D01*
X680550Y515673D01*
X680504Y515349D01*
X680411Y515071D01*
X680365Y514886D01*
X680318Y514840D01*
X680180Y514608D01*
X680041Y514423D01*
X679902Y514284D01*
X679856Y514238D01*
X679994Y514053D01*
X680133Y513822D01*
X680180Y513683D01*
X680226Y513590D01*
X680318Y513312D01*
Y513034D01*
Y512849D01*
Y512757D01*
X680133Y509516D01*
X680041Y509007D01*
X679856Y508637D01*
X679717Y508359D01*
X679624Y508313D01*
Y508267D01*
X679439Y508081D01*
X679254Y507989D01*
X678930Y507804D01*
X678652Y507758D01*
X676245D01*
X676384Y510072D01*
X677773D01*
X677911Y510118D01*
X678050Y510165D01*
X678097Y510211D01*
X678143Y510257D01*
X678282Y510535D01*
X678328Y510628D01*
Y510674D01*
X678421Y512479D01*
Y512618D01*
X678374Y512757D01*
X678328Y512803D01*
Y512849D01*
X678235Y512942D01*
X678143Y513034D01*
X676615D01*
X676662Y513914D01*
X676708Y514516D01*
X676754Y515395D01*
X678189D01*
X678328Y515442D01*
X678421Y515488D01*
X678513Y515534D01*
Y515581D01*
X678606Y515719D01*
X678652Y515858D01*
Y515951D01*
Y515997D01*
X678791Y517756D01*
Y517895D01*
X678745Y518034D01*
X678698Y518080D01*
X678652Y518126D01*
X678559Y518219D01*
X678467Y518312D01*
X676523D01*
X675736Y507758D01*
X673884D01*
X674764Y520672D01*
X679717D01*
X679902Y520580D01*
D02*
G37*
G36*
X697724Y518636D02*
X697677Y518497D01*
X697631Y518450D01*
Y518404D01*
X697492Y518312D01*
X693928D01*
X693789Y518265D01*
X693696Y518219D01*
X693650Y518173D01*
X693604Y518126D01*
X693465Y517895D01*
X693419Y517802D01*
Y517756D01*
X693326Y515997D01*
Y515858D01*
X693372Y515719D01*
X693419Y515627D01*
Y515581D01*
X693511Y515488D01*
X693650Y515442D01*
X693696Y515395D01*
X696798D01*
X696983Y515349D01*
X697122Y515257D01*
X697214Y515164D01*
X697261Y515118D01*
X697353Y514932D01*
X697446Y514747D01*
Y514562D01*
Y514516D01*
X697353Y513636D01*
X697307Y512479D01*
X697076Y509516D01*
X696983Y509007D01*
X696798Y508637D01*
X696659Y508359D01*
X696566Y508313D01*
Y508267D01*
X696427Y508081D01*
X696242Y507989D01*
X695918Y507804D01*
X695641Y507758D01*
X690826D01*
X690965Y509794D01*
X691011Y509933D01*
X691058Y509979D01*
X691197Y510072D01*
X694761D01*
X694900Y510118D01*
X695039Y510165D01*
X695085Y510211D01*
X695131Y510257D01*
X695224Y510396D01*
X695270Y510535D01*
Y510628D01*
Y510674D01*
X695409Y512479D01*
Y512618D01*
X695363Y512757D01*
X695317Y512803D01*
X695270Y512849D01*
X695178Y512942D01*
X695085Y513034D01*
X691891D01*
X691706Y513081D01*
X691567Y513173D01*
X691474Y513220D01*
X691428Y513266D01*
X691335Y513497D01*
X691289Y513683D01*
X691243Y513868D01*
Y513914D01*
X691289Y514794D01*
X691428Y515997D01*
X691567Y517756D01*
X691613Y518913D01*
X691706Y519423D01*
X691891Y519839D01*
X692030Y520071D01*
X692123Y520163D01*
X692308Y520348D01*
X692493Y520441D01*
X692817Y520626D01*
X693095Y520672D01*
X697862D01*
X697724Y518636D01*
D02*
G37*
G36*
X687355D02*
Y518589D01*
X687308Y518450D01*
X687262Y518404D01*
X687169Y518312D01*
X683096D01*
X682540Y510072D01*
X686568D01*
X686614Y510026D01*
X686660Y509979D01*
X686706Y509933D01*
Y509840D01*
Y509794D01*
X686568Y507758D01*
X680457D01*
X681337Y520672D01*
X687494D01*
X687355Y518636D01*
D02*
G37*
G36*
X723461Y513034D02*
X719850D01*
X720035Y515395D01*
X723692D01*
X723461Y513034D01*
D02*
G37*
G36*
X677165Y602362D02*
Y606299D01*
X681102D01*
X677165Y602362D01*
D02*
G37*
G36*
X686706Y513034D02*
X683050D01*
X683235Y515395D01*
X686938D01*
X686706Y513034D01*
D02*
G37*
G36*
X716656Y520580D02*
X716934Y520441D01*
X717165Y520256D01*
X717212Y520210D01*
Y520163D01*
X717350Y519978D01*
X717443Y519747D01*
X717536Y519330D01*
Y519191D01*
Y519052D01*
Y518960D01*
Y518913D01*
X717304Y514794D01*
X717165Y514284D01*
X716980Y513914D01*
X716841Y513636D01*
X716749Y513590D01*
Y513544D01*
X716564Y513359D01*
X716378Y513266D01*
X716054Y513081D01*
X715823Y513034D01*
X713370D01*
X713509Y515395D01*
X714944D01*
X715082Y515442D01*
X715175Y515488D01*
X715268Y515534D01*
X715360Y515673D01*
X715406Y515766D01*
Y515858D01*
Y515905D01*
X715453Y515951D01*
X715499Y515997D01*
X715591Y517756D01*
Y517895D01*
X715545Y518034D01*
X715499Y518080D01*
X715453Y518126D01*
X715314Y518265D01*
X715268Y518312D01*
X713277D01*
X712536Y507758D01*
X710639D01*
X711518Y520672D01*
X716471D01*
X716656Y520580D01*
D02*
G37*
%LPC*%
G36*
X662034Y492574D02*
X661802Y492436D01*
X661710Y492389D01*
X661664D01*
X661479Y492343D01*
X661432Y492297D01*
X661386D01*
Y490167D01*
X661571Y490121D01*
X661664Y490075D01*
X661941Y490028D01*
X661988Y489982D01*
X662034D01*
Y492574D01*
D02*
G37*
G36*
X663284Y493037D02*
X663052Y492945D01*
X663006Y492898D01*
X662960D01*
X662728Y492806D01*
X662682Y492760D01*
X662636D01*
Y489704D01*
X662867Y489612D01*
X662960Y489566D01*
X663191Y489519D01*
X663284Y489473D01*
Y493037D01*
D02*
G37*
G36*
X726655Y492436D02*
X726470D01*
Y490075D01*
X726562D01*
X726886Y490121D01*
X727118Y490260D01*
X727303Y490352D01*
X727349Y490399D01*
X727581Y490676D01*
X727673Y490954D01*
X727719Y491139D01*
Y491232D01*
X727673Y491556D01*
X727534Y491834D01*
X727395Y492019D01*
X727349Y492065D01*
X727071Y492297D01*
X726840Y492389D01*
X726655Y492436D01*
D02*
G37*
G36*
X725868D02*
X721933D01*
Y490075D01*
X725868D01*
Y492436D01*
D02*
G37*
G36*
X668792Y494611D02*
X667172D01*
Y487899D01*
X669487D01*
X671755Y487945D01*
X673884D01*
X674903Y487992D01*
X677495D01*
X678189Y488038D01*
X679902D01*
X682355Y488084D01*
X684716Y488131D01*
X687910D01*
X688836Y488177D01*
X690502D01*
X691197Y488223D01*
X692863D01*
X695224Y488269D01*
X697538Y488316D01*
X700594D01*
X701519Y488362D01*
X703093D01*
X703741Y488408D01*
X705315D01*
X707537Y488455D01*
X708602D01*
X709620Y488501D01*
X712351D01*
X713184Y488547D01*
X714527D01*
X715129Y488593D01*
X716471D01*
Y493870D01*
X714527Y493917D01*
X712583Y493963D01*
X709805D01*
X708972Y494009D01*
X707491D01*
X706889Y494056D01*
X705315D01*
X703047Y494102D01*
X700825Y494148D01*
X697770D01*
X696844Y494195D01*
X695224D01*
X694530Y494241D01*
X692863D01*
X690456Y494287D01*
X688141Y494333D01*
X687031Y494380D01*
X684947D01*
X683975Y494426D01*
X681615D01*
X681013Y494472D01*
X677449D01*
X675134Y494519D01*
X673005D01*
X671986Y494565D01*
X669487D01*
X668792Y494611D01*
D02*
G37*
G36*
X720174Y495815D02*
X720082Y495491D01*
X719943Y495213D01*
X719850Y495028D01*
X719804Y494935D01*
X719665Y494611D01*
X719480Y494426D01*
X719341Y494287D01*
X719295Y494241D01*
X718971Y494102D01*
X718739Y494056D01*
X718554Y493963D01*
X718462D01*
X718184Y493917D01*
X717999D01*
X717813Y493870D01*
X717767D01*
Y488593D01*
X717999Y488547D01*
X718230Y488501D01*
X718415Y488455D01*
X718462D01*
X718785Y488408D01*
X719017Y488316D01*
X719202Y488269D01*
X719295Y488223D01*
X719526Y488038D01*
X719665Y487807D01*
X719758Y487621D01*
X719804Y487529D01*
X719943Y487205D01*
X720082Y486973D01*
X720128Y486788D01*
X720174Y486695D01*
Y495815D01*
D02*
G37*
G36*
X664626Y493593D02*
X664349Y493454D01*
X664302Y493408D01*
X664256D01*
X664024Y493315D01*
X663978Y493269D01*
X663932D01*
Y489195D01*
X664163Y489103D01*
X664256Y489056D01*
X664487Y488964D01*
X664580Y488917D01*
X664626Y488871D01*
Y493593D01*
D02*
G37*
G36*
X665876Y494148D02*
X665645Y494056D01*
X665552Y494009D01*
X665506D01*
X665321Y493917D01*
X665274Y493870D01*
X665228D01*
Y488593D01*
X665413Y488501D01*
X665506Y488455D01*
X665784Y488362D01*
X665830Y488316D01*
X665876D01*
Y494148D01*
D02*
G37*
G36*
X671061Y529606D02*
X671014D01*
Y527246D01*
X671199Y527292D01*
X671246Y527338D01*
X671431Y527431D01*
X671523D01*
Y529421D01*
X671338Y529467D01*
X671292Y529514D01*
X671246D01*
X671107Y529560D01*
X671061Y529606D01*
D02*
G37*
G36*
X672171Y529190D02*
Y527662D01*
X672681Y527847D01*
Y528958D01*
X672171Y529190D01*
D02*
G37*
G36*
X669255Y532291D02*
X657961D01*
Y524561D01*
X669255D01*
Y532291D01*
D02*
G37*
G36*
X656201Y530764D02*
X651248D01*
Y526042D01*
X656201D01*
Y530764D01*
D02*
G37*
G36*
X659442Y491510D02*
X658701Y491232D01*
X659442Y490954D01*
Y491510D01*
D02*
G37*
G36*
X660738Y492065D02*
X660043Y491787D01*
Y490676D01*
X660738Y490445D01*
Y492065D01*
D02*
G37*
G36*
X673236Y528727D02*
Y528079D01*
X674023Y528449D01*
X673236Y528727D01*
D02*
G37*
%LPD*%
G36*
X654165Y528912D02*
X653100D01*
Y530208D01*
X654165D01*
Y528912D01*
D02*
G37*
G36*
Y526690D02*
X653100D01*
Y527940D01*
X654165D01*
Y526690D01*
D02*
G37*
D40*
X490158Y428150D02*
Y441929D01*
X707014Y744792D02*
X706348Y744125D01*
Y742792D01*
X707014Y742126D01*
X709680D01*
X710347Y742792D01*
Y744125D01*
X709680Y744792D01*
X708347D01*
Y743459D01*
X710347Y746125D02*
X706348D01*
X710347Y748791D01*
X706348D01*
Y750123D02*
X710347D01*
Y752123D01*
X709680Y752789D01*
X707014D01*
X706348Y752123D01*
Y750123D01*
X720346Y742900D02*
Y744233D01*
Y743566D01*
X716348D01*
X717014Y742900D01*
X716348Y746232D02*
X719014D01*
X720346Y747565D01*
X719014Y748898D01*
X716348D01*
X717014Y750231D02*
X716348Y750897D01*
Y752230D01*
X717014Y752897D01*
X717681D01*
X718347Y752230D01*
X719014Y752897D01*
X719680D01*
X720346Y752230D01*
Y750897D01*
X719680Y750231D01*
X719014D01*
X718347Y750897D01*
X717681Y750231D01*
X717014D01*
X718347Y750897D02*
Y752230D01*
X727014Y742126D02*
X726348Y742792D01*
Y744125D01*
X727014Y744792D01*
X727681D01*
X728347Y744125D01*
Y743459D01*
Y744125D01*
X729014Y744792D01*
X729680D01*
X730346Y744125D01*
Y742792D01*
X729680Y742126D01*
X726348Y746125D02*
X729014D01*
X730346Y747458D01*
X729014Y748791D01*
X726348D01*
X727014Y750123D02*
X726348Y750790D01*
Y752123D01*
X727014Y752789D01*
X727681D01*
X728347Y752123D01*
Y751456D01*
Y752123D01*
X729014Y752789D01*
X729680D01*
X730346Y752123D01*
Y750790D01*
X729680Y750123D01*
X655512Y471518D02*
Y467520D01*
X657511D01*
X658178Y468186D01*
Y470852D01*
X657511Y471518D01*
X655512D01*
X659511Y467520D02*
X660843D01*
X660177D01*
Y470186D01*
X659511D01*
X664176Y466187D02*
X664842D01*
X665509Y466853D01*
Y470186D01*
X663509D01*
X662843Y469519D01*
Y468186D01*
X663509Y467520D01*
X665509D01*
X666842D02*
X668174D01*
X667508D01*
Y470186D01*
X666842D01*
X670840Y470852D02*
Y470186D01*
X670174D01*
X671507D01*
X670840D01*
Y468186D01*
X671507Y467520D01*
X674172Y470186D02*
X675505D01*
X676172Y469519D01*
Y467520D01*
X674172D01*
X673506Y468186D01*
X674172Y468853D01*
X676172D01*
X677505Y467520D02*
X678838D01*
X678171D01*
Y471518D01*
X677505D01*
X684836D02*
X687501D01*
X686169D01*
Y467520D01*
X690834D02*
X689501D01*
X688834Y468186D01*
Y469519D01*
X689501Y470186D01*
X690834D01*
X691500Y469519D01*
Y468853D01*
X688834D01*
X692833Y467520D02*
X694833D01*
X695499Y468186D01*
X694833Y468853D01*
X693500D01*
X692833Y469519D01*
X693500Y470186D01*
X695499D01*
X697498Y470852D02*
Y470186D01*
X696832D01*
X698165D01*
X697498D01*
Y468186D01*
X698165Y467520D01*
X704163Y470186D02*
X705496Y467520D01*
X706829Y470186D01*
X708161Y467520D02*
X709494D01*
X708828D01*
Y471518D01*
X708161Y470852D01*
X711494Y467520D02*
Y468186D01*
X712160D01*
Y467520D01*
X711494D01*
X714826Y470852D02*
X715492Y471518D01*
X716825D01*
X717492Y470852D01*
Y468186D01*
X716825Y467520D01*
X715492D01*
X714826Y468186D01*
Y470852D01*
X655512Y474409D02*
Y478408D01*
X657511D01*
X658178Y477742D01*
Y476409D01*
X657511Y475742D01*
X655512D01*
X659511Y477075D02*
Y474409D01*
Y475742D01*
X660177Y476409D01*
X660843Y477075D01*
X661510D01*
X664176Y474409D02*
X665509D01*
X666175Y475076D01*
Y476409D01*
X665509Y477075D01*
X664176D01*
X663509Y476409D01*
Y475076D01*
X664176Y474409D01*
X667508Y478408D02*
Y474409D01*
X669507D01*
X670174Y475076D01*
Y475742D01*
Y476409D01*
X669507Y477075D01*
X667508D01*
X673506Y474409D02*
X672173D01*
X671507Y475076D01*
Y476409D01*
X672173Y477075D01*
X673506D01*
X674172Y476409D01*
Y475742D01*
X671507D01*
X675505Y476409D02*
X678171D01*
X682170Y477742D02*
X681503Y478408D01*
X680170D01*
X679504Y477742D01*
Y477075D01*
X680170Y476409D01*
X681503D01*
X682170Y475742D01*
Y475076D01*
X681503Y474409D01*
X680170D01*
X679504Y475076D01*
X686169Y477075D02*
X684169D01*
X683503Y476409D01*
Y475076D01*
X684169Y474409D01*
X686169D01*
X688168D02*
X689501D01*
X690167Y475076D01*
Y476409D01*
X689501Y477075D01*
X688168D01*
X687501Y476409D01*
Y475076D01*
X688168Y474409D01*
X691500Y473077D02*
Y477075D01*
X693500D01*
X694166Y476409D01*
Y475076D01*
X693500Y474409D01*
X691500D01*
X697498D02*
X696165D01*
X695499Y475076D01*
Y476409D01*
X696165Y477075D01*
X697498D01*
X698165Y476409D01*
Y475742D01*
X695499D01*
X703496Y474409D02*
Y478408D01*
X705496D01*
X706162Y477742D01*
Y476409D01*
X705496Y475742D01*
X703496D01*
X707495Y477075D02*
Y474409D01*
Y475742D01*
X708161Y476409D01*
X708828Y477075D01*
X709494D01*
X712160Y474409D02*
X713493D01*
X714160Y475076D01*
Y476409D01*
X713493Y477075D01*
X712160D01*
X711494Y476409D01*
Y475076D01*
X712160Y474409D01*
X715492Y473077D02*
X716159D01*
X716825Y473743D01*
Y477075D01*
X721490Y474409D02*
X720158D01*
X719491Y475076D01*
Y476409D01*
X720158Y477075D01*
X721490D01*
X722157Y476409D01*
Y475742D01*
X719491D01*
X726156Y477075D02*
X724156D01*
X723490Y476409D01*
Y475076D01*
X724156Y474409D01*
X726156D01*
X728155Y477742D02*
Y477075D01*
X727489D01*
X728822D01*
X728155D01*
Y475076D01*
X728822Y474409D01*
X398031Y551968D02*
X397365D01*
Y552635D01*
X398031D01*
Y551968D01*
Y507677D02*
X397365D01*
Y508344D01*
X398031D01*
Y507677D01*
X553088Y742126D02*
Y744792D01*
Y743459D01*
X557087D01*
X553754Y748791D02*
X553088Y748124D01*
Y746791D01*
X553754Y746125D01*
X556420D01*
X557087Y746791D01*
Y748124D01*
X556420Y748791D01*
X553088Y750123D02*
X557087D01*
X555754D01*
X553088Y752789D01*
X555087Y750790D01*
X557087Y752789D01*
X563754Y744792D02*
X563088Y744125D01*
Y742792D01*
X563754Y742126D01*
X566420D01*
X567087Y742792D01*
Y744125D01*
X566420Y744792D01*
X565087D01*
Y743459D01*
X567087Y746125D02*
X563088D01*
X567087Y748791D01*
X563088D01*
Y750123D02*
X567087D01*
Y752123D01*
X566420Y752789D01*
X563754D01*
X563088Y752123D01*
Y750123D01*
X573088Y742126D02*
Y744792D01*
Y743459D01*
X577087D01*
Y746125D02*
X573088D01*
X574421Y747458D01*
X573088Y748791D01*
X577087D01*
X573754Y752789D02*
X573088Y752123D01*
Y750790D01*
X573754Y750123D01*
X574421D01*
X575087Y750790D01*
Y752123D01*
X575754Y752789D01*
X576420D01*
X577087Y752123D01*
Y750790D01*
X576420Y750123D01*
X603088Y742126D02*
Y744792D01*
Y743459D01*
X607087D01*
X603088Y746125D02*
X607087D01*
Y748124D01*
X606420Y748791D01*
X603754D01*
X603088Y748124D01*
Y746125D01*
Y750123D02*
Y751456D01*
Y750790D01*
X607087D01*
Y750123D01*
Y751456D01*
X613088Y742126D02*
Y744792D01*
Y743459D01*
X617087D01*
X613088Y746125D02*
X617087D01*
Y748124D01*
X616420Y748791D01*
X613754D01*
X613088Y748124D01*
Y746125D01*
Y752123D02*
Y750790D01*
X613754Y750123D01*
X616420D01*
X617087Y750790D01*
Y752123D01*
X616420Y752789D01*
X613754D01*
X613088Y752123D01*
X623754Y742126D02*
X623088Y742792D01*
Y744125D01*
X623754Y744792D01*
X624421D01*
X625087Y744125D01*
Y743459D01*
Y744125D01*
X625754Y744792D01*
X626420D01*
X627087Y744125D01*
Y742792D01*
X626420Y742126D01*
X623088Y746125D02*
X625754D01*
X627087Y747458D01*
X625754Y748791D01*
X623088D01*
X623754Y750123D02*
X623088Y750790D01*
Y752123D01*
X623754Y752789D01*
X624421D01*
X625087Y752123D01*
Y751456D01*
Y752123D01*
X625754Y752789D01*
X626420D01*
X627087Y752123D01*
Y750790D01*
X626420Y750123D01*
X427850Y659511D02*
Y655512D01*
X430516D01*
X434515D02*
X431849D01*
X434515Y658178D01*
Y658844D01*
X433848Y659511D01*
X432515D01*
X431849Y658844D01*
X435848D02*
X436514Y659511D01*
X437847D01*
X438514Y658844D01*
Y656178D01*
X437847Y655512D01*
X436514D01*
X435848Y656178D01*
Y658844D01*
X439847Y659511D02*
Y655512D01*
X441846D01*
X442512Y656178D01*
Y656845D01*
X441846Y657511D01*
X439847D01*
X441846D01*
X442512Y658178D01*
Y658844D01*
X441846Y659511D01*
X439847D01*
X427850Y669511D02*
Y665512D01*
X430516D01*
X434515D02*
X431849D01*
X434515Y668178D01*
Y668844D01*
X433848Y669511D01*
X432515D01*
X431849Y668844D01*
X435848D02*
X436514Y669511D01*
X437847D01*
X438514Y668844D01*
Y666178D01*
X437847Y665512D01*
X436514D01*
X435848Y666178D01*
Y668844D01*
X439847Y665512D02*
Y668178D01*
X441179Y669511D01*
X442512Y668178D01*
Y665512D01*
Y667511D01*
X439847D01*
X427850Y679510D02*
Y675512D01*
X430516D01*
X434515Y679510D02*
X433182Y678844D01*
X431849Y677511D01*
Y676178D01*
X432515Y675512D01*
X433848D01*
X434515Y676178D01*
Y676845D01*
X433848Y677511D01*
X431849D01*
X435848Y679510D02*
Y675512D01*
X437847D01*
X438514Y676178D01*
Y676845D01*
X437847Y677511D01*
X435848D01*
X437847D01*
X438514Y678178D01*
Y678844D01*
X437847Y679510D01*
X435848D01*
X427850Y689510D02*
Y685512D01*
X430516D01*
X434515Y689510D02*
X433182Y688844D01*
X431849Y687511D01*
Y686178D01*
X432515Y685512D01*
X433848D01*
X434515Y686178D01*
Y686845D01*
X433848Y687511D01*
X431849D01*
X435848Y685512D02*
Y688178D01*
X437181Y689510D01*
X438514Y688178D01*
Y685512D01*
Y687511D01*
X435848D01*
X427850Y699510D02*
Y695512D01*
X430516D01*
X433848D02*
Y699510D01*
X431849Y697511D01*
X434515D01*
X435848Y699510D02*
Y695512D01*
X437847D01*
X438514Y696178D01*
Y696845D01*
X437847Y697511D01*
X435848D01*
X437847D01*
X438514Y698178D01*
Y698844D01*
X437847Y699510D01*
X435848D01*
X427850Y709511D02*
Y705512D01*
X430516D01*
X433848D02*
Y709511D01*
X431849Y707511D01*
X434515D01*
X435848Y705512D02*
Y708178D01*
X437181Y709511D01*
X438514Y708178D01*
Y705512D01*
Y707511D01*
X435848D01*
X427850Y719511D02*
Y715512D01*
X430516D01*
X431849Y718844D02*
X432515Y719511D01*
X433848D01*
X434515Y718844D01*
Y718178D01*
X433848Y717511D01*
X433182D01*
X433848D01*
X434515Y716845D01*
Y716178D01*
X433848Y715512D01*
X432515D01*
X431849Y716178D01*
X435848Y719511D02*
Y715512D01*
X437847D01*
X438514Y716178D01*
Y716845D01*
X437847Y717511D01*
X435848D01*
X437847D01*
X438514Y718178D01*
Y718844D01*
X437847Y719511D01*
X435848D01*
X427850Y729510D02*
Y725512D01*
X430516D01*
X431849Y728844D02*
X432515Y729510D01*
X433848D01*
X434515Y728844D01*
Y728178D01*
X433848Y727511D01*
X433182D01*
X433848D01*
X434515Y726845D01*
Y726178D01*
X433848Y725512D01*
X432515D01*
X431849Y726178D01*
X435848Y725512D02*
Y728178D01*
X437181Y729510D01*
X438514Y728178D01*
Y725512D01*
Y727511D01*
X435848D01*
X427850Y738844D02*
X428517Y739510D01*
X429850D01*
X430516Y738844D01*
Y738178D01*
X429850Y737511D01*
X429183D01*
X429850D01*
X430516Y736845D01*
Y736178D01*
X429850Y735512D01*
X428517D01*
X427850Y736178D01*
X431849Y739510D02*
Y736845D01*
X433182Y735512D01*
X434515Y736845D01*
Y739510D01*
X435848Y738844D02*
X436514Y739510D01*
X437847D01*
X438514Y738844D01*
Y738178D01*
X437847Y737511D01*
X437181D01*
X437847D01*
X438514Y736845D01*
Y736178D01*
X437847Y735512D01*
X436514D01*
X435848Y736178D01*
X430516Y648844D02*
X429850Y649510D01*
X428517D01*
X427850Y648844D01*
Y646178D01*
X428517Y645512D01*
X429850D01*
X430516Y646178D01*
Y647511D01*
X429183D01*
X431849Y645512D02*
Y649510D01*
X434515Y645512D01*
Y649510D01*
X435848D02*
Y645512D01*
X437847D01*
X438514Y646178D01*
Y648844D01*
X437847Y649510D01*
X435848D01*
X744792Y514632D02*
X744125Y515298D01*
X742792D01*
X742126Y514632D01*
Y511966D01*
X742792Y511299D01*
X744125D01*
X744792Y511966D01*
Y513299D01*
X743459D01*
X746125Y511299D02*
Y515298D01*
X748791Y511299D01*
Y515298D01*
X750123D02*
Y511299D01*
X752123D01*
X752789Y511966D01*
Y514632D01*
X752123Y515298D01*
X750123D01*
X738750Y505298D02*
X741416D01*
X740083D01*
Y501299D01*
X745415D02*
X742749D01*
X745415Y503965D01*
Y504632D01*
X744748Y505298D01*
X743415D01*
X742749Y504632D01*
X746748Y505298D02*
X749414D01*
Y504632D01*
X746748Y501966D01*
Y501299D01*
X750746Y505298D02*
Y501299D01*
X752746D01*
X753412Y501966D01*
Y502632D01*
X752746Y503299D01*
X750746D01*
X752746D01*
X753412Y503965D01*
Y504632D01*
X752746Y505298D01*
X750746D01*
X738750Y495298D02*
X741416D01*
X740083D01*
Y491299D01*
X745415D02*
X742749D01*
X745415Y493965D01*
Y494631D01*
X744748Y495298D01*
X743415D01*
X742749Y494631D01*
X746748Y495298D02*
X749414D01*
Y494631D01*
X746748Y491966D01*
Y491299D01*
X750746D02*
Y493965D01*
X752079Y495298D01*
X753412Y493965D01*
Y491299D01*
Y493299D01*
X750746D01*
X744792Y484631D02*
X744125Y485298D01*
X742792D01*
X742126Y484631D01*
Y481966D01*
X742792Y481299D01*
X744125D01*
X744792Y481966D01*
Y483299D01*
X743459D01*
X746125Y481299D02*
Y485298D01*
X748791Y481299D01*
Y485298D01*
X750123D02*
Y481299D01*
X752123D01*
X752789Y481966D01*
Y484631D01*
X752123Y485298D01*
X750123D01*
X738750Y475298D02*
X741416D01*
X740083D01*
Y471299D01*
X745415D02*
X742749D01*
X745415Y473965D01*
Y474632D01*
X744748Y475298D01*
X743415D01*
X742749Y474632D01*
X749414Y475298D02*
X746748D01*
Y473299D01*
X748081Y473965D01*
X748747D01*
X749414Y473299D01*
Y471966D01*
X748747Y471299D01*
X747414D01*
X746748Y471966D01*
X750746Y475298D02*
Y471299D01*
X752746D01*
X753412Y471966D01*
Y472632D01*
X752746Y473299D01*
X750746D01*
X752746D01*
X753412Y473965D01*
Y474632D01*
X752746Y475298D01*
X750746D01*
X738750Y465298D02*
X741416D01*
X740083D01*
Y461299D01*
X745415D02*
X742749D01*
X745415Y463965D01*
Y464632D01*
X744748Y465298D01*
X743415D01*
X742749Y464632D01*
X749414Y465298D02*
X746748D01*
Y463299D01*
X748081Y463965D01*
X748747D01*
X749414Y463299D01*
Y461966D01*
X748747Y461299D01*
X747414D01*
X746748Y461966D01*
X750746Y461299D02*
Y463965D01*
X752079Y465298D01*
X753412Y463965D01*
Y461299D01*
Y463299D01*
X750746D01*
X744792Y454632D02*
X744125Y455298D01*
X742792D01*
X742126Y454632D01*
Y451966D01*
X742792Y451299D01*
X744125D01*
X744792Y451966D01*
Y453299D01*
X743459D01*
X746125Y451299D02*
Y455298D01*
X748791Y451299D01*
Y455298D01*
X750123D02*
Y451299D01*
X752123D01*
X752789Y451966D01*
Y454632D01*
X752123Y455298D01*
X750123D01*
X742126Y444631D02*
X742792Y445298D01*
X744125D01*
X744792Y444631D01*
Y443965D01*
X744125Y443299D01*
X743459D01*
X744125D01*
X744792Y442632D01*
Y441966D01*
X744125Y441299D01*
X742792D01*
X742126Y441966D01*
X746125Y445298D02*
Y442632D01*
X747458Y441299D01*
X748791Y442632D01*
Y445298D01*
X750123Y444631D02*
X750790Y445298D01*
X752123D01*
X752789Y444631D01*
Y443965D01*
X752123Y443299D01*
X751456D01*
X752123D01*
X752789Y442632D01*
Y441966D01*
X752123Y441299D01*
X750790D01*
X750123Y441966D01*
X736348Y744792D02*
Y742126D01*
X738347D01*
X737681Y743459D01*
Y744125D01*
X738347Y744792D01*
X739680D01*
X740346Y744125D01*
Y742792D01*
X739680Y742126D01*
X736348Y746125D02*
X739014D01*
X740346Y747458D01*
X739014Y748791D01*
X736348D01*
X737014Y750123D02*
X736348Y750790D01*
Y752123D01*
X737014Y752789D01*
X739680D01*
X740346Y752123D01*
Y750790D01*
X739680Y750123D01*
X737014D01*
X441195Y744792D02*
X440529Y744125D01*
Y742792D01*
X441195Y742126D01*
X443861D01*
X444527Y742792D01*
Y744125D01*
X443861Y744792D01*
X442528D01*
Y743459D01*
X444527Y746125D02*
X440529D01*
X444527Y748791D01*
X440529D01*
Y750123D02*
X444527D01*
Y752123D01*
X443861Y752789D01*
X441195D01*
X440529Y752123D01*
Y750123D01*
X454528Y742126D02*
X450529D01*
Y744125D01*
X451195Y744792D01*
X452528D01*
X453195Y744125D01*
Y742126D01*
Y743459D02*
X454528Y744792D01*
X450529Y746125D02*
X454528D01*
Y748124D01*
X453861Y748791D01*
X453195D01*
X452528Y748124D01*
Y746125D01*
Y748124D01*
X451862Y748791D01*
X451195D01*
X450529Y748124D01*
Y746125D01*
Y752789D02*
Y750123D01*
X452528D01*
X451862Y751456D01*
Y752123D01*
X452528Y752789D01*
X453861D01*
X454528Y752123D01*
Y750790D01*
X453861Y750123D01*
X464528Y742126D02*
X460529D01*
Y744125D01*
X461195Y744792D01*
X462528D01*
X463195Y744125D01*
Y742126D01*
Y743459D02*
X464528Y744792D01*
X460529Y746125D02*
X464528D01*
Y748124D01*
X463861Y748791D01*
X463195D01*
X462528Y748124D01*
Y746125D01*
Y748124D01*
X461862Y748791D01*
X461195D01*
X460529Y748124D01*
Y746125D01*
Y752789D02*
X461195Y751456D01*
X462528Y750123D01*
X463861D01*
X464528Y750790D01*
Y752123D01*
X463861Y752789D01*
X463195D01*
X462528Y752123D01*
Y750123D01*
X474528Y742126D02*
X470529D01*
Y744125D01*
X471195Y744792D01*
X472528D01*
X473195Y744125D01*
Y742126D01*
Y743459D02*
X474528Y744792D01*
X470529Y746125D02*
X474528D01*
Y748124D01*
X473861Y748791D01*
X473195D01*
X472528Y748124D01*
Y746125D01*
Y748124D01*
X471862Y748791D01*
X471195D01*
X470529Y748124D01*
Y746125D01*
X473861Y750123D02*
X474528Y750790D01*
Y752123D01*
X473861Y752789D01*
X471195D01*
X470529Y752123D01*
Y750790D01*
X471195Y750123D01*
X471862D01*
X472528Y750790D01*
Y752789D01*
X484528Y738750D02*
X480529D01*
Y740750D01*
X481195Y741416D01*
X482528D01*
X483195Y740750D01*
Y738750D01*
Y740083D02*
X484528Y741416D01*
X480529Y742749D02*
X484528D01*
Y744748D01*
X483861Y745415D01*
X483195D01*
X482528Y744748D01*
Y742749D01*
Y744748D01*
X481862Y745415D01*
X481195D01*
X480529Y744748D01*
Y742749D01*
X484528Y746748D02*
Y748081D01*
Y747414D01*
X480529D01*
X481195Y746748D01*
Y750080D02*
X480529Y750746D01*
Y752079D01*
X481195Y752746D01*
X481862D01*
X482528Y752079D01*
Y751413D01*
Y752079D01*
X483195Y752746D01*
X483861D01*
X484528Y752079D01*
Y750746D01*
X483861Y750080D01*
X491195Y742126D02*
X490529Y742792D01*
Y744125D01*
X491195Y744792D01*
X491862D01*
X492528Y744125D01*
Y743459D01*
Y744125D01*
X493195Y744792D01*
X493861D01*
X494528Y744125D01*
Y742792D01*
X493861Y742126D01*
X490529Y746125D02*
X493195D01*
X494528Y747458D01*
X493195Y748791D01*
X490529D01*
X491195Y750123D02*
X490529Y750790D01*
Y752123D01*
X491195Y752789D01*
X491862D01*
X492528Y752123D01*
Y751456D01*
Y752123D01*
X493195Y752789D01*
X493861D01*
X494528Y752123D01*
Y750790D01*
X493861Y750123D01*
X688124Y430516D02*
X687458Y429850D01*
Y428517D01*
X688124Y427850D01*
X690790D01*
X691457Y428517D01*
Y429850D01*
X690790Y430516D01*
X689457D01*
Y429183D01*
X691457Y431849D02*
X687458D01*
X691457Y434515D01*
X687458D01*
Y435848D02*
X691457D01*
Y437847D01*
X690790Y438514D01*
X688124D01*
X687458Y437847D01*
Y435848D01*
X678124Y427850D02*
X677458Y428517D01*
Y429850D01*
X678124Y430516D01*
X678791D01*
X679457Y429850D01*
Y429183D01*
Y429850D01*
X680124Y430516D01*
X680790D01*
X681457Y429850D01*
Y428517D01*
X680790Y427850D01*
X677458Y431849D02*
X680124D01*
X681457Y433182D01*
X680124Y434515D01*
X677458D01*
X678124Y435848D02*
X677458Y436514D01*
Y437847D01*
X678124Y438514D01*
X678791D01*
X679457Y437847D01*
Y437181D01*
Y437847D01*
X680124Y438514D01*
X680790D01*
X681457Y437847D01*
Y436514D01*
X680790Y435848D01*
X512573Y430516D02*
X511907Y429850D01*
Y428517D01*
X512573Y427850D01*
X513240D01*
X513906Y428517D01*
Y429850D01*
X514573Y430516D01*
X515239D01*
X515906Y429850D01*
Y428517D01*
X515239Y427850D01*
X512573Y434515D02*
X511907Y433848D01*
Y432515D01*
X512573Y431849D01*
X515239D01*
X515906Y432515D01*
Y433848D01*
X515239Y434515D01*
X511907Y435848D02*
X515906D01*
Y438514D01*
X502573Y430516D02*
X501907Y429850D01*
Y428517D01*
X502573Y427850D01*
X503240D01*
X503906Y428517D01*
Y429850D01*
X504573Y430516D01*
X505239D01*
X505905Y429850D01*
Y428517D01*
X505239Y427850D01*
X501907Y431849D02*
X505905D01*
Y433848D01*
X505239Y434515D01*
X502573D01*
X501907Y433848D01*
Y431849D01*
X505905Y435848D02*
X503240D01*
X501907Y437181D01*
X503240Y438514D01*
X505905D01*
X503906D01*
Y435848D01*
X491907Y427850D02*
X495905D01*
Y430516D01*
X491907Y431849D02*
X495905D01*
Y433848D01*
X495239Y434515D01*
X492573D01*
X491907Y433848D01*
Y431849D01*
X495905Y435848D02*
X493240D01*
X491907Y437181D01*
X493240Y438514D01*
X495905D01*
X493906D01*
Y435848D01*
X492573Y442512D02*
X491907Y441846D01*
Y440513D01*
X492573Y439847D01*
X495239D01*
X495905Y440513D01*
Y441846D01*
X495239Y442512D01*
X485906Y427850D02*
X481907D01*
Y429850D01*
X482573Y430516D01*
X483906D01*
X484573Y429850D01*
Y427850D01*
Y429183D02*
X485906Y430516D01*
X481907Y431849D02*
X485906D01*
Y433848D01*
X485239Y434515D01*
X482573D01*
X481907Y433848D01*
Y431849D01*
Y435848D02*
X482573D01*
X483906Y437181D01*
X482573Y438514D01*
X481907D01*
X483906Y437181D02*
X485906D01*
X472573Y430516D02*
X471907Y429850D01*
Y428517D01*
X472573Y427850D01*
X473240D01*
X473906Y428517D01*
Y429850D01*
X474573Y430516D01*
X475239D01*
X475906Y429850D01*
Y428517D01*
X475239Y427850D01*
X472573Y434515D02*
X471907Y433848D01*
Y432515D01*
X472573Y431849D01*
X473240D01*
X473906Y432515D01*
Y433848D01*
X474573Y434515D01*
X475239D01*
X475906Y433848D01*
Y432515D01*
X475239Y431849D01*
X462573Y430516D02*
X461907Y429850D01*
Y428517D01*
X462573Y427850D01*
X463240D01*
X463906Y428517D01*
Y429850D01*
X464573Y430516D01*
X465239D01*
X465906Y429850D01*
Y428517D01*
X465239Y427850D01*
X462573Y434515D02*
X461907Y433848D01*
Y432515D01*
X462573Y431849D01*
X465239D01*
X465906Y432515D01*
Y433848D01*
X465239Y434515D01*
X461907Y435848D02*
X465906D01*
X464573D01*
X461907Y438514D01*
X463906Y436514D01*
X465906Y438514D01*
X452573Y430516D02*
X451907Y429850D01*
Y428517D01*
X452573Y427850D01*
X453240D01*
X453906Y428517D01*
Y429850D01*
X454573Y430516D01*
X455239D01*
X455905Y429850D01*
Y428517D01*
X455239Y427850D01*
X451907Y431849D02*
X455905D01*
Y433848D01*
X455239Y434515D01*
X452573D01*
X451907Y433848D01*
Y431849D01*
Y437847D02*
Y436514D01*
X452573Y435848D01*
X455239D01*
X455905Y436514D01*
Y437847D01*
X455239Y438514D01*
X452573D01*
X451907Y437847D01*
X442573Y430516D02*
X441907Y429850D01*
Y428517D01*
X442573Y427850D01*
X443240D01*
X443906Y428517D01*
Y429850D01*
X444573Y430516D01*
X445239D01*
X445905Y429850D01*
Y428517D01*
X445239Y427850D01*
X441907Y431849D02*
X445905D01*
Y433848D01*
X445239Y434515D01*
X442573D01*
X441907Y433848D01*
Y431849D01*
Y435848D02*
Y437181D01*
Y436514D01*
X445905D01*
Y435848D01*
Y437181D01*
D43*
X875000Y563997D02*
X881664D01*
X878332D01*
Y554000D01*
X886663D02*
X889995D01*
X891661Y555666D01*
Y558998D01*
X889995Y560665D01*
X886663D01*
X884997Y558998D01*
Y555666D01*
X886663Y554000D01*
X894993Y550668D02*
Y560665D01*
X899992D01*
X901658Y558998D01*
Y555666D01*
X899992Y554000D01*
X894993D01*
X919985Y563997D02*
X916653D01*
X914987Y562331D01*
Y555666D01*
X916653Y554000D01*
X919985D01*
X921652Y555666D01*
Y562331D01*
X919985Y563997D01*
X924984Y560665D02*
X928316Y554000D01*
X931648Y560665D01*
X939979Y554000D02*
X936647D01*
X934981Y555666D01*
Y558998D01*
X936647Y560665D01*
X939979D01*
X941645Y558998D01*
Y557332D01*
X934981D01*
X944977Y560665D02*
Y554000D01*
Y557332D01*
X946644Y558998D01*
X948310Y560665D01*
X949976D01*
X954974Y554000D02*
X958306D01*
X956640D01*
Y563997D01*
X954974D01*
X964971Y560665D02*
X968303D01*
X969969Y558998D01*
Y554000D01*
X964971D01*
X963305Y555666D01*
X964971Y557332D01*
X969969D01*
X973302Y560665D02*
Y555666D01*
X974968Y554000D01*
X979966D01*
Y552334D01*
X978300Y550668D01*
X976634D01*
X979966Y554000D02*
Y560665D01*
D44*
X632874Y417415D02*
X634873D01*
X633874D01*
Y411417D01*
X632874D01*
X634873D01*
X637872D02*
Y417415D01*
X641871Y411417D01*
Y417415D01*
X643870Y414416D02*
X647869D01*
X645870Y416416D02*
Y412417D01*
X533465Y417415D02*
X535464D01*
X534464D01*
Y411417D01*
X533465D01*
X535464D01*
X538463D02*
Y417415D01*
X542462Y411417D01*
Y417415D01*
X544461Y414416D02*
X548460D01*
D45*
X749346Y756701D02*
G03*
X749346Y756701I-1000J0D01*
G01*
X612992Y456890D02*
G03*
X612992Y456890I-394J0D01*
G01*
X414862Y595669D02*
G03*
X414862Y595669I-394J0D01*
G01*
X464567Y622342D02*
G03*
X464567Y622342I-492J0D01*
G01*
X434583Y424402D02*
G03*
X434583Y424402I-1000J0D01*
G01*
X425402Y747835D02*
G03*
X425402Y747835I-1000J0D01*
G01*
X781216Y413386D02*
G03*
X781216Y413386I-13500J0D01*
G01*
Y767717D02*
G03*
X781216Y767717I-13500J0D01*
G01*
X426886D02*
G03*
X426886Y767717I-13500J0D01*
G01*
Y413386D02*
G03*
X426886Y413386I-13500J0D01*
G01*
X437598Y599606D02*
G03*
X437598Y599606I-492J0D01*
G01*
X670134Y424402D02*
G03*
X670134Y424402I-1000J0D01*
G01*
X757701Y432913D02*
G03*
X757701Y432913I-1000J0D01*
G01*
X545051Y627051D02*
G03*
X545051Y627051I-500J0D01*
G01*
X636472Y756701D02*
G03*
X636472Y756701I-1000J0D01*
G01*
X503913D02*
G03*
X503913Y756701I-1000J0D01*
G01*
X625197Y458161D02*
Y469004D01*
X611024Y458161D02*
Y469004D01*
X404232Y605315D02*
X405807Y605315D01*
X404232Y575787D02*
X405807Y575787D01*
X394783Y575787D02*
Y605315D01*
X410827Y597441D02*
Y597638D01*
Y583465D02*
Y583661D01*
X466043Y616437D02*
Y619783D01*
Y624902D02*
X476870D01*
Y616437D02*
Y619783D01*
X466043Y611319D02*
X476870D01*
X398819Y536221D02*
Y558268D01*
X411811Y558268D01*
Y536221D02*
Y558268D01*
X398819Y536221D02*
X411811Y536221D01*
X398819Y482087D02*
Y513878D01*
X398917Y513976D01*
X411811D01*
Y482087D02*
Y513976D01*
X398819Y482087D02*
X411811D01*
X438484Y601279D02*
X447342D01*
Y600591D02*
Y601279D01*
Y591634D02*
Y592323D01*
X438484Y591634D02*
X447342Y591634D01*
X438484Y592323D02*
X438484Y591634D01*
D56*
X672539Y670472D02*
G03*
X672539Y670472I-492J0D01*
G01*
X513484Y572835D02*
G03*
X513484Y572835I-492J0D01*
G01*
X675098Y605709D02*
G03*
X675098Y605709I-492J0D01*
G01*
X711654Y662205D02*
G03*
X711654Y662205I-492J0D01*
G01*
D57*
X770917Y590551D02*
G03*
X770917Y590551I-3200J0D01*
G01*
X540602Y535350D02*
G03*
X540602Y535350I-3200J0D01*
G01*
Y545350D02*
G03*
X540602Y545350I-3200J0D01*
G01*
Y555350D02*
G03*
X540602Y555350I-3200J0D01*
G01*
Y565350D02*
G03*
X540602Y565350I-3200J0D01*
G01*
X770917Y708661D02*
G03*
X770917Y708661I-3200J0D01*
G01*
Y669291D02*
G03*
X770917Y669291I-3200J0D01*
G01*
Y629921D02*
G03*
X770917Y629921I-3200J0D01*
G01*
X578003Y443898D02*
G03*
X578003Y443898I-3200J0D01*
G01*
X600050Y659449D02*
G03*
X600050Y659449I-3200J0D01*
G01*
X610050D02*
G03*
X610050Y659449I-3200J0D01*
G01*
X620050D02*
G03*
X620050Y659449I-3200J0D01*
G01*
X630050D02*
G03*
X630050Y659449I-3200J0D01*
G01*
X610251Y510126D02*
Y511826D01*
Y472426D02*
Y474126D01*
X570851Y472426D02*
X572551D01*
X570851Y510126D02*
Y511826D01*
X608551D02*
X610251D01*
X606951Y474126D02*
X608551Y475726D01*
X570851Y511826D02*
X572551D01*
X570851Y472426D02*
Y474126D01*
X608551Y472426D02*
X610251D01*
X550701Y630401D02*
X554342D01*
X550701Y550701D02*
X554342D01*
X630401D02*
Y554342D01*
X626760Y630401D02*
X630401D01*
X550701Y626760D02*
Y630401D01*
Y550701D02*
Y554342D01*
X626760Y550701D02*
X630401D01*
Y626760D02*
Y630401D01*
X413386Y510827D02*
X424213D01*
X693732Y663916D02*
X693233Y664416D01*
X692233D01*
X691733Y663916D01*
Y661917D01*
X692233Y661417D01*
X693233D01*
X693732Y661917D01*
X694732Y663916D02*
X695232Y664416D01*
X696232D01*
X696731Y663916D01*
Y663417D01*
X696232Y662917D01*
X695732D01*
X696232D01*
X696731Y662417D01*
Y661917D01*
X696232Y661417D01*
X695232D01*
X694732Y661917D01*
X699730Y661417D02*
X697731D01*
X699730Y663417D01*
Y663916D01*
X699231Y664416D01*
X698231D01*
X697731Y663916D01*
X665385Y686554D02*
X664885Y687054D01*
X663886D01*
X663386Y686554D01*
Y684555D01*
X663886Y684055D01*
X664885D01*
X665385Y684555D01*
X666385Y686554D02*
X666885Y687054D01*
X667884D01*
X668384Y686554D01*
Y686055D01*
X667884Y685555D01*
X667384D01*
X667884D01*
X668384Y685055D01*
Y684555D01*
X667884Y684055D01*
X666885D01*
X666385Y684555D01*
X669384Y684055D02*
X670384D01*
X669884D01*
Y687054D01*
X669384Y686554D01*
X665354Y676227D02*
Y673728D01*
X665854Y673228D01*
X666854D01*
X667354Y673728D01*
Y676227D01*
X668353Y673728D02*
X668853Y673228D01*
X669853D01*
X670353Y673728D01*
Y675728D01*
X669853Y676227D01*
X668853D01*
X668353Y675728D01*
Y675228D01*
X668853Y674728D01*
X670353D01*
X760827Y582208D02*
X762826D01*
X761827Y583208D02*
Y581209D01*
X763826Y580709D02*
X764825D01*
X764326D01*
Y583708D01*
X763826Y583208D01*
X766325Y580709D02*
Y581209D01*
X766825D01*
Y580709D01*
X766325D01*
X768824Y583208D02*
X769324Y583708D01*
X770324D01*
X770823Y583208D01*
Y582708D01*
X770324Y582208D01*
X770823Y581708D01*
Y581209D01*
X770324Y580709D01*
X769324D01*
X768824Y581209D01*
Y581708D01*
X769324Y582208D01*
X768824Y582708D01*
Y583208D01*
X769324Y582208D02*
X770324D01*
X771823Y583708D02*
Y581708D01*
X772823Y580709D01*
X773823Y581708D01*
Y583708D01*
X627953Y468550D02*
Y466051D01*
X628453Y465551D01*
X629452D01*
X629952Y466051D01*
Y468550D01*
X632951D02*
X630952D01*
Y467051D01*
X631952Y467551D01*
X632451D01*
X632951Y467051D01*
Y466051D01*
X632451Y465551D01*
X631452D01*
X630952Y466051D01*
X627953Y471457D02*
Y474456D01*
X629452D01*
X629952Y473956D01*
Y472956D01*
X629452Y472456D01*
X627953D01*
X628952D02*
X629952Y471457D01*
X630952D02*
X631952D01*
X631452D01*
Y474456D01*
X630952Y473956D01*
X517717Y446850D02*
Y449849D01*
X519216D01*
X519716Y449350D01*
Y448350D01*
X519216Y447850D01*
X517717D01*
X518716D02*
X519716Y446850D01*
X520716D02*
X521715D01*
X521215D01*
Y449849D01*
X520716Y449350D01*
X523215Y449849D02*
X525214D01*
Y449350D01*
X523215Y447350D01*
Y446850D01*
X492126D02*
Y449849D01*
X493625D01*
X494125Y449350D01*
Y448350D01*
X493625Y447850D01*
X492126D01*
X493126D02*
X494125Y446850D01*
X495125D02*
X496125D01*
X495625D01*
Y449849D01*
X495125Y449350D01*
X499623Y449849D02*
X498624Y449350D01*
X497624Y448350D01*
Y447350D01*
X498124Y446850D01*
X499124D01*
X499623Y447350D01*
Y447850D01*
X499124Y448350D01*
X497624D01*
X560039Y731299D02*
Y734298D01*
X561539D01*
X562039Y733798D01*
Y732799D01*
X561539Y732299D01*
X560039D01*
X561039D02*
X562039Y731299D01*
X563038D02*
X564038D01*
X563538D01*
Y734298D01*
X563038Y733798D01*
X567537Y734298D02*
X565538D01*
Y732799D01*
X566537Y733298D01*
X567037D01*
X567537Y732799D01*
Y731799D01*
X567037Y731299D01*
X566037D01*
X565538Y731799D01*
X579724Y731299D02*
Y734298D01*
X581224D01*
X581724Y733798D01*
Y732799D01*
X581224Y732299D01*
X579724D01*
X580724D02*
X581724Y731299D01*
X582723D02*
X583723D01*
X583223D01*
Y734298D01*
X582723Y733798D01*
X586722Y731299D02*
Y734298D01*
X585223Y732799D01*
X587222D01*
X593504Y731299D02*
Y734298D01*
X595003D01*
X595503Y733798D01*
Y732799D01*
X595003Y732299D01*
X593504D01*
X594504D02*
X595503Y731299D01*
X596503D02*
X597503D01*
X597003D01*
Y734298D01*
X596503Y733798D01*
X599002D02*
X599502Y734298D01*
X600502D01*
X601002Y733798D01*
Y733298D01*
X600502Y732799D01*
X600002D01*
X600502D01*
X601002Y732299D01*
Y731799D01*
X600502Y731299D01*
X599502D01*
X599002Y731799D01*
X620079Y731299D02*
Y734298D01*
X621578D01*
X622078Y733798D01*
Y732799D01*
X621578Y732299D01*
X620079D01*
X621078D02*
X622078Y731299D01*
X623078D02*
X624078D01*
X623578D01*
Y734298D01*
X623078Y733798D01*
X627576Y731299D02*
X625577D01*
X627576Y733298D01*
Y733798D01*
X627076Y734298D01*
X626077D01*
X625577Y733798D01*
X697788Y756921D02*
Y754921D01*
X700787D01*
Y756921D01*
X699288Y754921D02*
Y755921D01*
X698788Y757920D02*
X700787Y759920D01*
X699788Y758920D01*
X698788Y759920D01*
X700787Y757920D01*
X698288Y761419D02*
X698788D01*
Y760919D01*
Y761919D01*
Y761419D01*
X700288D01*
X700787Y761919D01*
Y763418D02*
X700288D01*
Y763918D01*
X700787D01*
Y763418D01*
Y768917D02*
X697788D01*
Y770416D01*
X698288Y770916D01*
X699288D01*
X699788Y770416D01*
Y768917D01*
X700787Y772416D02*
Y773415D01*
X700288Y773915D01*
X699288D01*
X698788Y773415D01*
Y772416D01*
X699288Y771916D01*
X700288D01*
X700787Y772416D01*
X698788Y774915D02*
X700288D01*
X700787Y775415D01*
X700288Y775914D01*
X700787Y776414D01*
X700288Y776914D01*
X698788D01*
X700787Y779413D02*
Y778414D01*
X700288Y777914D01*
X699288D01*
X698788Y778414D01*
Y779413D01*
X699288Y779913D01*
X699788D01*
Y777914D01*
X698788Y780913D02*
X700787D01*
X699788D01*
X699288Y781413D01*
X698788Y781913D01*
Y782412D01*
X747047Y778543D02*
Y781542D01*
X748547D01*
X749047Y781042D01*
Y780043D01*
X748547Y779543D01*
X747047D01*
X750046Y779043D02*
X750546Y778543D01*
X751546D01*
X752046Y779043D01*
Y781042D01*
X751546Y781542D01*
X750546D01*
X750046Y781042D01*
Y780543D01*
X750546Y780043D01*
X752046D01*
X521607Y399606D02*
Y401606D01*
Y400606D01*
X524606D01*
Y403105D02*
Y404105D01*
X524107Y404605D01*
X523107D01*
X522607Y404105D01*
Y403105D01*
X523107Y402605D01*
X524107D01*
X524606Y403105D01*
Y408603D02*
X522607D01*
X521607Y409603D01*
X522607Y410603D01*
X524606D01*
X523107D01*
Y408603D01*
X521607Y413602D02*
Y411602D01*
X523107D01*
Y412602D01*
Y411602D01*
X524606D01*
X521607Y416601D02*
Y414602D01*
X524606D01*
Y416601D01*
X523107Y414602D02*
Y415601D01*
X430118Y400591D02*
Y403590D01*
X431618D01*
X432118Y403090D01*
Y402090D01*
X431618Y401590D01*
X430118D01*
X433117Y403090D02*
X433617Y403590D01*
X434617D01*
X435116Y403090D01*
Y402590D01*
X434617Y402090D01*
X435116Y401590D01*
Y401090D01*
X434617Y400591D01*
X433617D01*
X433117Y401090D01*
Y401590D01*
X433617Y402090D01*
X433117Y402590D01*
Y403090D01*
X433617Y402090D02*
X434617D01*
X624047Y494625D02*
X623547Y495125D01*
X622547D01*
X622047Y494625D01*
Y492626D01*
X622547Y492126D01*
X623547D01*
X624047Y492626D01*
X627046Y492126D02*
X625046D01*
X627046Y494125D01*
Y494625D01*
X626546Y495125D01*
X625546D01*
X625046Y494625D01*
X624047Y478877D02*
X623547Y479377D01*
X622547D01*
X622047Y478877D01*
Y476878D01*
X622547Y476378D01*
X623547D01*
X624047Y476878D01*
X625046Y478877D02*
X625546Y479377D01*
X626546D01*
X627046Y478877D01*
Y478377D01*
X626546Y477878D01*
X626046D01*
X626546D01*
X627046Y477378D01*
Y476878D01*
X626546Y476378D01*
X625546D01*
X625046Y476878D01*
X594519Y448365D02*
X594019Y448865D01*
X593019D01*
X592520Y448365D01*
Y446366D01*
X593019Y445866D01*
X594019D01*
X594519Y446366D01*
X597018Y445866D02*
Y448865D01*
X595519Y447366D01*
X597518D01*
X577787Y452302D02*
X577287Y452802D01*
X576287D01*
X575787Y452302D01*
Y450303D01*
X576287Y449803D01*
X577287D01*
X577787Y450303D01*
X580786Y452802D02*
X578786D01*
Y451303D01*
X579786Y451802D01*
X580286D01*
X580786Y451303D01*
Y450303D01*
X580286Y449803D01*
X579286D01*
X578786Y450303D01*
X551212Y472972D02*
X550712Y473471D01*
X549712D01*
X549213Y472972D01*
Y470972D01*
X549712Y470472D01*
X550712D01*
X551212Y470972D01*
X554211Y473471D02*
X553211Y472972D01*
X552212Y471972D01*
Y470972D01*
X552711Y470472D01*
X553711D01*
X554211Y470972D01*
Y471472D01*
X553711Y471972D01*
X552212D01*
X551212Y494625D02*
X550712Y495125D01*
X549712D01*
X549213Y494625D01*
Y492626D01*
X549712Y492126D01*
X550712D01*
X551212Y492626D01*
X552212Y495125D02*
X554211D01*
Y494625D01*
X552212Y492626D01*
Y492126D01*
X607314Y450334D02*
X606814Y450834D01*
X605815D01*
X605315Y450334D01*
Y448335D01*
X605815Y447835D01*
X606814D01*
X607314Y448335D01*
X608314Y450334D02*
X608814Y450834D01*
X609813D01*
X610313Y450334D01*
Y449834D01*
X609813Y449334D01*
X610313Y448834D01*
Y448335D01*
X609813Y447835D01*
X608814D01*
X608314Y448335D01*
Y448834D01*
X608814Y449334D01*
X608314Y449834D01*
Y450334D01*
X608814Y449334D02*
X609813D01*
X557118Y465098D02*
X556618Y465597D01*
X555618D01*
X555118Y465098D01*
Y463098D01*
X555618Y462598D01*
X556618D01*
X557118Y463098D01*
X558117D02*
X558617Y462598D01*
X559617D01*
X560116Y463098D01*
Y465098D01*
X559617Y465597D01*
X558617D01*
X558117Y465098D01*
Y464598D01*
X558617Y464098D01*
X560116D01*
X469750Y635991D02*
X469250Y636491D01*
X468250D01*
X467750Y635991D01*
Y633992D01*
X468250Y633492D01*
X469250D01*
X469750Y633992D01*
X470749Y633492D02*
X471749D01*
X471249D01*
Y636491D01*
X470749Y635991D01*
X473249D02*
X473748Y636491D01*
X474748D01*
X475248Y635991D01*
Y633992D01*
X474748Y633492D01*
X473748D01*
X473249Y633992D01*
Y635991D01*
X415385Y621594D02*
X414885Y622093D01*
X413886D01*
X413386Y621594D01*
Y619594D01*
X413886Y619095D01*
X414885D01*
X415385Y619594D01*
X416385Y619095D02*
X417384D01*
X416885D01*
Y622093D01*
X416385Y621594D01*
X420883Y619095D02*
X418884D01*
X420883Y621094D01*
Y621594D01*
X420384Y622093D01*
X419384D01*
X418884Y621594D01*
X426834Y621665D02*
X426334Y622165D01*
X425335D01*
X424835Y621665D01*
Y619666D01*
X425335Y619166D01*
X426334D01*
X426834Y619666D01*
X427834Y619166D02*
X428833D01*
X428334D01*
Y622165D01*
X427834Y621665D01*
X430333D02*
X430833Y622165D01*
X431832D01*
X432332Y621665D01*
Y621166D01*
X431832Y620666D01*
X431332D01*
X431832D01*
X432332Y620166D01*
Y619666D01*
X431832Y619166D01*
X430833D01*
X430333Y619666D01*
X501999Y558602D02*
X501500Y559101D01*
X500500D01*
X500000Y558602D01*
Y556602D01*
X500500Y556102D01*
X501500D01*
X501999Y556602D01*
X502999Y556102D02*
X503999D01*
X503499D01*
Y559101D01*
X502999Y558602D01*
X506998Y556102D02*
Y559101D01*
X505498Y557602D01*
X507498D01*
X487236Y557617D02*
X486736Y558117D01*
X485736D01*
X485236Y557617D01*
Y555618D01*
X485736Y555118D01*
X486736D01*
X487236Y555618D01*
X488235Y555118D02*
X489235D01*
X488735D01*
Y558117D01*
X488235Y557617D01*
X492734Y558117D02*
X490734D01*
Y556618D01*
X491734Y557118D01*
X492234D01*
X492734Y556618D01*
Y555618D01*
X492234Y555118D01*
X491234D01*
X490734Y555618D01*
X462482Y597972D02*
X461982Y598471D01*
X460982D01*
X460482Y597972D01*
Y595972D01*
X460982Y595472D01*
X461982D01*
X462482Y595972D01*
X463481Y595472D02*
X464481D01*
X463981D01*
Y598471D01*
X463481Y597972D01*
X467980Y598471D02*
X466980Y597972D01*
X465980Y596972D01*
Y595972D01*
X466480Y595472D01*
X467480D01*
X467980Y595972D01*
Y596472D01*
X467480Y596972D01*
X465980D01*
X462629Y607814D02*
X462129Y608314D01*
X461130D01*
X460630Y607814D01*
Y605815D01*
X461130Y605315D01*
X462129D01*
X462629Y605815D01*
X463629Y605315D02*
X464629D01*
X464129D01*
Y608314D01*
X463629Y607814D01*
X466128Y608314D02*
X468127D01*
Y607814D01*
X466128Y605815D01*
Y605315D01*
X490850Y627502D02*
X490350Y628002D01*
X489350D01*
X488850Y627502D01*
Y625503D01*
X489350Y625003D01*
X490350D01*
X490850Y625503D01*
X491849Y625003D02*
X492849D01*
X492349D01*
Y628002D01*
X491849Y627502D01*
X494349D02*
X494848Y628002D01*
X495848D01*
X496348Y627502D01*
Y627002D01*
X495848Y626503D01*
X496348Y626003D01*
Y625503D01*
X495848Y625003D01*
X494848D01*
X494349Y625503D01*
Y626003D01*
X494848Y626503D01*
X494349Y627002D01*
Y627502D01*
X494848Y626503D02*
X495848D01*
X501999Y626515D02*
X501500Y627015D01*
X500500D01*
X500000Y626515D01*
Y624516D01*
X500500Y624016D01*
X501500D01*
X501999Y624516D01*
X502999Y624016D02*
X503999D01*
X503499D01*
Y627015D01*
X502999Y626515D01*
X505498Y624516D02*
X505998Y624016D01*
X506998D01*
X507498Y624516D01*
Y626515D01*
X506998Y627015D01*
X505998D01*
X505498Y626515D01*
Y626015D01*
X505998Y625515D01*
X507498D01*
X514795Y585176D02*
X514295Y585676D01*
X513295D01*
X512795Y585176D01*
Y583177D01*
X513295Y582677D01*
X514295D01*
X514795Y583177D01*
X517794Y582677D02*
X515794D01*
X517794Y584677D01*
Y585176D01*
X517294Y585676D01*
X516294D01*
X515794Y585176D01*
X518793D02*
X519293Y585676D01*
X520293D01*
X520793Y585176D01*
Y583177D01*
X520293Y582677D01*
X519293D01*
X518793Y583177D01*
Y585176D01*
X684086Y567460D02*
X683586Y567960D01*
X682586D01*
X682087Y567460D01*
Y565460D01*
X682586Y564961D01*
X683586D01*
X684086Y565460D01*
X687085Y564961D02*
X685086D01*
X687085Y566960D01*
Y567460D01*
X686585Y567960D01*
X685585D01*
X685086Y567460D01*
X688085Y564961D02*
X689084D01*
X688585D01*
Y567960D01*
X688085Y567460D01*
X668338Y596987D02*
X667838Y597487D01*
X666838D01*
X666339Y596987D01*
Y594988D01*
X666838Y594488D01*
X667838D01*
X668338Y594988D01*
X671337Y594488D02*
X669338D01*
X671337Y596488D01*
Y596987D01*
X670837Y597487D01*
X669837D01*
X669338Y596987D01*
X674336Y594488D02*
X672337D01*
X674336Y596488D01*
Y596987D01*
X673836Y597487D01*
X672836D01*
X672337Y596987D01*
X711645Y592066D02*
X711145Y592566D01*
X710146D01*
X709646Y592066D01*
Y590067D01*
X710146Y589567D01*
X711145D01*
X711645Y590067D01*
X714644Y589567D02*
X712645D01*
X714644Y591566D01*
Y592066D01*
X714144Y592566D01*
X713144D01*
X712645Y592066D01*
X715644D02*
X716144Y592566D01*
X717143D01*
X717643Y592066D01*
Y591566D01*
X717143Y591066D01*
X716643D01*
X717143D01*
X717643Y590567D01*
Y590067D01*
X717143Y589567D01*
X716144D01*
X715644Y590067D01*
X545306Y639310D02*
X544807Y639810D01*
X543807D01*
X543307Y639310D01*
Y637311D01*
X543807Y636811D01*
X544807D01*
X545306Y637311D01*
X547806Y636811D02*
Y639810D01*
X546306Y638310D01*
X548306D01*
X549305Y636811D02*
X550305D01*
X549805D01*
Y639810D01*
X549305Y639310D01*
X639795Y636357D02*
X639295Y636857D01*
X638295D01*
X637795Y636357D01*
Y634358D01*
X638295Y633858D01*
X639295D01*
X639795Y634358D01*
X642294Y633858D02*
Y636857D01*
X640794Y635358D01*
X642794D01*
X645793Y633858D02*
X643793D01*
X645793Y635858D01*
Y636357D01*
X645293Y636857D01*
X644293D01*
X643793Y636357D01*
X632905Y540885D02*
X632405Y541385D01*
X631405D01*
X630905Y540885D01*
Y538886D01*
X631405Y538386D01*
X632405D01*
X632905Y538886D01*
X635404Y538386D02*
Y541385D01*
X633905Y539885D01*
X635904D01*
X636904Y540885D02*
X637403Y541385D01*
X638403D01*
X638903Y540885D01*
Y540385D01*
X638403Y539885D01*
X637903D01*
X638403D01*
X638903Y539386D01*
Y538886D01*
X638403Y538386D01*
X637403D01*
X636904Y538886D01*
X541792Y538417D02*
X541292Y537917D01*
Y536917D01*
X541792Y536417D01*
X543791D01*
X544291Y536917D01*
Y537917D01*
X543791Y538417D01*
X544291Y540916D02*
X541292D01*
X542792Y539416D01*
Y541416D01*
X544291Y543915D02*
X541292D01*
X542792Y542415D01*
Y544415D01*
X568928Y644232D02*
X568429Y644731D01*
X567429D01*
X566929Y644232D01*
Y642232D01*
X567429Y641732D01*
X568429D01*
X568928Y642232D01*
X571428Y641732D02*
Y644731D01*
X569928Y643232D01*
X571927D01*
X574927Y644731D02*
X573927Y644232D01*
X572927Y643232D01*
Y642232D01*
X573427Y641732D01*
X574427D01*
X574927Y642232D01*
Y642732D01*
X574427Y643232D01*
X572927D01*
X587629Y644232D02*
X587129Y644731D01*
X586130D01*
X585630Y644232D01*
Y642232D01*
X586130Y641732D01*
X587129D01*
X587629Y642232D01*
X590129Y641732D02*
Y644731D01*
X588629Y643232D01*
X590628D01*
X591628Y644731D02*
X593627D01*
Y644232D01*
X591628Y642232D01*
Y641732D01*
X605346Y654074D02*
X604846Y654574D01*
X603846D01*
X603346Y654074D01*
Y652075D01*
X603846Y651575D01*
X604846D01*
X605346Y652075D01*
X607845Y651575D02*
Y654574D01*
X606346Y653074D01*
X608345D01*
X609344Y654074D02*
X609844Y654574D01*
X610844D01*
X611344Y654074D01*
Y653574D01*
X610844Y653074D01*
X611344Y652574D01*
Y652075D01*
X610844Y651575D01*
X609844D01*
X609344Y652075D01*
Y652574D01*
X609844Y653074D01*
X609344Y653574D01*
Y654074D01*
X609844Y653074D02*
X610844D01*
X568928Y667853D02*
X568429Y668353D01*
X567429D01*
X566929Y667853D01*
Y665854D01*
X567429Y665354D01*
X568429D01*
X568928Y665854D01*
X571428Y665354D02*
Y668353D01*
X569928Y666854D01*
X571927D01*
X572927Y665854D02*
X573427Y665354D01*
X574427D01*
X574927Y665854D01*
Y667853D01*
X574427Y668353D01*
X573427D01*
X572927Y667853D01*
Y667354D01*
X573427Y666854D01*
X574927D01*
X647669Y617657D02*
X647169Y618156D01*
X646169D01*
X645669Y617657D01*
Y615657D01*
X646169Y615158D01*
X647169D01*
X647669Y615657D01*
X650668Y618156D02*
X648668D01*
Y616657D01*
X649668Y617157D01*
X650168D01*
X650668Y616657D01*
Y615657D01*
X650168Y615158D01*
X649168D01*
X648668Y615657D01*
X651667Y617657D02*
X652167Y618156D01*
X653167D01*
X653667Y617657D01*
Y615657D01*
X653167Y615158D01*
X652167D01*
X651667Y615657D01*
Y617657D01*
X643732Y591082D02*
X643232Y591582D01*
X642232D01*
X641732Y591082D01*
Y589082D01*
X642232Y588583D01*
X643232D01*
X643732Y589082D01*
X646731Y591582D02*
X644731D01*
Y590082D01*
X645731Y590582D01*
X646231D01*
X646731Y590082D01*
Y589082D01*
X646231Y588583D01*
X645231D01*
X644731Y589082D01*
X647730Y588583D02*
X648730D01*
X648230D01*
Y591582D01*
X647730Y591082D01*
X643732Y573365D02*
X643232Y573865D01*
X642232D01*
X641732Y573365D01*
Y571366D01*
X642232Y570866D01*
X643232D01*
X643732Y571366D01*
X646731Y573865D02*
X644731D01*
Y572366D01*
X645731Y572865D01*
X646231D01*
X646731Y572366D01*
Y571366D01*
X646231Y570866D01*
X645231D01*
X644731Y571366D01*
X649730Y570866D02*
X647730D01*
X649730Y572865D01*
Y573365D01*
X649230Y573865D01*
X648230D01*
X647730Y573365D01*
X653574Y595019D02*
X653074Y595519D01*
X652075D01*
X651575Y595019D01*
Y593019D01*
X652075Y592520D01*
X653074D01*
X653574Y593019D01*
X656573Y595519D02*
X654574D01*
Y594019D01*
X655574Y594519D01*
X656073D01*
X656573Y594019D01*
Y593019D01*
X656073Y592520D01*
X655074D01*
X654574Y593019D01*
X657573Y595019D02*
X658073Y595519D01*
X659072D01*
X659572Y595019D01*
Y594519D01*
X659072Y594019D01*
X658572D01*
X659072D01*
X659572Y593519D01*
Y593019D01*
X659072Y592520D01*
X658073D01*
X657573Y593019D01*
X561055Y542853D02*
X560555Y543353D01*
X559555D01*
X559055Y542853D01*
Y540854D01*
X559555Y540354D01*
X560555D01*
X561055Y540854D01*
X564053Y543353D02*
X562054D01*
Y541854D01*
X563054Y542354D01*
X563554D01*
X564053Y541854D01*
Y540854D01*
X563554Y540354D01*
X562554D01*
X562054Y540854D01*
X566553Y540354D02*
Y543353D01*
X565053Y541854D01*
X567053D01*
X577225Y536448D02*
X576725Y535948D01*
Y534949D01*
X577225Y534449D01*
X579225D01*
X579724Y534949D01*
Y535948D01*
X579225Y536448D01*
X576725Y539447D02*
Y537448D01*
X578225D01*
X577725Y538448D01*
Y538947D01*
X578225Y539447D01*
X579225D01*
X579724Y538947D01*
Y537948D01*
X579225Y537448D01*
X576725Y542446D02*
Y540447D01*
X578225D01*
X577725Y541447D01*
Y541946D01*
X578225Y542446D01*
X579225D01*
X579724Y541946D01*
Y540947D01*
X579225Y540447D01*
X611993Y535993D02*
X611993Y536700D01*
X611286Y537407D01*
X610579D01*
X609166Y535993D01*
Y535287D01*
X609873Y534580D01*
X610579Y534580D01*
X614467Y534226D02*
X613054Y535640D01*
X611993Y534580D01*
X613054Y534226D01*
X613407Y533873D01*
Y533166D01*
X612700Y532459D01*
X611993Y532459D01*
X611286Y533166D01*
Y533873D01*
X616588Y532105D02*
X615528Y532459D01*
X614114Y532459D01*
X613407Y531752D01*
Y531045D01*
X614114Y530338D01*
X614821Y530338D01*
X615174Y530692D01*
X615174Y531399D01*
X614114Y532459D01*
X604559Y527913D02*
X604559Y528619D01*
X603852Y529326D01*
X603145D01*
X601731Y527913D01*
Y527206D01*
X602438Y526499D01*
X603145Y526499D01*
X607033Y526145D02*
X605619Y527559D01*
X604559Y526499D01*
X605619Y526145D01*
X605973Y525792D01*
Y525085D01*
X605266Y524378D01*
X604559Y524378D01*
X603852Y525085D01*
Y525792D01*
X607740Y525438D02*
X609154Y524025D01*
X608800Y523671D01*
X605973D01*
X605619Y523318D01*
X530543Y600924D02*
X530043Y601424D01*
X529043D01*
X528543Y600924D01*
Y598925D01*
X529043Y598425D01*
X530043D01*
X530543Y598925D01*
X533542Y601424D02*
X531542D01*
Y599925D01*
X532542Y600424D01*
X533042D01*
X533542Y599925D01*
Y598925D01*
X533042Y598425D01*
X532042D01*
X531542Y598925D01*
X534541D02*
X535041Y598425D01*
X536041D01*
X536541Y598925D01*
Y600924D01*
X536041Y601424D01*
X535041D01*
X534541Y600924D01*
Y600424D01*
X535041Y599925D01*
X536541D01*
X534480Y618641D02*
X533980Y619141D01*
X532980D01*
X532480Y618641D01*
Y616642D01*
X532980Y616142D01*
X533980D01*
X534480Y616642D01*
X537479Y619141D02*
X536479Y618641D01*
X535479Y617641D01*
Y616642D01*
X535979Y616142D01*
X536979D01*
X537479Y616642D01*
Y617141D01*
X536979Y617641D01*
X535479D01*
X538478Y618641D02*
X538978Y619141D01*
X539978D01*
X540478Y618641D01*
Y616642D01*
X539978Y616142D01*
X538978D01*
X538478Y616642D01*
Y618641D01*
X517186Y607314D02*
X516686Y606814D01*
Y605815D01*
X517186Y605315D01*
X519185D01*
X519685Y605815D01*
Y606814D01*
X519185Y607314D01*
X516686Y610313D02*
X517186Y609314D01*
X518186Y608314D01*
X519185D01*
X519685Y608814D01*
Y609813D01*
X519185Y610313D01*
X518685D01*
X518186Y609813D01*
Y608314D01*
X519685Y611313D02*
Y612313D01*
Y611813D01*
X516686D01*
X517186Y611313D01*
X447450Y520349D02*
Y517350D01*
X448950D01*
X449450Y517850D01*
Y519850D01*
X448950Y520349D01*
X447450D01*
X450449Y517350D02*
X451449D01*
X450949D01*
Y520349D01*
X450449Y519850D01*
X447450Y500649D02*
Y497650D01*
X448950D01*
X449450Y498150D01*
Y500150D01*
X448950Y500649D01*
X447450D01*
X452449Y497650D02*
X450449D01*
X452449Y499650D01*
Y500150D01*
X451949Y500649D01*
X450949D01*
X450449Y500150D01*
X447450Y480949D02*
Y477950D01*
X448950D01*
X449450Y478450D01*
Y480450D01*
X448950Y480949D01*
X447450D01*
X450449Y480450D02*
X450949Y480949D01*
X451949D01*
X452449Y480450D01*
Y479950D01*
X451949Y479450D01*
X451449D01*
X451949D01*
X452449Y478950D01*
Y478450D01*
X451949Y477950D01*
X450949D01*
X450449Y478450D01*
X460000Y640999D02*
Y638000D01*
X461500D01*
X461999Y638500D01*
Y640499D01*
X461500Y640999D01*
X460000D01*
X464499Y638000D02*
Y640999D01*
X462999Y639500D01*
X464998D01*
X605269Y665354D02*
X608268D01*
Y666854D01*
X607768Y667354D01*
X605768D01*
X605269Y666854D01*
Y665354D01*
Y669853D02*
Y668853D01*
X605768Y668353D01*
X607768D01*
X608268Y668853D01*
Y669853D01*
X607768Y670353D01*
X605768D01*
X605269Y669853D01*
X608268Y671352D02*
X605269D01*
X608268Y673352D01*
X605269D01*
Y676351D02*
Y674351D01*
X608268D01*
Y676351D01*
X606768Y674351D02*
Y675351D01*
X525621Y566381D02*
X523622D01*
Y564881D01*
X524622D01*
X523622D01*
Y563382D01*
X528620Y565881D02*
X528121Y566381D01*
X527121D01*
X526621Y565881D01*
Y563882D01*
X527121Y563382D01*
X528121D01*
X528620Y563882D01*
X531619Y565881D02*
X531120Y566381D01*
X530120D01*
X529620Y565881D01*
Y565381D01*
X530120Y564881D01*
X531120D01*
X531619Y564382D01*
Y563882D01*
X531120Y563382D01*
X530120D01*
X529620Y563882D01*
X520700Y546381D02*
X518701D01*
Y544881D01*
X519700D01*
X518701D01*
Y543382D01*
X521700D02*
Y546381D01*
X522699Y545381D01*
X523699Y546381D01*
Y543382D01*
X524699Y546381D02*
X525699D01*
X525199D01*
Y543382D01*
X524699D01*
X525699D01*
X529197Y545881D02*
X528697Y546381D01*
X527698D01*
X527198Y545881D01*
Y545381D01*
X527698Y544881D01*
X528697D01*
X529197Y544382D01*
Y543882D01*
X528697Y543382D01*
X527698D01*
X527198Y543882D01*
X531697Y546381D02*
X530697D01*
X530197Y545881D01*
Y543882D01*
X530697Y543382D01*
X531697D01*
X532196Y543882D01*
Y545881D01*
X531697Y546381D01*
X520700Y536381D02*
X518701D01*
Y534881D01*
X519700D01*
X518701D01*
Y533382D01*
X521700D02*
Y536381D01*
X522699Y535381D01*
X523699Y536381D01*
Y533382D01*
X526198Y536381D02*
X525199D01*
X524699Y535881D01*
Y533882D01*
X525199Y533382D01*
X526198D01*
X526698Y533882D01*
Y535881D01*
X526198Y536381D01*
X529697Y535881D02*
X529197Y536381D01*
X528198D01*
X527698Y535881D01*
Y535381D01*
X528198Y534881D01*
X529197D01*
X529697Y534382D01*
Y533882D01*
X529197Y533382D01*
X528198D01*
X527698Y533882D01*
X530697Y536381D02*
X531697D01*
X531197D01*
Y533382D01*
X530697D01*
X531697D01*
X522669Y555164D02*
X520669D01*
Y553665D01*
X521669D01*
X520669D01*
Y552165D01*
X525668Y554665D02*
X525168Y555164D01*
X524168D01*
X523668Y554665D01*
Y554165D01*
X524168Y553665D01*
X525168D01*
X525668Y553165D01*
Y552665D01*
X525168Y552165D01*
X524168D01*
X523668Y552665D01*
X528667Y554665D02*
X528167Y555164D01*
X527167D01*
X526667Y554665D01*
Y552665D01*
X527167Y552165D01*
X528167D01*
X528667Y552665D01*
X529666Y555164D02*
Y552165D01*
Y553165D01*
X531666Y555164D01*
X530166Y553665D01*
X531666Y552165D01*
X595426Y665354D02*
Y666354D01*
Y665854D01*
X598425D01*
Y665354D01*
Y666354D01*
Y667853D02*
X595426D01*
X598425Y669853D01*
X595426D01*
Y670853D02*
Y672852D01*
Y671852D01*
X598425D01*
Y673852D02*
X595426D01*
X598425Y675851D01*
X595426D01*
X616095Y667354D02*
Y666354D01*
Y666854D01*
X618595D01*
X619095Y666354D01*
Y665854D01*
X618595Y665354D01*
X616095Y668353D02*
Y670353D01*
Y669353D01*
X619095D01*
X616095Y673352D02*
Y671352D01*
X619095D01*
Y673352D01*
X617595Y671352D02*
Y672352D01*
X619095Y674351D02*
X616095D01*
X619095Y676351D01*
X616095D01*
X422244Y586660D02*
Y583661D01*
X424243D01*
X425243D02*
X426243D01*
X425743D01*
Y586660D01*
X425243Y586161D01*
X398622Y479377D02*
X399622D01*
X399122D01*
Y476378D01*
X398622D01*
X399622D01*
X403121Y478877D02*
X402621Y479377D01*
X401621D01*
X401121Y478877D01*
Y476878D01*
X401621Y476378D01*
X402621D01*
X403121Y476878D01*
X406120Y478877D02*
X405620Y479377D01*
X404620D01*
X404120Y478877D01*
Y478377D01*
X404620Y477878D01*
X405620D01*
X406120Y477378D01*
Y476878D01*
X405620Y476378D01*
X404620D01*
X404120Y476878D01*
X407119Y476378D02*
Y479377D01*
X408619D01*
X409119Y478877D01*
Y477878D01*
X408619Y477378D01*
X407119D01*
X398622Y516732D02*
Y519731D01*
X400122D01*
X400621Y519232D01*
Y518232D01*
X400122Y517732D01*
X398622D01*
X401621Y516732D02*
X402621D01*
X402121D01*
Y519731D01*
X401621Y519232D01*
X398622Y533511D02*
Y531012D01*
X399122Y530512D01*
X400122D01*
X400621Y531012D01*
Y533511D01*
X401621Y530512D02*
Y532511D01*
X402621Y533511D01*
X403620Y532511D01*
Y530512D01*
Y532011D01*
X401621D01*
X404620Y530512D02*
Y533511D01*
X406120D01*
X406620Y533011D01*
Y532011D01*
X406120Y531511D01*
X404620D01*
X405620D02*
X406620Y530512D01*
X407619Y533511D02*
X409619D01*
X408619D01*
Y530512D01*
X398622Y561024D02*
Y564023D01*
X400122D01*
X400621Y563523D01*
Y562523D01*
X400122Y562023D01*
X398622D01*
X403620Y561024D02*
X401621D01*
X403620Y563023D01*
Y563523D01*
X403121Y564023D01*
X402121D01*
X401621Y563523D01*
X407480Y610236D02*
Y613235D01*
X408980D01*
X409480Y612735D01*
Y611736D01*
X408980Y611236D01*
X407480D01*
X410479Y612735D02*
X410979Y613235D01*
X411979D01*
X412479Y612735D01*
Y612236D01*
X411979Y611736D01*
X411479D01*
X411979D01*
X412479Y611236D01*
Y610736D01*
X411979Y610236D01*
X410979D01*
X410479Y610736D01*
X545229Y757905D02*
Y755905D01*
X546729D01*
Y756905D01*
Y755905D01*
X548228D01*
Y758905D02*
X545229D01*
Y760404D01*
X545729Y760904D01*
X546729D01*
X547229Y760404D01*
Y758905D01*
X545729Y763903D02*
X545229Y763403D01*
Y762403D01*
X545729Y761904D01*
X547728D01*
X548228Y762403D01*
Y763403D01*
X547728Y763903D01*
X546729D01*
Y762903D01*
X548228Y764903D02*
X546229D01*
X545229Y765902D01*
X546229Y766902D01*
X548228D01*
X546729D01*
Y764903D01*
X545229Y772900D02*
Y771900D01*
Y772400D01*
X547728D01*
X548228Y771900D01*
Y771400D01*
X547728Y770901D01*
X545229Y773900D02*
Y775899D01*
Y774899D01*
X548228D01*
Y776899D02*
X546229D01*
X545229Y777898D01*
X546229Y778898D01*
X548228D01*
X546729D01*
Y776899D01*
X545729Y781897D02*
X545229Y781397D01*
Y780398D01*
X545729Y779898D01*
X547728D01*
X548228Y780398D01*
Y781397D01*
X547728Y781897D01*
X546729D01*
Y780897D01*
X633858Y778543D02*
Y781542D01*
X635358D01*
X635858Y781042D01*
Y780043D01*
X635358Y779543D01*
X633858D01*
X638857Y781542D02*
X636857D01*
Y780043D01*
X637857Y780543D01*
X638357D01*
X638857Y780043D01*
Y779043D01*
X638357Y778543D01*
X637357D01*
X636857Y779043D01*
X432040Y751015D02*
Y749016D01*
X435039D01*
Y751015D01*
X433540Y749016D02*
Y750015D01*
X433040Y752015D02*
X435039Y754014D01*
X434040Y753015D01*
X433040Y754014D01*
X435039Y752015D01*
X432540Y755514D02*
X433040D01*
Y755014D01*
Y756013D01*
Y755514D01*
X434540D01*
X435039Y756013D01*
X433040Y757513D02*
X435039D01*
X434040D01*
X433540Y758013D01*
X433040Y758513D01*
Y759013D01*
Y761012D02*
Y762011D01*
X433540Y762511D01*
X435039D01*
Y761012D01*
X434540Y760512D01*
X434040Y761012D01*
Y762511D01*
X435039Y766510D02*
X432040D01*
Y768010D01*
X432540Y768509D01*
X433540D01*
X434040Y768010D01*
Y766510D01*
X432040Y769509D02*
Y770509D01*
Y770009D01*
X435039D01*
Y769509D01*
Y770509D01*
X432540Y774008D02*
X432040Y773508D01*
Y772508D01*
X432540Y772008D01*
X434540D01*
X435039Y772508D01*
Y773508D01*
X434540Y774008D01*
X432040Y778006D02*
Y779006D01*
Y778506D01*
X435039D01*
Y778006D01*
Y779006D01*
X432040Y782005D02*
Y781005D01*
X432540Y780506D01*
X434540D01*
X435039Y781005D01*
Y782005D01*
X434540Y782505D01*
X432540D01*
X432040Y782005D01*
X501968Y778543D02*
Y781542D01*
X503468D01*
X503968Y781042D01*
Y780043D01*
X503468Y779543D01*
X501968D01*
X506967Y781542D02*
X505967Y781042D01*
X504967Y780043D01*
Y779043D01*
X505467Y778543D01*
X506467D01*
X506967Y779043D01*
Y779543D01*
X506467Y780043D01*
X504967D01*
X401650Y639849D02*
X399650D01*
Y636850D01*
X401650D01*
X399650Y638350D02*
X400650D01*
X402649Y638850D02*
X404649Y636850D01*
X403649Y637850D01*
X404649Y638850D01*
X402649Y636850D01*
X406148Y639350D02*
Y638850D01*
X405649D01*
X406648D01*
X406148D01*
Y637350D01*
X406648Y636850D01*
X408148Y638850D02*
Y636850D01*
Y637850D01*
X408647Y638350D01*
X409147Y638850D01*
X409647D01*
X411647D02*
X412646D01*
X413146Y638350D01*
Y636850D01*
X411647D01*
X411147Y637350D01*
X411647Y637850D01*
X413146D01*
X419144Y639849D02*
X417145D01*
Y638350D01*
X418144D01*
X417145D01*
Y636850D01*
X420144D02*
Y639849D01*
X421643D01*
X422143Y639350D01*
Y638350D01*
X421643Y637850D01*
X420144D01*
X425142Y639350D02*
X424642Y639849D01*
X423643D01*
X423143Y639350D01*
Y637350D01*
X423643Y636850D01*
X424642D01*
X425142Y637350D01*
Y638350D01*
X424143D01*
X426142Y636850D02*
Y638850D01*
X427142Y639849D01*
X428141Y638850D01*
Y636850D01*
Y638350D01*
X426142D01*
X432140Y639849D02*
X433140D01*
X432640D01*
Y636850D01*
X432140D01*
X433140D01*
X436139Y639849D02*
X435139D01*
X434639Y639350D01*
Y637350D01*
X435139Y636850D01*
X436139D01*
X436638Y637350D01*
Y639350D01*
X436139Y639849D01*
X399606Y746063D02*
Y749062D01*
X401106D01*
X401606Y748562D01*
Y747563D01*
X401106Y747063D01*
X399606D01*
X402605Y749062D02*
X404605D01*
Y748562D01*
X402605Y746563D01*
Y746063D01*
X627953Y665354D02*
X624954D01*
Y666854D01*
X625454Y667354D01*
X626453D01*
X626953Y666854D01*
Y665354D01*
X625454Y670353D02*
X624954Y669853D01*
Y668853D01*
X625454Y668353D01*
X627453D01*
X627953Y668853D01*
Y669853D01*
X627453Y670353D01*
X626453D01*
Y669353D01*
X627953Y671352D02*
X624954D01*
X625953Y672352D01*
X624954Y673352D01*
X627953D01*
Y674351D02*
X624954D01*
X627953Y676351D01*
X624954D01*
X425772Y513819D02*
Y516818D01*
X427271D01*
X427771Y516318D01*
Y515318D01*
X427271Y514819D01*
X425772D01*
X426771D02*
X427771Y513819D01*
X428771Y516318D02*
X429271Y516818D01*
X430270D01*
X430770Y516318D01*
Y515818D01*
X430270Y515318D01*
X429770D01*
X430270D01*
X430770Y514819D01*
Y514319D01*
X430270Y513819D01*
X429271D01*
X428771Y514319D01*
X460850Y516403D02*
Y519402D01*
X462350D01*
X462850Y518902D01*
Y517903D01*
X462350Y517403D01*
X460850D01*
X461850D02*
X462850Y516403D01*
X465349D02*
Y519402D01*
X463849Y517903D01*
X465849D01*
X460850Y496682D02*
Y499681D01*
X462350D01*
X462850Y499181D01*
Y498181D01*
X462350Y497682D01*
X460850D01*
X461850D02*
X462850Y496682D01*
X465849Y499681D02*
X463849D01*
Y498181D01*
X464849Y498681D01*
X465349D01*
X465849Y498181D01*
Y497182D01*
X465349Y496682D01*
X464349D01*
X463849Y497182D01*
X460782Y477003D02*
Y480002D01*
X462281D01*
X462781Y479502D01*
Y478503D01*
X462281Y478003D01*
X460782D01*
X461782D02*
X462781Y477003D01*
X465780Y480002D02*
X464781Y479502D01*
X463781Y478503D01*
Y477503D01*
X464281Y477003D01*
X465280D01*
X465780Y477503D01*
Y478003D01*
X465280Y478503D01*
X463781D01*
X473650Y494050D02*
Y497049D01*
X475150D01*
X475650Y496550D01*
Y495550D01*
X475150Y495050D01*
X473650D01*
X476649Y497049D02*
X477649D01*
X477149D01*
Y494050D01*
X476649D01*
X477649D01*
X481148Y496550D02*
X480648Y497049D01*
X479648D01*
X479149Y496550D01*
Y494550D01*
X479648Y494050D01*
X480648D01*
X481148Y494550D01*
X485147Y497049D02*
Y494550D01*
X485646Y494050D01*
X486646D01*
X487146Y494550D01*
Y497049D01*
X488146D02*
X489145D01*
X488646D01*
Y494050D01*
X488146D01*
X489145D01*
X475650Y529150D02*
X475150Y529649D01*
X474150D01*
X473650Y529150D01*
Y528650D01*
X474150Y528150D01*
X475150D01*
X475650Y527650D01*
Y527150D01*
X475150Y526650D01*
X474150D01*
X473650Y527150D01*
X476649Y526650D02*
X477649D01*
X477149D01*
Y529649D01*
X476649Y529150D01*
X475650Y693849D02*
X473650D01*
Y692350D01*
X474650D01*
X473650D01*
Y690850D01*
X476649D02*
Y693849D01*
X478149D01*
X478649Y693350D01*
Y692350D01*
X478149Y691850D01*
X476649D01*
X481648Y693350D02*
X481148Y693849D01*
X480148D01*
X479648Y693350D01*
Y691350D01*
X480148Y690850D01*
X481148D01*
X481648Y691350D01*
Y692350D01*
X480648D01*
X482648Y690850D02*
Y692850D01*
X483647Y693849D01*
X484647Y692850D01*
Y690850D01*
Y692350D01*
X482648D01*
X488646Y693849D02*
Y691350D01*
X489145Y690850D01*
X490145D01*
X490645Y691350D01*
Y693849D01*
X491645D02*
X492644D01*
X492144D01*
Y690850D01*
X491645D01*
X492644D01*
X475650Y725950D02*
X475150Y726449D01*
X474150D01*
X473650Y725950D01*
Y725450D01*
X474150Y724950D01*
X475150D01*
X475650Y724450D01*
Y723950D01*
X475150Y723450D01*
X474150D01*
X473650Y723950D01*
X478649Y723450D02*
X476649D01*
X478649Y725450D01*
Y725950D01*
X478149Y726449D01*
X477149D01*
X476649Y725950D01*
X473650Y454650D02*
Y457649D01*
X475150D01*
X475650Y457150D01*
Y456150D01*
X475150Y455650D01*
X473650D01*
X474650D02*
X475650Y454650D01*
X478149D02*
X477149D01*
X476649Y455150D01*
Y456150D01*
X477149Y456650D01*
X478149D01*
X478649Y456150D01*
Y455650D01*
X476649D01*
X479648Y454650D02*
X481148D01*
X481648Y455150D01*
X481148Y455650D01*
X480148D01*
X479648Y456150D01*
X480148Y456650D01*
X481648D01*
X484147Y454650D02*
X483147D01*
X482648Y455150D01*
Y456150D01*
X483147Y456650D01*
X484147D01*
X484647Y456150D01*
Y455650D01*
X482648D01*
X486146Y457150D02*
Y456650D01*
X485646D01*
X486646D01*
X486146D01*
Y455150D01*
X486646Y454650D01*
X491145D02*
Y457649D01*
X492644D01*
X493144Y457150D01*
Y456150D01*
X492644Y455650D01*
X491145D01*
X494144Y457649D02*
X495143D01*
X494644D01*
Y454650D01*
X494144D01*
X495143D01*
X498642Y457150D02*
X498142Y457649D01*
X497143D01*
X496643Y457150D01*
Y455150D01*
X497143Y454650D01*
X498142D01*
X498642Y455150D01*
X475650Y489750D02*
X475150Y490249D01*
X474150D01*
X473650Y489750D01*
Y489250D01*
X474150Y488750D01*
X475150D01*
X475650Y488250D01*
Y487750D01*
X475150Y487250D01*
X474150D01*
X473650Y487750D01*
X476649Y489750D02*
X477149Y490249D01*
X478149D01*
X478649Y489750D01*
Y489250D01*
X478149Y488750D01*
X477649D01*
X478149D01*
X478649Y488250D01*
Y487750D01*
X478149Y487250D01*
X477149D01*
X476649Y487750D01*
X565945Y516779D02*
Y514279D01*
X566445Y513779D01*
X567444D01*
X567944Y514279D01*
Y516779D01*
X568944Y513779D02*
X569944D01*
X569444D01*
Y516779D01*
X568944Y516279D01*
X537402Y626030D02*
Y623531D01*
X537901Y623032D01*
X538901D01*
X539401Y623531D01*
Y626030D01*
X542400Y623032D02*
X540401D01*
X542400Y625031D01*
Y625531D01*
X541900Y626030D01*
X540900D01*
X540401Y625531D01*
X509842Y614220D02*
Y611720D01*
X510342Y611221D01*
X511342D01*
X511842Y611720D01*
Y614220D01*
X512842Y613720D02*
X513341Y614220D01*
X514341D01*
X514841Y613720D01*
Y613220D01*
X514341Y612720D01*
X513841D01*
X514341D01*
X514841Y612220D01*
Y611720D01*
X514341Y611221D01*
X513341D01*
X512842Y611720D01*
X674250Y612949D02*
Y610450D01*
X674750Y609950D01*
X675750D01*
X676250Y610450D01*
Y612949D01*
X678749Y609950D02*
Y612949D01*
X677249Y611450D01*
X679249D01*
X704944Y722373D02*
Y719874D01*
X705443Y719374D01*
X706443D01*
X706943Y719874D01*
Y722373D01*
X709942D02*
X708942Y721873D01*
X707943Y720873D01*
Y719874D01*
X708443Y719374D01*
X709442D01*
X709942Y719874D01*
Y720373D01*
X709442Y720873D01*
X707943D01*
X461568Y611221D02*
X464067D01*
X464567Y611720D01*
Y612720D01*
X464067Y613220D01*
X461568D01*
Y614220D02*
Y616219D01*
X462068D01*
X464067Y614220D01*
X464567D01*
X559055Y444928D02*
Y442929D01*
X560055Y441929D01*
X561055Y442929D01*
Y444928D01*
X562054Y443928D02*
Y441929D01*
Y442929D01*
X562554Y443429D01*
X563054Y443928D01*
X563554D01*
X566553Y441929D02*
X565553D01*
X565053Y442429D01*
Y443429D01*
X565553Y443928D01*
X566553D01*
X567053Y443429D01*
Y442929D01*
X565053D01*
X568552Y441929D02*
Y444428D01*
Y443429D01*
X568052D01*
X569052D01*
X568552D01*
Y444428D01*
X569052Y444928D01*
X525281Y521250D02*
X524781Y521749D01*
X523782D01*
X523282Y521250D01*
Y519250D01*
X523782Y518750D01*
X524781D01*
X525281Y519250D01*
X526281Y518750D02*
X527281D01*
X526781D01*
Y521749D01*
X526281Y521250D01*
X528780Y518750D02*
X529780D01*
X529280D01*
Y521749D01*
X528780Y521250D01*
X525266Y718118D02*
X524766Y718618D01*
X523766D01*
X523266Y718118D01*
Y716119D01*
X523766Y715619D01*
X524766D01*
X525266Y716119D01*
X528265Y718618D02*
X527265Y718118D01*
X526265Y717118D01*
Y716119D01*
X526765Y715619D01*
X527765D01*
X528265Y716119D01*
Y716619D01*
X527765Y717118D01*
X526265D01*
X531264Y715619D02*
X529264D01*
X531264Y717618D01*
Y718118D01*
X530764Y718618D01*
X529764D01*
X529264Y718118D01*
X447450Y717149D02*
Y714150D01*
X448950D01*
X449450Y714650D01*
Y716650D01*
X448950Y717149D01*
X447450D01*
X452449D02*
X450449D01*
Y715650D01*
X451449Y716150D01*
X451949D01*
X452449Y715650D01*
Y714650D01*
X451949Y714150D01*
X450949D01*
X450449Y714650D01*
X447450Y697449D02*
Y694450D01*
X448950D01*
X449450Y694950D01*
Y696950D01*
X448950Y697449D01*
X447450D01*
X452449D02*
X451449Y696950D01*
X450449Y695950D01*
Y694950D01*
X450949Y694450D01*
X451949D01*
X452449Y694950D01*
Y695450D01*
X451949Y695950D01*
X450449D01*
X447450Y677749D02*
Y674750D01*
X448950D01*
X449450Y675250D01*
Y677250D01*
X448950Y677749D01*
X447450D01*
X450449D02*
X452449D01*
Y677250D01*
X450449Y675250D01*
Y674750D01*
X428346Y601818D02*
Y598819D01*
X430346D01*
X431346Y601818D02*
X433345D01*
Y601318D01*
X431346Y599319D01*
Y598819D01*
X515398Y518719D02*
Y521718D01*
X516897D01*
X517397Y521218D01*
Y520218D01*
X516897Y519719D01*
X515398D01*
X516397D02*
X517397Y518719D01*
X518397Y521718D02*
X520396D01*
Y521218D01*
X518397Y519219D01*
Y518719D01*
X515382Y715603D02*
Y718602D01*
X516881D01*
X517381Y718102D01*
Y717103D01*
X516881Y716603D01*
X515382D01*
X516382D02*
X517381Y715603D01*
X518381Y718102D02*
X518881Y718602D01*
X519880D01*
X520380Y718102D01*
Y717602D01*
X519880Y717103D01*
X520380Y716603D01*
Y716103D01*
X519880Y715603D01*
X518881D01*
X518381Y716103D01*
Y716603D01*
X518881Y717103D01*
X518381Y717602D01*
Y718102D01*
X518881Y717103D02*
X519880D01*
X460866Y713250D02*
Y716249D01*
X462366D01*
X462865Y715750D01*
Y714750D01*
X462366Y714250D01*
X460866D01*
X461866D02*
X462865Y713250D01*
X463865Y713750D02*
X464365Y713250D01*
X465365D01*
X465865Y713750D01*
Y715750D01*
X465365Y716249D01*
X464365D01*
X463865Y715750D01*
Y715250D01*
X464365Y714750D01*
X465865D01*
X460782Y693519D02*
Y696518D01*
X462281D01*
X462781Y696018D01*
Y695018D01*
X462281Y694519D01*
X460782D01*
X461782D02*
X462781Y693519D01*
X463781D02*
X464781D01*
X464281D01*
Y696518D01*
X463781Y696018D01*
X466280D02*
X466780Y696518D01*
X467780D01*
X468280Y696018D01*
Y694019D01*
X467780Y693519D01*
X466780D01*
X466280Y694019D01*
Y696018D01*
X460861Y673882D02*
Y676881D01*
X462360D01*
X462860Y676381D01*
Y675381D01*
X462360Y674882D01*
X460861D01*
X461860D02*
X462860Y673882D01*
X463860D02*
X464859D01*
X464360D01*
Y676881D01*
X463860Y676381D01*
X466359Y673882D02*
X467358D01*
X466859D01*
Y676881D01*
X466359Y676381D01*
X473650Y651450D02*
Y654449D01*
X475150D01*
X475650Y653950D01*
Y652950D01*
X475150Y652450D01*
X473650D01*
X476649Y653450D02*
Y651450D01*
Y652450D01*
X477149Y652950D01*
X477649Y653450D01*
X478149D01*
X480148Y651450D02*
X481148D01*
X481648Y651950D01*
Y652950D01*
X481148Y653450D01*
X480148D01*
X479648Y652950D01*
Y651950D01*
X480148Y651450D01*
X483647Y650451D02*
X484147D01*
X484647Y650951D01*
Y653450D01*
X483147D01*
X482648Y652950D01*
Y651950D01*
X483147Y651450D01*
X484647D01*
X485646Y653450D02*
Y651450D01*
Y652450D01*
X486146Y652950D01*
X486646Y653450D01*
X487146D01*
X489145D02*
X490145D01*
X490645Y652950D01*
Y651450D01*
X489145D01*
X488646Y651950D01*
X489145Y652450D01*
X490645D01*
X491645Y651450D02*
Y653450D01*
X492144D01*
X492644Y652950D01*
Y651450D01*
Y652950D01*
X493144Y653450D01*
X493644Y652950D01*
Y651450D01*
X499642Y654449D02*
X497643D01*
Y652950D01*
X498642D01*
X497643D01*
Y651450D01*
X500642D02*
Y654449D01*
X502141D01*
X502641Y653950D01*
Y652950D01*
X502141Y652450D01*
X500642D01*
X505640Y653950D02*
X505140Y654449D01*
X504141D01*
X503641Y653950D01*
Y651950D01*
X504141Y651450D01*
X505140D01*
X505640Y651950D01*
Y652950D01*
X504640D01*
X506640Y651450D02*
Y653450D01*
X507639Y654449D01*
X508639Y653450D01*
Y651450D01*
Y652950D01*
X506640D01*
X475650Y686550D02*
X475150Y687049D01*
X474150D01*
X473650Y686550D01*
Y686050D01*
X474150Y685550D01*
X475150D01*
X475650Y685050D01*
Y684550D01*
X475150Y684050D01*
X474150D01*
X473650Y684550D01*
X478149Y684050D02*
Y687049D01*
X476649Y685550D01*
X478649D01*
X759842Y700318D02*
X761842D01*
X760842Y701318D02*
Y699319D01*
X762842Y701318D02*
X763341Y701818D01*
X764341D01*
X764841Y701318D01*
Y700818D01*
X764341Y700318D01*
X763841D01*
X764341D01*
X764841Y699819D01*
Y699319D01*
X764341Y698819D01*
X763341D01*
X762842Y699319D01*
X765841Y698819D02*
Y699319D01*
X766340D01*
Y698819D01*
X765841D01*
X768340Y701318D02*
X768840Y701818D01*
X769839D01*
X770339Y701318D01*
Y700818D01*
X769839Y700318D01*
X769340D01*
X769839D01*
X770339Y699819D01*
Y699319D01*
X769839Y698819D01*
X768840D01*
X768340Y699319D01*
X771339Y701818D02*
Y699819D01*
X772338Y698819D01*
X773338Y699819D01*
Y701818D01*
X756890Y621578D02*
X758889D01*
X757889Y622578D02*
Y620579D01*
X761888Y623078D02*
X759889D01*
Y621578D01*
X760888Y622078D01*
X761388D01*
X761888Y621578D01*
Y620579D01*
X761388Y620079D01*
X760389D01*
X759889Y620579D01*
X762888Y623078D02*
Y621078D01*
X763888Y620079D01*
X764887Y621078D01*
Y623078D01*
X765887Y619579D02*
X767886D01*
X768886Y623078D02*
Y620579D01*
X769386Y620079D01*
X770385D01*
X770885Y620579D01*
Y623078D01*
X773884Y622578D02*
X773384Y623078D01*
X772385D01*
X771885Y622578D01*
Y622078D01*
X772385Y621578D01*
X773384D01*
X773884Y621078D01*
Y620579D01*
X773384Y620079D01*
X772385D01*
X771885Y620579D01*
X774884Y623078D02*
Y620079D01*
X776383D01*
X776883Y620579D01*
Y621078D01*
X776383Y621578D01*
X774884D01*
X776383D01*
X776883Y622078D01*
Y622578D01*
X776383Y623078D01*
X774884D01*
X554165Y458208D02*
X553665Y458708D01*
X552665D01*
X552165Y458208D01*
Y456209D01*
X552665Y455709D01*
X553665D01*
X554165Y456209D01*
X557164Y455709D02*
X555164D01*
X557164Y457708D01*
Y458208D01*
X556664Y458708D01*
X555664D01*
X555164Y458208D01*
X559663Y455709D02*
Y458708D01*
X558163Y457208D01*
X560163D01*
X725103Y655280D02*
X724603Y655780D01*
X723603D01*
X723103Y655280D01*
Y653281D01*
X723603Y652781D01*
X724603D01*
X725103Y653281D01*
X728101Y652781D02*
X726102D01*
X728101Y654780D01*
Y655280D01*
X727602Y655780D01*
X726602D01*
X726102Y655280D01*
X731101Y655780D02*
X729101D01*
Y654281D01*
X730101Y654780D01*
X730601D01*
X731101Y654281D01*
Y653281D01*
X730601Y652781D01*
X729601D01*
X729101Y653281D01*
X735050Y655265D02*
X734550Y655764D01*
X733550D01*
X733050Y655265D01*
Y653265D01*
X733550Y652765D01*
X734550D01*
X735050Y653265D01*
X738049Y652765D02*
X736049D01*
X738049Y654765D01*
Y655265D01*
X737549Y655764D01*
X736549D01*
X736049Y655265D01*
X741048Y655764D02*
X740048Y655265D01*
X739048Y654265D01*
Y653265D01*
X739548Y652765D01*
X740548D01*
X741048Y653265D01*
Y653765D01*
X740548Y654265D01*
X739048D01*
X637826Y499546D02*
X637326Y500046D01*
X636327D01*
X635827Y499546D01*
Y497547D01*
X636327Y497047D01*
X637326D01*
X637826Y497547D01*
X640825Y497047D02*
X638826D01*
X640825Y499047D01*
Y499546D01*
X640325Y500046D01*
X639326D01*
X638826Y499546D01*
X641825Y500046D02*
X643824D01*
Y499546D01*
X641825Y497547D01*
Y497047D01*
X531527Y482814D02*
X531027Y483314D01*
X530027D01*
X529528Y482814D01*
Y480815D01*
X530027Y480315D01*
X531027D01*
X531527Y480815D01*
X534526Y480315D02*
X532527D01*
X534526Y482314D01*
Y482814D01*
X534026Y483314D01*
X533026D01*
X532527Y482814D01*
X535526D02*
X536025Y483314D01*
X537025D01*
X537525Y482814D01*
Y482314D01*
X537025Y481814D01*
X537525Y481315D01*
Y480815D01*
X537025Y480315D01*
X536025D01*
X535526Y480815D01*
Y481315D01*
X536025Y481814D01*
X535526Y482314D01*
Y482814D01*
X536025Y481814D02*
X537025D01*
X690976Y617657D02*
X690476Y618156D01*
X689476D01*
X688976Y617657D01*
Y615657D01*
X689476Y615158D01*
X690476D01*
X690976Y615657D01*
X693975Y615158D02*
X691975D01*
X693975Y617157D01*
Y617657D01*
X693475Y618156D01*
X692475D01*
X691975Y617657D01*
X694974Y615657D02*
X695474Y615158D01*
X696474D01*
X696974Y615657D01*
Y617657D01*
X696474Y618156D01*
X695474D01*
X694974Y617657D01*
Y617157D01*
X695474Y616657D01*
X696974D01*
X457708Y574350D02*
X457208Y574849D01*
X456209D01*
X455709Y574350D01*
Y572350D01*
X456209Y571850D01*
X457208D01*
X457708Y572350D01*
X458708Y574350D02*
X459207Y574849D01*
X460207D01*
X460707Y574350D01*
Y573850D01*
X460207Y573350D01*
X459707D01*
X460207D01*
X460707Y572850D01*
Y572350D01*
X460207Y571850D01*
X459207D01*
X458708Y572350D01*
X461707Y574350D02*
X462207Y574849D01*
X463206D01*
X463706Y574350D01*
Y572350D01*
X463206Y571850D01*
X462207D01*
X461707Y572350D01*
Y574350D01*
X765779Y661948D02*
X765279Y662448D01*
X764279D01*
X763779Y661948D01*
Y659949D01*
X764279Y659449D01*
X765279D01*
X765779Y659949D01*
Y660948D01*
X764779D01*
X766779Y659449D02*
Y662448D01*
X768778Y659449D01*
Y662448D01*
X769778D02*
Y659449D01*
X771277D01*
X771777Y659949D01*
Y661948D01*
X771277Y662448D01*
X769778D01*
X436713Y607356D02*
Y604856D01*
X437213Y604357D01*
X438213D01*
X438713Y604856D01*
Y607356D01*
X439712Y606856D02*
X440212Y607356D01*
X441212D01*
X441712Y606856D01*
Y606356D01*
X441212Y605856D01*
X441712Y605356D01*
Y604856D01*
X441212Y604357D01*
X440212D01*
X439712Y604856D01*
Y605356D01*
X440212Y605856D01*
X439712Y606356D01*
Y606856D01*
X440212Y605856D02*
X441212D01*
X696804Y398622D02*
X699803D01*
Y400122D01*
X699303Y400621D01*
X698804D01*
X698304Y400122D01*
Y398622D01*
Y400122D01*
X697804Y400621D01*
X697304D01*
X696804Y400122D01*
Y398622D01*
X699803Y401621D02*
Y402621D01*
Y402121D01*
X697804D01*
Y401621D01*
Y404620D02*
Y405620D01*
X698304Y406120D01*
X699803D01*
Y404620D01*
X699303Y404120D01*
X698804Y404620D01*
Y406120D01*
X699803Y407119D02*
Y408619D01*
X699303Y409119D01*
X698804Y408619D01*
Y407619D01*
X698304Y407119D01*
X697804Y407619D01*
Y409119D01*
X699803Y413117D02*
X696804D01*
Y414617D01*
X697304Y415117D01*
X698304D01*
X698804Y414617D01*
Y413117D01*
X699803Y416616D02*
Y417616D01*
X699303Y418116D01*
X698304D01*
X697804Y417616D01*
Y416616D01*
X698304Y416116D01*
X699303D01*
X699803Y416616D01*
X697804Y419115D02*
X699303D01*
X699803Y419615D01*
X699303Y420115D01*
X699803Y420615D01*
X699303Y421115D01*
X697804D01*
X699803Y423614D02*
Y422614D01*
X699303Y422114D01*
X698304D01*
X697804Y422614D01*
Y423614D01*
X698304Y424114D01*
X698804D01*
Y422114D01*
X697804Y425113D02*
X699803D01*
X698804D01*
X698304Y425613D01*
X697804Y426113D01*
Y426613D01*
X662402Y400591D02*
Y403590D01*
X663901D01*
X664401Y403090D01*
Y402090D01*
X663901Y401590D01*
X662402D01*
X665401Y400591D02*
X666400D01*
X665900D01*
Y403590D01*
X665401Y403090D01*
X667900D02*
X668400Y403590D01*
X669399D01*
X669899Y403090D01*
Y401090D01*
X669399Y400591D01*
X668400D01*
X667900Y401090D01*
Y403090D01*
X748062Y523668D02*
X746063D01*
Y522169D01*
X747063D01*
X746063D01*
Y520669D01*
X749062D02*
Y523668D01*
X750562D01*
X751061Y523169D01*
Y522169D01*
X750562Y521669D01*
X749062D01*
X754060Y523169D02*
X753561Y523668D01*
X752561D01*
X752061Y523169D01*
Y521169D01*
X752561Y520669D01*
X753561D01*
X754060Y521169D01*
Y522169D01*
X753061D01*
X755060Y520669D02*
Y522669D01*
X756060Y523668D01*
X757059Y522669D01*
Y520669D01*
Y522169D01*
X755060D01*
X761058Y523668D02*
Y520669D01*
X762558D01*
X763058Y521169D01*
Y523169D01*
X762558Y523668D01*
X761058D01*
X764057Y520669D02*
X765057D01*
X764557D01*
Y522669D01*
X764057D01*
X767056Y520669D02*
Y523169D01*
Y522169D01*
X766556D01*
X767556D01*
X767056D01*
Y523169D01*
X767556Y523668D01*
X769555Y520669D02*
Y523169D01*
Y522169D01*
X769056D01*
X770055D01*
X769555D01*
Y523169D01*
X770055Y523668D01*
X771555Y520669D02*
Y521169D01*
X772055D01*
Y520669D01*
X771555D01*
X777053Y523668D02*
X778053D01*
X777553D01*
Y520669D01*
X777053D01*
X778053D01*
X781052Y523668D02*
X780052D01*
X779552Y523169D01*
Y521169D01*
X780052Y520669D01*
X781052D01*
X781552Y521169D01*
Y523169D01*
X781052Y523668D01*
X776575Y431102D02*
Y434101D01*
X778074D01*
X778574Y433602D01*
Y432602D01*
X778074Y432102D01*
X776575D01*
X781073Y431102D02*
Y434101D01*
X779574Y432602D01*
X781573D01*
X415354Y550750D02*
Y553749D01*
X416854D01*
X417354Y553250D01*
Y552250D01*
X416854Y551750D01*
X415354D01*
X416354D02*
X417354Y550750D01*
X418353Y553749D02*
X420353Y550750D01*
Y553749D02*
X418353Y550750D01*
X415354Y548828D02*
X417354D01*
X416354D01*
Y545829D01*
X418353Y548828D02*
X420353Y545829D01*
Y548828D02*
X418353Y545829D01*
X417354Y543407D02*
X416854Y543907D01*
X415854D01*
X415354Y543407D01*
Y541408D01*
X415854Y540908D01*
X416854D01*
X417354Y541408D01*
Y542407D01*
X416354D01*
X418353Y540908D02*
Y543907D01*
X420353Y540908D01*
Y543907D01*
X421352D02*
Y540908D01*
X422852D01*
X423352Y541408D01*
Y543407D01*
X422852Y543907D01*
X421352D01*
X413350Y506459D02*
Y509458D01*
X414350Y508458D01*
X415350Y509458D01*
Y506459D01*
X418349Y508958D02*
X417849Y509458D01*
X416849D01*
X416349Y508958D01*
Y506959D01*
X416849Y506459D01*
X417849D01*
X418349Y506959D01*
X419348Y509458D02*
Y506459D01*
X421348D01*
X422347D02*
Y509458D01*
X423847D01*
X424347Y508958D01*
Y507959D01*
X423847Y507459D01*
X422347D01*
X423347D02*
X424347Y506459D01*
X415354Y504037D02*
X415854Y504537D01*
X416854D01*
X417354Y504037D01*
Y503537D01*
X416854Y503037D01*
X416354D01*
X416854D01*
X417354Y502537D01*
Y502038D01*
X416854Y501538D01*
X415854D01*
X415354Y502038D01*
X418353Y504537D02*
Y502537D01*
X419353Y501538D01*
X420353Y502537D01*
Y504537D01*
X421352Y504037D02*
X421852Y504537D01*
X422852D01*
X423352Y504037D01*
Y503537D01*
X422852Y503037D01*
X422352D01*
X422852D01*
X423352Y502537D01*
Y502038D01*
X422852Y501538D01*
X421852D01*
X421352Y502038D01*
X417354Y499116D02*
X416854Y499615D01*
X415854D01*
X415354Y499116D01*
Y497116D01*
X415854Y496617D01*
X416854D01*
X417354Y497116D01*
Y498116D01*
X416354D01*
X418353Y496617D02*
Y499615D01*
X420353Y496617D01*
Y499615D01*
X421352D02*
Y496617D01*
X422852D01*
X423352Y497116D01*
Y499116D01*
X422852Y499615D01*
X421352D01*
X415354Y491695D02*
Y494694D01*
X416854D01*
X417354Y494194D01*
Y493195D01*
X416854Y492695D01*
X415354D01*
X420353Y494194D02*
X419853Y494694D01*
X418853D01*
X418353Y494194D01*
Y492195D01*
X418853Y491695D01*
X419853D01*
X420353Y492195D01*
Y493195D01*
X419353D01*
X421352Y494694D02*
Y491695D01*
X422852D01*
X423352Y492195D01*
Y494194D01*
X422852Y494694D01*
X421352D01*
X415354Y486774D02*
Y489773D01*
X416854D01*
X417354Y489273D01*
Y488273D01*
X416854Y487774D01*
X415354D01*
X420353Y489273D02*
X419853Y489773D01*
X418853D01*
X418353Y489273D01*
Y487274D01*
X418853Y486774D01*
X419853D01*
X420353Y487274D01*
Y488273D01*
X419353D01*
X423352Y489273D02*
X422852Y489773D01*
X421852D01*
X421352Y489273D01*
Y487274D01*
X421852Y486774D01*
X422852D01*
X423352Y487274D01*
D58*
X483779Y520472D02*
G03*
X483779Y520472I-315J0D01*
G01*
X501102Y700000D02*
G03*
X501102Y700000I-315J0D01*
G01*
X483779Y481102D02*
G03*
X483779Y481102I-315J0D01*
G01*
Y677953D02*
G03*
X483779Y677953I-315J0D01*
G01*
D59*
X684437Y661686D02*
X686037D01*
X684437Y665086D02*
X686037D01*
X675972Y686739D02*
X677572D01*
X675972Y683339D02*
X677572D01*
X619279Y470741D02*
X620879D01*
X619279Y474141D02*
X620879D01*
X493747Y563776D02*
X494878Y562644D01*
X491342Y561372D02*
X492474Y560240D01*
X500636Y565744D02*
X501768Y564613D01*
X498232Y563340D02*
X499364Y562209D01*
X571641Y461883D02*
X573241D01*
X571641Y465283D02*
X573241D01*
X463767Y474141D02*
X465367D01*
X463767Y470741D02*
X465367D01*
X463767Y493826D02*
X465367D01*
X463767Y490426D02*
X465367D01*
X488457Y617310D02*
Y618910D01*
X491857Y617310D02*
Y618910D01*
X463767Y513511D02*
X465367D01*
X463767Y510111D02*
X465367D01*
X424481Y611405D02*
Y613005D01*
X427881Y611405D02*
Y613005D01*
X425465Y506090D02*
Y507690D01*
X428865Y506090D02*
Y507690D01*
X470657Y627237D02*
X472257D01*
X470657Y630637D02*
X472257D01*
X463767Y670991D02*
X465367D01*
X463767Y667591D02*
X465367D01*
X463767Y690676D02*
X465367D01*
X463767Y687276D02*
X465367D01*
X463767Y710361D02*
X465367D01*
X463767Y706961D02*
X465367D01*
X526306Y707861D02*
Y709461D01*
X522906Y707861D02*
Y709461D01*
X518432Y707861D02*
Y709461D01*
X515032Y707861D02*
Y709461D01*
X522906Y511011D02*
Y512611D01*
X526306Y511011D02*
Y512611D01*
X515032Y511011D02*
Y512611D01*
X518432Y511011D02*
Y512611D01*
X421444Y598694D02*
X423044D01*
X421444Y602094D02*
X423044D01*
X501185Y618747D02*
X502316Y619878D01*
X503589Y616342D02*
X504720Y617474D01*
X518885Y590283D02*
X520485D01*
X518885Y586883D02*
X520485D01*
X463176Y590820D02*
X464776D01*
X463176Y594220D02*
X464776D01*
X463767Y600662D02*
X465367D01*
X463767Y604062D02*
X465367D01*
X552940Y539639D02*
X554540D01*
X552940Y543039D02*
X554540D01*
X585361Y537586D02*
Y539186D01*
X581961Y537586D02*
Y539186D01*
X616778Y539169D02*
X617909Y538038D01*
X614374Y536765D02*
X615505Y535634D01*
X629653Y537586D02*
Y539186D01*
X626253Y537586D02*
Y539186D01*
X624200Y483984D02*
X625800D01*
X624200Y480583D02*
X625800D01*
X624200Y490873D02*
X625800D01*
X624200Y487473D02*
X625800D01*
X584377Y456877D02*
Y458477D01*
X580977Y456877D02*
Y458477D01*
X554318Y478615D02*
X555918D01*
X554318Y482015D02*
X555918D01*
X554318Y483536D02*
X555918D01*
X554318Y486936D02*
X555918D01*
X536602Y593772D02*
X538202D01*
X536602Y597172D02*
X538202D01*
X536208Y610898D02*
X537808D01*
X536208Y614298D02*
X537808D01*
X547960Y546444D02*
Y548044D01*
X544560Y546444D02*
Y548044D01*
X597172Y456877D02*
Y458477D01*
X593772Y456877D02*
Y458477D01*
X608984Y458846D02*
Y460446D01*
X605583Y458846D02*
Y460446D01*
X545460Y632158D02*
X547060D01*
X545460Y635558D02*
X547060D01*
X576056Y640932D02*
Y642532D01*
X579456Y640932D02*
Y642532D01*
X420991Y611405D02*
Y613005D01*
X417591Y611405D02*
Y613005D01*
X421444Y582409D02*
X423044D01*
X421444Y579009D02*
X423044D01*
X501883Y444771D02*
Y446371D01*
X505283Y444771D02*
Y446371D01*
X511883Y444771D02*
Y446371D01*
X515283Y444771D02*
Y446371D01*
X595150Y642901D02*
Y644501D01*
X598550Y642901D02*
Y644501D01*
X609520Y640932D02*
Y642532D01*
X612921Y640932D02*
Y642532D01*
X685224Y569166D02*
X686824D01*
X685224Y572566D02*
X686824D01*
X671528Y587783D02*
Y589383D01*
X674928Y587783D02*
Y589383D01*
X707409Y589751D02*
Y591351D01*
X704009Y589751D02*
Y591351D01*
X632158Y634043D02*
Y635642D01*
X635558Y634043D02*
Y635642D01*
X644869Y587330D02*
X646469D01*
X644869Y583930D02*
X646469D01*
X641016Y615342D02*
Y616942D01*
X644417Y615342D02*
Y616942D01*
X644869Y569613D02*
X646469D01*
X644869Y566213D02*
X646469D01*
X563176Y735505D02*
X564776D01*
X563176Y738905D02*
X564776D01*
X582861D02*
X584461D01*
X582861Y735505D02*
X584461D01*
X596641D02*
X598241D01*
X596641Y738905D02*
X598241D01*
X623216D02*
X624816D01*
X623216Y735505D02*
X624816D01*
D60*
X681890Y676968D02*
X685039D01*
Y675000D02*
Y676968D01*
X673228D02*
X676378D01*
X673228Y675000D02*
Y676968D01*
X703346Y781701D02*
X743347D01*
X703346Y755701D02*
X743347D01*
X703346D02*
Y781701D01*
X743347Y755701D02*
Y781701D01*
X440126Y613039D02*
Y623276D01*
X455874Y613039D02*
Y623276D01*
Y632724D02*
Y642961D01*
X440126Y632724D02*
Y642961D01*
Y613039D02*
X455874D01*
X440126Y642961D02*
X455874D01*
X569957Y460177D02*
X572957D01*
X569957Y455177D02*
X572957D01*
X508957Y608858D02*
X510433D01*
X510433Y607382D01*
X473819Y608858D02*
X475295D01*
X473819D02*
X473819Y607382D01*
X473819Y572244D02*
X473819Y573721D01*
X473819Y572244D02*
X475295D01*
X508957D02*
X510433D01*
X510433Y573721D01*
X438583Y399402D02*
Y425402D01*
X518583Y399402D02*
Y425402D01*
X438583D02*
X518583D01*
X438583Y399402D02*
X518583D01*
X399402Y742835D02*
X425402D01*
X399402Y642835D02*
X425402D01*
Y742835D01*
X399402Y642835D02*
Y742835D01*
X448256Y469941D02*
X457874D01*
X449256Y474941D02*
X457874D01*
X448256D02*
X449256D01*
X457874Y469941D02*
Y474941D01*
X447256Y470941D02*
Y473941D01*
Y470941D02*
X448256Y469941D01*
X447256Y473941D02*
X448256Y474941D01*
Y489626D02*
X457874D01*
X449256Y494626D02*
X457874D01*
X448256D02*
X449256D01*
X457874Y489626D02*
Y494626D01*
X447256Y490626D02*
Y493626D01*
Y490626D02*
X448256Y489626D01*
X447256Y493626D02*
X448256Y494626D01*
Y509311D02*
X457874D01*
X449256Y514311D02*
X457874D01*
X448256D02*
X449256D01*
X457874Y509311D02*
Y514311D01*
X447256Y510311D02*
Y513311D01*
Y510311D02*
X448256Y509311D01*
X447256Y513311D02*
X448256Y514311D01*
X677165Y574803D02*
X700787D01*
X677165Y606299D02*
X700787D01*
Y574803D02*
Y606299D01*
X677165Y574803D02*
Y606299D01*
Y602362D02*
X681102Y606299D01*
X745866Y672638D02*
Y681693D01*
X704921Y672638D02*
X745866D01*
X704921D02*
Y681693D01*
X480315Y500000D02*
Y523622D01*
Y500000D02*
X503937D01*
Y523622D01*
X480315D02*
X503937D01*
Y696850D02*
Y720472D01*
X480315D02*
X503937D01*
X480315Y696850D02*
Y720472D01*
Y696850D02*
X503937D01*
X480315Y460630D02*
Y484252D01*
Y460630D02*
X503937D01*
Y484252D01*
X480315D02*
X503937D01*
X448256Y666791D02*
X457874D01*
X449256Y671791D02*
X457874D01*
X448256D02*
X449256D01*
X457874Y666791D02*
Y671791D01*
X447256Y667791D02*
Y670791D01*
Y667791D02*
X448256Y666791D01*
X447256Y670791D02*
X448256Y671791D01*
Y686476D02*
X457874D01*
X449256Y691476D02*
X457874D01*
X448256D02*
X449256D01*
X457874Y686476D02*
Y691476D01*
X447256Y687476D02*
Y690476D01*
Y687476D02*
X448256Y686476D01*
X447256Y690476D02*
X448256Y691476D01*
X480315Y657480D02*
Y681102D01*
Y657480D02*
X503937D01*
Y681102D01*
X480315D02*
X503937D01*
X448256Y706161D02*
X457874D01*
X449256Y711161D02*
X457874D01*
X448256D02*
X449256D01*
X457874Y706161D02*
Y711161D01*
X447256Y707161D02*
Y710161D01*
Y707161D02*
X448256Y706161D01*
X447256Y710161D02*
X448256Y711161D01*
X732894Y643185D02*
Y646185D01*
X737894Y643185D02*
Y646185D01*
X722894Y643185D02*
Y646185D01*
X727894Y643185D02*
Y646185D01*
X596581Y533187D02*
X598702Y535309D01*
X600117Y529652D02*
X602238Y531773D01*
X455177Y580193D02*
Y583193D01*
X460177Y580193D02*
Y583193D01*
X636279Y483736D02*
Y486736D01*
X641280Y483736D02*
Y486736D01*
X544823Y480784D02*
Y483783D01*
X539823Y480784D02*
Y483783D01*
X521122Y607752D02*
Y610752D01*
X526122Y607752D02*
Y610752D01*
X567953Y400787D02*
X573779D01*
X567953Y425984D02*
X573779D01*
X583465Y410472D02*
Y416299D01*
X558268Y410472D02*
Y416299D01*
X607323Y400787D02*
X613150D01*
X607323Y425984D02*
X613150D01*
X622835Y410472D02*
Y416299D01*
X597638Y410472D02*
Y416299D01*
X674134Y399402D02*
Y425402D01*
X694134Y399402D02*
Y425402D01*
X674134D02*
X694134D01*
X674134Y399402D02*
X694134D01*
X781701Y437913D02*
Y517913D01*
X755701Y437913D02*
Y517913D01*
X781701D01*
X755701Y437913D02*
X781701D01*
X569366Y658917D02*
X572366D01*
X569366Y663917D02*
X572366D01*
X691413Y608720D02*
X694413D01*
X691413Y613721D02*
X694413D01*
X658933Y586083D02*
X661933D01*
X658933Y591083D02*
X661933D01*
X550472Y781701D02*
X630472D01*
X550472Y755701D02*
X630472D01*
X550472D02*
Y781701D01*
X630472Y755701D02*
Y781701D01*
X437913D02*
X497913D01*
X437913Y755701D02*
X497913D01*
X437913D02*
Y781701D01*
X497913Y755701D02*
Y781701D01*
D61*
X705346Y779701D02*
X741347D01*
X440583Y401402D02*
X516583D01*
X401402Y644835D02*
Y740835D01*
X676134Y401402D02*
X692134D01*
X779701Y439913D02*
Y515913D01*
X552472Y779701D02*
X628472D01*
X439913D02*
X495913D01*
D62*
X692421Y458661D02*
D03*
M02*
