G04 Layer_Physical_Order=1*
G04 Layer_Color=255*
%FSLAX25Y25*%
%MOIN*%
G70*
G01*
G75*
%ADD10R,0.03150X0.02756*%
%ADD11R,0.03543X0.03937*%
%ADD12R,0.02756X0.03150*%
%ADD13R,0.00900X0.05800*%
%ADD14R,0.05800X0.00900*%
%ADD15R,0.05800X0.02000*%
%ADD16R,0.02000X0.05800*%
%ADD17R,0.03937X0.03543*%
G04:AMPARAMS|DCode=18|XSize=27.56mil|YSize=31.5mil|CornerRadius=0mil|HoleSize=0mil|Usage=FLASHONLY|Rotation=225.000|XOffset=0mil|YOffset=0mil|HoleType=Round|Shape=Rectangle|*
%AMROTATEDRECTD18*
4,1,4,-0.00139,0.02088,0.02088,-0.00139,0.00139,-0.02088,-0.02088,0.00139,-0.00139,0.02088,0.0*
%
%ADD18ROTATEDRECTD18*%

G04:AMPARAMS|DCode=19|XSize=27.56mil|YSize=31.5mil|CornerRadius=0mil|HoleSize=0mil|Usage=FLASHONLY|Rotation=315.000|XOffset=0mil|YOffset=0mil|HoleType=Round|Shape=Rectangle|*
%AMROTATEDRECTD19*
4,1,4,-0.02088,-0.00139,0.00139,0.02088,0.02088,0.00139,-0.00139,-0.02088,-0.02088,-0.00139,0.0*
%
%ADD19ROTATEDRECTD19*%

G04:AMPARAMS|DCode=20|XSize=39.37mil|YSize=35.43mil|CornerRadius=0mil|HoleSize=0mil|Usage=FLASHONLY|Rotation=135.000|XOffset=0mil|YOffset=0mil|HoleType=Round|Shape=Rectangle|*
%AMROTATEDRECTD20*
4,1,4,0.02645,-0.00139,0.00139,-0.02645,-0.02645,0.00139,-0.00139,0.02645,0.02645,-0.00139,0.0*
%
%ADD20ROTATEDRECTD20*%

%ADD21R,0.02920X0.02126*%
%ADD22R,0.03937X0.01575*%
%ADD23R,0.02362X0.01181*%
%ADD24R,0.03937X0.01181*%
G04:AMPARAMS|DCode=25|XSize=29.53mil|YSize=33.47mil|CornerRadius=2.21mil|HoleSize=0mil|Usage=FLASHONLY|Rotation=180.000|XOffset=0mil|YOffset=0mil|HoleType=Round|Shape=RoundedRectangle|*
%AMROUNDEDRECTD25*
21,1,0.02953,0.02904,0,0,180.0*
21,1,0.02510,0.03347,0,0,180.0*
1,1,0.00443,-0.01255,0.01452*
1,1,0.00443,0.01255,0.01452*
1,1,0.00443,0.01255,-0.01452*
1,1,0.00443,-0.01255,-0.01452*
%
%ADD25ROUNDEDRECTD25*%
%ADD26R,0.06102X0.05118*%
%ADD27R,0.04134X0.12992*%
%ADD28R,0.41339X0.33071*%
%ADD29C,0.01378*%
%ADD30R,0.03150X0.00984*%
%ADD31R,0.00984X0.03150*%
%ADD32R,0.29528X0.29528*%
%ADD33R,0.06299X0.08268*%
%ADD34R,0.07480X0.07087*%
%ADD35R,0.05315X0.01575*%
%ADD36R,0.09055X0.09055*%
%ADD37R,0.02362X0.03347*%
%ADD38R,0.03937X0.03347*%
%ADD39C,0.01200*%
%ADD40C,0.00800*%
%ADD41C,0.02000*%
%ADD42C,0.02500*%
%ADD43C,0.01000*%
%ADD44R,0.06500X0.06500*%
%ADD45C,0.06500*%
%ADD46R,0.06500X0.06500*%
%ADD47C,0.05000*%
%ADD48C,0.11024*%
%ADD49C,0.08661*%
%ADD50C,0.25000*%
%ADD51O,0.04331X0.03543*%
%ADD52R,0.04331X0.03543*%
%ADD53C,0.02400*%
D10*
X621654Y737205D02*
D03*
X626378D02*
D03*
X599803Y737205D02*
D03*
X595079D02*
D03*
X581299Y737205D02*
D03*
X586024D02*
D03*
X566339Y737205D02*
D03*
X561614D02*
D03*
X643307Y567913D02*
D03*
X648032D02*
D03*
X643307Y585630D02*
D03*
X648032D02*
D03*
X688386Y570866D02*
D03*
X683661D02*
D03*
X419882Y580709D02*
D03*
X424606D02*
D03*
X548622Y633858D02*
D03*
X543898D02*
D03*
X539370Y612598D02*
D03*
X534646D02*
D03*
X539764Y595472D02*
D03*
X535039D02*
D03*
X557480Y485236D02*
D03*
X552756D02*
D03*
X557480Y480315D02*
D03*
X552756D02*
D03*
X622638Y489173D02*
D03*
X627362D02*
D03*
X622638Y482283D02*
D03*
X627362D02*
D03*
X556102Y541339D02*
D03*
X551378D02*
D03*
X466929Y602362D02*
D03*
X462205D02*
D03*
X466339Y592520D02*
D03*
X461614D02*
D03*
X517323Y588583D02*
D03*
X522047D02*
D03*
X424606Y600394D02*
D03*
X419882D02*
D03*
X462205Y708661D02*
D03*
X466929D02*
D03*
X462205Y688976D02*
D03*
X466929D02*
D03*
X462205Y669291D02*
D03*
X466929D02*
D03*
X473819Y628937D02*
D03*
X469095D02*
D03*
X462205Y511811D02*
D03*
X466929D02*
D03*
X462205Y492126D02*
D03*
X466929D02*
D03*
X462205Y472441D02*
D03*
X466929D02*
D03*
X567323Y469488D02*
D03*
X562598D02*
D03*
X622441Y472441D02*
D03*
X617717D02*
D03*
D11*
X656102Y589567D02*
D03*
X662795D02*
D03*
X696260Y611221D02*
D03*
X689567D02*
D03*
X567520Y661417D02*
D03*
X574213D02*
D03*
X568307Y462598D02*
D03*
X561614D02*
D03*
D12*
X642717Y613779D02*
D03*
Y618504D02*
D03*
X633858Y632480D02*
D03*
Y637205D02*
D03*
X705709Y592913D02*
D03*
Y588189D02*
D03*
X673228Y586221D02*
D03*
Y590945D02*
D03*
X611221Y639370D02*
D03*
Y644095D02*
D03*
X596850Y641339D02*
D03*
Y646063D02*
D03*
X513583Y443209D02*
D03*
Y447933D02*
D03*
X503583Y443209D02*
D03*
Y447933D02*
D03*
X419291Y614567D02*
D03*
Y609842D02*
D03*
X577756Y639370D02*
D03*
Y644095D02*
D03*
X607283Y462008D02*
D03*
Y457283D02*
D03*
X595472Y460039D02*
D03*
Y455315D02*
D03*
X546260Y549606D02*
D03*
Y544882D02*
D03*
X582677Y460039D02*
D03*
Y455315D02*
D03*
X627953Y540748D02*
D03*
Y536024D02*
D03*
X583661Y540748D02*
D03*
Y536024D02*
D03*
X516732Y509449D02*
D03*
Y514173D02*
D03*
X524606Y509449D02*
D03*
Y514173D02*
D03*
X516732Y711024D02*
D03*
Y706299D02*
D03*
X524606Y711024D02*
D03*
Y706299D02*
D03*
X427165Y504528D02*
D03*
Y509252D02*
D03*
X426181Y609842D02*
D03*
Y614567D02*
D03*
X490158Y615748D02*
D03*
Y620472D02*
D03*
D13*
X556102Y632351D02*
D03*
X558071D02*
D03*
X560039D02*
D03*
X562008D02*
D03*
X563976D02*
D03*
X565945D02*
D03*
X567913D02*
D03*
X569882D02*
D03*
X571850D02*
D03*
X573819D02*
D03*
X575787D02*
D03*
X577756D02*
D03*
X579724D02*
D03*
X581693D02*
D03*
X583661D02*
D03*
X585630D02*
D03*
X587598D02*
D03*
X589567D02*
D03*
X591535D02*
D03*
X593504D02*
D03*
X595472D02*
D03*
X597441D02*
D03*
X599409D02*
D03*
X601378D02*
D03*
X603346D02*
D03*
X605315D02*
D03*
X607283D02*
D03*
X609252D02*
D03*
X611221D02*
D03*
X613189D02*
D03*
X615158D02*
D03*
X617126D02*
D03*
X619095D02*
D03*
X621063D02*
D03*
X623032D02*
D03*
X625000D02*
D03*
Y548751D02*
D03*
X623032D02*
D03*
X621063D02*
D03*
X619095D02*
D03*
X617126D02*
D03*
X615158D02*
D03*
X613189D02*
D03*
X611221D02*
D03*
X609252D02*
D03*
X607283D02*
D03*
X605315D02*
D03*
X603346D02*
D03*
X601378D02*
D03*
X599409D02*
D03*
X597441D02*
D03*
X595472D02*
D03*
X593504D02*
D03*
X591535D02*
D03*
X589567D02*
D03*
X587598D02*
D03*
X585630D02*
D03*
X583661D02*
D03*
X581693D02*
D03*
X579724D02*
D03*
X577756D02*
D03*
X575787D02*
D03*
X573819D02*
D03*
X571850D02*
D03*
X569882D02*
D03*
X567913D02*
D03*
X565945D02*
D03*
X563976D02*
D03*
X562008D02*
D03*
X560039D02*
D03*
X558071D02*
D03*
X556102D02*
D03*
D14*
X632351Y625000D02*
D03*
Y623032D02*
D03*
Y621063D02*
D03*
Y619095D02*
D03*
Y617126D02*
D03*
Y615158D02*
D03*
Y613189D02*
D03*
Y611221D02*
D03*
Y609252D02*
D03*
Y607283D02*
D03*
Y605315D02*
D03*
Y603346D02*
D03*
Y601378D02*
D03*
Y599409D02*
D03*
Y597441D02*
D03*
Y595472D02*
D03*
Y593504D02*
D03*
Y591535D02*
D03*
Y589567D02*
D03*
Y587598D02*
D03*
Y585630D02*
D03*
Y583661D02*
D03*
Y581693D02*
D03*
Y579724D02*
D03*
Y577756D02*
D03*
Y575787D02*
D03*
Y573819D02*
D03*
Y571850D02*
D03*
Y569882D02*
D03*
Y567913D02*
D03*
Y565945D02*
D03*
Y563976D02*
D03*
Y562008D02*
D03*
Y560039D02*
D03*
Y558071D02*
D03*
Y556102D02*
D03*
X548751D02*
D03*
Y558071D02*
D03*
Y560039D02*
D03*
Y562008D02*
D03*
Y563976D02*
D03*
Y565945D02*
D03*
Y567913D02*
D03*
Y569882D02*
D03*
Y571850D02*
D03*
Y573819D02*
D03*
Y575787D02*
D03*
Y577756D02*
D03*
Y579724D02*
D03*
Y581693D02*
D03*
Y583661D02*
D03*
Y585630D02*
D03*
Y587598D02*
D03*
Y589567D02*
D03*
Y591535D02*
D03*
Y593504D02*
D03*
Y595472D02*
D03*
Y597441D02*
D03*
Y599409D02*
D03*
Y601378D02*
D03*
Y603346D02*
D03*
Y605315D02*
D03*
Y607283D02*
D03*
Y609252D02*
D03*
Y611221D02*
D03*
Y613189D02*
D03*
Y615158D02*
D03*
Y617126D02*
D03*
Y619095D02*
D03*
Y621063D02*
D03*
Y623032D02*
D03*
Y625000D02*
D03*
D15*
X612651Y476426D02*
D03*
Y479526D02*
D03*
Y482726D02*
D03*
Y485826D02*
D03*
Y489026D02*
D03*
Y492126D02*
D03*
Y495226D02*
D03*
Y498426D02*
D03*
Y501526D02*
D03*
Y504726D02*
D03*
Y507826D02*
D03*
X568451D02*
D03*
Y504726D02*
D03*
Y501526D02*
D03*
Y498426D02*
D03*
Y495226D02*
D03*
Y492126D02*
D03*
Y489026D02*
D03*
Y485826D02*
D03*
Y482726D02*
D03*
Y479526D02*
D03*
Y476426D02*
D03*
D16*
X606251Y514226D02*
D03*
X603151D02*
D03*
X599951D02*
D03*
X596851D02*
D03*
X593651D02*
D03*
X590551D02*
D03*
X587451D02*
D03*
X584251D02*
D03*
X581151D02*
D03*
X577951D02*
D03*
X574851D02*
D03*
Y470026D02*
D03*
X577951D02*
D03*
X581151D02*
D03*
X584251D02*
D03*
X587451D02*
D03*
X590551D02*
D03*
X593651D02*
D03*
X596851D02*
D03*
X599951D02*
D03*
X603151D02*
D03*
X606251D02*
D03*
D17*
X523622Y612598D02*
D03*
Y605905D02*
D03*
X542323Y478937D02*
D03*
Y485630D02*
D03*
X638779Y488583D02*
D03*
Y481890D02*
D03*
X457677Y585039D02*
D03*
Y578346D02*
D03*
X725394Y648032D02*
D03*
Y641339D02*
D03*
X735394Y648032D02*
D03*
Y641339D02*
D03*
X475197Y613976D02*
D03*
X467717D02*
D03*
Y622244D02*
D03*
X475197D02*
D03*
D18*
X614471Y539072D02*
D03*
X617812Y535731D02*
D03*
X498330Y565647D02*
D03*
X501670Y562306D02*
D03*
X491440Y563678D02*
D03*
X494781Y560337D02*
D03*
D19*
X501282Y616440D02*
D03*
X504623Y619781D02*
D03*
D20*
X601776Y534847D02*
D03*
X597043Y530114D02*
D03*
D21*
X442913Y593976D02*
D03*
D22*
X440354Y599606D02*
D03*
D23*
X446260Y595472D02*
D03*
Y593504D02*
D03*
X439567D02*
D03*
X439567Y595472D02*
D03*
D24*
X440354Y597441D02*
D03*
X445472Y599409D02*
D03*
X445472Y597441D02*
D03*
D25*
X449803Y708661D02*
D03*
X455709D02*
D03*
X449803Y688976D02*
D03*
X455709D02*
D03*
X449803Y669291D02*
D03*
X455709D02*
D03*
X449803Y511811D02*
D03*
X455709D02*
D03*
X449803Y492126D02*
D03*
X455709D02*
D03*
X449803Y472441D02*
D03*
X455709D02*
D03*
D26*
X507776Y660433D02*
D03*
X476476D02*
D03*
X507776Y678150D02*
D03*
X476476D02*
D03*
X507776Y463583D02*
D03*
X476476D02*
D03*
X507776Y481299D02*
D03*
X476476D02*
D03*
Y717520D02*
D03*
X507776D02*
D03*
X476476Y699803D02*
D03*
X507776D02*
D03*
Y502953D02*
D03*
X476476D02*
D03*
X507776Y520669D02*
D03*
X476476D02*
D03*
D27*
X725394Y662205D02*
D03*
X715394D02*
D03*
X735394D02*
D03*
D28*
X725394Y699803D02*
D03*
D29*
X681102Y598425D02*
D03*
X685039D02*
D03*
X688976D02*
D03*
X692913D02*
D03*
X696850D02*
D03*
X681102Y594488D02*
D03*
X685039D02*
D03*
X688976D02*
D03*
X692913D02*
D03*
X696850D02*
D03*
X681102Y590551D02*
D03*
X685039D02*
D03*
X688976D02*
D03*
X692913D02*
D03*
X696850D02*
D03*
X681102Y586614D02*
D03*
X685039D02*
D03*
X688976D02*
D03*
X692913D02*
D03*
X696850D02*
D03*
X681102Y582677D02*
D03*
X685039D02*
D03*
X688976D02*
D03*
X692913D02*
D03*
X696850D02*
D03*
D30*
X509547Y575787D02*
D03*
Y577756D02*
D03*
Y579724D02*
D03*
Y581693D02*
D03*
X509547Y583661D02*
D03*
Y585630D02*
D03*
Y587598D02*
D03*
X509547Y589567D02*
D03*
X509547Y591535D02*
D03*
X509547Y593504D02*
D03*
Y595472D02*
D03*
Y597441D02*
D03*
X509547Y599409D02*
D03*
Y601378D02*
D03*
Y603346D02*
D03*
Y605315D02*
D03*
X474705Y605315D02*
D03*
Y603346D02*
D03*
Y601378D02*
D03*
Y599409D02*
D03*
Y597441D02*
D03*
Y595472D02*
D03*
Y593504D02*
D03*
Y591535D02*
D03*
Y589567D02*
D03*
Y587598D02*
D03*
Y585630D02*
D03*
Y583661D02*
D03*
Y581693D02*
D03*
Y579724D02*
D03*
Y577756D02*
D03*
Y575787D02*
D03*
D31*
X506890Y607972D02*
D03*
X504921D02*
D03*
X502953D02*
D03*
X500984D02*
D03*
X499016D02*
D03*
X497047D02*
D03*
X495079D02*
D03*
X493110D02*
D03*
X491142D02*
D03*
X489173D02*
D03*
X487205D02*
D03*
X485236D02*
D03*
X483268D02*
D03*
X481299D02*
D03*
X479331Y607972D02*
D03*
X477362D02*
D03*
Y573130D02*
D03*
X479331D02*
D03*
X481299Y573130D02*
D03*
X483268D02*
D03*
X485236D02*
D03*
X487205D02*
D03*
X489173D02*
D03*
X491142Y573130D02*
D03*
X493110Y573130D02*
D03*
X495079D02*
D03*
X497047D02*
D03*
X499016D02*
D03*
X500984D02*
D03*
X502953Y573130D02*
D03*
X504921Y573130D02*
D03*
X506890D02*
D03*
D32*
X492126Y590551D02*
D03*
D33*
X409646Y578346D02*
D03*
Y602756D02*
D03*
D34*
X399606Y575591D02*
D03*
Y605512D02*
D03*
D35*
X410138Y587992D02*
D03*
Y593110D02*
D03*
Y590551D02*
D03*
Y585433D02*
D03*
Y595669D02*
D03*
D36*
X448000Y636858D02*
D03*
Y619142D02*
D03*
D37*
X618110Y466732D02*
D03*
Y460433D02*
D03*
D38*
X613976Y466732D02*
D03*
X622244D02*
D03*
Y460433D02*
D03*
X613976D02*
D03*
D39*
X725394Y648032D02*
Y651575D01*
Y653937D02*
Y670276D01*
X735394Y653937D02*
Y662205D01*
Y648032D02*
Y651575D01*
X513779Y699803D02*
X513779Y699803D01*
X507776Y699803D02*
X513779D01*
X507776Y678150D02*
X513779D01*
X415945Y504528D02*
X427165D01*
X414370Y502953D02*
X415945Y504528D01*
X444882Y708661D02*
X449803D01*
X444882Y688976D02*
X449803D01*
X444882Y669291D02*
X449803D01*
X625472Y748543D02*
X626378Y747638D01*
Y737205D02*
Y747638D01*
X586024Y737205D02*
X595079D01*
X586024Y737205D02*
X586024Y737205D01*
X561614Y458858D02*
Y462598D01*
X562598Y472441D02*
X562598Y472441D01*
Y469488D02*
Y472441D01*
X574803Y456693D02*
X574851Y456741D01*
Y470026D01*
X572441D02*
X574851D01*
X567323Y469488D02*
X570079D01*
X567323Y466929D02*
Y469488D01*
X568307Y462598D02*
Y465945D01*
X562598Y467126D02*
Y469488D01*
X562008Y466535D02*
X562598Y467126D01*
X561614Y462598D02*
Y466142D01*
X562008Y466535D01*
X548228Y485236D02*
X552756D01*
X406890Y575591D02*
X409646Y578346D01*
X414961D01*
X399606Y605315D02*
X399606Y605315D01*
Y575591D02*
Y575787D01*
X399606Y575591D02*
X399606Y575591D01*
X468935Y607836D02*
X471457Y605315D01*
X455699Y607836D02*
X468935D01*
X453299Y610236D02*
X455699Y607836D01*
X456693Y610236D02*
X473425D01*
X475394Y608268D01*
X669290Y592519D02*
X671654D01*
X673228Y590945D01*
X660433Y584646D02*
X662795Y587008D01*
Y589567D01*
X651575D02*
X656102D01*
X639173Y618504D02*
X642717D01*
X638779Y613189D02*
X639370Y613779D01*
X642717D01*
X679134Y570866D02*
X683661D01*
X683661Y570866D01*
X652559Y567913D02*
X652559Y567913D01*
X648032Y567913D02*
X652559D01*
X638779D02*
X643307D01*
X652559Y585630D02*
X652559Y585630D01*
X648032Y585630D02*
X652559D01*
X643307Y585630D02*
X643307Y585630D01*
X633858Y641732D02*
X633858Y641732D01*
Y637205D02*
Y641732D01*
X633858Y627953D02*
X633858Y627953D01*
Y632480D01*
X696260Y611221D02*
X700787D01*
X685039D02*
X689567D01*
X705709Y583661D02*
Y588189D01*
Y583661D02*
X705709Y583661D01*
X705709Y592913D02*
Y595472D01*
X704724Y596457D02*
X705709Y595472D01*
X702756Y596457D02*
X704724D01*
X694882D02*
X702756D01*
X673228Y590945D02*
X673622Y590551D01*
X679134D01*
X669291Y587598D02*
X670276Y586614D01*
X679134D01*
X692913Y570866D02*
Y580709D01*
X688386Y570866D02*
X692913D01*
X574213Y656890D02*
Y661417D01*
X567520Y656890D02*
Y661417D01*
X593504Y649409D02*
Y649606D01*
Y649409D02*
X596850Y646063D01*
X577756Y644095D02*
Y647638D01*
X573819Y638779D02*
X574409Y639370D01*
X577756D01*
X539370Y633858D02*
X539370Y633858D01*
X543898D01*
X548622D02*
X553150D01*
X523622Y612598D02*
Y617126D01*
X546260Y540354D02*
X546260Y540354D01*
X546260Y540354D02*
Y544882D01*
Y549606D02*
Y553150D01*
X523622Y601378D02*
Y605905D01*
X527953Y612598D02*
X534646D01*
X539370D02*
X543307D01*
X535039Y591929D02*
Y595472D01*
X543307D02*
X543307Y595472D01*
X539764Y595472D02*
X543307D01*
X638779Y477362D02*
Y481890D01*
Y488583D02*
Y493110D01*
X631890Y482283D02*
X631890Y482283D01*
X627362Y482283D02*
X631890D01*
Y489173D02*
X631890Y489173D01*
X627362Y489173D02*
X631890D01*
X622638Y489173D02*
X622638Y489173D01*
X618110Y489173D02*
X622638D01*
X617963Y489026D02*
X618110Y489173D01*
X607327Y489026D02*
X617963D01*
X618110Y482283D02*
X622638D01*
X617668Y482726D02*
X618110Y482283D01*
X607327Y482726D02*
X617668D01*
X593651Y470026D02*
Y475350D01*
X577951Y470026D02*
Y475350D01*
X584251Y470026D02*
Y474999D01*
X596851Y465946D02*
Y475350D01*
X595472Y464567D02*
X596851Y465946D01*
X595472Y464567D02*
X595472Y464567D01*
X595472Y460039D02*
Y464567D01*
Y450787D02*
Y455315D01*
X582677Y450787D02*
X582677Y450787D01*
X582677Y450787D02*
Y455315D01*
X582677Y460039D02*
Y464567D01*
X581151Y466093D02*
X582677Y464567D01*
X581151Y466093D02*
Y475350D01*
X542323Y485630D02*
Y490158D01*
Y474409D02*
Y478937D01*
X548228Y480315D02*
X548228Y480315D01*
X552756D01*
X564419Y482726D02*
X573776D01*
X562008Y480315D02*
X564419Y482726D01*
X562008Y480315D02*
X562008Y480315D01*
X557480Y480315D02*
X562008D01*
X557480Y485236D02*
X562008D01*
X562598Y485826D01*
X573776D01*
X607283D02*
X612651D01*
X568451Y495226D02*
X573672D01*
X568451Y479526D02*
X573624D01*
X607283Y492126D02*
X612651D01*
X621063Y532480D02*
X621063D01*
X617812Y535731D02*
X621063Y532480D01*
X613189Y540354D02*
X614471Y539072D01*
X613189Y540354D02*
Y543307D01*
X583661Y536024D02*
X587205Y532480D01*
X550197Y537402D02*
X551378Y538583D01*
Y541339D01*
X554134Y537402D02*
X556102Y539370D01*
Y541339D01*
X520669Y509449D02*
X524606D01*
X516732D02*
X520669D01*
X471551Y536512D02*
X474409Y539370D01*
X471551Y482378D02*
Y536512D01*
X469751Y501247D02*
Y568176D01*
X467951Y517164D02*
Y569329D01*
X466929Y477756D02*
X471551Y482378D01*
X466929Y472441D02*
Y477756D01*
X469751Y568176D02*
X474705Y573130D01*
X467951Y569329D02*
X470472Y571850D01*
X466929Y516142D02*
X467951Y517164D01*
X466929Y498425D02*
X469751Y501247D01*
X513779Y588583D02*
X517323D01*
X517323Y588583D01*
X522047Y588583D02*
X523622D01*
X526575Y591535D01*
X524606Y706299D02*
X528150D01*
X476476Y699803D02*
X507776D01*
X476476Y678150D02*
X507776D01*
X455709Y669291D02*
X462205D01*
X455709Y688976D02*
X462205D01*
X455709Y708661D02*
X462205D01*
X457677Y592520D02*
X461614D01*
X466339D02*
X470472D01*
X457677Y578346D02*
X462008D01*
X457677Y585039D02*
X462008D01*
X475197Y617913D02*
Y622244D01*
X467717Y613976D02*
Y618307D01*
X464567Y628937D02*
X464567Y628937D01*
X469095D01*
X427165Y509252D02*
X431102D01*
X403543Y493110D02*
X433071D01*
X466929Y602362D02*
X470472D01*
X490158Y620472D02*
X494488D01*
X490158Y612205D02*
X490158Y612205D01*
Y615748D01*
X502953Y612205D02*
Y614770D01*
X424606Y600394D02*
Y605315D01*
X426181Y606890D01*
X419291Y606693D02*
X420669Y605315D01*
X419291Y606693D02*
Y609842D01*
X419095Y585433D02*
X423425D01*
X424606Y584252D01*
X627953Y531496D02*
X627953Y531496D01*
X627953Y531496D02*
Y536024D01*
X593504Y533653D02*
X597043Y530114D01*
X601776Y534847D02*
X605315Y531307D01*
X506890Y616142D02*
Y617514D01*
X504623Y619781D02*
X506890Y617514D01*
X501282Y616440D02*
X502953Y614770D01*
X403543Y488189D02*
X436024D01*
X625000Y543701D02*
X627953Y540748D01*
X497047Y558071D02*
X497047D01*
X470472Y571850D02*
Y575493D01*
X715394Y644685D02*
Y649606D01*
Y653937D02*
Y662205D01*
X720079Y641339D02*
X725394D01*
X735394D02*
X740551D01*
X725394D02*
X735394D01*
X406890Y605512D02*
X409646Y602756D01*
X399606Y605512D02*
X406890D01*
X399606Y575591D02*
X406890D01*
X415748Y614567D02*
X419291D01*
X426181D02*
X429724D01*
X419291D02*
X426181D01*
Y606890D02*
Y609842D01*
X424606Y580709D02*
Y584252D01*
X419882Y597047D02*
Y600394D01*
X735591Y662402D02*
X739173D01*
X725394Y695866D02*
Y699803D01*
X503583Y447933D02*
X513583D01*
X513583Y412402D02*
Y443209D01*
X503583Y412402D02*
Y443209D01*
X466929Y492126D02*
Y498425D01*
X474705Y573130D02*
Y574114D01*
X466929Y511811D02*
Y516142D01*
X455709Y511811D02*
X462205D01*
X455709Y492126D02*
X462205D01*
X455709Y472441D02*
X462205D01*
X439961D02*
X449803D01*
X439961Y511811D02*
X449803D01*
X439961Y492126D02*
X449803D01*
X476476Y473524D02*
Y481299D01*
X470472Y467520D02*
X476476Y473524D01*
X407480Y467520D02*
X470472D01*
X398622Y476378D02*
X407480Y467520D01*
X398622Y476378D02*
Y505905D01*
X403543Y502953D02*
X414370D01*
X398622Y505905D02*
X400591Y507874D01*
X403543D01*
X415748Y509252D02*
X427165D01*
X414370Y507874D02*
X415748Y509252D01*
X403543Y507874D02*
X414370D01*
X476476Y481299D02*
X507776D01*
X476476Y463583D02*
X507776D01*
X510433Y509449D02*
X516732D01*
X507776Y506791D02*
X510433Y509449D01*
X507776Y502953D02*
Y506791D01*
X476476Y502953D02*
X507776D01*
X476476Y520669D02*
X507776D01*
X487205Y566929D02*
Y570866D01*
Y566929D02*
X488189Y565945D01*
X587451Y509005D02*
Y514226D01*
X596851Y508858D02*
Y514226D01*
X417323Y580709D02*
X419882D01*
X414961Y578346D02*
X417323Y580709D01*
X512402Y514173D02*
X516732D01*
X524606D02*
X529134D01*
X475197Y622244D02*
Y624213D01*
X473819Y625591D02*
X475197Y624213D01*
X473819Y625591D02*
Y628937D01*
X625472Y748543D02*
Y768701D01*
X566339Y737205D02*
Y748622D01*
X565472Y749488D02*
X566339Y748622D01*
X565472Y749488D02*
Y768701D01*
X494781Y560337D02*
X497047Y558071D01*
X489173Y565945D02*
X491440Y563678D01*
X488189Y565945D02*
X489173D01*
X501968Y562008D02*
X505905D01*
X497688Y566288D02*
X498330Y565647D01*
X497688Y566288D02*
Y569243D01*
X450000Y606000D02*
X453497D01*
X457134Y602362D01*
X462205D01*
X448000Y612992D02*
Y619142D01*
Y630087D02*
Y636858D01*
X735394Y648032D02*
X753543D01*
X753937Y647638D01*
X607283Y452756D02*
Y457283D01*
Y452756D02*
X607283Y452756D01*
X607283Y462008D02*
Y464567D01*
X609252Y466535D01*
X613779D01*
X622244Y455512D02*
Y460433D01*
X638779Y585630D02*
X643307D01*
X608858Y639370D02*
X611221D01*
X608266Y638778D02*
X608858Y639370D01*
X611221Y644095D02*
Y647638D01*
X612205Y648622D01*
X596850Y637795D02*
Y641339D01*
D40*
X437008Y593504D02*
X439567D01*
X431102Y597441D02*
X440354D01*
X424213Y590551D02*
X431102Y597441D01*
X410138Y590551D02*
X424213D01*
X430315Y599606D02*
X440354D01*
X423819Y593110D02*
X430315Y599606D01*
X410138Y593110D02*
X423819D01*
X439567Y593504D02*
X446260D01*
X439567Y593504D02*
Y595472D01*
X515748Y621063D02*
X517717D01*
X515517Y620831D02*
X515748Y621063D01*
X515517Y610636D02*
X517380Y608773D01*
X517717Y610416D02*
X518780Y609353D01*
X515517Y610636D02*
Y620831D01*
X517717Y610416D02*
Y616142D01*
X514752Y627953D02*
X520901Y621804D01*
X497657Y647028D02*
X529528Y615158D01*
X512795Y627953D02*
X514752D01*
X443209Y647028D02*
X497657D01*
X498499Y648528D02*
X529901Y617126D01*
X499120Y650028D02*
X530053Y619095D01*
X499742Y651528D02*
X530206Y621063D01*
X500363Y653028D02*
X530359Y623032D01*
X500984Y654528D02*
X530512Y625000D01*
X443830Y648528D02*
X498499D01*
X444451Y650028D02*
X499120D01*
X445073Y651528D02*
X499742D01*
X445694Y653028D02*
X500363D01*
X446315Y654528D02*
X500984D01*
X499004Y635827D02*
X502953D01*
X484252Y621074D02*
X499004Y635827D01*
X497946Y619168D02*
X508858Y630080D01*
Y629921D02*
Y630080D01*
X497047Y624016D02*
X506890Y633858D01*
X528543Y575787D02*
X530512Y577756D01*
X529823Y573130D02*
X534449Y577756D01*
X530511Y581692D02*
X530511D01*
X529600Y583892D02*
X548521D01*
X525201Y579493D02*
X529600Y583892D01*
X524765Y586614D02*
X529528D01*
X525359Y583893D02*
X525591Y583661D01*
X660433Y595472D02*
X662715Y597754D01*
X662402Y593504D02*
X665354Y596457D01*
X632351Y593504D02*
X662402D01*
X652559Y599409D02*
X656810Y603660D01*
X650724Y609385D02*
X651024D01*
X646654Y605315D02*
X650724Y609385D01*
X471457Y605315D02*
X474705D01*
X445472Y599409D02*
X474705D01*
X445472Y597441D02*
X474705D01*
X690945Y592520D02*
X692913Y590551D01*
X688976Y594488D02*
X690945Y596457D01*
X688976Y598425D02*
Y601378D01*
Y586614D02*
X690945Y584646D01*
X626968Y611221D02*
X632351D01*
X632351Y613189D02*
X638779D01*
X644685Y609252D02*
X646654Y611221D01*
X632351Y609252D02*
X644685D01*
X632351Y605315D02*
X646654D01*
X648622Y601378D02*
X652559Y605315D01*
X632351Y601378D02*
X648622D01*
X632351Y599409D02*
X652559D01*
X656496Y597441D02*
X658465Y599409D01*
X632351Y597441D02*
X656496D01*
X632351Y595472D02*
X660433D01*
X694882Y592520D02*
Y592520D01*
X696850Y594488D01*
X692913Y590551D02*
Y590551D01*
X687008Y592520D02*
X688976Y590551D01*
X692913Y586614D02*
X694882Y584646D01*
X692913Y586614D02*
X692913D01*
X685039D02*
X687008Y584646D01*
X626968Y569882D02*
X632351D01*
Y567913D02*
X638779D01*
X638779Y567913D01*
X663386Y581693D02*
X664370Y582677D01*
X632351Y581693D02*
X663386D01*
X625000Y640748D02*
Y650591D01*
Y632351D02*
Y640748D01*
Y650591D02*
X626850Y652441D01*
X632351Y625000D02*
Y626446D01*
X633858Y627953D01*
X665354Y596457D02*
X683071D01*
X632351Y593504D02*
X632351Y593504D01*
X683071Y596457D02*
X685039Y594488D01*
X688976D02*
X688976D01*
X708661Y581693D02*
Y595472D01*
X702756Y601378D02*
X708661Y595472D01*
X694882Y567913D02*
X708661Y581693D01*
X692913Y594488D02*
X692913D01*
X694882Y596457D01*
X703740Y604331D02*
X710630Y597441D01*
Y580709D02*
Y597441D01*
X695866Y565945D02*
X710630Y580709D01*
X696850Y579724D02*
X696850Y579724D01*
X696850Y579724D02*
Y582677D01*
X679134Y590551D02*
X681102D01*
X679134Y586614D02*
X681102D01*
X692913Y580709D02*
Y582677D01*
X692913Y570866D02*
X692913Y570866D01*
X661417Y567913D02*
X694882D01*
X655512Y573819D02*
X661417Y567913D01*
X660433Y565945D02*
X695866D01*
X654528Y571850D02*
X660433Y565945D01*
X632351Y573819D02*
X655512D01*
X632351Y571850D02*
X654528D01*
X701772Y586614D02*
X701772Y586614D01*
X696850Y586614D02*
X701772D01*
X688976Y578740D02*
Y582677D01*
X670276Y579724D02*
X671260Y580709D01*
X632351Y579724D02*
X670276D01*
X683071Y584646D02*
X685039Y582677D01*
X679134Y584646D02*
X683071D01*
X672244Y577756D02*
X679134Y584646D01*
X632351Y577756D02*
X672244D01*
X674213Y575787D02*
X681102Y582677D01*
X632351Y575787D02*
X674213D01*
X695866Y604331D02*
X703740D01*
X692913Y601378D02*
X695866Y604331D01*
X692913Y598425D02*
Y601378D01*
X603346Y632351D02*
Y646654D01*
X565945Y632351D02*
Y637795D01*
X562008Y641732D02*
X565945Y637795D01*
X562008Y641732D02*
Y663386D01*
X567913Y632351D02*
Y638779D01*
X563976Y642717D02*
X567913Y638779D01*
X563976Y642717D02*
Y678150D01*
X531102Y711024D02*
X563976Y678150D01*
X534449Y690945D02*
X562008Y663386D01*
X597441Y632351D02*
Y637205D01*
X611221Y626968D02*
Y632351D01*
X595472Y626968D02*
Y632351D01*
X575787Y626968D02*
Y632351D01*
X548751Y569882D02*
X554134D01*
X548751Y591535D02*
X554134D01*
X548751Y611221D02*
X554134D01*
X571619Y645426D02*
X579493Y653300D01*
X571619Y637868D02*
Y645426D01*
X579493Y653300D02*
Y690713D01*
X577756Y654528D02*
Y692913D01*
X569882Y646654D02*
X577756Y654528D01*
X569882Y632351D02*
Y646654D01*
X581693Y632351D02*
Y687992D01*
X571619Y637868D02*
X571850Y637637D01*
Y632351D02*
Y637637D01*
X573819Y638779D02*
X573819Y638779D01*
Y632351D02*
Y638779D01*
X553150Y633858D02*
X554657Y632351D01*
X556102D01*
X596850Y659449D02*
X603346Y652953D01*
Y646654D02*
Y652953D01*
X606850Y650039D02*
Y659449D01*
Y650039D02*
X607283Y649606D01*
Y643701D02*
Y649606D01*
X626850Y652441D02*
Y659449D01*
X524606Y711024D02*
X531102D01*
X466929Y697441D02*
Y708661D01*
Y697441D02*
X473425Y690945D01*
X534449D01*
X532480Y687008D02*
X558071Y661417D01*
X473425Y687008D02*
X532480D01*
X466929Y680512D02*
X473425Y687008D01*
X533465Y688976D02*
X560039Y662402D01*
X466929Y688976D02*
X533465D01*
X560039Y632351D02*
Y662402D01*
X466929Y669291D02*
Y680512D01*
X558071Y632351D02*
Y661417D01*
X507776Y660433D02*
X507776Y660433D01*
X515748D01*
X520101Y610012D02*
Y616399D01*
X513548Y610625D02*
X515979Y608193D01*
Y602786D02*
Y608193D01*
X513548Y610625D02*
Y623784D01*
X517380Y602207D02*
Y608773D01*
X518780Y601627D02*
Y609353D01*
X520180Y601047D02*
Y609933D01*
X520101Y610012D02*
X520180Y609933D01*
X514582Y599409D02*
X517380Y602207D01*
X514594Y597441D02*
X518780Y601627D01*
X518469Y599336D02*
X520180Y601047D01*
X520101Y616399D02*
X520901Y617199D01*
Y621804D01*
X603346Y632351D02*
X603346Y632351D01*
X590967Y638205D02*
X591535Y637637D01*
X590967Y638205D02*
Y653127D01*
X590551Y653543D02*
X590967Y653127D01*
X587598Y632351D02*
Y646654D01*
X586614Y647638D02*
X587598Y646654D01*
X589567Y632351D02*
Y649606D01*
X588583Y650591D02*
X589567Y649606D01*
X575472Y731614D02*
X583893Y723194D01*
X591535Y632351D02*
Y637637D01*
X574803Y687992D02*
Y712598D01*
X555472Y731929D02*
X574803Y712598D01*
X580709Y691929D02*
Y705709D01*
X579493Y690713D02*
X580709Y691929D01*
X583893Y687081D02*
Y723194D01*
X583661Y686849D02*
X583893Y687081D01*
X583661Y632351D02*
Y686849D01*
X548751Y554657D02*
Y556102D01*
X547244Y553150D02*
X548751Y554657D01*
X546260Y553150D02*
X547244D01*
X546260Y553150D02*
X546260Y553150D01*
X514340Y601147D02*
X515979Y602786D01*
X512868Y601147D02*
X514340D01*
X512637Y601378D02*
X512868Y601147D01*
X509547Y601378D02*
X512637D01*
X518469Y595082D02*
Y599336D01*
X509547Y599409D02*
X514582D01*
X509547Y597441D02*
X514594D01*
X529759Y610468D02*
X532407D01*
X528543Y609252D02*
X529759Y610468D01*
X543898Y613189D02*
X548751D01*
X543307Y612598D02*
X543898Y613189D01*
X529528Y615158D02*
X548751D01*
X543678Y609899D02*
X544325Y609252D01*
X536895Y609899D02*
X543678D01*
X543098Y608499D02*
X544314Y607283D01*
X537475Y608499D02*
X543098D01*
X536663Y609668D02*
X536895Y609899D01*
X533207Y609668D02*
X536663D01*
X532407Y610468D02*
X533207Y609668D01*
X537243Y608268D02*
X537475Y608499D01*
X531496Y608268D02*
X537243D01*
X543319Y606299D02*
X544303Y605315D01*
X538386Y606299D02*
X543319D01*
X544303Y605315D02*
X548751D01*
X539336Y604138D02*
X543500D01*
X539297Y604099D02*
X539336Y604138D01*
X535472Y604099D02*
X539297D01*
X535433Y604138D02*
X535472Y604099D01*
X543307Y595472D02*
X548751D01*
X543307Y568898D02*
X544291Y567913D01*
X548751D01*
X508858Y622047D02*
X509842Y621063D01*
Y609252D02*
Y621063D01*
X508563Y607972D02*
X509842Y609252D01*
X543500Y604138D02*
X544291Y603346D01*
X506890Y573130D02*
X529823D01*
X521654Y567913D02*
X524606Y570865D01*
X516889Y567913D02*
X521654D01*
X509547Y575787D02*
X528543D01*
X509054Y559286D02*
X513221Y563453D01*
X508931Y559286D02*
X509054D01*
X508863Y559218D02*
X508931Y559286D01*
X499837Y559218D02*
X508863D01*
X521654Y557087D02*
Y559044D01*
X524606Y556102D02*
Y560017D01*
X521238Y552734D02*
X524606Y556102D01*
X526006Y555534D02*
X526575Y556102D01*
X526006Y555522D02*
Y555534D01*
X521818Y551334D02*
X526006Y555522D01*
X513802Y541339D02*
X529528Y557064D01*
X512795Y537243D02*
X531728Y556175D01*
X610989Y535665D02*
Y544218D01*
Y535665D02*
X622047Y524606D01*
X611221Y544450D02*
Y548751D01*
X610989Y544218D02*
X611221Y544450D01*
X615389Y541922D02*
X619909Y537402D01*
X615389Y541922D02*
Y544218D01*
X619909Y537402D02*
X621063D01*
X615158Y544450D02*
Y548751D01*
Y544450D02*
X615389Y544218D01*
X573819Y553150D02*
X574803Y554134D01*
X573819Y548751D02*
Y553150D01*
X613189Y543307D02*
X613189Y543307D01*
Y548751D01*
X624016Y500000D02*
Y537560D01*
X621974Y539602D02*
X624016Y537560D01*
X619689Y539602D02*
X621974D01*
X617126Y542164D02*
X619689Y539602D01*
X619242Y495226D02*
X624016Y500000D01*
X617126Y542164D02*
Y548751D01*
X622047Y501968D02*
Y524606D01*
X603346Y543958D02*
X606039Y541266D01*
X603346Y543958D02*
Y548751D01*
X606039Y537662D02*
Y541266D01*
X620079Y503937D02*
Y523622D01*
X606039Y537662D02*
X620079Y523622D01*
X586039Y536008D02*
X587367Y534680D01*
X588116D01*
X586039Y536008D02*
Y544866D01*
X585630Y545276D02*
X586039Y544866D01*
X581693Y545115D02*
Y548751D01*
X581283Y544706D02*
X581693Y545115D01*
X581283Y533489D02*
Y544706D01*
X596974Y525822D02*
X601972D01*
X585651Y528680D02*
X590551Y523780D01*
X585631Y528680D02*
X585651D01*
X584552Y529759D02*
X585631Y528680D01*
X582750Y529759D02*
X584552D01*
X586314Y530280D02*
X592151Y524443D01*
X586294Y530280D02*
X586314D01*
X585215Y531359D02*
X586294Y530280D01*
X583413Y531359D02*
X585215D01*
X588116Y534680D02*
X596974Y525822D01*
X585630Y545276D02*
Y548751D01*
X583661Y540748D02*
X583661Y540748D01*
Y548751D01*
X589567Y537402D02*
Y548751D01*
X592151Y520053D02*
Y524443D01*
Y520053D02*
X593651Y518553D01*
X573819Y531113D02*
Y537402D01*
X575787Y531124D02*
X584274Y522638D01*
X575787Y531124D02*
Y548751D01*
X584274Y522638D02*
X587598D01*
X582677Y526575D02*
X583661D01*
X577756Y531496D02*
X582677Y526575D01*
X579683Y532826D02*
X582750Y529759D01*
X581283Y533489D02*
X583413Y531359D01*
X579683Y532826D02*
Y545368D01*
X590551Y514226D02*
Y523780D01*
X579683Y545368D02*
X579724Y545409D01*
Y548751D01*
X577756Y531496D02*
Y548751D01*
X584251Y514226D02*
Y520681D01*
X573819Y531113D02*
X584251Y520681D01*
X556102Y541339D02*
Y548751D01*
X565945Y541339D02*
X570866Y536417D01*
X565945Y541339D02*
Y548751D01*
X570866Y520669D02*
Y536417D01*
X567913Y543307D02*
X573819Y537402D01*
X567913Y543307D02*
Y548751D01*
X511811Y541339D02*
X513802D01*
X478505Y537243D02*
X512795D01*
X531728Y556175D02*
Y556334D01*
X483499Y563903D02*
Y568825D01*
X498485Y548917D02*
X509547D01*
X515674Y569128D02*
X516889Y567913D01*
X500984Y568886D02*
X502942Y566928D01*
X504091Y568328D02*
X513052D01*
X502953Y569467D02*
X504091Y568328D01*
X502953Y569467D02*
Y573130D01*
X504921Y570866D02*
Y573130D01*
Y570866D02*
X505905Y569882D01*
X512626D01*
X513610Y570866D01*
X520669D01*
X521226Y552734D02*
X521238D01*
X515934Y547441D02*
X521226Y552734D01*
X495450Y547441D02*
X515934D01*
X529528Y557064D02*
Y557087D01*
X524606Y560017D02*
X542346Y577756D01*
X526575Y556102D02*
Y560005D01*
X531728Y556334D02*
X535433Y560039D01*
X518149Y565551D02*
X521654D01*
X516500Y560633D02*
Y563903D01*
X518149Y565551D01*
X513852Y569128D02*
X515674D01*
X513052Y568328D02*
X513852Y569128D01*
X502942Y566928D02*
X514763D01*
X518700Y560618D02*
Y562991D01*
X509547Y548917D02*
X542323Y581693D01*
X521654Y559044D02*
X542334Y579724D01*
X509248Y553381D02*
X516500Y560633D01*
X492879Y611294D02*
Y615752D01*
X497279Y611294D02*
Y616894D01*
X497206Y616967D02*
X497279Y616894D01*
X492879Y615752D02*
X496294Y619168D01*
X497946D01*
X475394Y608268D02*
X477067D01*
X466351Y562808D02*
Y573635D01*
X455709Y552165D02*
X466351Y562808D01*
Y573635D02*
X472441Y579724D01*
X478346Y533465D02*
X511811D01*
X512795Y589567D02*
X513779Y588583D01*
X509547Y589567D02*
X512795D01*
X520669Y595302D02*
Y598425D01*
X509723Y603522D02*
X513604D01*
X506890Y607972D02*
X508563D01*
X504921Y610236D02*
X506890Y612205D01*
X497047Y611062D02*
X497279Y611294D01*
X497047Y607972D02*
Y611062D01*
Y607972D02*
X497047Y607972D01*
X492879Y611294D02*
X493110Y611062D01*
Y607972D02*
Y611062D01*
X495079Y612205D02*
X495079Y612205D01*
Y607972D02*
Y612205D01*
X478346Y624016D02*
Y644685D01*
Y624016D02*
X482052Y620310D01*
Y620152D02*
Y620310D01*
Y620152D02*
X485468Y616736D01*
Y608204D02*
Y616736D01*
X485236Y607972D02*
X485468Y608204D01*
X484252Y621063D02*
Y621074D01*
X513189Y706299D02*
X516732D01*
X471457Y593504D02*
X474705D01*
X470472Y592520D02*
X471457Y593504D01*
X464567Y579724D02*
X468425Y583583D01*
X464567Y565945D02*
Y579724D01*
X463583Y564961D02*
X464567Y565945D01*
X450787Y588583D02*
X465551D01*
X471805Y584983D02*
X472452Y585630D01*
X465551Y588583D02*
X467751Y586383D01*
X471225D01*
X467693Y584983D02*
X471805D01*
X467355Y584646D02*
X467693Y584983D01*
X468425Y583583D02*
X474626D01*
X474705Y583661D01*
X465551Y584646D02*
X467355D01*
X472452Y585630D02*
X474705D01*
X469488Y588583D02*
X470472Y589567D01*
X474705D01*
X472441Y587598D02*
X474705D01*
X471225Y586383D02*
X472441Y587598D01*
X470472Y581693D02*
X474705D01*
X467520Y578740D02*
X470472Y581693D01*
X472441Y579724D02*
X474705D01*
X472735Y577756D02*
X474705D01*
X470472Y575493D02*
X472735Y577756D01*
X509547Y595472D02*
X515748D01*
X509547Y591535D02*
X516902D01*
X516659Y593272D02*
X518469Y595082D01*
X509779Y593272D02*
X516659D01*
X509547Y593504D02*
X509779Y593272D01*
X516902Y591535D02*
X520669Y595302D01*
X509547Y603346D02*
X509723Y603522D01*
X511811Y605315D02*
X513779Y607283D01*
X509547Y605315D02*
X511811D01*
X459449Y622244D02*
X467717D01*
X471457Y603346D02*
X474705D01*
X470472Y602362D02*
X471457Y603346D01*
X489173Y611221D02*
X490158Y612205D01*
X489173Y607972D02*
Y611221D01*
X487205Y607972D02*
Y622047D01*
X489173Y624016D01*
X497047D01*
X483268Y613347D02*
Y615158D01*
X481299Y607972D02*
Y612205D01*
X499016Y611319D02*
X499902Y612205D01*
X502953Y607972D02*
Y612205D01*
X595472Y536417D02*
X612651Y519239D01*
Y507826D02*
Y519239D01*
X504921Y607972D02*
Y610236D01*
X511811Y533465D02*
X528543Y550197D01*
X540354D01*
X542323Y552165D01*
Y556102D01*
X544291Y558071D01*
X548751D01*
X535433Y560039D02*
X548751D01*
X483268Y613347D02*
X483499Y613116D01*
Y611294D02*
Y613116D01*
X483268Y611062D02*
X483499Y611294D01*
X625000Y543701D02*
Y548751D01*
X623032D02*
Y559055D01*
X621063Y548751D02*
Y553150D01*
X620079Y554134D02*
X621063Y553150D01*
X620079Y554134D02*
Y556102D01*
X601972Y525822D02*
X606251Y521543D01*
X595472Y536417D02*
Y548751D01*
X475394Y613942D02*
X479331Y610005D01*
Y607972D02*
Y610005D01*
X514764Y544291D02*
X521806Y551334D01*
X492126Y544291D02*
X514764D01*
X490158Y552734D02*
X495450Y547441D01*
X499016Y553150D02*
X499247Y553381D01*
X494663Y555534D02*
X508290D01*
X477362Y569067D02*
Y573130D01*
X476715Y568420D02*
X477362Y569067D01*
X476715Y564313D02*
Y568420D01*
X473425Y561024D02*
X476715Y564313D01*
X481299Y567913D02*
Y573130D01*
X479331Y569056D02*
Y573130D01*
X478115Y567840D02*
X479331Y569056D01*
X483268D02*
Y573130D01*
Y569056D02*
X483499Y568825D01*
X478115Y560271D02*
Y567840D01*
X457677Y547244D02*
X465551Y555118D01*
X403543Y547244D02*
X457677D01*
X403543Y552165D02*
X455709D01*
X509263Y551181D02*
X518700Y560618D01*
X499247Y553381D02*
X509248D01*
X502953Y551181D02*
X509263D01*
X521806Y551334D02*
X521818D01*
X479331Y552165D02*
Y559055D01*
X478115Y560271D02*
X479331Y559055D01*
X474705Y574114D02*
Y575787D01*
X483268Y607972D02*
Y611062D01*
X483499Y563903D02*
X498485Y548917D01*
X499016Y607972D02*
Y611319D01*
X523781Y585630D02*
X524765Y586614D01*
X509547Y585630D02*
X523781D01*
X521727Y583893D02*
X525359D01*
X521495Y583661D02*
X521727Y583893D01*
X509547Y583661D02*
X521495D01*
X509547Y583661D02*
X509547Y583661D01*
X521727Y579493D02*
X525201D01*
X521495Y579724D02*
X521727Y579493D01*
X509547Y579724D02*
X521495D01*
X593504Y638779D02*
X593504Y638779D01*
Y632351D02*
Y638779D01*
X528543Y605315D02*
Y609252D01*
X539370Y599409D02*
X548751D01*
X509547Y581693D02*
X522638D01*
X541339Y601841D02*
X541802Y601378D01*
X544291Y603346D02*
X548751D01*
X544314Y607283D02*
X548751D01*
X541802Y601378D02*
X548751D01*
X535433Y586614D02*
X539370D01*
X548521Y583892D02*
X548751Y583661D01*
X491142Y570466D02*
Y573130D01*
X489605Y568929D02*
X491142Y570466D01*
X489236Y568929D02*
X489605D01*
X489221Y568945D02*
X489236Y568929D01*
X489173Y568897D02*
X489221Y568945D01*
X487205Y570866D02*
Y573130D01*
X495143Y563913D02*
Y569809D01*
X526575Y560005D02*
X542357Y575787D01*
X530512Y625000D02*
X548751D01*
X530359Y623032D02*
X548751D01*
X530206Y621063D02*
X548751D01*
X530053Y619095D02*
X548751D01*
X529901Y617126D02*
X548751D01*
X412402Y677835D02*
X443209Y647028D01*
X417323Y675035D02*
X443830Y648528D01*
X417323Y675035D02*
Y682913D01*
X412402Y687835D02*
X417323Y682913D01*
X418823Y675656D02*
X444451Y650028D01*
X418823Y675656D02*
Y691413D01*
X412402Y697835D02*
X418823Y691413D01*
X420323Y676277D02*
X445073Y651528D01*
X420323Y676277D02*
Y699913D01*
X412402Y707835D02*
X420323Y699913D01*
X421823Y676899D02*
X445694Y653028D01*
X421823Y676899D02*
Y708413D01*
X412402Y717835D02*
X421823Y708413D01*
X423323Y677520D02*
X446315Y654528D01*
X423323Y677520D02*
Y716913D01*
X412402Y727835D02*
X423323Y716913D01*
X593651Y514226D02*
Y518553D01*
X612651Y504726D02*
X616931D01*
X618110Y505905D01*
X617668Y501526D02*
X620079Y503937D01*
X612651Y501526D02*
X617668D01*
X612651Y498426D02*
X618505D01*
X622047Y501968D01*
X612651Y495226D02*
X619242D01*
X577951Y514226D02*
Y521458D01*
X574851Y514226D02*
Y519637D01*
X587598Y548751D02*
Y554134D01*
X568451Y507826D02*
Y531050D01*
X618110Y505905D02*
Y522796D01*
X597441Y541486D02*
Y548751D01*
X598425Y538878D02*
Y540501D01*
X597441Y541486D02*
X598425Y540501D01*
X599409Y541497D02*
Y548751D01*
X601378Y542323D02*
Y548751D01*
X599409Y541497D02*
X618110Y522796D01*
X601378Y542323D02*
X603346Y540354D01*
X603839D01*
X564172Y504726D02*
X568451D01*
X562992Y505905D02*
X564172Y504726D01*
X562992Y505905D02*
Y531496D01*
X565945Y534449D01*
X605315Y544303D02*
Y548751D01*
Y544303D02*
X606311Y543307D01*
X608268D01*
X599409Y523622D02*
X603151Y519880D01*
X609252Y548751D02*
Y554134D01*
X609252Y554134D02*
X609252Y554134D01*
X603151Y514226D02*
Y519880D01*
X606251Y514226D02*
Y521543D01*
X576772Y522638D02*
X577951Y521458D01*
X599951Y514226D02*
Y519143D01*
X598425Y520669D02*
X599951Y519143D01*
X595472Y520669D02*
X598425D01*
X581151Y514226D02*
Y520669D01*
X563435Y501526D02*
X568451D01*
X561024Y503937D02*
X563435Y501526D01*
X561024Y503937D02*
Y534449D01*
X562598Y498426D02*
X568451D01*
X559055Y501968D02*
X562598Y498426D01*
X559055Y501968D02*
Y531496D01*
X556102Y534449D02*
X559055Y531496D01*
X619095Y543307D02*
X620079Y542323D01*
X619095Y543307D02*
Y548751D01*
X573819Y520669D02*
X574851Y519637D01*
X573819Y520669D02*
Y526575D01*
X570866Y413386D02*
X585630D01*
X587451Y464714D02*
Y470026D01*
X593504Y413386D02*
X610236D01*
X590551Y416339D02*
X593504Y413386D01*
X590551Y416339D02*
Y470026D01*
X587451Y464714D02*
X588583Y463583D01*
X585630Y413386D02*
X588583Y416339D01*
Y463583D01*
X558119Y476426D02*
X568451D01*
X558071Y491142D02*
X560187Y489026D01*
X568451D01*
X559055Y492126D02*
X568451D01*
X558071Y491142D02*
X559055Y492126D01*
X509547Y577756D02*
X526575D01*
X539370Y586614D02*
X540354Y585630D01*
X548751D01*
X544325Y609252D02*
X548751D01*
X542334Y579724D02*
X548751D01*
X542323Y581693D02*
X548751D01*
X542346Y577756D02*
X548751D01*
X497047Y573130D02*
Y585630D01*
X489173Y573130D02*
Y587598D01*
X474705Y591535D02*
X491142D01*
X474705Y601378D02*
X481299D01*
X491142Y591535D02*
Y607972D01*
X500984Y599409D02*
Y607972D01*
X495079Y587598D02*
X509547D01*
X499016Y570571D02*
Y573130D01*
X485236Y564961D02*
Y573130D01*
X586614Y711614D02*
X605472Y730472D01*
X586614Y701772D02*
X615472Y730630D01*
X575472Y737205D02*
X581299D01*
X575472Y731614D02*
Y768701D01*
X555473Y737205D02*
X561614D01*
X555472Y731929D02*
Y768701D01*
X599803Y737205D02*
X605472D01*
X605472Y730472D02*
Y768701D01*
X615473Y737205D02*
X621654D01*
X615472Y730630D02*
Y768701D01*
X526575Y577756D02*
X530511Y581692D01*
X500984Y568886D02*
Y573130D01*
X495079Y569873D02*
X495143Y569809D01*
X495079Y569873D02*
Y573130D01*
X495143Y563913D02*
X499837Y559218D01*
X493110Y568730D02*
X493518Y568322D01*
X485236Y564961D02*
X494663Y555534D01*
X493110Y568730D02*
Y573130D01*
X497688Y569243D02*
X499016Y570571D01*
X497688Y569243D02*
X497688D01*
X569882Y548751D02*
Y561024D01*
X571850Y548751D02*
Y556102D01*
X574803Y559055D01*
X508290Y555534D02*
X509842Y557086D01*
X504921Y607972D02*
X504921Y607972D01*
X542357Y575787D02*
X548751D01*
X621015Y476426D02*
X622244Y475197D01*
X612651Y476426D02*
X621015D01*
X622244Y466732D02*
Y475197D01*
X618110Y466732D02*
Y472047D01*
X617717Y472441D02*
X618110Y472047D01*
X610236Y472441D02*
X617717D01*
X608268Y474409D02*
X610236Y472441D01*
X608268Y474409D02*
Y478346D01*
X609447Y479526D01*
X612651D01*
X599951Y461072D02*
Y470026D01*
Y461072D02*
X601378Y459646D01*
X603151Y461419D01*
Y470026D01*
X606251Y466487D02*
Y470026D01*
X604551Y464787D02*
X606251Y466487D01*
X601378Y450787D02*
Y454724D01*
X604551Y457898D01*
Y464787D01*
X613976Y449606D02*
Y460433D01*
X623032Y632351D02*
Y639605D01*
X622800Y639837D02*
X623032Y639605D01*
X632351Y585630D02*
X638779D01*
X632351Y589567D02*
X638779D01*
X616850Y659449D02*
X623263Y653036D01*
X621063Y632351D02*
Y648622D01*
X622800Y641659D02*
X623263Y642122D01*
Y653036D01*
X622800Y639837D02*
Y641659D01*
X605315Y641732D02*
X607283Y643701D01*
Y632351D02*
Y637795D01*
X605315Y632351D02*
Y641732D01*
X607283Y637795D02*
X608266Y638778D01*
X619326Y642790D02*
Y645438D01*
X619095Y642558D02*
X619326Y642790D01*
X619095Y632351D02*
Y642558D01*
X599409Y632351D02*
Y649606D01*
X596850Y637795D02*
X597441Y637205D01*
X616142Y648622D02*
X619326Y645438D01*
X615158Y632351D02*
Y639764D01*
X617126Y632351D02*
Y638621D01*
X617357Y638853D01*
Y640675D01*
X617126Y640906D02*
X617357Y640675D01*
X617126Y640906D02*
Y643701D01*
D41*
X437008Y593504D02*
X437008Y593504D01*
X432087Y593504D02*
X437008D01*
X571404Y470026D02*
X572441D01*
X567323Y466929D02*
X568307Y465945D01*
X570079Y469488D02*
X570866D01*
X571404Y470026D01*
X418504Y595669D02*
X419882Y597047D01*
X414370Y595669D02*
X418504D01*
X875000Y527997D02*
X881664D01*
X878332D01*
Y518000D01*
X886663D02*
X889995D01*
X891661Y519666D01*
Y522998D01*
X889995Y524664D01*
X886663D01*
X884997Y522998D01*
Y519666D01*
X886663Y518000D01*
X894993Y514668D02*
Y524664D01*
X899992D01*
X901658Y522998D01*
Y519666D01*
X899992Y518000D01*
X894993D01*
X914987Y527997D02*
Y518000D01*
X921652D01*
X926650Y524664D02*
X929982D01*
X931648Y522998D01*
Y518000D01*
X926650D01*
X924984Y519666D01*
X926650Y521332D01*
X931648D01*
X934981Y524664D02*
Y519666D01*
X936647Y518000D01*
X941645D01*
Y516334D01*
X939979Y514668D01*
X938313D01*
X941645Y518000D02*
Y524664D01*
X949976Y518000D02*
X946644D01*
X944977Y519666D01*
Y522998D01*
X946644Y524664D01*
X949976D01*
X951642Y522998D01*
Y521332D01*
X944977D01*
X954974Y524664D02*
Y518000D01*
Y521332D01*
X956640Y522998D01*
X958306Y524664D01*
X959972D01*
D42*
X432087Y591535D02*
Y593504D01*
X431102Y591535D02*
X432087D01*
X430118Y592520D02*
X431102Y591535D01*
X430118Y592520D02*
X431102Y593504D01*
X432087D01*
X638779Y477362D02*
X640748D01*
X636811D02*
X638779D01*
Y493110D02*
X640748D01*
X636811D02*
X638779D01*
X542323Y474409D02*
X544158D01*
X540488D02*
X542323D01*
X548228Y480315D02*
Y485236D01*
X542323Y490158D02*
X544291D01*
X540354D02*
X542323D01*
X631890Y485728D02*
Y489173D01*
Y482283D02*
Y485728D01*
X428150Y605315D02*
X433071Y610236D01*
X424606Y605315D02*
X428150D01*
X422638D02*
X424606D01*
X420669D02*
X422638D01*
X417126Y585433D02*
X419095D01*
X415158D02*
X417126D01*
X715394Y649606D02*
Y653937D01*
X739173Y662402D02*
X741142D01*
X725394Y670276D02*
Y695866D01*
Y651575D02*
Y653937D01*
X735394Y651575D02*
Y653937D01*
X741142Y662402D02*
Y664370D01*
Y660433D02*
Y662402D01*
X448000Y610236D02*
Y612992D01*
X433071Y610236D02*
X448000D01*
X453299D01*
X448000Y626150D02*
Y628118D01*
Y630087D01*
D43*
X410138Y587992D02*
X446260D01*
X453740Y595472D01*
X446260D02*
X474705D01*
X516732Y711024D02*
X524606D01*
X509449D02*
X516732D01*
X507776Y712697D02*
X509449Y711024D01*
X507776Y712697D02*
Y717520D01*
X476476D02*
X507776D01*
X476476Y660433D02*
X507776D01*
X410138Y585433D02*
X415158D01*
X410138Y595669D02*
X414370D01*
D44*
X492913Y768701D02*
D03*
X738346D02*
D03*
X625472D02*
D03*
X679134Y412402D02*
D03*
X443583D02*
D03*
D45*
X482913Y768701D02*
D03*
X472913D02*
D03*
X462913D02*
D03*
X452913D02*
D03*
X442913D02*
D03*
X728346D02*
D03*
X718347D02*
D03*
X615472D02*
D03*
X605472D02*
D03*
X595472D02*
D03*
X585472D02*
D03*
X575472D02*
D03*
X565472D02*
D03*
X555472D02*
D03*
X768701Y452913D02*
D03*
Y462913D02*
D03*
Y472913D02*
D03*
Y482913D02*
D03*
Y492913D02*
D03*
Y502913D02*
D03*
Y512913D02*
D03*
X689134Y412402D02*
D03*
X412402Y647835D02*
D03*
Y667835D02*
D03*
Y677835D02*
D03*
Y687835D02*
D03*
Y697835D02*
D03*
Y707835D02*
D03*
Y717835D02*
D03*
Y727835D02*
D03*
Y657835D02*
D03*
X513583Y412402D02*
D03*
X503583D02*
D03*
X493583D02*
D03*
X483583D02*
D03*
X473583D02*
D03*
X463583D02*
D03*
X453583D02*
D03*
D46*
X768701Y442913D02*
D03*
X412402Y737835D02*
D03*
D47*
X626850Y659449D02*
D03*
X616850D02*
D03*
X606850D02*
D03*
X596850D02*
D03*
X574803Y456693D02*
D03*
X753937Y647638D02*
D03*
X715394Y644685D02*
D03*
X725394Y722441D02*
D03*
X537402Y565350D02*
D03*
Y555350D02*
D03*
Y545350D02*
D03*
Y535350D02*
D03*
D48*
X600236Y403386D02*
D03*
Y423386D02*
D03*
X620236D02*
D03*
Y403386D02*
D03*
X560866D02*
D03*
Y423386D02*
D03*
X580866D02*
D03*
Y403386D02*
D03*
D49*
X610236Y413386D02*
D03*
X570866D02*
D03*
D50*
X413386D02*
D03*
Y767717D02*
D03*
X767717D02*
D03*
Y413386D02*
D03*
D51*
X403543Y498032D02*
D03*
Y493110D02*
D03*
Y502953D02*
D03*
Y488189D02*
D03*
Y547244D02*
D03*
Y542323D02*
D03*
D52*
Y507874D02*
D03*
Y552165D02*
D03*
D53*
X513779Y699803D02*
D03*
Y678150D02*
D03*
X430118Y592520D02*
D03*
X432087Y593504D02*
D03*
Y591535D02*
D03*
X517717Y621063D02*
D03*
Y616142D02*
D03*
X502953Y635827D02*
D03*
X508858Y629921D02*
D03*
X506890Y633858D02*
D03*
X512795Y627953D02*
D03*
X444882Y708661D02*
D03*
Y688976D02*
D03*
Y669291D02*
D03*
X561614Y458858D02*
D03*
X562598Y472441D02*
D03*
X562008Y466535D02*
D03*
X607327Y489026D02*
D03*
Y482726D02*
D03*
X573776Y485826D02*
D03*
Y482726D02*
D03*
X596851Y475350D02*
D03*
X581151D02*
D03*
X640748Y493110D02*
D03*
X636811D02*
D03*
X640748Y477362D02*
D03*
X636811D02*
D03*
X548228Y482776D02*
D03*
X548228Y485236D02*
D03*
X631890Y485728D02*
D03*
X540488Y474409D02*
D03*
X544158D02*
D03*
X544291Y490158D02*
D03*
X540354D02*
D03*
X409646Y578346D02*
D03*
Y602756D02*
D03*
X399606Y605315D02*
D03*
Y575787D02*
D03*
X530512Y577756D02*
D03*
X530511Y581692D02*
D03*
X529528Y586614D02*
D03*
X525591Y583661D02*
D03*
X662715Y597754D02*
D03*
X656810Y603660D02*
D03*
X651024Y609385D02*
D03*
X456693Y610236D02*
D03*
X453740Y602362D02*
D03*
X445866D02*
D03*
X449803D02*
D03*
X441929D02*
D03*
X690945Y592520D02*
D03*
Y596457D02*
D03*
X688976Y601378D02*
D03*
X669290Y592519D02*
D03*
X690945Y584646D02*
D03*
X660433D02*
D03*
X651575Y589567D02*
D03*
X639173Y618504D02*
D03*
X626968Y611221D02*
D03*
X638779Y613189D02*
D03*
X646654Y611221D02*
D03*
X652559Y605315D02*
D03*
X658465Y599409D02*
D03*
X679134Y570866D02*
D03*
X694882Y592520D02*
D03*
X687008D02*
D03*
X694882Y584646D02*
D03*
X687008D02*
D03*
X626968Y569882D02*
D03*
X652559Y567913D02*
D03*
X638779D02*
D03*
X652559Y585630D02*
D03*
X664370Y582677D02*
D03*
X625000Y640748D02*
D03*
X633858Y641732D02*
D03*
Y627953D02*
D03*
X700787Y611221D02*
D03*
X685039D02*
D03*
X705709Y583661D02*
D03*
X702756Y596457D02*
D03*
X696850Y579724D02*
D03*
X669291Y587598D02*
D03*
X692913Y570866D02*
D03*
X701772Y586614D02*
D03*
X688976Y578740D02*
D03*
X671260Y580709D02*
D03*
X702756Y601378D02*
D03*
X574213Y656890D02*
D03*
X567520D02*
D03*
X593504Y649606D02*
D03*
X611221Y626968D02*
D03*
X595472D02*
D03*
X575787D02*
D03*
X554134Y569882D02*
D03*
Y591535D02*
D03*
Y611221D02*
D03*
X577756Y647638D02*
D03*
X573819Y638779D02*
D03*
X539370Y633858D02*
D03*
X553150Y633858D02*
D03*
X515748Y660433D02*
D03*
X523622Y617126D02*
D03*
X513548Y623784D02*
D03*
X607283Y643701D02*
D03*
X603346Y646654D02*
D03*
X599409Y649606D02*
D03*
X590551Y653543D02*
D03*
X586614Y647638D02*
D03*
X588583Y650591D02*
D03*
X574803Y687992D02*
D03*
X581693D02*
D03*
X546260Y540354D02*
D03*
X546260Y553150D02*
D03*
X523622Y601378D02*
D03*
X527953Y612598D02*
D03*
X543307D02*
D03*
X538386Y606299D02*
D03*
X535039Y591929D02*
D03*
X543307Y595472D02*
D03*
Y568898D02*
D03*
Y572835D02*
D03*
X638779Y477362D02*
D03*
Y493110D02*
D03*
X631890Y482283D02*
D03*
X631890Y489173D02*
D03*
X618110D02*
D03*
Y482283D02*
D03*
X535433Y604138D02*
D03*
X513221Y563453D02*
D03*
X521654Y557087D02*
D03*
X593651Y475350D02*
D03*
X577951D02*
D03*
X584251D02*
D03*
X595472Y464567D02*
D03*
X595472Y450787D02*
D03*
X582677Y450787D02*
D03*
Y464567D02*
D03*
X542323Y490158D02*
D03*
Y474409D02*
D03*
X548228Y480315D02*
D03*
X562008D02*
D03*
Y485236D02*
D03*
X607283Y485826D02*
D03*
X573672Y495226D02*
D03*
X573624Y479526D02*
D03*
X607283Y492126D02*
D03*
X574803Y554134D02*
D03*
X621063Y532480D02*
D03*
X613189Y543307D02*
D03*
X621063Y537402D02*
D03*
X583661Y544095D02*
D03*
X587205Y532480D02*
D03*
X587598Y554134D02*
D03*
X589567Y537402D02*
D03*
X587598Y522638D02*
D03*
X583661Y526575D02*
D03*
X550197Y537402D02*
D03*
X554134D02*
D03*
X520669Y509449D02*
D03*
X511811Y541339D02*
D03*
X478505Y537243D02*
D03*
X474409Y539370D02*
D03*
X529528Y557087D02*
D03*
X514763Y566928D02*
D03*
X518700Y562991D02*
D03*
X497206Y616967D02*
D03*
X478346Y533465D02*
D03*
X513779Y588583D02*
D03*
X526575Y591535D02*
D03*
X520669Y598425D02*
D03*
X513604Y603522D02*
D03*
X506890Y612205D02*
D03*
X508858Y622047D02*
D03*
X495079Y612205D02*
D03*
X478346Y644685D02*
D03*
X484252Y621063D02*
D03*
X528150Y706299D02*
D03*
X513189D02*
D03*
X457677Y592520D02*
D03*
X470472D02*
D03*
X462008Y578346D02*
D03*
Y585039D02*
D03*
X450787Y588583D02*
D03*
X469488D02*
D03*
X465551Y584646D02*
D03*
X467520Y578740D02*
D03*
X515748Y595472D02*
D03*
X513779Y607283D02*
D03*
X475197Y617913D02*
D03*
X459449Y622244D02*
D03*
X467717Y618307D02*
D03*
X464567Y628937D02*
D03*
X431102Y509252D02*
D03*
X433071Y493110D02*
D03*
X470472Y602362D02*
D03*
X498032Y590551D02*
D03*
X486221D02*
D03*
X480315Y602362D02*
D03*
X492126D02*
D03*
X498032D02*
D03*
X486221D02*
D03*
X494488Y620472D02*
D03*
X490158Y612205D02*
D03*
X483268Y615158D02*
D03*
X481299Y612205D02*
D03*
X499902D02*
D03*
X422638Y605315D02*
D03*
X424606D02*
D03*
X420669D02*
D03*
X419095Y585433D02*
D03*
X415158D02*
D03*
X417126D02*
D03*
X627953Y531496D02*
D03*
X593504Y533653D02*
D03*
X605315Y531307D02*
D03*
X506890Y616142D02*
D03*
X502953Y612205D02*
D03*
X436024Y488189D02*
D03*
X625000Y543701D02*
D03*
X623032Y559055D02*
D03*
X620079Y556102D02*
D03*
X492126Y544291D02*
D03*
X499016Y553150D02*
D03*
X497047Y558071D02*
D03*
X503937Y602362D02*
D03*
Y578740D02*
D03*
X480315D02*
D03*
X473425Y561024D02*
D03*
X481299Y567913D02*
D03*
X465551Y555118D02*
D03*
X463583Y564961D02*
D03*
X502953Y551181D02*
D03*
X521654Y565551D02*
D03*
X520669Y570866D02*
D03*
X715394Y651772D02*
D03*
Y649606D02*
D03*
Y653937D02*
D03*
X740551Y641339D02*
D03*
X730315D02*
D03*
X720079D02*
D03*
X422736Y614567D02*
D03*
X429724D02*
D03*
X415748D02*
D03*
X741142Y662402D02*
D03*
Y660433D02*
D03*
Y664370D02*
D03*
X479331Y552165D02*
D03*
X508504Y447933D02*
D03*
X483268Y561024D02*
D03*
X480315Y563976D02*
D03*
X439961Y472441D02*
D03*
Y511811D02*
D03*
Y492126D02*
D03*
X593504Y638779D02*
D03*
X528543Y605315D02*
D03*
X539370Y599409D02*
D03*
X522638Y581693D02*
D03*
X541339Y601841D02*
D03*
X492126Y463583D02*
D03*
Y520669D02*
D03*
X535433Y586614D02*
D03*
X531496Y608268D02*
D03*
X492126Y578740D02*
D03*
X503937Y590551D02*
D03*
X480315D02*
D03*
X492126D02*
D03*
X489605Y568929D02*
D03*
X524606Y570865D02*
D03*
X598425Y538878D02*
D03*
X568451Y531050D02*
D03*
X603839Y540354D02*
D03*
X565945Y534449D02*
D03*
X608268Y543307D02*
D03*
X599409Y523622D02*
D03*
X609252Y554134D02*
D03*
X576772Y522638D02*
D03*
X595472Y520669D02*
D03*
X581151D02*
D03*
X561024Y534449D02*
D03*
X556102D02*
D03*
X620079Y542323D02*
D03*
X573819Y526575D02*
D03*
X570866Y520669D02*
D03*
X587451Y508858D02*
D03*
X596851D02*
D03*
X558119Y476426D02*
D03*
X558071Y491142D02*
D03*
X725394Y699803D02*
D03*
X721457D02*
D03*
X717520D02*
D03*
Y703740D02*
D03*
X721457D02*
D03*
X725394D02*
D03*
X729331D02*
D03*
X733268D02*
D03*
Y699803D02*
D03*
X729331D02*
D03*
X733268Y695866D02*
D03*
X729331D02*
D03*
X721457D02*
D03*
X717520D02*
D03*
X725394D02*
D03*
X534449Y577756D02*
D03*
X512402Y514173D02*
D03*
X529134D02*
D03*
X586614Y711614D02*
D03*
X580709Y705709D02*
D03*
X586614Y701772D02*
D03*
X577756Y692913D02*
D03*
X590551Y737205D02*
D03*
X492942Y568898D02*
D03*
X488189Y565945D02*
D03*
X505905Y562008D02*
D03*
X497688Y569243D02*
D03*
X569882Y561024D02*
D03*
X574803Y559055D02*
D03*
X509842Y557086D02*
D03*
X490158Y552734D02*
D03*
X450000Y606000D02*
D03*
X448000Y630087D02*
D03*
Y628118D02*
D03*
Y626150D02*
D03*
X601378Y459646D02*
D03*
Y450787D02*
D03*
X607283Y452756D02*
D03*
X609252Y466535D02*
D03*
X613976Y449606D02*
D03*
X622244Y455512D02*
D03*
X638779Y585630D02*
D03*
Y589567D02*
D03*
X621063Y648622D02*
D03*
X616142D02*
D03*
X608266Y638778D02*
D03*
X612205Y648622D02*
D03*
X596850Y637795D02*
D03*
X615158Y639764D02*
D03*
X617126Y643701D02*
D03*
M02*
