G04 Layer_Color=8421504*
%FSLAX25Y25*%
%MOIN*%
G70*
G01*
G75*
%ADD10R,0.03150X0.02756*%
%ADD11R,0.03543X0.03937*%
%ADD12R,0.02756X0.03150*%
%ADD13R,0.00900X0.05800*%
%ADD14R,0.05800X0.00900*%
%ADD15R,0.05800X0.02000*%
%ADD16R,0.02000X0.05800*%
%ADD17R,0.03937X0.03543*%
G04:AMPARAMS|DCode=18|XSize=27.56mil|YSize=31.5mil|CornerRadius=0mil|HoleSize=0mil|Usage=FLASHONLY|Rotation=225.000|XOffset=0mil|YOffset=0mil|HoleType=Round|Shape=Rectangle|*
%AMROTATEDRECTD18*
4,1,4,-0.00139,0.02088,0.02088,-0.00139,0.00139,-0.02088,-0.02088,0.00139,-0.00139,0.02088,0.0*
%
%ADD18ROTATEDRECTD18*%

G04:AMPARAMS|DCode=19|XSize=27.56mil|YSize=31.5mil|CornerRadius=0mil|HoleSize=0mil|Usage=FLASHONLY|Rotation=315.000|XOffset=0mil|YOffset=0mil|HoleType=Round|Shape=Rectangle|*
%AMROTATEDRECTD19*
4,1,4,-0.02088,-0.00139,0.00139,0.02088,0.02088,0.00139,-0.00139,-0.02088,-0.02088,-0.00139,0.0*
%
%ADD19ROTATEDRECTD19*%

G04:AMPARAMS|DCode=20|XSize=39.37mil|YSize=35.43mil|CornerRadius=0mil|HoleSize=0mil|Usage=FLASHONLY|Rotation=135.000|XOffset=0mil|YOffset=0mil|HoleType=Round|Shape=Rectangle|*
%AMROTATEDRECTD20*
4,1,4,0.02645,-0.00139,0.00139,-0.02645,-0.02645,0.00139,-0.00139,0.02645,0.02645,-0.00139,0.0*
%
%ADD20ROTATEDRECTD20*%

%ADD21R,0.02920X0.02126*%
%ADD22R,0.03937X0.01575*%
%ADD23R,0.02362X0.01181*%
%ADD24R,0.03937X0.01181*%
G04:AMPARAMS|DCode=25|XSize=29.53mil|YSize=33.47mil|CornerRadius=2.21mil|HoleSize=0mil|Usage=FLASHONLY|Rotation=180.000|XOffset=0mil|YOffset=0mil|HoleType=Round|Shape=RoundedRectangle|*
%AMROUNDEDRECTD25*
21,1,0.02953,0.02904,0,0,180.0*
21,1,0.02510,0.03347,0,0,180.0*
1,1,0.00443,-0.01255,0.01452*
1,1,0.00443,0.01255,0.01452*
1,1,0.00443,0.01255,-0.01452*
1,1,0.00443,-0.01255,-0.01452*
%
%ADD25ROUNDEDRECTD25*%
%ADD26R,0.06102X0.05118*%
%ADD27R,0.04134X0.12992*%
%ADD28R,0.41339X0.33071*%
%ADD29C,0.01378*%
%ADD30R,0.03150X0.00984*%
%ADD31R,0.00984X0.03150*%
%ADD32R,0.29528X0.29528*%
%ADD33R,0.06299X0.08268*%
%ADD34R,0.07480X0.07087*%
%ADD35R,0.05315X0.01575*%
%ADD36R,0.09055X0.09055*%
%ADD37R,0.02362X0.03347*%
%ADD38R,0.03937X0.03347*%
%ADD41C,0.02000*%
D10*
X621654Y737205D02*
D03*
X626378D02*
D03*
X599803Y737205D02*
D03*
X595079D02*
D03*
X581299Y737205D02*
D03*
X586024D02*
D03*
X566339Y737205D02*
D03*
X561614D02*
D03*
X643307Y567913D02*
D03*
X648032D02*
D03*
X643307Y585630D02*
D03*
X648032D02*
D03*
X688386Y570866D02*
D03*
X683661D02*
D03*
X419882Y580709D02*
D03*
X424606D02*
D03*
X548622Y633858D02*
D03*
X543898D02*
D03*
X539370Y612598D02*
D03*
X534646D02*
D03*
X539764Y595472D02*
D03*
X535039D02*
D03*
X557480Y485236D02*
D03*
X552756D02*
D03*
X557480Y480315D02*
D03*
X552756D02*
D03*
X622638Y489173D02*
D03*
X627362D02*
D03*
X622638Y482283D02*
D03*
X627362D02*
D03*
X556102Y541339D02*
D03*
X551378D02*
D03*
X466929Y602362D02*
D03*
X462205D02*
D03*
X466339Y592520D02*
D03*
X461614D02*
D03*
X517323Y588583D02*
D03*
X522047D02*
D03*
X424606Y600394D02*
D03*
X419882D02*
D03*
X462205Y708661D02*
D03*
X466929D02*
D03*
X462205Y688976D02*
D03*
X466929D02*
D03*
X462205Y669291D02*
D03*
X466929D02*
D03*
X473819Y628937D02*
D03*
X469095D02*
D03*
X462205Y511811D02*
D03*
X466929D02*
D03*
X462205Y492126D02*
D03*
X466929D02*
D03*
X462205Y472441D02*
D03*
X466929D02*
D03*
X567323Y469488D02*
D03*
X562598D02*
D03*
X622441Y472441D02*
D03*
X617717D02*
D03*
D11*
X656102Y589567D02*
D03*
X662795D02*
D03*
X696260Y611221D02*
D03*
X689567D02*
D03*
X567520Y661417D02*
D03*
X574213D02*
D03*
X568307Y462598D02*
D03*
X561614D02*
D03*
D12*
X642717Y613779D02*
D03*
Y618504D02*
D03*
X633858Y632480D02*
D03*
Y637205D02*
D03*
X705709Y592913D02*
D03*
Y588189D02*
D03*
X673228Y586221D02*
D03*
Y590945D02*
D03*
X611221Y639370D02*
D03*
Y644095D02*
D03*
X596850Y641339D02*
D03*
Y646063D02*
D03*
X513583Y443209D02*
D03*
Y447933D02*
D03*
X503583Y443209D02*
D03*
Y447933D02*
D03*
X419291Y614567D02*
D03*
Y609842D02*
D03*
X577756Y639370D02*
D03*
Y644095D02*
D03*
X607283Y462008D02*
D03*
Y457283D02*
D03*
X595472Y460039D02*
D03*
Y455315D02*
D03*
X546260Y549606D02*
D03*
Y544882D02*
D03*
X582677Y460039D02*
D03*
Y455315D02*
D03*
X627953Y540748D02*
D03*
Y536024D02*
D03*
X583661Y540748D02*
D03*
Y536024D02*
D03*
X516732Y509449D02*
D03*
Y514173D02*
D03*
X524606Y509449D02*
D03*
Y514173D02*
D03*
X516732Y711024D02*
D03*
Y706299D02*
D03*
X524606Y711024D02*
D03*
Y706299D02*
D03*
X427165Y504528D02*
D03*
Y509252D02*
D03*
X426181Y609842D02*
D03*
Y614567D02*
D03*
X490158Y615748D02*
D03*
Y620472D02*
D03*
D13*
X556102Y632351D02*
D03*
X558071D02*
D03*
X560039D02*
D03*
X562008D02*
D03*
X563976D02*
D03*
X565945D02*
D03*
X567913D02*
D03*
X569882D02*
D03*
X571850D02*
D03*
X573819D02*
D03*
X575787D02*
D03*
X577756D02*
D03*
X579724D02*
D03*
X581693D02*
D03*
X583661D02*
D03*
X585630D02*
D03*
X587598D02*
D03*
X589567D02*
D03*
X591535D02*
D03*
X593504D02*
D03*
X595472D02*
D03*
X597441D02*
D03*
X599409D02*
D03*
X601378D02*
D03*
X603346D02*
D03*
X605315D02*
D03*
X607283D02*
D03*
X609252D02*
D03*
X611221D02*
D03*
X613189D02*
D03*
X615158D02*
D03*
X617126D02*
D03*
X619095D02*
D03*
X621063D02*
D03*
X623032D02*
D03*
X625000D02*
D03*
Y548751D02*
D03*
X623032D02*
D03*
X621063D02*
D03*
X619095D02*
D03*
X617126D02*
D03*
X615158D02*
D03*
X613189D02*
D03*
X611221D02*
D03*
X609252D02*
D03*
X607283D02*
D03*
X605315D02*
D03*
X603346D02*
D03*
X601378D02*
D03*
X599409D02*
D03*
X597441D02*
D03*
X595472D02*
D03*
X593504D02*
D03*
X591535D02*
D03*
X589567D02*
D03*
X587598D02*
D03*
X585630D02*
D03*
X583661D02*
D03*
X581693D02*
D03*
X579724D02*
D03*
X577756D02*
D03*
X575787D02*
D03*
X573819D02*
D03*
X571850D02*
D03*
X569882D02*
D03*
X567913D02*
D03*
X565945D02*
D03*
X563976D02*
D03*
X562008D02*
D03*
X560039D02*
D03*
X558071D02*
D03*
X556102D02*
D03*
D14*
X632351Y625000D02*
D03*
Y623032D02*
D03*
Y621063D02*
D03*
Y619095D02*
D03*
Y617126D02*
D03*
Y615158D02*
D03*
Y613189D02*
D03*
Y611221D02*
D03*
Y609252D02*
D03*
Y607283D02*
D03*
Y605315D02*
D03*
Y603346D02*
D03*
Y601378D02*
D03*
Y599409D02*
D03*
Y597441D02*
D03*
Y595472D02*
D03*
Y593504D02*
D03*
Y591535D02*
D03*
Y589567D02*
D03*
Y587598D02*
D03*
Y585630D02*
D03*
Y583661D02*
D03*
Y581693D02*
D03*
Y579724D02*
D03*
Y577756D02*
D03*
Y575787D02*
D03*
Y573819D02*
D03*
Y571850D02*
D03*
Y569882D02*
D03*
Y567913D02*
D03*
Y565945D02*
D03*
Y563976D02*
D03*
Y562008D02*
D03*
Y560039D02*
D03*
Y558071D02*
D03*
Y556102D02*
D03*
X548751D02*
D03*
Y558071D02*
D03*
Y560039D02*
D03*
Y562008D02*
D03*
Y563976D02*
D03*
Y565945D02*
D03*
Y567913D02*
D03*
Y569882D02*
D03*
Y571850D02*
D03*
Y573819D02*
D03*
Y575787D02*
D03*
Y577756D02*
D03*
Y579724D02*
D03*
Y581693D02*
D03*
Y583661D02*
D03*
Y585630D02*
D03*
Y587598D02*
D03*
Y589567D02*
D03*
Y591535D02*
D03*
Y593504D02*
D03*
Y595472D02*
D03*
Y597441D02*
D03*
Y599409D02*
D03*
Y601378D02*
D03*
Y603346D02*
D03*
Y605315D02*
D03*
Y607283D02*
D03*
Y609252D02*
D03*
Y611221D02*
D03*
Y613189D02*
D03*
Y615158D02*
D03*
Y617126D02*
D03*
Y619095D02*
D03*
Y621063D02*
D03*
Y623032D02*
D03*
Y625000D02*
D03*
D15*
X612651Y476426D02*
D03*
Y479526D02*
D03*
Y482726D02*
D03*
Y485826D02*
D03*
Y489026D02*
D03*
Y492126D02*
D03*
Y495226D02*
D03*
Y498426D02*
D03*
Y501526D02*
D03*
Y504726D02*
D03*
Y507826D02*
D03*
X568451D02*
D03*
Y504726D02*
D03*
Y501526D02*
D03*
Y498426D02*
D03*
Y495226D02*
D03*
Y492126D02*
D03*
Y489026D02*
D03*
Y485826D02*
D03*
Y482726D02*
D03*
Y479526D02*
D03*
Y476426D02*
D03*
D16*
X606251Y514226D02*
D03*
X603151D02*
D03*
X599951D02*
D03*
X596851D02*
D03*
X593651D02*
D03*
X590551D02*
D03*
X587451D02*
D03*
X584251D02*
D03*
X581151D02*
D03*
X577951D02*
D03*
X574851D02*
D03*
Y470026D02*
D03*
X577951D02*
D03*
X581151D02*
D03*
X584251D02*
D03*
X587451D02*
D03*
X590551D02*
D03*
X593651D02*
D03*
X596851D02*
D03*
X599951D02*
D03*
X603151D02*
D03*
X606251D02*
D03*
D17*
X523622Y612598D02*
D03*
Y605905D02*
D03*
X542323Y478937D02*
D03*
Y485630D02*
D03*
X638779Y488583D02*
D03*
Y481890D02*
D03*
X457677Y585039D02*
D03*
Y578346D02*
D03*
X725394Y648032D02*
D03*
Y641339D02*
D03*
X735394Y648032D02*
D03*
Y641339D02*
D03*
X475197Y613976D02*
D03*
X467717D02*
D03*
Y622244D02*
D03*
X475197D02*
D03*
D18*
X614471Y539072D02*
D03*
X617812Y535731D02*
D03*
X498330Y565647D02*
D03*
X501670Y562306D02*
D03*
X491440Y563678D02*
D03*
X494781Y560337D02*
D03*
D19*
X501282Y616440D02*
D03*
X504623Y619781D02*
D03*
D20*
X601776Y534847D02*
D03*
X597043Y530114D02*
D03*
D21*
X442913Y593976D02*
D03*
D22*
X440354Y599606D02*
D03*
D23*
X446260Y595472D02*
D03*
Y593504D02*
D03*
X439567D02*
D03*
X439567Y595472D02*
D03*
D24*
X440354Y597441D02*
D03*
X445472Y599409D02*
D03*
X445472Y597441D02*
D03*
D25*
X449803Y708661D02*
D03*
X455709D02*
D03*
X449803Y688976D02*
D03*
X455709D02*
D03*
X449803Y669291D02*
D03*
X455709D02*
D03*
X449803Y511811D02*
D03*
X455709D02*
D03*
X449803Y492126D02*
D03*
X455709D02*
D03*
X449803Y472441D02*
D03*
X455709D02*
D03*
D26*
X507776Y660433D02*
D03*
X476476D02*
D03*
X507776Y678150D02*
D03*
X476476D02*
D03*
X507776Y463583D02*
D03*
X476476D02*
D03*
X507776Y481299D02*
D03*
X476476D02*
D03*
Y717520D02*
D03*
X507776D02*
D03*
X476476Y699803D02*
D03*
X507776D02*
D03*
Y502953D02*
D03*
X476476D02*
D03*
X507776Y520669D02*
D03*
X476476D02*
D03*
D27*
X725394Y662205D02*
D03*
X715394D02*
D03*
X735394D02*
D03*
D28*
X725394Y699803D02*
D03*
D29*
X681102Y598425D02*
D03*
X685039D02*
D03*
X688976D02*
D03*
X692913D02*
D03*
X696850D02*
D03*
X681102Y594488D02*
D03*
X685039D02*
D03*
X688976D02*
D03*
X692913D02*
D03*
X696850D02*
D03*
X681102Y590551D02*
D03*
X685039D02*
D03*
X688976D02*
D03*
X692913D02*
D03*
X696850D02*
D03*
X681102Y586614D02*
D03*
X685039D02*
D03*
X688976D02*
D03*
X692913D02*
D03*
X696850D02*
D03*
X681102Y582677D02*
D03*
X685039D02*
D03*
X688976D02*
D03*
X692913D02*
D03*
X696850D02*
D03*
D30*
X509547Y575787D02*
D03*
Y577756D02*
D03*
Y579724D02*
D03*
Y581693D02*
D03*
X509547Y583661D02*
D03*
Y585630D02*
D03*
Y587598D02*
D03*
X509547Y589567D02*
D03*
X509547Y591535D02*
D03*
X509547Y593504D02*
D03*
Y595472D02*
D03*
Y597441D02*
D03*
X509547Y599409D02*
D03*
Y601378D02*
D03*
Y603346D02*
D03*
Y605315D02*
D03*
X474705Y605315D02*
D03*
Y603346D02*
D03*
Y601378D02*
D03*
Y599409D02*
D03*
Y597441D02*
D03*
Y595472D02*
D03*
Y593504D02*
D03*
Y591535D02*
D03*
Y589567D02*
D03*
Y587598D02*
D03*
Y585630D02*
D03*
Y583661D02*
D03*
Y581693D02*
D03*
Y579724D02*
D03*
Y577756D02*
D03*
Y575787D02*
D03*
D31*
X506890Y607972D02*
D03*
X504921D02*
D03*
X502953D02*
D03*
X500984D02*
D03*
X499016D02*
D03*
X497047D02*
D03*
X495079D02*
D03*
X493110D02*
D03*
X491142D02*
D03*
X489173D02*
D03*
X487205D02*
D03*
X485236D02*
D03*
X483268D02*
D03*
X481299D02*
D03*
X479331Y607972D02*
D03*
X477362D02*
D03*
Y573130D02*
D03*
X479331D02*
D03*
X481299Y573130D02*
D03*
X483268D02*
D03*
X485236D02*
D03*
X487205D02*
D03*
X489173D02*
D03*
X491142Y573130D02*
D03*
X493110Y573130D02*
D03*
X495079D02*
D03*
X497047D02*
D03*
X499016D02*
D03*
X500984D02*
D03*
X502953Y573130D02*
D03*
X504921Y573130D02*
D03*
X506890D02*
D03*
D32*
X492126Y590551D02*
D03*
D33*
X409646Y578346D02*
D03*
Y602756D02*
D03*
D34*
X399606Y575591D02*
D03*
Y605512D02*
D03*
D35*
X410138Y587992D02*
D03*
Y593110D02*
D03*
Y590551D02*
D03*
Y585433D02*
D03*
Y595669D02*
D03*
D36*
X448000Y636858D02*
D03*
Y619142D02*
D03*
D37*
X618110Y466732D02*
D03*
Y460433D02*
D03*
D38*
X613976Y466732D02*
D03*
X622244D02*
D03*
Y460433D02*
D03*
X613976D02*
D03*
D41*
X875000Y581997D02*
X881664D01*
X878332D01*
Y572000D01*
X886663D02*
X889995D01*
X891661Y573666D01*
Y576998D01*
X889995Y578664D01*
X886663D01*
X884997Y576998D01*
Y573666D01*
X886663Y572000D01*
X894993Y568668D02*
Y578664D01*
X899992D01*
X901658Y576998D01*
Y573666D01*
X899992Y572000D01*
X894993D01*
X914987D02*
Y581997D01*
X919985D01*
X921652Y580331D01*
Y576998D01*
X919985Y575332D01*
X914987D01*
X926650Y578664D02*
X929982D01*
X931648Y576998D01*
Y572000D01*
X926650D01*
X924984Y573666D01*
X926650Y575332D01*
X931648D01*
X934981Y572000D02*
X939979D01*
X941645Y573666D01*
X939979Y575332D01*
X936647D01*
X934981Y576998D01*
X936647Y578664D01*
X941645D01*
X946644Y580331D02*
Y578664D01*
X944977D01*
X948310D01*
X946644D01*
Y573666D01*
X948310Y572000D01*
X958306D02*
X954974D01*
X953308Y573666D01*
Y576998D01*
X954974Y578664D01*
X958306D01*
X959972Y576998D01*
Y575332D01*
X953308D01*
M02*
