G04 Layer_Physical_Order=4*
G04 Layer_Color=16711680*
%FSLAX25Y25*%
%MOIN*%
G70*
G01*
G75*
%ADD10R,0.03150X0.02756*%
%ADD12R,0.02756X0.03150*%
%ADD39C,0.01200*%
%ADD40C,0.00800*%
%ADD41C,0.02000*%
%ADD42C,0.02500*%
%ADD44R,0.06500X0.06500*%
%ADD45C,0.06500*%
%ADD46R,0.06500X0.06500*%
%ADD47C,0.05000*%
%ADD48C,0.11024*%
%ADD49C,0.08661*%
%ADD50C,0.25000*%
%ADD51O,0.04331X0.03543*%
%ADD52R,0.04331X0.03543*%
%ADD53C,0.02400*%
G36*
X787402Y393701D02*
X393701D01*
Y787402D01*
X787402D01*
Y393701D01*
D02*
G37*
%LPC*%
G36*
X609252Y555969D02*
X608550Y555829D01*
X607954Y555432D01*
X607556Y554836D01*
X607417Y554134D01*
X607556Y553432D01*
X607954Y552836D01*
X608550Y552438D01*
X609252Y552299D01*
X609954Y552438D01*
X610550Y552836D01*
X610948Y553432D01*
X611087Y554134D01*
X610948Y554836D01*
X610550Y555432D01*
X609954Y555829D01*
X609252Y555969D01*
D02*
G37*
G36*
X509842Y558921D02*
X509140Y558781D01*
X508544Y558384D01*
X508146Y557788D01*
X508007Y557086D01*
X508146Y556384D01*
X508544Y555788D01*
X509140Y555390D01*
X509842Y555251D01*
X510544Y555390D01*
X511140Y555788D01*
X511537Y556384D01*
X511677Y557086D01*
X511537Y557788D01*
X511140Y558384D01*
X510544Y558781D01*
X509842Y558921D01*
D02*
G37*
G36*
X521654Y558922D02*
X520951Y558782D01*
X520356Y558384D01*
X519958Y557789D01*
X519818Y557087D01*
X519958Y556384D01*
X520356Y555789D01*
X520951Y555391D01*
X521654Y555251D01*
X522356Y555391D01*
X522951Y555789D01*
X523349Y556384D01*
X523489Y557087D01*
X523349Y557789D01*
X522951Y558384D01*
X522356Y558782D01*
X521654Y558922D01*
D02*
G37*
G36*
X587598Y555969D02*
X586896Y555829D01*
X586301Y555432D01*
X585903Y554836D01*
X585763Y554134D01*
X585903Y553432D01*
X586301Y552836D01*
X586896Y552438D01*
X587598Y552299D01*
X588301Y552438D01*
X588896Y552836D01*
X589294Y553432D01*
X589434Y554134D01*
X589294Y554836D01*
X588896Y555432D01*
X588301Y555829D01*
X587598Y555969D01*
D02*
G37*
G36*
X537402Y548477D02*
X536592Y548371D01*
X535838Y548058D01*
X535191Y547561D01*
X534694Y546914D01*
X534381Y546160D01*
X534275Y545350D01*
X534381Y544541D01*
X534694Y543787D01*
X535191Y543139D01*
X535838Y542643D01*
X536592Y542330D01*
X537402Y542224D01*
X538211Y542330D01*
X538965Y542643D01*
X539612Y543139D01*
X540109Y543787D01*
X540422Y544541D01*
X540528Y545350D01*
X540422Y546160D01*
X540109Y546914D01*
X539612Y547561D01*
X538965Y548058D01*
X538211Y548371D01*
X537402Y548477D01*
D02*
G37*
G36*
Y558477D02*
X536592Y558371D01*
X535838Y558058D01*
X535191Y557561D01*
X534694Y556914D01*
X534381Y556160D01*
X534275Y555350D01*
X534381Y554541D01*
X534694Y553787D01*
X535191Y553139D01*
X535838Y552643D01*
X536592Y552330D01*
X537402Y552224D01*
X538211Y552330D01*
X538965Y552643D01*
X539612Y553139D01*
X540109Y553787D01*
X540422Y554541D01*
X540528Y555350D01*
X540422Y556160D01*
X540109Y556914D01*
X539612Y557561D01*
X538965Y558058D01*
X538211Y558371D01*
X537402Y558477D01*
D02*
G37*
G36*
X574803Y555969D02*
X574101Y555829D01*
X573505Y555432D01*
X573108Y554836D01*
X572968Y554134D01*
X573108Y553432D01*
X573505Y552836D01*
X574101Y552438D01*
X574803Y552299D01*
X575505Y552438D01*
X576101Y552836D01*
X576499Y553432D01*
X576638Y554134D01*
X576499Y554836D01*
X576101Y555432D01*
X575505Y555829D01*
X574803Y555969D01*
D02*
G37*
G36*
X529528Y558922D02*
X528825Y558782D01*
X528230Y558384D01*
X527832Y557789D01*
X527692Y557087D01*
X527832Y556384D01*
X528230Y555789D01*
X528825Y555391D01*
X529528Y555251D01*
X530230Y555391D01*
X530825Y555789D01*
X531223Y556384D01*
X531363Y557087D01*
X531223Y557789D01*
X530825Y558384D01*
X530230Y558782D01*
X529528Y558922D01*
D02*
G37*
G36*
X505905Y563843D02*
X505203Y563703D01*
X504608Y563306D01*
X504210Y562710D01*
X504070Y562008D01*
X504210Y561306D01*
X504608Y560710D01*
X505203Y560312D01*
X505905Y560173D01*
X506608Y560312D01*
X507203Y560710D01*
X507601Y561306D01*
X507741Y562008D01*
X507601Y562710D01*
X507203Y563306D01*
X506608Y563703D01*
X505905Y563843D01*
D02*
G37*
G36*
X514763Y568764D02*
X514061Y568624D01*
X513465Y568226D01*
X513068Y567631D01*
X512928Y566928D01*
X513068Y566226D01*
X513306Y565870D01*
X513287Y565744D01*
X513036Y565251D01*
X512518Y565148D01*
X511923Y564750D01*
X511525Y564155D01*
X511385Y563453D01*
X511525Y562750D01*
X511923Y562155D01*
X512518Y561757D01*
X513221Y561617D01*
X513923Y561757D01*
X514518Y562155D01*
X514916Y562750D01*
X515056Y563453D01*
X514916Y564155D01*
X514678Y564511D01*
X514697Y564637D01*
X514948Y565130D01*
X515465Y565233D01*
X516061Y565631D01*
X516459Y566226D01*
X516598Y566928D01*
X516459Y567631D01*
X516061Y568226D01*
X515465Y568624D01*
X514763Y568764D01*
D02*
G37*
G36*
X537402Y568477D02*
X536592Y568371D01*
X535838Y568058D01*
X535191Y567561D01*
X534694Y566914D01*
X534381Y566160D01*
X534275Y565350D01*
X534381Y564541D01*
X534694Y563787D01*
X535191Y563139D01*
X535838Y562643D01*
X536592Y562330D01*
X537402Y562224D01*
X538211Y562330D01*
X538965Y562643D01*
X539612Y563139D01*
X540109Y563787D01*
X540422Y564541D01*
X540528Y565350D01*
X540422Y566160D01*
X540109Y566914D01*
X539612Y567561D01*
X538965Y568058D01*
X538211Y568371D01*
X537402Y568477D01*
D02*
G37*
G36*
X569882Y562859D02*
X569180Y562719D01*
X568584Y562321D01*
X568186Y561726D01*
X568047Y561024D01*
X568186Y560321D01*
X568584Y559726D01*
X569180Y559328D01*
X569882Y559188D01*
X570584Y559328D01*
X571180Y559726D01*
X571578Y560321D01*
X571717Y561024D01*
X571578Y561726D01*
X571180Y562321D01*
X570584Y562719D01*
X569882Y562859D01*
D02*
G37*
G36*
X497047Y559906D02*
X496345Y559766D01*
X495750Y559369D01*
X495352Y558773D01*
X495212Y558071D01*
X495352Y557369D01*
X495750Y556773D01*
X496345Y556375D01*
X497047Y556236D01*
X497750Y556375D01*
X498345Y556773D01*
X498743Y557369D01*
X498882Y558071D01*
X498743Y558773D01*
X498345Y559369D01*
X497750Y559766D01*
X497047Y559906D01*
D02*
G37*
G36*
X574803Y560890D02*
X574101Y560751D01*
X573505Y560353D01*
X573108Y559757D01*
X572968Y559055D01*
X573108Y558353D01*
X573505Y557757D01*
X574101Y557360D01*
X574803Y557220D01*
X575505Y557360D01*
X576101Y557757D01*
X576499Y558353D01*
X576638Y559055D01*
X576499Y559757D01*
X576101Y560353D01*
X575505Y560751D01*
X574803Y560890D01*
D02*
G37*
G36*
X623032D02*
X622329Y560751D01*
X621734Y560353D01*
X621336Y559757D01*
X621196Y559055D01*
X621336Y558353D01*
X621548Y558035D01*
X621582Y557984D01*
X621150Y557552D01*
X621099Y557586D01*
X620781Y557798D01*
X620079Y557938D01*
X619376Y557798D01*
X618781Y557400D01*
X618383Y556805D01*
X618244Y556102D01*
X618383Y555400D01*
X618781Y554805D01*
X619376Y554407D01*
X620079Y554267D01*
X620781Y554407D01*
X621377Y554805D01*
X621774Y555400D01*
X621914Y556102D01*
X621774Y556805D01*
X621562Y557122D01*
X621528Y557173D01*
X621961Y557606D01*
X622011Y557572D01*
X622329Y557360D01*
X623032Y557220D01*
X623734Y557360D01*
X624329Y557757D01*
X624727Y558353D01*
X624867Y559055D01*
X624727Y559757D01*
X624329Y560353D01*
X623734Y560751D01*
X623032Y560890D01*
D02*
G37*
G36*
X565945Y536284D02*
X565243Y536144D01*
X564647Y535746D01*
X564249Y535151D01*
X564110Y534449D01*
X564249Y533746D01*
X564647Y533151D01*
X565243Y532753D01*
X565945Y532614D01*
X566647Y532753D01*
X567243Y533151D01*
X567640Y533746D01*
X567780Y534449D01*
X567640Y535151D01*
X567243Y535746D01*
X566647Y536144D01*
X565945Y536284D01*
D02*
G37*
G36*
X550197Y539237D02*
X549495Y539097D01*
X548899Y538699D01*
X548501Y538104D01*
X548362Y537402D01*
X548501Y536699D01*
X548899Y536104D01*
X549495Y535706D01*
X550197Y535566D01*
X550899Y535706D01*
X551495Y536104D01*
X551892Y536699D01*
X552032Y537402D01*
X551892Y538104D01*
X551495Y538699D01*
X550899Y539097D01*
X550197Y539237D01*
D02*
G37*
G36*
X589567D02*
X588865Y539097D01*
X588269Y538699D01*
X587871Y538104D01*
X587732Y537402D01*
X587871Y536699D01*
X588269Y536104D01*
X588865Y535706D01*
X589567Y535566D01*
X590269Y535706D01*
X590865Y536104D01*
X591262Y536699D01*
X591402Y537402D01*
X591262Y538104D01*
X590865Y538699D01*
X590269Y539097D01*
X589567Y539237D01*
D02*
G37*
G36*
X561024Y536284D02*
X560321Y536144D01*
X559726Y535746D01*
X559328Y535151D01*
X559188Y534449D01*
X559328Y533746D01*
X559726Y533151D01*
X560321Y532753D01*
X561024Y532614D01*
X561726Y532753D01*
X562321Y533151D01*
X562719Y533746D01*
X562859Y534449D01*
X562719Y535151D01*
X562321Y535746D01*
X561726Y536144D01*
X561024Y536284D01*
D02*
G37*
G36*
X593504Y535489D02*
X592802Y535349D01*
X592206Y534951D01*
X591808Y534356D01*
X591669Y533653D01*
X591808Y532951D01*
X592206Y532355D01*
X592802Y531958D01*
X593504Y531818D01*
X594206Y531958D01*
X594802Y532355D01*
X595199Y532951D01*
X595339Y533653D01*
X595199Y534356D01*
X594802Y534951D01*
X594206Y535349D01*
X593504Y535489D01*
D02*
G37*
G36*
X537402Y538477D02*
X536592Y538371D01*
X535838Y538058D01*
X535191Y537561D01*
X534694Y536914D01*
X534381Y536160D01*
X534275Y535350D01*
X534381Y534541D01*
X534694Y533787D01*
X535191Y533139D01*
X535838Y532643D01*
X536592Y532330D01*
X537402Y532224D01*
X538211Y532330D01*
X538965Y532643D01*
X539612Y533139D01*
X540109Y533787D01*
X540422Y534541D01*
X540528Y535350D01*
X540422Y536160D01*
X540109Y536914D01*
X539612Y537561D01*
X538965Y538058D01*
X538211Y538371D01*
X537402Y538477D01*
D02*
G37*
G36*
X556102Y536284D02*
X555400Y536144D01*
X554805Y535746D01*
X554407Y535151D01*
X554267Y534449D01*
X554407Y533746D01*
X554805Y533151D01*
X555400Y532753D01*
X556102Y532614D01*
X556805Y532753D01*
X557400Y533151D01*
X557798Y533746D01*
X557938Y534449D01*
X557798Y535151D01*
X557400Y535746D01*
X556805Y536144D01*
X556102Y536284D01*
D02*
G37*
G36*
X621063Y539237D02*
X620361Y539097D01*
X619765Y538699D01*
X619367Y538104D01*
X619228Y537402D01*
X619367Y536699D01*
X619765Y536104D01*
X620361Y535706D01*
X621063Y535566D01*
X621765Y535706D01*
X622361Y536104D01*
X622759Y536699D01*
X622898Y537402D01*
X622759Y538104D01*
X622361Y538699D01*
X621765Y539097D01*
X621063Y539237D01*
D02*
G37*
G36*
X406309Y554537D02*
X400778D01*
Y549794D01*
X401617D01*
X401799Y549194D01*
X401440Y548954D01*
X400916Y548170D01*
X400732Y547244D01*
X400916Y546319D01*
X401440Y545534D01*
X402065Y545117D01*
X402095Y545010D01*
Y544557D01*
X402065Y544450D01*
X401440Y544033D01*
X400916Y543248D01*
X400732Y542323D01*
X400916Y541397D01*
X401440Y540613D01*
X402224Y540089D01*
X403150Y539905D01*
X403937D01*
X404862Y540089D01*
X405647Y540613D01*
X406171Y541397D01*
X406355Y542323D01*
X406171Y543248D01*
X405647Y544033D01*
X405022Y544450D01*
X404991Y544557D01*
Y545010D01*
X405022Y545117D01*
X405647Y545534D01*
X406171Y546319D01*
X406355Y547244D01*
X406171Y548170D01*
X405647Y548954D01*
X405288Y549194D01*
X405470Y549794D01*
X406309D01*
Y554537D01*
D02*
G37*
G36*
X620079Y544158D02*
X619376Y544018D01*
X618781Y543621D01*
X618383Y543025D01*
X618244Y542323D01*
X618383Y541620D01*
X618781Y541025D01*
X619376Y540627D01*
X620079Y540488D01*
X620781Y540627D01*
X621377Y541025D01*
X621774Y541620D01*
X621914Y542323D01*
X621774Y543025D01*
X621377Y543621D01*
X620781Y544018D01*
X620079Y544158D01*
D02*
G37*
G36*
X608268Y545142D02*
X607565Y545003D01*
X606970Y544605D01*
X606572Y544009D01*
X606432Y543307D01*
X606572Y542605D01*
X606970Y542009D01*
X607565Y541611D01*
X608268Y541472D01*
X608970Y541611D01*
X609565Y542009D01*
X609963Y542605D01*
X610103Y543307D01*
X609963Y544009D01*
X609565Y544605D01*
X608970Y545003D01*
X608268Y545142D01*
D02*
G37*
G36*
X511811Y543174D02*
X511109Y543034D01*
X510513Y542636D01*
X510115Y542041D01*
X509976Y541339D01*
X510115Y540636D01*
X510513Y540041D01*
X511109Y539643D01*
X511811Y539503D01*
X512513Y539643D01*
X513109Y540041D01*
X513507Y540636D01*
X513646Y541339D01*
X513507Y542041D01*
X513109Y542636D01*
X512513Y543034D01*
X511811Y543174D01*
D02*
G37*
G36*
X598425Y540713D02*
X597723Y540574D01*
X597127Y540176D01*
X596730Y539580D01*
X596590Y538878D01*
X596730Y538176D01*
X597127Y537580D01*
X597723Y537182D01*
X598425Y537043D01*
X599127Y537182D01*
X599723Y537580D01*
X600121Y538176D01*
X600260Y538878D01*
X600121Y539580D01*
X599723Y540176D01*
X599127Y540574D01*
X598425Y540713D01*
D02*
G37*
G36*
X546260Y542190D02*
X545557Y542050D01*
X544962Y541652D01*
X544564Y541057D01*
X544425Y540354D01*
X544564Y539652D01*
X544962Y539057D01*
X545557Y538659D01*
X546260Y538519D01*
X546962Y538659D01*
X547558Y539057D01*
X547955Y539652D01*
X548095Y540354D01*
X547955Y541057D01*
X547558Y541652D01*
X546962Y542050D01*
X546260Y542190D01*
D02*
G37*
G36*
X603839D02*
X603136Y542050D01*
X602541Y541652D01*
X602143Y541057D01*
X602003Y540354D01*
X602143Y539652D01*
X602541Y539057D01*
X603136Y538659D01*
X603839Y538519D01*
X604541Y538659D01*
X605136Y539057D01*
X605534Y539652D01*
X605674Y540354D01*
X605534Y541057D01*
X605136Y541652D01*
X604541Y542050D01*
X603839Y542190D01*
D02*
G37*
G36*
X521654Y567386D02*
X520951Y567247D01*
X520356Y566849D01*
X519958Y566254D01*
X519818Y565551D01*
X519915Y565066D01*
X519403Y564687D01*
X518700Y564827D01*
X517998Y564687D01*
X517402Y564289D01*
X517005Y563694D01*
X516865Y562991D01*
X517005Y562289D01*
X517402Y561694D01*
X517998Y561296D01*
X518700Y561156D01*
X519403Y561296D01*
X519998Y561694D01*
X520396Y562289D01*
X520535Y562991D01*
X520439Y563476D01*
X520951Y563856D01*
X521654Y563716D01*
X522356Y563856D01*
X522951Y564254D01*
X523349Y564849D01*
X523489Y565551D01*
X523349Y566254D01*
X522951Y566849D01*
X522356Y567247D01*
X521654Y567386D01*
D02*
G37*
G36*
X705709Y585497D02*
X705006Y585357D01*
X704411Y584959D01*
X704013Y584364D01*
X703873Y583661D01*
X704013Y582959D01*
X704411Y582364D01*
X705006Y581966D01*
X705709Y581826D01*
X706411Y581966D01*
X707006Y582364D01*
X707404Y582959D01*
X707544Y583661D01*
X707404Y584364D01*
X707006Y584959D01*
X706411Y585357D01*
X705709Y585497D01*
D02*
G37*
G36*
X465551Y586481D02*
X464849Y586341D01*
X464254Y585943D01*
X463856Y585348D01*
X463716Y584646D01*
X463856Y583943D01*
X464254Y583348D01*
X464849Y582950D01*
X465551Y582810D01*
X466254Y582950D01*
X466849Y583348D01*
X467247Y583943D01*
X467386Y584646D01*
X467247Y585348D01*
X466849Y585943D01*
X466254Y586341D01*
X465551Y586481D01*
D02*
G37*
G36*
X660433D02*
X659731Y586341D01*
X659135Y585943D01*
X658738Y585348D01*
X658598Y584646D01*
X658738Y583943D01*
X659135Y583348D01*
X659731Y582950D01*
X660433Y582810D01*
X661135Y582950D01*
X661731Y583348D01*
X662129Y583943D01*
X662268Y584646D01*
X662129Y585348D01*
X661731Y585943D01*
X661135Y586341D01*
X660433Y586481D01*
D02*
G37*
G36*
X664370Y584512D02*
X663668Y584373D01*
X663072Y583975D01*
X662675Y583380D01*
X662535Y582677D01*
X662675Y581975D01*
X663072Y581379D01*
X663668Y580982D01*
X664370Y580842D01*
X665072Y580982D01*
X665668Y581379D01*
X666066Y581975D01*
X666205Y582677D01*
X666066Y583380D01*
X665668Y583975D01*
X665072Y584373D01*
X664370Y584512D01*
D02*
G37*
G36*
X688976Y580575D02*
X688274Y580436D01*
X687679Y580038D01*
X687281Y579443D01*
X687141Y578740D01*
X687281Y578038D01*
X687679Y577442D01*
X688274Y577045D01*
X688976Y576905D01*
X689679Y577045D01*
X690274Y577442D01*
X690672Y578038D01*
X690812Y578740D01*
X690672Y579443D01*
X690274Y580038D01*
X689679Y580436D01*
X688976Y580575D01*
D02*
G37*
G36*
X696850Y581560D02*
X696148Y581420D01*
X695553Y581022D01*
X695155Y580427D01*
X695015Y579724D01*
X695155Y579022D01*
X695553Y578427D01*
X696148Y578029D01*
X696850Y577889D01*
X697553Y578029D01*
X698148Y578427D01*
X698546Y579022D01*
X698686Y579724D01*
X698546Y580427D01*
X698148Y581022D01*
X697553Y581420D01*
X696850Y581560D01*
D02*
G37*
G36*
X671260Y582544D02*
X670557Y582404D01*
X669962Y582006D01*
X669564Y581411D01*
X669425Y580709D01*
X669564Y580006D01*
X669962Y579411D01*
X670557Y579013D01*
X671260Y578873D01*
X671962Y579013D01*
X672558Y579411D01*
X672955Y580006D01*
X673095Y580709D01*
X672955Y581411D01*
X672558Y582006D01*
X671962Y582404D01*
X671260Y582544D01*
D02*
G37*
G36*
X525591Y585497D02*
X524888Y585357D01*
X524293Y584959D01*
X523895Y584364D01*
X523785Y583813D01*
X523520Y583560D01*
X523192Y583418D01*
X522638Y583528D01*
X521936Y583389D01*
X521340Y582991D01*
X520942Y582395D01*
X520802Y581693D01*
X520942Y580991D01*
X521340Y580395D01*
X521936Y579997D01*
X522638Y579858D01*
X523340Y579997D01*
X523936Y580395D01*
X524333Y580991D01*
X524443Y581542D01*
X524709Y581795D01*
X525036Y581936D01*
X525591Y581826D01*
X526293Y581966D01*
X526888Y582364D01*
X527286Y582959D01*
X527426Y583661D01*
X527286Y584364D01*
X526888Y584959D01*
X526293Y585357D01*
X525591Y585497D01*
D02*
G37*
G36*
X694882Y586481D02*
X694180Y586341D01*
X693584Y585943D01*
X693237Y585424D01*
X692913Y585383D01*
X692590Y585424D01*
X692243Y585943D01*
X691647Y586341D01*
X690945Y586481D01*
X690243Y586341D01*
X689647Y585943D01*
X689300Y585424D01*
X688976Y585383D01*
X688653Y585424D01*
X688306Y585943D01*
X687710Y586341D01*
X687008Y586481D01*
X686306Y586341D01*
X685710Y585943D01*
X685312Y585348D01*
X685173Y584646D01*
X685312Y583943D01*
X685710Y583348D01*
X686306Y582950D01*
X687008Y582810D01*
X687710Y582950D01*
X688306Y583348D01*
X688653Y583867D01*
X688976Y583909D01*
X689300Y583867D01*
X689647Y583348D01*
X690243Y582950D01*
X690945Y582810D01*
X691647Y582950D01*
X692243Y583348D01*
X692590Y583867D01*
X692913Y583909D01*
X693237Y583867D01*
X693584Y583348D01*
X694180Y582950D01*
X694882Y582810D01*
X695584Y582950D01*
X696180Y583348D01*
X696578Y583943D01*
X696717Y584646D01*
X696578Y585348D01*
X696180Y585943D01*
X695584Y586341D01*
X694882Y586481D01*
D02*
G37*
G36*
X469488Y590418D02*
X468786Y590278D01*
X468190Y589880D01*
X467793Y589285D01*
X467653Y588583D01*
X467793Y587880D01*
X468190Y587285D01*
X468786Y586887D01*
X469488Y586747D01*
X470190Y586887D01*
X470786Y587285D01*
X471184Y587880D01*
X471323Y588583D01*
X471184Y589285D01*
X470786Y589880D01*
X470190Y590278D01*
X469488Y590418D01*
D02*
G37*
G36*
X419095Y587268D02*
X418392Y587129D01*
X418110Y586940D01*
X417828Y587129D01*
X417126Y587268D01*
X416424Y587129D01*
X416142Y586940D01*
X415860Y587129D01*
X415158Y587268D01*
X414455Y587129D01*
X413860Y586731D01*
X413462Y586135D01*
X413322Y585433D01*
X413462Y584731D01*
X413860Y584135D01*
X414455Y583738D01*
X415158Y583598D01*
X415860Y583738D01*
X416142Y583926D01*
X416424Y583738D01*
X417126Y583598D01*
X417828Y583738D01*
X418110Y583926D01*
X418392Y583738D01*
X419095Y583598D01*
X419797Y583738D01*
X420392Y584135D01*
X420790Y584731D01*
X420930Y585433D01*
X420790Y586135D01*
X420392Y586731D01*
X419797Y587129D01*
X419095Y587268D01*
D02*
G37*
G36*
X701772Y588449D02*
X701069Y588310D01*
X700474Y587912D01*
X700076Y587317D01*
X699936Y586614D01*
X700076Y585912D01*
X700474Y585316D01*
X701069Y584919D01*
X701772Y584779D01*
X702474Y584919D01*
X703069Y585316D01*
X703467Y585912D01*
X703607Y586614D01*
X703467Y587317D01*
X703069Y587912D01*
X702474Y588310D01*
X701772Y588449D01*
D02*
G37*
G36*
X652559Y587465D02*
X651857Y587325D01*
X651261Y586928D01*
X650864Y586332D01*
X650724Y585630D01*
X650864Y584928D01*
X651261Y584332D01*
X651857Y583934D01*
X652559Y583795D01*
X653261Y583934D01*
X653857Y584332D01*
X654255Y584928D01*
X654394Y585630D01*
X654255Y586332D01*
X653857Y586928D01*
X653261Y587325D01*
X652559Y587465D01*
D02*
G37*
G36*
X529528Y588449D02*
X528825Y588310D01*
X528230Y587912D01*
X527832Y587317D01*
X527692Y586614D01*
X527832Y585912D01*
X528230Y585316D01*
X528825Y584919D01*
X529528Y584779D01*
X530230Y584919D01*
X530825Y585316D01*
X531223Y585912D01*
X531363Y586614D01*
X531223Y587317D01*
X530825Y587912D01*
X530230Y588310D01*
X529528Y588449D01*
D02*
G37*
G36*
X535433D02*
X534731Y588310D01*
X534135Y587912D01*
X533738Y587317D01*
X533598Y586614D01*
X533738Y585912D01*
X534135Y585316D01*
X534731Y584919D01*
X535433Y584779D01*
X536135Y584919D01*
X536731Y585316D01*
X537129Y585912D01*
X537268Y586614D01*
X537129Y587317D01*
X536731Y587912D01*
X536135Y588310D01*
X535433Y588449D01*
D02*
G37*
G36*
X520669Y572701D02*
X519967Y572562D01*
X519372Y572164D01*
X518974Y571568D01*
X518834Y570866D01*
X518974Y570164D01*
X519372Y569568D01*
X519967Y569171D01*
X520669Y569031D01*
X521372Y569171D01*
X521967Y569568D01*
X522313Y570087D01*
X522638Y570128D01*
X522961Y570086D01*
X523308Y569568D01*
X523903Y569170D01*
X524606Y569030D01*
X525308Y569170D01*
X525903Y569568D01*
X526301Y570163D01*
X526441Y570865D01*
X526301Y571568D01*
X525903Y572163D01*
X525308Y572561D01*
X524606Y572701D01*
X523903Y572561D01*
X523308Y572163D01*
X522962Y571645D01*
X522637Y571603D01*
X522314Y571645D01*
X521967Y572164D01*
X521372Y572562D01*
X520669Y572701D01*
D02*
G37*
G36*
X679134D02*
X678432Y572562D01*
X677836Y572164D01*
X677438Y571568D01*
X677299Y570866D01*
X677438Y570164D01*
X677836Y569568D01*
X678432Y569171D01*
X679134Y569031D01*
X679836Y569171D01*
X680432Y569568D01*
X680829Y570164D01*
X680969Y570866D01*
X680829Y571568D01*
X680432Y572164D01*
X679836Y572562D01*
X679134Y572701D01*
D02*
G37*
G36*
X399606Y607150D02*
X398904Y607011D01*
X398309Y606613D01*
X397911Y606017D01*
X397771Y605315D01*
X397911Y604613D01*
X397975Y604517D01*
Y576586D01*
X397911Y576490D01*
X397771Y575787D01*
X397911Y575085D01*
X398309Y574490D01*
X398904Y574092D01*
X399606Y573952D01*
X400309Y574092D01*
X400904Y574490D01*
X401302Y575085D01*
X401442Y575787D01*
X401302Y576490D01*
X401238Y576586D01*
Y604517D01*
X401302Y604613D01*
X401442Y605315D01*
X401302Y606017D01*
X400904Y606613D01*
X400309Y607011D01*
X399606Y607150D01*
D02*
G37*
G36*
X626968Y571717D02*
X626266Y571578D01*
X625671Y571180D01*
X625273Y570584D01*
X625133Y569882D01*
X625273Y569180D01*
X625671Y568584D01*
X626266Y568186D01*
X626968Y568047D01*
X627671Y568186D01*
X628266Y568584D01*
X628664Y569180D01*
X628804Y569882D01*
X628664Y570584D01*
X628266Y571180D01*
X627671Y571578D01*
X626968Y571717D01*
D02*
G37*
G36*
X652559Y569749D02*
X651857Y569609D01*
X651261Y569211D01*
X650864Y568616D01*
X650724Y567913D01*
X650864Y567211D01*
X651261Y566616D01*
X651857Y566218D01*
X652559Y566078D01*
X653261Y566218D01*
X653857Y566616D01*
X654255Y567211D01*
X654394Y567913D01*
X654255Y568616D01*
X653857Y569211D01*
X653261Y569609D01*
X652559Y569749D01*
D02*
G37*
G36*
X489605Y570764D02*
X488902Y570625D01*
X488307Y570227D01*
X487909Y569631D01*
X487770Y568929D01*
X487909Y568227D01*
X488307Y567631D01*
X488902Y567234D01*
X489605Y567094D01*
X490307Y567234D01*
X490902Y567631D01*
X490963Y567722D01*
X491563D01*
X491645Y567600D01*
X492240Y567202D01*
X492942Y567062D01*
X493645Y567202D01*
X494240Y567600D01*
X494638Y568195D01*
X494778Y568898D01*
X494638Y569600D01*
X494240Y570195D01*
X493645Y570593D01*
X492942Y570733D01*
X492240Y570593D01*
X491645Y570195D01*
X491584Y570105D01*
X490984D01*
X490902Y570227D01*
X490307Y570625D01*
X489605Y570764D01*
D02*
G37*
G36*
X554134Y571717D02*
X553432Y571578D01*
X552836Y571180D01*
X552438Y570584D01*
X552299Y569882D01*
X552438Y569180D01*
X552836Y568584D01*
X553432Y568186D01*
X554134Y568047D01*
X554836Y568186D01*
X555432Y568584D01*
X555829Y569180D01*
X555969Y569882D01*
X555829Y570584D01*
X555432Y571180D01*
X554836Y571578D01*
X554134Y571717D01*
D02*
G37*
G36*
X550206Y575403D02*
X546250D01*
Y574058D01*
X544654D01*
X544605Y574132D01*
X544009Y574530D01*
X543307Y574670D01*
X542605Y574530D01*
X542009Y574132D01*
X541611Y573537D01*
X541472Y572835D01*
X541611Y572132D01*
X542009Y571537D01*
X542605Y571139D01*
X543307Y570999D01*
X544009Y571139D01*
X544605Y571537D01*
X544654Y571611D01*
X546250D01*
Y571054D01*
X550206D01*
Y575403D01*
D02*
G37*
G36*
X480315Y580575D02*
X479613Y580436D01*
X479017Y580038D01*
X478619Y579443D01*
X478480Y578740D01*
X478619Y578038D01*
X479017Y577442D01*
X479613Y577045D01*
X480315Y576905D01*
X481017Y577045D01*
X481613Y577442D01*
X482011Y578038D01*
X482150Y578740D01*
X482011Y579443D01*
X481613Y580038D01*
X481017Y580436D01*
X480315Y580575D01*
D02*
G37*
G36*
X492126D02*
X491424Y580436D01*
X490828Y580038D01*
X490430Y579443D01*
X490291Y578740D01*
X490430Y578038D01*
X490828Y577442D01*
X491424Y577045D01*
X492126Y576905D01*
X492828Y577045D01*
X493424Y577442D01*
X493821Y578038D01*
X493961Y578740D01*
X493821Y579443D01*
X493424Y580038D01*
X492828Y580436D01*
X492126Y580575D01*
D02*
G37*
G36*
X503937D02*
X503235Y580436D01*
X502639Y580038D01*
X502241Y579443D01*
X502102Y578740D01*
X502241Y578038D01*
X502639Y577442D01*
X503235Y577045D01*
X503937Y576905D01*
X504639Y577045D01*
X505235Y577442D01*
X505633Y578038D01*
X505772Y578740D01*
X505633Y579443D01*
X505235Y580038D01*
X504639Y580436D01*
X503937Y580575D01*
D02*
G37*
G36*
X467520D02*
X466817Y580436D01*
X466222Y580038D01*
X465824Y579443D01*
X465684Y578740D01*
X465824Y578038D01*
X466222Y577442D01*
X466817Y577045D01*
X467520Y576905D01*
X468222Y577045D01*
X468817Y577442D01*
X469215Y578038D01*
X469355Y578740D01*
X469215Y579443D01*
X468817Y580038D01*
X468222Y580436D01*
X467520Y580575D01*
D02*
G37*
G36*
X530511Y583527D02*
X529809Y583388D01*
X529213Y582990D01*
X528816Y582395D01*
X528676Y581692D01*
X528816Y580990D01*
X529213Y580394D01*
X529732Y580048D01*
X529774Y579725D01*
X529733Y579400D01*
X529214Y579054D01*
X528816Y578458D01*
X528677Y577756D01*
X528816Y577054D01*
X529214Y576458D01*
X529810Y576060D01*
X530512Y575921D01*
X531214Y576060D01*
X531810Y576458D01*
X532157Y576978D01*
X532480Y577019D01*
X532804Y576978D01*
X533151Y576458D01*
X533746Y576060D01*
X534449Y575921D01*
X535151Y576060D01*
X535746Y576458D01*
X536144Y577054D01*
X536284Y577756D01*
X536144Y578458D01*
X535746Y579054D01*
X535151Y579452D01*
X534449Y579591D01*
X533746Y579452D01*
X533151Y579054D01*
X532804Y578534D01*
X532480Y578493D01*
X532157Y578534D01*
X531810Y579054D01*
X531291Y579400D01*
X531249Y579723D01*
X531290Y580048D01*
X531809Y580394D01*
X532207Y580990D01*
X532346Y581692D01*
X532207Y582395D01*
X531809Y582990D01*
X531214Y583388D01*
X530511Y583527D01*
D02*
G37*
G36*
X409646Y580182D02*
X408943Y580042D01*
X408348Y579644D01*
X407950Y579049D01*
X407810Y578346D01*
X407950Y577644D01*
X408348Y577049D01*
X408943Y576651D01*
X409646Y576511D01*
X410348Y576651D01*
X410943Y577049D01*
X411341Y577644D01*
X411481Y578346D01*
X411341Y579049D01*
X410943Y579644D01*
X410348Y580042D01*
X409646Y580182D01*
D02*
G37*
G36*
X462008D02*
X461306Y580042D01*
X460710Y579644D01*
X460312Y579049D01*
X460173Y578346D01*
X460312Y577644D01*
X460710Y577049D01*
X461306Y576651D01*
X462008Y576511D01*
X462710Y576651D01*
X463306Y577049D01*
X463703Y577644D01*
X463843Y578346D01*
X463703Y579049D01*
X463306Y579644D01*
X462710Y580042D01*
X462008Y580182D01*
D02*
G37*
G36*
X478505Y539078D02*
X477803Y538939D01*
X477207Y538541D01*
X476809Y537945D01*
X476670Y537243D01*
X476809Y536541D01*
X477207Y535945D01*
X477514Y535740D01*
X477547Y535596D01*
X477475Y535047D01*
X477049Y534762D01*
X476651Y534167D01*
X476511Y533465D01*
X476651Y532762D01*
X477049Y532167D01*
X477644Y531769D01*
X478346Y531629D01*
X479049Y531769D01*
X479644Y532167D01*
X480042Y532762D01*
X480182Y533465D01*
X480042Y534167D01*
X479644Y534762D01*
X479337Y534968D01*
X479305Y535112D01*
X479376Y535660D01*
X479803Y535945D01*
X480200Y536541D01*
X480340Y537243D01*
X480200Y537945D01*
X479803Y538541D01*
X479207Y538939D01*
X478505Y539078D01*
D02*
G37*
G36*
X622244Y457347D02*
X621542Y457207D01*
X620946Y456810D01*
X620548Y456214D01*
X620409Y455512D01*
X620548Y454810D01*
X620946Y454214D01*
X621542Y453816D01*
X622244Y453677D01*
X622946Y453816D01*
X623542Y454214D01*
X623940Y454810D01*
X624079Y455512D01*
X623940Y456214D01*
X623542Y456810D01*
X622946Y457207D01*
X622244Y457347D01*
D02*
G37*
G36*
X561614Y460694D02*
X560912Y460554D01*
X560317Y460156D01*
X559919Y459561D01*
X559779Y458858D01*
X559919Y458156D01*
X560317Y457560D01*
X560912Y457163D01*
X561614Y457023D01*
X562317Y457163D01*
X562912Y457560D01*
X563310Y458156D01*
X563449Y458858D01*
X563310Y459561D01*
X562912Y460156D01*
X562317Y460554D01*
X561614Y460694D01*
D02*
G37*
G36*
X768701Y466797D02*
X767696Y466664D01*
X766759Y466276D01*
X765955Y465659D01*
X765338Y464855D01*
X764950Y463918D01*
X764818Y462913D01*
X764950Y461908D01*
X765338Y460972D01*
X765955Y460168D01*
X766759Y459550D01*
X767696Y459163D01*
X768701Y459030D01*
X769706Y459163D01*
X770642Y459550D01*
X771447Y460168D01*
X772064Y460972D01*
X772452Y461908D01*
X772584Y462913D01*
X772452Y463918D01*
X772064Y464855D01*
X771447Y465659D01*
X770642Y466276D01*
X769706Y466664D01*
X768701Y466797D01*
D02*
G37*
G36*
X574803Y459820D02*
X573994Y459713D01*
X573240Y459401D01*
X572592Y458904D01*
X572095Y458256D01*
X571783Y457502D01*
X571676Y456693D01*
X571783Y455884D01*
X572095Y455129D01*
X572592Y454482D01*
X573240Y453985D01*
X573994Y453673D01*
X574803Y453566D01*
X575612Y453673D01*
X576367Y453985D01*
X577014Y454482D01*
X577511Y455129D01*
X577823Y455884D01*
X577930Y456693D01*
X577823Y457502D01*
X577511Y458256D01*
X577014Y458904D01*
X576367Y459401D01*
X575612Y459713D01*
X574803Y459820D01*
D02*
G37*
G36*
X595472Y452623D02*
X594770Y452483D01*
X594175Y452085D01*
X593777Y451490D01*
X593637Y450787D01*
X593777Y450085D01*
X594175Y449490D01*
X594770Y449092D01*
X595472Y448952D01*
X596175Y449092D01*
X596770Y449490D01*
X597168Y450085D01*
X597308Y450787D01*
X597168Y451490D01*
X596770Y452085D01*
X596175Y452483D01*
X595472Y452623D01*
D02*
G37*
G36*
X768701Y456797D02*
X767696Y456664D01*
X766759Y456276D01*
X765955Y455659D01*
X765338Y454855D01*
X764950Y453918D01*
X764818Y452913D01*
X764950Y451908D01*
X765338Y450972D01*
X765955Y450168D01*
X766759Y449550D01*
X767696Y449162D01*
X768701Y449030D01*
X769706Y449162D01*
X770642Y449550D01*
X771447Y450168D01*
X772064Y450972D01*
X772452Y451908D01*
X772584Y452913D01*
X772452Y453918D01*
X772064Y454855D01*
X771447Y455659D01*
X770642Y456276D01*
X769706Y456664D01*
X768701Y456797D01*
D02*
G37*
G36*
X607283Y454591D02*
X606581Y454452D01*
X605986Y454054D01*
X605588Y453458D01*
X605448Y452756D01*
X605588Y452054D01*
X605986Y451458D01*
X606581Y451060D01*
X607283Y450921D01*
X607986Y451060D01*
X608581Y451458D01*
X608979Y452054D01*
X609119Y452756D01*
X608979Y453458D01*
X608581Y454054D01*
X607986Y454452D01*
X607283Y454591D01*
D02*
G37*
G36*
X492126Y465418D02*
X491424Y465278D01*
X490828Y464880D01*
X490430Y464285D01*
X490291Y463583D01*
X490430Y462880D01*
X490828Y462285D01*
X491424Y461887D01*
X492126Y461747D01*
X492828Y461887D01*
X493424Y462285D01*
X493821Y462880D01*
X493961Y463583D01*
X493821Y464285D01*
X493424Y464880D01*
X492828Y465278D01*
X492126Y465418D01*
D02*
G37*
G36*
X584251Y477186D02*
X583549Y477046D01*
X582954Y476648D01*
X582556Y476053D01*
X582416Y475350D01*
X582556Y474648D01*
X582954Y474053D01*
X583549Y473655D01*
X584251Y473515D01*
X584953Y473655D01*
X585549Y474053D01*
X585947Y474648D01*
X586086Y475350D01*
X585947Y476053D01*
X585549Y476648D01*
X584953Y477046D01*
X584251Y477186D01*
D02*
G37*
G36*
X593651D02*
X592949Y477046D01*
X592353Y476648D01*
X591956Y476053D01*
X591816Y475350D01*
X591956Y474648D01*
X592353Y474053D01*
X592949Y473655D01*
X593651Y473515D01*
X594353Y473655D01*
X594949Y474053D01*
X595347Y474648D01*
X595486Y475350D01*
X595347Y476053D01*
X594949Y476648D01*
X594353Y477046D01*
X593651Y477186D01*
D02*
G37*
G36*
X558119Y478261D02*
X557417Y478122D01*
X556821Y477724D01*
X556423Y477128D01*
X556284Y476426D01*
X556423Y475724D01*
X556821Y475128D01*
X557417Y474730D01*
X558119Y474591D01*
X558821Y474730D01*
X559417Y475128D01*
X559815Y475724D01*
X559954Y476426D01*
X559815Y477128D01*
X559417Y477724D01*
X558821Y478122D01*
X558119Y478261D01*
D02*
G37*
G36*
X577951Y477186D02*
X577249Y477046D01*
X576653Y476648D01*
X576256Y476053D01*
X576116Y475350D01*
X576256Y474648D01*
X576653Y474053D01*
X577249Y473655D01*
X577951Y473515D01*
X578653Y473655D01*
X579249Y474053D01*
X579647Y474648D01*
X579786Y475350D01*
X579647Y476053D01*
X579249Y476648D01*
X578653Y477046D01*
X577951Y477186D01*
D02*
G37*
G36*
X562008Y468371D02*
X561306Y468231D01*
X560710Y467833D01*
X560312Y467238D01*
X560173Y466535D01*
X560312Y465833D01*
X560710Y465238D01*
X561306Y464840D01*
X562008Y464700D01*
X562710Y464840D01*
X563306Y465238D01*
X563703Y465833D01*
X563843Y466535D01*
X563703Y467238D01*
X563306Y467833D01*
X562710Y468231D01*
X562008Y468371D01*
D02*
G37*
G36*
X768701Y476797D02*
X767696Y476664D01*
X766759Y476276D01*
X765955Y475659D01*
X765338Y474855D01*
X764950Y473918D01*
X764818Y472913D01*
X764950Y471908D01*
X765338Y470972D01*
X765955Y470167D01*
X766759Y469550D01*
X767696Y469163D01*
X768701Y469030D01*
X769706Y469163D01*
X770642Y469550D01*
X771447Y470167D01*
X772064Y470972D01*
X772452Y471908D01*
X772584Y472913D01*
X772452Y473918D01*
X772064Y474855D01*
X771447Y475659D01*
X770642Y476276D01*
X769706Y476664D01*
X768701Y476797D01*
D02*
G37*
G36*
X562598Y474276D02*
X561896Y474136D01*
X561301Y473739D01*
X560903Y473143D01*
X560763Y472441D01*
X560903Y471739D01*
X561301Y471143D01*
X561896Y470745D01*
X562598Y470606D01*
X563301Y470745D01*
X563896Y471143D01*
X564294Y471739D01*
X564434Y472441D01*
X564294Y473143D01*
X563896Y473739D01*
X563301Y474136D01*
X562598Y474276D01*
D02*
G37*
G36*
X413386Y426526D02*
X411330Y426365D01*
X409325Y425883D01*
X407420Y425094D01*
X405662Y424017D01*
X404094Y422678D01*
X402755Y421110D01*
X401678Y419351D01*
X400888Y417447D01*
X400407Y415441D01*
X400245Y413386D01*
X400407Y411330D01*
X400888Y409325D01*
X401678Y407420D01*
X402755Y405662D01*
X404094Y404094D01*
X405662Y402755D01*
X407420Y401678D01*
X409325Y400888D01*
X411330Y400407D01*
X413386Y400245D01*
X415441Y400407D01*
X417447Y400888D01*
X419351Y401678D01*
X421110Y402755D01*
X422678Y404094D01*
X424017Y405662D01*
X425094Y407420D01*
X425883Y409325D01*
X426365Y411330D01*
X426526Y413386D01*
X426365Y415441D01*
X425883Y417447D01*
X425094Y419351D01*
X424017Y421110D01*
X422678Y422678D01*
X421110Y424017D01*
X419351Y425094D01*
X417447Y425883D01*
X415441Y426365D01*
X413386Y426526D01*
D02*
G37*
G36*
X767717D02*
X765661Y426365D01*
X763656Y425883D01*
X761751Y425094D01*
X759993Y424017D01*
X758425Y422678D01*
X757086Y421110D01*
X756008Y419351D01*
X755219Y417447D01*
X754738Y415441D01*
X754576Y413386D01*
X754738Y411330D01*
X755219Y409325D01*
X756008Y407420D01*
X757086Y405662D01*
X758425Y404094D01*
X759993Y402755D01*
X761751Y401678D01*
X763656Y400888D01*
X765661Y400407D01*
X767717Y400245D01*
X769772Y400407D01*
X771777Y400888D01*
X773682Y401678D01*
X775440Y402755D01*
X777008Y404094D01*
X778347Y405662D01*
X779425Y407420D01*
X780214Y409325D01*
X780695Y411330D01*
X780857Y413386D01*
X780695Y415441D01*
X780214Y417447D01*
X779425Y419351D01*
X778347Y421110D01*
X777008Y422678D01*
X775440Y424017D01*
X773682Y425094D01*
X771777Y425883D01*
X769772Y426365D01*
X767717Y426526D01*
D02*
G37*
G36*
X570866Y418359D02*
X569579Y418190D01*
X568379Y417693D01*
X567349Y416902D01*
X566559Y415872D01*
X566062Y414673D01*
X565893Y413386D01*
X566062Y412099D01*
X566559Y410899D01*
X567349Y409869D01*
X568379Y409079D01*
X569579Y408582D01*
X570866Y408413D01*
X572153Y408582D01*
X573353Y409079D01*
X574383Y409869D01*
X575173Y410899D01*
X575670Y412099D01*
X575839Y413386D01*
X575670Y414673D01*
X575173Y415872D01*
X574383Y416902D01*
X573353Y417693D01*
X572153Y418190D01*
X570866Y418359D01*
D02*
G37*
G36*
X620236Y409527D02*
X619038Y409409D01*
X617886Y409060D01*
X616824Y408492D01*
X615894Y407728D01*
X615130Y406798D01*
X614562Y405736D01*
X614213Y404584D01*
X614095Y403386D01*
X614213Y402188D01*
X614562Y401036D01*
X615130Y399974D01*
X615894Y399043D01*
X616824Y398279D01*
X617886Y397712D01*
X619038Y397362D01*
X620236Y397244D01*
X621434Y397362D01*
X622586Y397712D01*
X623648Y398279D01*
X624579Y399043D01*
X625343Y399974D01*
X625910Y401036D01*
X626260Y402188D01*
X626378Y403386D01*
X626260Y404584D01*
X625910Y405736D01*
X625343Y406798D01*
X624579Y407728D01*
X623648Y408492D01*
X622586Y409060D01*
X621434Y409409D01*
X620236Y409527D01*
D02*
G37*
G36*
X560866D02*
X559668Y409409D01*
X558516Y409060D01*
X557454Y408492D01*
X556524Y407728D01*
X555760Y406798D01*
X555192Y405736D01*
X554843Y404584D01*
X554725Y403386D01*
X554843Y402188D01*
X555192Y401036D01*
X555760Y399974D01*
X556524Y399043D01*
X557454Y398279D01*
X558516Y397712D01*
X559668Y397362D01*
X560866Y397244D01*
X562064Y397362D01*
X563216Y397712D01*
X564278Y398279D01*
X565209Y399043D01*
X565973Y399974D01*
X566540Y401036D01*
X566889Y402188D01*
X567007Y403386D01*
X566889Y404584D01*
X566540Y405736D01*
X565973Y406798D01*
X565209Y407728D01*
X564278Y408492D01*
X563216Y409060D01*
X562064Y409409D01*
X560866Y409527D01*
D02*
G37*
G36*
X580866D02*
X579668Y409409D01*
X578516Y409060D01*
X577454Y408492D01*
X576523Y407728D01*
X575760Y406798D01*
X575192Y405736D01*
X574843Y404584D01*
X574725Y403386D01*
X574843Y402188D01*
X575192Y401036D01*
X575760Y399974D01*
X576523Y399043D01*
X577454Y398279D01*
X578516Y397712D01*
X579668Y397362D01*
X580866Y397244D01*
X582064Y397362D01*
X583216Y397712D01*
X584278Y398279D01*
X585209Y399043D01*
X585972Y399974D01*
X586540Y401036D01*
X586890Y402188D01*
X587008Y403386D01*
X586890Y404584D01*
X586540Y405736D01*
X585972Y406798D01*
X585209Y407728D01*
X584278Y408492D01*
X583216Y409060D01*
X582064Y409409D01*
X580866Y409527D01*
D02*
G37*
G36*
X600236D02*
X599038Y409409D01*
X597886Y409060D01*
X596824Y408492D01*
X595894Y407728D01*
X595130Y406798D01*
X594562Y405736D01*
X594213Y404584D01*
X594095Y403386D01*
X594213Y402188D01*
X594562Y401036D01*
X595130Y399974D01*
X595894Y399043D01*
X596824Y398279D01*
X597886Y397712D01*
X599038Y397362D01*
X600236Y397244D01*
X601434Y397362D01*
X602586Y397712D01*
X603648Y398279D01*
X604579Y399043D01*
X605343Y399974D01*
X605910Y401036D01*
X606260Y402188D01*
X606378Y403386D01*
X606260Y404584D01*
X605910Y405736D01*
X605343Y406798D01*
X604579Y407728D01*
X603648Y408492D01*
X602586Y409060D01*
X601434Y409409D01*
X600236Y409527D01*
D02*
G37*
G36*
X610236Y418359D02*
X608949Y418190D01*
X607750Y417693D01*
X606720Y416902D01*
X605929Y415872D01*
X605432Y414673D01*
X605263Y413386D01*
X605432Y412099D01*
X605929Y410899D01*
X606720Y409869D01*
X607750Y409079D01*
X608949Y408582D01*
X610236Y408413D01*
X611523Y408582D01*
X612723Y409079D01*
X613753Y409869D01*
X614543Y410899D01*
X615040Y412099D01*
X615209Y413386D01*
X615040Y414673D01*
X614543Y415872D01*
X613753Y416902D01*
X612723Y417693D01*
X611523Y418190D01*
X610236Y418359D01*
D02*
G37*
G36*
X620236Y429527D02*
X619038Y429409D01*
X617886Y429060D01*
X616824Y428492D01*
X615894Y427728D01*
X615130Y426798D01*
X614562Y425736D01*
X614213Y424584D01*
X614095Y423386D01*
X614213Y422188D01*
X614562Y421036D01*
X615130Y419974D01*
X615894Y419043D01*
X616824Y418279D01*
X617886Y417712D01*
X619038Y417362D01*
X620236Y417244D01*
X621434Y417362D01*
X622586Y417712D01*
X623648Y418279D01*
X624579Y419043D01*
X625343Y419974D01*
X625910Y421036D01*
X626260Y422188D01*
X626378Y423386D01*
X626260Y424584D01*
X625910Y425736D01*
X625343Y426798D01*
X624579Y427728D01*
X623648Y428492D01*
X622586Y429060D01*
X621434Y429409D01*
X620236Y429527D01*
D02*
G37*
G36*
X582677Y452623D02*
X581975Y452483D01*
X581379Y452085D01*
X580982Y451490D01*
X580842Y450787D01*
X580982Y450085D01*
X581379Y449490D01*
X581975Y449092D01*
X582677Y448952D01*
X583380Y449092D01*
X583975Y449490D01*
X584373Y450085D01*
X584512Y450787D01*
X584373Y451490D01*
X583975Y452085D01*
X583380Y452483D01*
X582677Y452623D01*
D02*
G37*
G36*
X601378D02*
X600676Y452483D01*
X600080Y452085D01*
X599682Y451490D01*
X599543Y450787D01*
X599682Y450085D01*
X600080Y449490D01*
X600676Y449092D01*
X601378Y448952D01*
X602080Y449092D01*
X602676Y449490D01*
X603074Y450085D01*
X603213Y450787D01*
X603074Y451490D01*
X602676Y452085D01*
X602080Y452483D01*
X601378Y452623D01*
D02*
G37*
G36*
X600236Y429527D02*
X599038Y429409D01*
X597886Y429060D01*
X596824Y428492D01*
X595894Y427728D01*
X595130Y426798D01*
X594562Y425736D01*
X594213Y424584D01*
X594095Y423386D01*
X594213Y422188D01*
X594562Y421036D01*
X595130Y419974D01*
X595894Y419043D01*
X596824Y418279D01*
X597886Y417712D01*
X599038Y417362D01*
X600236Y417244D01*
X601434Y417362D01*
X602586Y417712D01*
X603648Y418279D01*
X604579Y419043D01*
X605343Y419974D01*
X605910Y421036D01*
X606260Y422188D01*
X606378Y423386D01*
X606260Y424584D01*
X605910Y425736D01*
X605343Y426798D01*
X604579Y427728D01*
X603648Y428492D01*
X602586Y429060D01*
X601434Y429409D01*
X600236Y429527D01*
D02*
G37*
G36*
X689134Y416285D02*
X688129Y416152D01*
X687192Y415765D01*
X686388Y415147D01*
X685771Y414343D01*
X685383Y413407D01*
X685251Y412402D01*
X685383Y411397D01*
X685771Y410460D01*
X686388Y409656D01*
X687192Y409039D01*
X688129Y408651D01*
X689134Y408518D01*
X690139Y408651D01*
X691076Y409039D01*
X691880Y409656D01*
X692497Y410460D01*
X692885Y411397D01*
X693017Y412402D01*
X692885Y413407D01*
X692497Y414343D01*
X691880Y415147D01*
X691076Y415765D01*
X690139Y416152D01*
X689134Y416285D01*
D02*
G37*
G36*
X560866Y429527D02*
X559668Y429409D01*
X558516Y429060D01*
X557454Y428492D01*
X556524Y427728D01*
X555760Y426798D01*
X555192Y425736D01*
X554843Y424584D01*
X554725Y423386D01*
X554843Y422188D01*
X555192Y421036D01*
X555760Y419974D01*
X556524Y419043D01*
X557454Y418279D01*
X558516Y417712D01*
X559668Y417362D01*
X560866Y417244D01*
X562064Y417362D01*
X563216Y417712D01*
X564278Y418279D01*
X565209Y419043D01*
X565973Y419974D01*
X566540Y421036D01*
X566889Y422188D01*
X567007Y423386D01*
X566889Y424584D01*
X566540Y425736D01*
X565973Y426798D01*
X565209Y427728D01*
X564278Y428492D01*
X563216Y429060D01*
X562064Y429409D01*
X560866Y429527D01*
D02*
G37*
G36*
X580866D02*
X579668Y429409D01*
X578516Y429060D01*
X577454Y428492D01*
X576523Y427728D01*
X575760Y426798D01*
X575192Y425736D01*
X574843Y424584D01*
X574725Y423386D01*
X574843Y422188D01*
X575192Y421036D01*
X575760Y419974D01*
X576523Y419043D01*
X577454Y418279D01*
X578516Y417712D01*
X579668Y417362D01*
X580866Y417244D01*
X582064Y417362D01*
X583216Y417712D01*
X584278Y418279D01*
X585209Y419043D01*
X585972Y419974D01*
X586540Y421036D01*
X586890Y422188D01*
X587008Y423386D01*
X586890Y424584D01*
X586540Y425736D01*
X585972Y426798D01*
X585209Y427728D01*
X584278Y428492D01*
X583216Y429060D01*
X582064Y429409D01*
X580866Y429527D01*
D02*
G37*
G36*
X573624Y481361D02*
X572921Y481221D01*
X572326Y480824D01*
X571928Y480228D01*
X571788Y479526D01*
X571928Y478824D01*
X572326Y478228D01*
X572921Y477830D01*
X573624Y477691D01*
X574326Y477830D01*
X574921Y478228D01*
X575319Y478824D01*
X575459Y479526D01*
X575319Y480228D01*
X574921Y480824D01*
X574326Y481221D01*
X573624Y481361D01*
D02*
G37*
G36*
X581151Y522505D02*
X580449Y522365D01*
X579853Y521967D01*
X579456Y521372D01*
X579316Y520669D01*
X579456Y519967D01*
X579853Y519372D01*
X580449Y518974D01*
X581151Y518834D01*
X581853Y518974D01*
X582449Y519372D01*
X582847Y519967D01*
X582986Y520669D01*
X582847Y521372D01*
X582449Y521967D01*
X581853Y522365D01*
X581151Y522505D01*
D02*
G37*
G36*
X595472D02*
X594770Y522365D01*
X594175Y521967D01*
X593777Y521372D01*
X593637Y520669D01*
X593777Y519967D01*
X594175Y519372D01*
X594770Y518974D01*
X595472Y518834D01*
X596175Y518974D01*
X596770Y519372D01*
X597168Y519967D01*
X597308Y520669D01*
X597168Y521372D01*
X596770Y521967D01*
X596175Y522365D01*
X595472Y522505D01*
D02*
G37*
G36*
X576772Y524473D02*
X576069Y524333D01*
X575474Y523936D01*
X575076Y523340D01*
X574936Y522638D01*
X575076Y521936D01*
X575474Y521340D01*
X576069Y520942D01*
X576772Y520802D01*
X577474Y520942D01*
X578069Y521340D01*
X578467Y521936D01*
X578607Y522638D01*
X578467Y523340D01*
X578069Y523936D01*
X577474Y524333D01*
X576772Y524473D01*
D02*
G37*
G36*
X570866Y522505D02*
X570164Y522365D01*
X569568Y521967D01*
X569171Y521372D01*
X569031Y520669D01*
X569171Y519967D01*
X569568Y519372D01*
X570164Y518974D01*
X570866Y518834D01*
X571568Y518974D01*
X572164Y519372D01*
X572562Y519967D01*
X572701Y520669D01*
X572562Y521372D01*
X572164Y521967D01*
X571568Y522365D01*
X570866Y522505D01*
D02*
G37*
G36*
X768701Y516797D02*
X767696Y516664D01*
X766759Y516276D01*
X765955Y515659D01*
X765338Y514855D01*
X764950Y513918D01*
X764818Y512913D01*
X764950Y511908D01*
X765338Y510972D01*
X765955Y510168D01*
X766759Y509550D01*
X767696Y509163D01*
X768701Y509030D01*
X769706Y509163D01*
X770642Y509550D01*
X771447Y510168D01*
X772064Y510972D01*
X772452Y511908D01*
X772584Y512913D01*
X772452Y513918D01*
X772064Y514855D01*
X771447Y515659D01*
X770642Y516276D01*
X769706Y516664D01*
X768701Y516797D01*
D02*
G37*
G36*
X529134Y516009D02*
X528432Y515869D01*
X527836Y515471D01*
X527438Y514876D01*
X527299Y514173D01*
X527438Y513471D01*
X527836Y512876D01*
X528432Y512478D01*
X529134Y512338D01*
X529836Y512478D01*
X530432Y512876D01*
X530829Y513471D01*
X530969Y514173D01*
X530829Y514876D01*
X530432Y515471D01*
X529836Y515869D01*
X529134Y516009D01*
D02*
G37*
G36*
X492126Y522505D02*
X491424Y522365D01*
X490828Y521967D01*
X490430Y521372D01*
X490291Y520669D01*
X490430Y519967D01*
X490828Y519372D01*
X491424Y518974D01*
X492126Y518834D01*
X492828Y518974D01*
X493424Y519372D01*
X493821Y519967D01*
X493961Y520669D01*
X493821Y521372D01*
X493424Y521967D01*
X492828Y522365D01*
X492126Y522505D01*
D02*
G37*
G36*
X587598Y524473D02*
X586896Y524333D01*
X586301Y523936D01*
X585903Y523340D01*
X585763Y522638D01*
X585903Y521936D01*
X586301Y521340D01*
X586896Y520942D01*
X587598Y520802D01*
X588301Y520942D01*
X588896Y521340D01*
X589294Y521936D01*
X589434Y522638D01*
X589294Y523340D01*
X588896Y523936D01*
X588301Y524333D01*
X587598Y524473D01*
D02*
G37*
G36*
X627953Y533331D02*
X627250Y533192D01*
X626655Y532794D01*
X626257Y532198D01*
X626118Y531496D01*
X626257Y530794D01*
X626655Y530198D01*
X627250Y529801D01*
X627953Y529661D01*
X628655Y529801D01*
X629250Y530198D01*
X629648Y530794D01*
X629788Y531496D01*
X629648Y532198D01*
X629250Y532794D01*
X628655Y533192D01*
X627953Y533331D01*
D02*
G37*
G36*
X587205Y534316D02*
X586502Y534176D01*
X585907Y533778D01*
X585509Y533183D01*
X585369Y532480D01*
X585509Y531778D01*
X585907Y531183D01*
X586502Y530785D01*
X587205Y530645D01*
X587907Y530785D01*
X588502Y531183D01*
X588900Y531778D01*
X589040Y532480D01*
X588900Y533183D01*
X588502Y533778D01*
X587907Y534176D01*
X587205Y534316D01*
D02*
G37*
G36*
X621063D02*
X620361Y534176D01*
X619765Y533778D01*
X619367Y533183D01*
X619228Y532480D01*
X619367Y531778D01*
X619765Y531183D01*
X620361Y530785D01*
X621063Y530645D01*
X621765Y530785D01*
X622361Y531183D01*
X622759Y531778D01*
X622898Y532480D01*
X622759Y533183D01*
X622361Y533778D01*
X621765Y534176D01*
X621063Y534316D01*
D02*
G37*
G36*
X568451Y532885D02*
X567749Y532745D01*
X567154Y532347D01*
X566756Y531752D01*
X566616Y531050D01*
X566756Y530347D01*
X567154Y529752D01*
X567749Y529354D01*
X568451Y529214D01*
X569153Y529354D01*
X569749Y529752D01*
X570147Y530347D01*
X570286Y531050D01*
X570147Y531752D01*
X569749Y532347D01*
X569153Y532745D01*
X568451Y532885D01*
D02*
G37*
G36*
X599409Y525457D02*
X598707Y525318D01*
X598112Y524920D01*
X597714Y524324D01*
X597574Y523622D01*
X597714Y522920D01*
X598112Y522324D01*
X598707Y521926D01*
X599409Y521787D01*
X600112Y521926D01*
X600707Y522324D01*
X601105Y522920D01*
X601245Y523622D01*
X601105Y524324D01*
X600707Y524920D01*
X600112Y525318D01*
X599409Y525457D01*
D02*
G37*
G36*
X573819Y528410D02*
X573117Y528270D01*
X572521Y527873D01*
X572123Y527277D01*
X571984Y526575D01*
X572123Y525873D01*
X572521Y525277D01*
X573117Y524879D01*
X573819Y524740D01*
X574521Y524879D01*
X575117Y525277D01*
X575515Y525873D01*
X575654Y526575D01*
X575515Y527277D01*
X575117Y527873D01*
X574521Y528270D01*
X573819Y528410D01*
D02*
G37*
G36*
X583661D02*
X582959Y528270D01*
X582364Y527873D01*
X581966Y527277D01*
X581826Y526575D01*
X581966Y525873D01*
X582364Y525277D01*
X582959Y524879D01*
X583661Y524740D01*
X584364Y524879D01*
X584959Y525277D01*
X585357Y525873D01*
X585497Y526575D01*
X585357Y527277D01*
X584959Y527873D01*
X584364Y528270D01*
X583661Y528410D01*
D02*
G37*
G36*
X607283Y487661D02*
X606581Y487522D01*
X605986Y487124D01*
X605588Y486528D01*
X605448Y485826D01*
X605588Y485124D01*
X605986Y484528D01*
X606581Y484130D01*
X607283Y483991D01*
X607986Y484130D01*
X608581Y484528D01*
X608979Y485124D01*
X609119Y485826D01*
X608979Y486528D01*
X608581Y487124D01*
X607986Y487522D01*
X607283Y487661D01*
D02*
G37*
G36*
X403937Y500450D02*
X403150D01*
X402224Y500266D01*
X401440Y499741D01*
X400916Y498957D01*
X400732Y498032D01*
X400916Y497106D01*
X401440Y496322D01*
X402065Y495904D01*
X402095Y495797D01*
Y495345D01*
X402065Y495237D01*
X401440Y494820D01*
X400916Y494036D01*
X400732Y493110D01*
X400916Y492185D01*
X401440Y491400D01*
X402065Y490983D01*
X402095Y490876D01*
Y490423D01*
X402065Y490316D01*
X401440Y489899D01*
X400916Y489114D01*
X400732Y488189D01*
X400916Y487264D01*
X401440Y486479D01*
X402224Y485955D01*
X403150Y485771D01*
X403937D01*
X404862Y485955D01*
X405647Y486479D01*
X406171Y487264D01*
X406355Y488189D01*
X406171Y489114D01*
X405647Y489899D01*
X405022Y490316D01*
X404992Y490423D01*
Y490876D01*
X405022Y490983D01*
X405647Y491400D01*
X406171Y492185D01*
X406355Y493110D01*
X406171Y494036D01*
X405647Y494820D01*
X405022Y495237D01*
X404992Y495345D01*
Y495797D01*
X405022Y495904D01*
X405647Y496322D01*
X406171Y497106D01*
X406355Y498032D01*
X406171Y498957D01*
X405647Y499741D01*
X404862Y500266D01*
X403937Y500450D01*
D02*
G37*
G36*
X768701Y496797D02*
X767696Y496664D01*
X766759Y496276D01*
X765955Y495659D01*
X765338Y494855D01*
X764950Y493918D01*
X764818Y492913D01*
X764950Y491908D01*
X765338Y490972D01*
X765955Y490168D01*
X766759Y489550D01*
X767696Y489162D01*
X768701Y489030D01*
X769706Y489162D01*
X770642Y489550D01*
X771447Y490168D01*
X772064Y490972D01*
X772452Y491908D01*
X772584Y492913D01*
X772452Y493918D01*
X772064Y494855D01*
X771447Y495659D01*
X770642Y496276D01*
X769706Y496664D01*
X768701Y496797D01*
D02*
G37*
G36*
X631890Y491009D02*
X631187Y490869D01*
X630592Y490471D01*
X630194Y489876D01*
X630055Y489173D01*
X630194Y488471D01*
X630592Y487876D01*
X630688Y487812D01*
Y487090D01*
X630592Y487026D01*
X630194Y486431D01*
X630055Y485728D01*
X630194Y485026D01*
X630592Y484431D01*
X630688Y484367D01*
Y483645D01*
X630592Y483581D01*
X630194Y482986D01*
X630055Y482283D01*
X630194Y481581D01*
X630592Y480986D01*
X631187Y480588D01*
X631890Y480448D01*
X632592Y480588D01*
X633187Y480986D01*
X633585Y481581D01*
X633725Y482283D01*
X633585Y482986D01*
X633187Y483581D01*
X633092Y483645D01*
Y484367D01*
X633187Y484431D01*
X633585Y485026D01*
X633725Y485728D01*
X633585Y486431D01*
X633187Y487026D01*
X633092Y487090D01*
Y487812D01*
X633187Y487876D01*
X633585Y488471D01*
X633725Y489173D01*
X633585Y489876D01*
X633187Y490471D01*
X632592Y490869D01*
X631890Y491009D01*
D02*
G37*
G36*
X548228Y487072D02*
X547526Y486932D01*
X546931Y486534D01*
X546533Y485939D01*
X546393Y485236D01*
X546533Y484534D01*
X546886Y484006D01*
X546533Y483478D01*
X546393Y482776D01*
X546533Y482073D01*
X546886Y481545D01*
X546533Y481017D01*
X546393Y480315D01*
X546533Y479613D01*
X546931Y479017D01*
X547526Y478619D01*
X548228Y478480D01*
X548931Y478619D01*
X549526Y479017D01*
X549924Y479613D01*
X550064Y480315D01*
X549924Y481017D01*
X549571Y481545D01*
X549924Y482073D01*
X550064Y482776D01*
X549924Y483478D01*
X549571Y484006D01*
X549924Y484534D01*
X550064Y485236D01*
X549924Y485939D01*
X549526Y486534D01*
X548931Y486932D01*
X548228Y487072D01*
D02*
G37*
G36*
X640748Y479198D02*
X640046Y479058D01*
X639764Y478869D01*
X639482Y479058D01*
X638779Y479198D01*
X638077Y479058D01*
X637795Y478869D01*
X637513Y479058D01*
X636811Y479198D01*
X636109Y479058D01*
X635513Y478660D01*
X635115Y478064D01*
X634976Y477362D01*
X635115Y476660D01*
X635513Y476064D01*
X636109Y475667D01*
X636811Y475527D01*
X637513Y475667D01*
X637795Y475855D01*
X638077Y475667D01*
X638779Y475527D01*
X639482Y475667D01*
X639764Y475855D01*
X640046Y475667D01*
X640748Y475527D01*
X641450Y475667D01*
X642046Y476064D01*
X642444Y476660D01*
X642583Y477362D01*
X642444Y478064D01*
X642046Y478660D01*
X641450Y479058D01*
X640748Y479198D01*
D02*
G37*
G36*
X768701Y486797D02*
X767696Y486664D01*
X766759Y486276D01*
X765955Y485659D01*
X765338Y484855D01*
X764950Y483918D01*
X764818Y482913D01*
X764950Y481908D01*
X765338Y480972D01*
X765955Y480167D01*
X766759Y479550D01*
X767696Y479163D01*
X768701Y479030D01*
X769706Y479163D01*
X770642Y479550D01*
X771447Y480167D01*
X772064Y480972D01*
X772452Y481908D01*
X772584Y482913D01*
X772452Y483918D01*
X772064Y484855D01*
X771447Y485659D01*
X770642Y486276D01*
X769706Y486664D01*
X768701Y486797D01*
D02*
G37*
G36*
X558071Y492977D02*
X557369Y492837D01*
X556773Y492440D01*
X556375Y491844D01*
X556236Y491142D01*
X556375Y490439D01*
X556773Y489844D01*
X557369Y489446D01*
X558071Y489306D01*
X558773Y489446D01*
X559369Y489844D01*
X559766Y490439D01*
X559906Y491142D01*
X559766Y491844D01*
X559369Y492440D01*
X558773Y492837D01*
X558071Y492977D01*
D02*
G37*
G36*
X406309Y510246D02*
X400778D01*
Y505502D01*
X406309D01*
Y510246D01*
D02*
G37*
G36*
X596663Y516742D02*
X592313D01*
Y512786D01*
X593265D01*
Y511221D01*
X593358Y510753D01*
X593623Y510356D01*
X595033Y508946D01*
X595016Y508858D01*
X595156Y508156D01*
X595553Y507560D01*
X596149Y507163D01*
X596851Y507023D01*
X597553Y507163D01*
X598149Y507560D01*
X598547Y508156D01*
X598686Y508858D01*
X598547Y509561D01*
X598149Y510156D01*
X597553Y510554D01*
X596851Y510694D01*
X596764Y510676D01*
X595712Y511728D01*
Y512786D01*
X596663D01*
Y516742D01*
D02*
G37*
G36*
X520669Y511284D02*
X519967Y511144D01*
X519372Y510746D01*
X518974Y510151D01*
X518834Y509449D01*
X518974Y508746D01*
X519372Y508151D01*
X519967Y507753D01*
X520669Y507614D01*
X521372Y507753D01*
X521967Y508151D01*
X522365Y508746D01*
X522505Y509449D01*
X522365Y510151D01*
X521967Y510746D01*
X521372Y511144D01*
X520669Y511284D01*
D02*
G37*
G36*
X768701Y506797D02*
X767696Y506664D01*
X766759Y506276D01*
X765955Y505659D01*
X765338Y504855D01*
X764950Y503918D01*
X764818Y502913D01*
X764950Y501908D01*
X765338Y500972D01*
X765955Y500168D01*
X766759Y499550D01*
X767696Y499162D01*
X768701Y499030D01*
X769706Y499162D01*
X770642Y499550D01*
X771447Y500168D01*
X772064Y500972D01*
X772452Y501908D01*
X772584Y502913D01*
X772452Y503918D01*
X772064Y504855D01*
X771447Y505659D01*
X770642Y506276D01*
X769706Y506664D01*
X768701Y506797D01*
D02*
G37*
G36*
X607283Y493961D02*
X606581Y493821D01*
X605986Y493424D01*
X605588Y492828D01*
X605448Y492126D01*
X605588Y491424D01*
X605986Y490828D01*
X606581Y490430D01*
X607283Y490291D01*
X607986Y490430D01*
X608581Y490828D01*
X608979Y491424D01*
X609119Y492126D01*
X608979Y492828D01*
X608581Y493424D01*
X607986Y493821D01*
X607283Y493961D01*
D02*
G37*
G36*
X544291Y491993D02*
X543589Y491853D01*
X543307Y491665D01*
X543025Y491853D01*
X542323Y491993D01*
X541620Y491853D01*
X541339Y491665D01*
X541057Y491853D01*
X540354Y491993D01*
X539652Y491853D01*
X539057Y491455D01*
X538659Y490860D01*
X538519Y490158D01*
X538659Y489455D01*
X539057Y488860D01*
X539652Y488462D01*
X540354Y488322D01*
X541057Y488462D01*
X541339Y488650D01*
X541620Y488462D01*
X542323Y488322D01*
X543025Y488462D01*
X543307Y488650D01*
X543589Y488462D01*
X544291Y488322D01*
X544994Y488462D01*
X545589Y488860D01*
X545987Y489455D01*
X546127Y490158D01*
X545987Y490860D01*
X545589Y491455D01*
X544994Y491853D01*
X544291Y491993D01*
D02*
G37*
G36*
X573672Y497061D02*
X572969Y496921D01*
X572374Y496524D01*
X571976Y495928D01*
X571836Y495226D01*
X571976Y494524D01*
X572374Y493928D01*
X572969Y493530D01*
X573672Y493391D01*
X574374Y493530D01*
X574969Y493928D01*
X575367Y494524D01*
X575507Y495226D01*
X575367Y495928D01*
X574969Y496524D01*
X574374Y496921D01*
X573672Y497061D01*
D02*
G37*
G36*
X599409Y651442D02*
X598707Y651302D01*
X598112Y650904D01*
X597714Y650309D01*
X597574Y649606D01*
X597714Y648904D01*
X598112Y648309D01*
X598707Y647911D01*
X599409Y647771D01*
X600112Y647911D01*
X600707Y648309D01*
X601105Y648904D01*
X601245Y649606D01*
X601105Y650309D01*
X600707Y650904D01*
X600112Y651302D01*
X599409Y651442D01*
D02*
G37*
G36*
X616142Y650457D02*
X615439Y650318D01*
X614844Y649920D01*
X614497Y649400D01*
X614173Y649359D01*
X613849Y649400D01*
X613502Y649920D01*
X612907Y650318D01*
X612205Y650457D01*
X611502Y650318D01*
X610907Y649920D01*
X610509Y649324D01*
X610369Y648622D01*
X610509Y647920D01*
X610907Y647324D01*
X611502Y646926D01*
X612205Y646787D01*
X612907Y646926D01*
X613502Y647324D01*
X613849Y647844D01*
X614173Y647885D01*
X614497Y647844D01*
X614844Y647324D01*
X615439Y646926D01*
X616142Y646787D01*
X616844Y646926D01*
X617440Y647324D01*
X617837Y647920D01*
X617977Y648622D01*
X617837Y649324D01*
X617440Y649920D01*
X616844Y650318D01*
X616142Y650457D01*
D02*
G37*
G36*
X412402Y661718D02*
X411397Y661586D01*
X410460Y661198D01*
X409656Y660580D01*
X409039Y659776D01*
X408651Y658840D01*
X408518Y657835D01*
X408651Y656830D01*
X409039Y655893D01*
X409656Y655089D01*
X410460Y654472D01*
X411397Y654084D01*
X412402Y653951D01*
X413407Y654084D01*
X414343Y654472D01*
X415147Y655089D01*
X415765Y655893D01*
X416152Y656830D01*
X416285Y657835D01*
X416152Y658840D01*
X415765Y659776D01*
X415147Y660580D01*
X414343Y661198D01*
X413407Y661586D01*
X412402Y661718D01*
D02*
G37*
G36*
X593504Y651442D02*
X592802Y651302D01*
X592206Y650904D01*
X591808Y650309D01*
X591669Y649606D01*
X591808Y648904D01*
X592206Y648309D01*
X592802Y647911D01*
X593504Y647771D01*
X594206Y647911D01*
X594802Y648309D01*
X595199Y648904D01*
X595339Y649606D01*
X595199Y650309D01*
X594802Y650904D01*
X594206Y651302D01*
X593504Y651442D01*
D02*
G37*
G36*
X590551Y655379D02*
X589849Y655239D01*
X589254Y654841D01*
X588856Y654246D01*
X588716Y653543D01*
X588826Y652989D01*
X588684Y652661D01*
X588432Y652396D01*
X587880Y652286D01*
X587285Y651888D01*
X586887Y651293D01*
X586747Y650591D01*
X586858Y650036D01*
X586716Y649709D01*
X586463Y649443D01*
X585912Y649333D01*
X585316Y648936D01*
X584919Y648340D01*
X584779Y647638D01*
X584919Y646936D01*
X585316Y646340D01*
X585912Y645942D01*
X586614Y645802D01*
X587317Y645942D01*
X587912Y646340D01*
X588310Y646936D01*
X588449Y647638D01*
X588339Y648192D01*
X588481Y648520D01*
X588734Y648785D01*
X589285Y648895D01*
X589880Y649293D01*
X590278Y649888D01*
X590418Y650591D01*
X590308Y651145D01*
X590449Y651473D01*
X590702Y651738D01*
X591254Y651848D01*
X591849Y652246D01*
X592247Y652841D01*
X592386Y653543D01*
X592247Y654246D01*
X591849Y654841D01*
X591254Y655239D01*
X590551Y655379D01*
D02*
G37*
G36*
X577756Y649473D02*
X577054Y649333D01*
X576458Y648936D01*
X576060Y648340D01*
X575921Y647638D01*
X576060Y646936D01*
X576458Y646340D01*
X577054Y645942D01*
X577756Y645802D01*
X578458Y645942D01*
X579054Y646340D01*
X579452Y646936D01*
X579591Y647638D01*
X579452Y648340D01*
X579054Y648936D01*
X578458Y649333D01*
X577756Y649473D01*
D02*
G37*
G36*
X621063Y650457D02*
X620361Y650318D01*
X619765Y649920D01*
X619367Y649324D01*
X619228Y648622D01*
X619367Y647920D01*
X619765Y647324D01*
X620361Y646926D01*
X621063Y646787D01*
X621765Y646926D01*
X622361Y647324D01*
X622759Y647920D01*
X622898Y648622D01*
X622759Y649324D01*
X622361Y649920D01*
X621765Y650318D01*
X621063Y650457D01*
D02*
G37*
G36*
X574213Y658725D02*
X573510Y658585D01*
X572915Y658187D01*
X572517Y657592D01*
X572377Y656890D01*
X572517Y656187D01*
X572915Y655592D01*
X573510Y655194D01*
X574213Y655055D01*
X574915Y655194D01*
X575510Y655592D01*
X575908Y656187D01*
X576048Y656890D01*
X575908Y657592D01*
X575510Y658187D01*
X574915Y658585D01*
X574213Y658725D01*
D02*
G37*
G36*
X732283Y786335D02*
X406496D01*
X405774Y786192D01*
X405162Y785783D01*
X395320Y775940D01*
X394911Y775328D01*
X394767Y774606D01*
Y620079D01*
X394911Y619357D01*
X395320Y618745D01*
X409031Y605034D01*
X408836Y604380D01*
X408348Y604054D01*
X407950Y603458D01*
X407810Y602756D01*
X407950Y602054D01*
X408348Y601458D01*
X408943Y601060D01*
X409646Y600921D01*
X410348Y601060D01*
X410943Y601458D01*
X411341Y602054D01*
X411481Y602756D01*
X411466Y602829D01*
X411959Y603429D01*
X424606D01*
X425328Y603572D01*
X425940Y603981D01*
X426349Y604593D01*
X426493Y605315D01*
X426349Y606037D01*
X425940Y606649D01*
X425328Y607058D01*
X424606Y607201D01*
X412199D01*
X398540Y620860D01*
Y773825D01*
X407277Y782563D01*
X731502D01*
X736460Y777604D01*
Y772551D01*
X734496D01*
Y764851D01*
X736460D01*
Y667165D01*
X736604Y666443D01*
X737013Y665832D01*
X739256Y663589D01*
Y660433D01*
X739399Y659711D01*
X739808Y659099D01*
X740420Y658690D01*
X741142Y658547D01*
X741864Y658690D01*
X742476Y659099D01*
X742884Y659711D01*
X743028Y660433D01*
Y664370D01*
X742884Y665092D01*
X742476Y665704D01*
X740233Y667947D01*
Y764851D01*
X742197D01*
Y772551D01*
X740233D01*
Y778386D01*
X740089Y779108D01*
X739680Y779720D01*
X733617Y785783D01*
X733005Y786192D01*
X732283Y786335D01*
D02*
G37*
G36*
X515748Y662268D02*
X515046Y662129D01*
X514450Y661731D01*
X514052Y661135D01*
X513913Y660433D01*
X514052Y659731D01*
X514450Y659135D01*
X515046Y658738D01*
X515748Y658598D01*
X516450Y658738D01*
X517046Y659135D01*
X517444Y659731D01*
X517583Y660433D01*
X517444Y661135D01*
X517046Y661731D01*
X516450Y662129D01*
X515748Y662268D01*
D02*
G37*
G36*
X412402Y671718D02*
X411397Y671586D01*
X410460Y671198D01*
X409656Y670580D01*
X409039Y669776D01*
X408651Y668840D01*
X408518Y667835D01*
X408651Y666830D01*
X409039Y665893D01*
X409656Y665089D01*
X410460Y664472D01*
X411397Y664084D01*
X412402Y663951D01*
X413407Y664084D01*
X414343Y664472D01*
X415147Y665089D01*
X415765Y665893D01*
X416152Y666830D01*
X416285Y667835D01*
X416152Y668840D01*
X415765Y669776D01*
X415147Y670580D01*
X414343Y671198D01*
X413407Y671586D01*
X412402Y671718D01*
D02*
G37*
G36*
X626850Y662576D02*
X626041Y662469D01*
X625287Y662157D01*
X624639Y661660D01*
X624143Y661012D01*
X623830Y660258D01*
X623724Y659449D01*
X623830Y658640D01*
X624143Y657885D01*
X624639Y657238D01*
X625287Y656741D01*
X626041Y656429D01*
X626850Y656322D01*
X627660Y656429D01*
X628414Y656741D01*
X629061Y657238D01*
X629558Y657885D01*
X629871Y658640D01*
X629977Y659449D01*
X629871Y660258D01*
X629558Y661012D01*
X629061Y661660D01*
X628414Y662157D01*
X627660Y662469D01*
X626850Y662576D01*
D02*
G37*
G36*
X596850D02*
X596041Y662469D01*
X595287Y662157D01*
X594639Y661660D01*
X594143Y661012D01*
X593830Y660258D01*
X593724Y659449D01*
X593830Y658640D01*
X594143Y657885D01*
X594639Y657238D01*
X595287Y656741D01*
X596041Y656429D01*
X596850Y656322D01*
X597660Y656429D01*
X598414Y656741D01*
X599061Y657238D01*
X599558Y657885D01*
X599871Y658640D01*
X599977Y659449D01*
X599871Y660258D01*
X599558Y661012D01*
X599061Y661660D01*
X598414Y662157D01*
X597660Y662469D01*
X596850Y662576D01*
D02*
G37*
G36*
X606850D02*
X606041Y662469D01*
X605287Y662157D01*
X604639Y661660D01*
X604143Y661012D01*
X603830Y660258D01*
X603724Y659449D01*
X603830Y658640D01*
X604143Y657885D01*
X604639Y657238D01*
X605287Y656741D01*
X606041Y656429D01*
X606850Y656322D01*
X607660Y656429D01*
X608414Y656741D01*
X609061Y657238D01*
X609558Y657885D01*
X609871Y658640D01*
X609977Y659449D01*
X609871Y660258D01*
X609558Y661012D01*
X609061Y661660D01*
X608414Y662157D01*
X607660Y662469D01*
X606850Y662576D01*
D02*
G37*
G36*
X616850D02*
X616041Y662469D01*
X615287Y662157D01*
X614639Y661660D01*
X614143Y661012D01*
X613830Y660258D01*
X613724Y659449D01*
X613830Y658640D01*
X614143Y657885D01*
X614639Y657238D01*
X615287Y656741D01*
X616041Y656429D01*
X616850Y656322D01*
X617660Y656429D01*
X618414Y656741D01*
X619061Y657238D01*
X619558Y657885D01*
X619871Y658640D01*
X619977Y659449D01*
X619871Y660258D01*
X619558Y661012D01*
X619061Y661660D01*
X618414Y662157D01*
X617660Y662469D01*
X616850Y662576D01*
D02*
G37*
G36*
X603346Y648489D02*
X602644Y648349D01*
X602049Y647951D01*
X601651Y647356D01*
X601511Y646654D01*
X601651Y645951D01*
X602049Y645356D01*
X602644Y644958D01*
X603346Y644818D01*
X604049Y644958D01*
X604644Y645356D01*
X605042Y645951D01*
X605182Y646654D01*
X605042Y647356D01*
X604644Y647951D01*
X604049Y648349D01*
X603346Y648489D01*
D02*
G37*
G36*
X625000Y642583D02*
X624298Y642444D01*
X623702Y642046D01*
X623304Y641450D01*
X623165Y640748D01*
X623304Y640046D01*
X623702Y639450D01*
X624298Y639052D01*
X625000Y638913D01*
X625702Y639052D01*
X626298Y639450D01*
X626696Y640046D01*
X626835Y640748D01*
X626696Y641450D01*
X626298Y642046D01*
X625702Y642444D01*
X625000Y642583D01*
D02*
G37*
G36*
X720079Y643174D02*
X719376Y643034D01*
X718781Y642636D01*
X718383Y642041D01*
X718244Y641339D01*
X718383Y640636D01*
X718781Y640041D01*
X719376Y639643D01*
X720079Y639503D01*
X720781Y639643D01*
X721377Y640041D01*
X721774Y640636D01*
X721914Y641339D01*
X721774Y642041D01*
X721377Y642636D01*
X720781Y643034D01*
X720079Y643174D01*
D02*
G37*
G36*
X730315D02*
X729613Y643034D01*
X729017Y642636D01*
X728619Y642041D01*
X728480Y641339D01*
X728619Y640636D01*
X729017Y640041D01*
X729613Y639643D01*
X730315Y639503D01*
X731017Y639643D01*
X731613Y640041D01*
X732011Y640636D01*
X732150Y641339D01*
X732011Y642041D01*
X731613Y642636D01*
X731017Y643034D01*
X730315Y643174D01*
D02*
G37*
G36*
X615158Y641599D02*
X614455Y641459D01*
X613860Y641061D01*
X613462Y640466D01*
X613322Y639764D01*
X613462Y639061D01*
X613860Y638466D01*
X614455Y638068D01*
X615158Y637928D01*
X615860Y638068D01*
X616455Y638466D01*
X616853Y639061D01*
X616993Y639764D01*
X616853Y640466D01*
X616455Y641061D01*
X615860Y641459D01*
X615158Y641599D01*
D02*
G37*
G36*
X539370Y635694D02*
X538668Y635554D01*
X538072Y635156D01*
X537675Y634561D01*
X537535Y633858D01*
X537675Y633156D01*
X538072Y632560D01*
X538668Y632163D01*
X539370Y632023D01*
X540072Y632163D01*
X540668Y632560D01*
X541066Y633156D01*
X541205Y633858D01*
X541066Y634561D01*
X540668Y635156D01*
X540072Y635554D01*
X539370Y635694D01*
D02*
G37*
G36*
X502953Y637662D02*
X502250Y637522D01*
X501655Y637124D01*
X501257Y636529D01*
X501118Y635827D01*
X501257Y635124D01*
X501655Y634529D01*
X502250Y634131D01*
X502953Y633991D01*
X503655Y634131D01*
X504250Y634529D01*
X504648Y635124D01*
X504788Y635827D01*
X504648Y636529D01*
X504250Y637124D01*
X503655Y637522D01*
X502953Y637662D01*
D02*
G37*
G36*
X593504Y640615D02*
X592802Y640475D01*
X592206Y640077D01*
X591808Y639482D01*
X591669Y638779D01*
X591808Y638077D01*
X592206Y637482D01*
X592802Y637084D01*
X593504Y636944D01*
X594206Y637084D01*
X594802Y637482D01*
X595199Y638077D01*
X595339Y638779D01*
X595199Y639482D01*
X594802Y640077D01*
X594206Y640475D01*
X593504Y640615D01*
D02*
G37*
G36*
X740551Y643174D02*
X739849Y643034D01*
X739253Y642636D01*
X738856Y642041D01*
X738716Y641339D01*
X738856Y640636D01*
X739253Y640041D01*
X739849Y639643D01*
X740551Y639503D01*
X741254Y639643D01*
X741849Y640041D01*
X742247Y640636D01*
X742386Y641339D01*
X742247Y642041D01*
X741849Y642636D01*
X741254Y643034D01*
X740551Y643174D01*
D02*
G37*
G36*
X478346Y646520D02*
X477644Y646381D01*
X477049Y645983D01*
X476651Y645387D01*
X476511Y644685D01*
X476651Y643983D01*
X477049Y643387D01*
X477644Y642989D01*
X478346Y642850D01*
X479049Y642989D01*
X479644Y643387D01*
X480042Y643983D01*
X480182Y644685D01*
X480042Y645387D01*
X479644Y645983D01*
X479049Y646381D01*
X478346Y646520D01*
D02*
G37*
G36*
X412402Y651718D02*
X411397Y651585D01*
X410460Y651198D01*
X409656Y650581D01*
X409039Y649776D01*
X408651Y648840D01*
X408518Y647835D01*
X408651Y646830D01*
X409039Y645893D01*
X409656Y645089D01*
X410460Y644472D01*
X411397Y644084D01*
X412402Y643951D01*
X413407Y644084D01*
X414343Y644472D01*
X415147Y645089D01*
X415765Y645893D01*
X416152Y646830D01*
X416285Y647835D01*
X416152Y648840D01*
X415765Y649776D01*
X415147Y650581D01*
X414343Y651198D01*
X413407Y651585D01*
X412402Y651718D01*
D02*
G37*
G36*
X753937Y650765D02*
X753128Y650658D01*
X752374Y650346D01*
X751726Y649849D01*
X751229Y649201D01*
X750917Y648447D01*
X750810Y647638D01*
X750917Y646829D01*
X751229Y646074D01*
X751726Y645427D01*
X752374Y644930D01*
X753128Y644618D01*
X753937Y644511D01*
X754746Y644618D01*
X755500Y644930D01*
X756148Y645427D01*
X756645Y646074D01*
X756957Y646829D01*
X757064Y647638D01*
X756957Y648447D01*
X756645Y649201D01*
X756148Y649849D01*
X755500Y650346D01*
X754746Y650658D01*
X753937Y650765D01*
D02*
G37*
G36*
X617126Y645536D02*
X616424Y645396D01*
X615828Y644999D01*
X615430Y644403D01*
X615291Y643701D01*
X615430Y642999D01*
X615828Y642403D01*
X616424Y642005D01*
X617126Y641865D01*
X617828Y642005D01*
X618424Y642403D01*
X618821Y642999D01*
X618961Y643701D01*
X618821Y644403D01*
X618424Y644999D01*
X617828Y645396D01*
X617126Y645536D01*
D02*
G37*
G36*
X633858Y643568D02*
X633156Y643428D01*
X632560Y643030D01*
X632163Y642435D01*
X632023Y641732D01*
X632163Y641030D01*
X632560Y640435D01*
X633156Y640037D01*
X633858Y639897D01*
X634561Y640037D01*
X635156Y640435D01*
X635554Y641030D01*
X635694Y641732D01*
X635554Y642435D01*
X635156Y643030D01*
X634561Y643428D01*
X633858Y643568D01*
D02*
G37*
G36*
X715394Y655772D02*
X714691Y655633D01*
X714096Y655235D01*
X713698Y654639D01*
X713558Y653937D01*
X713698Y653235D01*
X713952Y652854D01*
X713698Y652474D01*
X713558Y651772D01*
X713698Y651069D01*
X713952Y650689D01*
X713698Y650309D01*
X713558Y649606D01*
X713698Y648904D01*
X714096Y648309D01*
X714240Y648212D01*
X714174Y647535D01*
X713830Y647393D01*
X713183Y646896D01*
X712686Y646248D01*
X712373Y645494D01*
X712267Y644685D01*
X712373Y643876D01*
X712686Y643122D01*
X713183Y642474D01*
X713830Y641977D01*
X714584Y641665D01*
X715394Y641558D01*
X716203Y641665D01*
X716957Y641977D01*
X717605Y642474D01*
X718102Y643122D01*
X718414Y643876D01*
X718520Y644685D01*
X718414Y645494D01*
X718102Y646248D01*
X717605Y646896D01*
X716957Y647393D01*
X716614Y647535D01*
X716547Y648212D01*
X716691Y648309D01*
X717089Y648904D01*
X717229Y649606D01*
X717089Y650309D01*
X716835Y650689D01*
X717089Y651069D01*
X717229Y651772D01*
X717089Y652474D01*
X716835Y652854D01*
X717089Y653235D01*
X717229Y653937D01*
X717089Y654639D01*
X716691Y655235D01*
X716096Y655633D01*
X715394Y655772D01*
D02*
G37*
G36*
X607283Y645536D02*
X606581Y645396D01*
X605986Y644999D01*
X605588Y644403D01*
X605448Y643701D01*
X605588Y642999D01*
X605986Y642403D01*
X606581Y642005D01*
X607283Y641865D01*
X607986Y642005D01*
X608581Y642403D01*
X608979Y642999D01*
X609119Y643701D01*
X608979Y644403D01*
X608581Y644999D01*
X607986Y645396D01*
X607283Y645536D01*
D02*
G37*
G36*
X444882Y671127D02*
X444180Y670987D01*
X443584Y670589D01*
X443186Y669994D01*
X443047Y669291D01*
X443186Y668589D01*
X443584Y667994D01*
X444180Y667596D01*
X444882Y667456D01*
X445584Y667596D01*
X446180Y667994D01*
X446578Y668589D01*
X446717Y669291D01*
X446578Y669994D01*
X446180Y670589D01*
X445584Y670987D01*
X444882Y671127D01*
D02*
G37*
G36*
X452913Y772584D02*
X451908Y772452D01*
X450972Y772064D01*
X450168Y771447D01*
X449550Y770642D01*
X449162Y769706D01*
X449030Y768701D01*
X449162Y767696D01*
X449550Y766759D01*
X450168Y765955D01*
X450972Y765338D01*
X451908Y764950D01*
X452913Y764818D01*
X453918Y764950D01*
X454855Y765338D01*
X455659Y765955D01*
X456276Y766759D01*
X456664Y767696D01*
X456797Y768701D01*
X456664Y769706D01*
X456276Y770642D01*
X455659Y771447D01*
X454855Y772064D01*
X453918Y772452D01*
X452913Y772584D01*
D02*
G37*
G36*
X462913D02*
X461908Y772452D01*
X460972Y772064D01*
X460168Y771447D01*
X459550Y770642D01*
X459163Y769706D01*
X459030Y768701D01*
X459163Y767696D01*
X459550Y766759D01*
X460168Y765955D01*
X460972Y765338D01*
X461908Y764950D01*
X462913Y764818D01*
X463918Y764950D01*
X464855Y765338D01*
X465659Y765955D01*
X466276Y766759D01*
X466664Y767696D01*
X466797Y768701D01*
X466664Y769706D01*
X466276Y770642D01*
X465659Y771447D01*
X464855Y772064D01*
X463918Y772452D01*
X462913Y772584D01*
D02*
G37*
G36*
X472913D02*
X471908Y772452D01*
X470972Y772064D01*
X470167Y771447D01*
X469550Y770642D01*
X469163Y769706D01*
X469030Y768701D01*
X469163Y767696D01*
X469550Y766759D01*
X470167Y765955D01*
X470972Y765338D01*
X471908Y764950D01*
X472913Y764818D01*
X473918Y764950D01*
X474855Y765338D01*
X475659Y765955D01*
X476276Y766759D01*
X476664Y767696D01*
X476797Y768701D01*
X476664Y769706D01*
X476276Y770642D01*
X475659Y771447D01*
X474855Y772064D01*
X473918Y772452D01*
X472913Y772584D01*
D02*
G37*
G36*
X442913D02*
X441908Y772452D01*
X440972Y772064D01*
X440168Y771447D01*
X439550Y770642D01*
X439162Y769706D01*
X439030Y768701D01*
X439162Y767696D01*
X439550Y766759D01*
X440168Y765955D01*
X440972Y765338D01*
X441908Y764950D01*
X442913Y764818D01*
X443918Y764950D01*
X444855Y765338D01*
X445659Y765955D01*
X446276Y766759D01*
X446664Y767696D01*
X446797Y768701D01*
X446664Y769706D01*
X446276Y770642D01*
X445659Y771447D01*
X444855Y772064D01*
X443918Y772452D01*
X442913Y772584D01*
D02*
G37*
G36*
X412402Y731718D02*
X411397Y731586D01*
X410460Y731198D01*
X409656Y730581D01*
X409039Y729776D01*
X408651Y728840D01*
X408518Y727835D01*
X408651Y726830D01*
X409039Y725893D01*
X409656Y725089D01*
X410460Y724472D01*
X411397Y724084D01*
X412402Y723951D01*
X413407Y724084D01*
X414343Y724472D01*
X415147Y725089D01*
X415765Y725893D01*
X416152Y726830D01*
X416285Y727835D01*
X416152Y728840D01*
X415765Y729776D01*
X415147Y730581D01*
X414343Y731198D01*
X413407Y731586D01*
X412402Y731718D01*
D02*
G37*
G36*
X767717Y780857D02*
X765661Y780695D01*
X763656Y780214D01*
X761751Y779425D01*
X759993Y778347D01*
X758425Y777008D01*
X757086Y775440D01*
X756008Y773682D01*
X755219Y771777D01*
X754738Y769772D01*
X754576Y767717D01*
X754738Y765661D01*
X755219Y763656D01*
X756008Y761751D01*
X757086Y759993D01*
X758425Y758425D01*
X759993Y757086D01*
X761751Y756008D01*
X763656Y755219D01*
X765661Y754738D01*
X767717Y754576D01*
X769772Y754738D01*
X771777Y755219D01*
X773682Y756008D01*
X775440Y757086D01*
X777008Y758425D01*
X778347Y759993D01*
X779425Y761751D01*
X780214Y763656D01*
X780695Y765661D01*
X780857Y767717D01*
X780695Y769772D01*
X780214Y771777D01*
X779425Y773682D01*
X778347Y775440D01*
X777008Y777008D01*
X775440Y778347D01*
X773682Y779425D01*
X771777Y780214D01*
X769772Y780695D01*
X767717Y780857D01*
D02*
G37*
G36*
X471102Y781735D02*
X445866D01*
X445398Y781642D01*
X445001Y781377D01*
X426004Y762380D01*
X425496Y762720D01*
X425883Y763656D01*
X426365Y765661D01*
X426526Y767717D01*
X426365Y769772D01*
X425883Y771777D01*
X425094Y773682D01*
X424017Y775440D01*
X422678Y777008D01*
X421110Y778347D01*
X419351Y779425D01*
X417447Y780214D01*
X415441Y780695D01*
X413386Y780857D01*
X411330Y780695D01*
X409325Y780214D01*
X407420Y779425D01*
X405662Y778347D01*
X404094Y777008D01*
X402755Y775440D01*
X401678Y773682D01*
X400888Y771777D01*
X400407Y769772D01*
X400245Y767717D01*
X400407Y765661D01*
X400888Y763656D01*
X401678Y761751D01*
X402755Y759993D01*
X404094Y758425D01*
X405662Y757086D01*
X407420Y756008D01*
X409325Y755219D01*
X411330Y754738D01*
X413386Y754576D01*
X415441Y754738D01*
X417447Y755219D01*
X418382Y755607D01*
X418722Y755098D01*
X399725Y736101D01*
X399460Y735704D01*
X399367Y735236D01*
Y622047D01*
X399460Y621579D01*
X399725Y621182D01*
X412521Y608387D01*
X412918Y608122D01*
X413386Y608028D01*
X434533D01*
X440111Y602450D01*
X440094Y602362D01*
X440234Y601660D01*
X440631Y601064D01*
X441227Y600667D01*
X441929Y600527D01*
X442631Y600667D01*
X443227Y601064D01*
X443574Y601584D01*
X443898Y601625D01*
X444221Y601584D01*
X444568Y601064D01*
X444643Y601015D01*
Y595165D01*
X436790Y587313D01*
X436525Y586916D01*
X436432Y586447D01*
Y521009D01*
X431221Y515799D01*
X430956Y515402D01*
X430863Y514934D01*
Y511040D01*
X430400Y510948D01*
X429805Y510550D01*
X429407Y509954D01*
X429267Y509252D01*
X429407Y508550D01*
X429805Y507954D01*
X430400Y507556D01*
X431102Y507417D01*
X431805Y507556D01*
X432232Y507842D01*
X432776Y507624D01*
X432832Y507576D01*
Y494898D01*
X432369Y494806D01*
X431773Y494408D01*
X431375Y493813D01*
X431236Y493110D01*
X431375Y492408D01*
X431773Y491813D01*
X432369Y491415D01*
X433071Y491275D01*
X433773Y491415D01*
X434200Y491700D01*
X434745Y491483D01*
X434800Y491434D01*
Y489536D01*
X434726Y489487D01*
X434328Y488891D01*
X434188Y488189D01*
X434328Y487487D01*
X434726Y486891D01*
X435321Y486493D01*
X436024Y486354D01*
X436726Y486493D01*
X437321Y486891D01*
X437719Y487487D01*
X437859Y488189D01*
X437719Y488891D01*
X437321Y489487D01*
X437247Y489536D01*
Y513273D01*
X441278Y517303D01*
X441832Y517074D01*
Y513330D01*
X441384Y513157D01*
X441232Y513126D01*
X440663Y513507D01*
X439961Y513646D01*
X439258Y513507D01*
X438663Y513109D01*
X438265Y512513D01*
X438125Y511811D01*
X438265Y511109D01*
X438663Y510513D01*
X439258Y510115D01*
X439961Y509976D01*
X440663Y510115D01*
X441232Y510496D01*
X441384Y510465D01*
X441832Y510292D01*
Y493645D01*
X441384Y493472D01*
X441232Y493441D01*
X440663Y493821D01*
X439961Y493961D01*
X439258Y493821D01*
X438663Y493424D01*
X438265Y492828D01*
X438125Y492126D01*
X438265Y491424D01*
X438663Y490828D01*
X439258Y490430D01*
X439961Y490291D01*
X440663Y490430D01*
X441232Y490811D01*
X441384Y490780D01*
X441832Y490607D01*
Y473960D01*
X441384Y473787D01*
X441232Y473756D01*
X440663Y474136D01*
X439961Y474276D01*
X439258Y474136D01*
X438663Y473739D01*
X438265Y473143D01*
X438125Y472441D01*
X438265Y471739D01*
X438663Y471143D01*
X439258Y470745D01*
X439961Y470606D01*
X440663Y470745D01*
X441232Y471126D01*
X441384Y471095D01*
X441832Y470922D01*
Y416252D01*
X439733D01*
Y408552D01*
X447433D01*
Y416252D01*
X444279D01*
Y429191D01*
X444833Y429421D01*
X452359Y421895D01*
Y416062D01*
X451641Y415765D01*
X450837Y415147D01*
X450220Y414343D01*
X449832Y413407D01*
X449699Y412402D01*
X449832Y411397D01*
X450220Y410460D01*
X450837Y409656D01*
X451641Y409039D01*
X452578Y408651D01*
X453583Y408518D01*
X454588Y408651D01*
X455524Y409039D01*
X456328Y409656D01*
X456946Y410460D01*
X457334Y411397D01*
X457466Y412402D01*
X457334Y413407D01*
X456946Y414343D01*
X456328Y415147D01*
X455524Y415765D01*
X454806Y416062D01*
Y421209D01*
X455361Y421439D01*
X460976Y415823D01*
X460937Y415224D01*
X460837Y415147D01*
X460220Y414343D01*
X459832Y413407D01*
X459699Y412402D01*
X459832Y411397D01*
X460220Y410460D01*
X460837Y409656D01*
X461641Y409039D01*
X462578Y408651D01*
X463583Y408518D01*
X464588Y408651D01*
X465524Y409039D01*
X466328Y409656D01*
X466946Y410460D01*
X467334Y411397D01*
X467466Y412402D01*
X467334Y413407D01*
X466946Y414343D01*
X466328Y415147D01*
X465524Y415765D01*
X464771Y416076D01*
X464891Y416676D01*
X467578D01*
X470129Y414125D01*
X469832Y413407D01*
X469699Y412402D01*
X469832Y411397D01*
X470220Y410460D01*
X470837Y409656D01*
X471641Y409039D01*
X472578Y408651D01*
X473583Y408518D01*
X474588Y408651D01*
X475524Y409039D01*
X476329Y409656D01*
X476946Y410460D01*
X477334Y411397D01*
X477466Y412402D01*
X477334Y413407D01*
X476946Y414343D01*
X476329Y415147D01*
X475524Y415765D01*
X474588Y416152D01*
X473583Y416285D01*
X472578Y416152D01*
X471860Y415855D01*
X469793Y417922D01*
X470022Y418476D01*
X475777D01*
X480129Y414125D01*
X479832Y413407D01*
X479700Y412402D01*
X479832Y411397D01*
X480220Y410460D01*
X480837Y409656D01*
X481641Y409039D01*
X482578Y408651D01*
X483583Y408518D01*
X484588Y408651D01*
X485524Y409039D01*
X486329Y409656D01*
X486946Y410460D01*
X487334Y411397D01*
X487466Y412402D01*
X487334Y413407D01*
X486946Y414343D01*
X486329Y415147D01*
X485524Y415765D01*
X484588Y416152D01*
X483583Y416285D01*
X482578Y416152D01*
X481859Y415855D01*
X477992Y419722D01*
X478222Y420276D01*
X483978D01*
X490129Y414125D01*
X489832Y413407D01*
X489699Y412402D01*
X489832Y411397D01*
X490220Y410460D01*
X490837Y409656D01*
X491641Y409039D01*
X492578Y408651D01*
X493583Y408518D01*
X494588Y408651D01*
X495524Y409039D01*
X496328Y409656D01*
X496946Y410460D01*
X497334Y411397D01*
X497466Y412402D01*
X497334Y413407D01*
X496946Y414343D01*
X496328Y415147D01*
X495524Y415765D01*
X494588Y416152D01*
X493583Y416285D01*
X492578Y416152D01*
X491859Y415855D01*
X486193Y421522D01*
X486422Y422076D01*
X492177D01*
X500129Y414125D01*
X499832Y413407D01*
X499699Y412402D01*
X499832Y411397D01*
X500220Y410460D01*
X500837Y409656D01*
X501641Y409039D01*
X502578Y408651D01*
X503583Y408518D01*
X504588Y408651D01*
X505524Y409039D01*
X506328Y409656D01*
X506946Y410460D01*
X507334Y411397D01*
X507466Y412402D01*
X507334Y413407D01*
X506946Y414343D01*
X506328Y415147D01*
X505524Y415765D01*
X504588Y416152D01*
X503583Y416285D01*
X502578Y416152D01*
X501860Y415855D01*
X494392Y423322D01*
X494622Y423876D01*
X500378D01*
X510129Y414125D01*
X509832Y413407D01*
X509699Y412402D01*
X509832Y411397D01*
X510220Y410460D01*
X510837Y409656D01*
X511641Y409039D01*
X512578Y408651D01*
X513583Y408518D01*
X514588Y408651D01*
X515524Y409039D01*
X516328Y409656D01*
X516946Y410460D01*
X517334Y411397D01*
X517466Y412402D01*
X517334Y413407D01*
X516946Y414343D01*
X516328Y415147D01*
X515524Y415765D01*
X514588Y416152D01*
X513583Y416285D01*
X512578Y416152D01*
X511860Y415855D01*
X501750Y425965D01*
X501353Y426230D01*
X500884Y426323D01*
X466665D01*
X456879Y436109D01*
Y524453D01*
X472004Y539578D01*
X472373Y539443D01*
X472586Y539312D01*
X472714Y538668D01*
X473112Y538072D01*
X473707Y537675D01*
X474409Y537535D01*
X475112Y537675D01*
X475707Y538072D01*
X476105Y538668D01*
X476245Y539370D01*
X476105Y540072D01*
X475707Y540668D01*
X475112Y541066D01*
X474468Y541194D01*
X474336Y541406D01*
X474201Y541776D01*
X478615Y546189D01*
X490646D01*
X490828Y545589D01*
X490828Y545589D01*
X490430Y544994D01*
X490291Y544291D01*
X490430Y543589D01*
X490828Y542994D01*
X491424Y542596D01*
X492126Y542456D01*
X492828Y542596D01*
X493424Y542994D01*
X493821Y543589D01*
X493961Y544291D01*
X493821Y544994D01*
X493424Y545589D01*
X493424Y545589D01*
X493606Y546189D01*
X499184D01*
X499652Y546282D01*
X500049Y546547D01*
X502865Y549363D01*
X502953Y549346D01*
X503655Y549485D01*
X504250Y549883D01*
X504648Y550479D01*
X504788Y551181D01*
X504648Y551883D01*
X504250Y552479D01*
X503655Y552877D01*
X502953Y553016D01*
X502250Y552877D01*
X501655Y552479D01*
X501257Y551883D01*
X501118Y551181D01*
X501135Y551093D01*
X498677Y548636D01*
X497016D01*
X496787Y549190D01*
X498928Y551332D01*
X499016Y551314D01*
X499718Y551454D01*
X500314Y551852D01*
X500711Y552447D01*
X500851Y553150D01*
X500711Y553852D01*
X500314Y554447D01*
X499718Y554845D01*
X499016Y554985D01*
X498313Y554845D01*
X497718Y554447D01*
X497320Y553852D01*
X497181Y553150D01*
X497198Y553062D01*
X494572Y550436D01*
X490908D01*
X490849Y551036D01*
X490860Y551038D01*
X491455Y551436D01*
X491853Y552032D01*
X491993Y552734D01*
X491853Y553436D01*
X491455Y554032D01*
X490860Y554429D01*
X490158Y554569D01*
X489455Y554429D01*
X488860Y554032D01*
X488462Y553436D01*
X488322Y552734D01*
X488462Y552032D01*
X488860Y551436D01*
X489455Y551038D01*
X489466Y551036D01*
X489407Y550436D01*
X481007D01*
X480958Y550491D01*
X480741Y551036D01*
X481026Y551463D01*
X481166Y552165D01*
X481026Y552868D01*
X480628Y553463D01*
X480033Y553861D01*
X479331Y554001D01*
X479258Y553986D01*
X478582Y554464D01*
X478564Y554590D01*
X483180Y559206D01*
X483268Y559188D01*
X483970Y559328D01*
X484565Y559726D01*
X484963Y560321D01*
X485103Y561024D01*
X484963Y561726D01*
X484565Y562321D01*
X483970Y562719D01*
X483268Y562859D01*
X482565Y562719D01*
X482248Y562507D01*
X482197Y562473D01*
X481764Y562906D01*
X481798Y562956D01*
X482011Y563274D01*
X482150Y563976D01*
X482011Y564679D01*
X481613Y565274D01*
X481265Y565506D01*
X481272Y565625D01*
X481446Y566107D01*
X482001Y566218D01*
X482597Y566616D01*
X482995Y567211D01*
X483135Y567913D01*
X482995Y568616D01*
X482597Y569211D01*
X482001Y569609D01*
X481299Y569749D01*
X480597Y569609D01*
X480001Y569211D01*
X479952Y569137D01*
X462910D01*
X462441Y569044D01*
X462045Y568779D01*
X444833Y551567D01*
X444279Y551797D01*
Y565580D01*
X451652Y572954D01*
X451918Y573351D01*
X452011Y573819D01*
Y587235D01*
X452085Y587285D01*
X452483Y587880D01*
X452623Y588583D01*
X452483Y589285D01*
X452085Y589880D01*
X451490Y590278D01*
X450787Y590418D01*
X450085Y590278D01*
X449490Y589880D01*
X449092Y589285D01*
X448952Y588583D01*
X449092Y587880D01*
X449490Y587285D01*
X449564Y587235D01*
Y574326D01*
X443033Y567795D01*
X442479Y568025D01*
Y584449D01*
X454605Y596576D01*
X454871Y596973D01*
X454964Y597441D01*
Y601015D01*
X455038Y601064D01*
X455436Y601660D01*
X455575Y602362D01*
X455436Y603064D01*
X455038Y603660D01*
X454443Y604058D01*
X453740Y604198D01*
X453038Y604058D01*
X452442Y603660D01*
X452095Y603140D01*
X451772Y603099D01*
X451448Y603140D01*
X451101Y603660D01*
X450918Y603782D01*
X450918Y603783D01*
X450959Y604476D01*
X451298Y604702D01*
X451696Y605298D01*
X451835Y606000D01*
X451696Y606702D01*
X451298Y607298D01*
X450702Y607696D01*
X450000Y607835D01*
X449298Y607696D01*
X448702Y607298D01*
X448304Y606702D01*
X448165Y606000D01*
X448304Y605298D01*
X448702Y604702D01*
X448885Y604580D01*
X448885Y604580D01*
X448844Y603886D01*
X448505Y603660D01*
X448158Y603140D01*
X447835Y603099D01*
X447511Y603140D01*
X447164Y603660D01*
X446568Y604058D01*
X445866Y604198D01*
X445164Y604058D01*
X444568Y603660D01*
X444221Y603140D01*
X443898Y603099D01*
X443574Y603140D01*
X443227Y603660D01*
X442631Y604058D01*
X441929Y604198D01*
X441842Y604180D01*
X435905Y610117D01*
X435508Y610382D01*
X435039Y610475D01*
X413893D01*
X401814Y622554D01*
Y734729D01*
X446373Y779288D01*
X470596D01*
X479460Y770424D01*
X479163Y769706D01*
X479030Y768701D01*
X479163Y767696D01*
X479550Y766759D01*
X480168Y765955D01*
X480972Y765338D01*
X481908Y764950D01*
X482913Y764818D01*
X483919Y764950D01*
X484855Y765338D01*
X485659Y765955D01*
X486276Y766759D01*
X486664Y767696D01*
X486797Y768701D01*
X486664Y769706D01*
X486276Y770642D01*
X485659Y771447D01*
X484855Y772064D01*
X483919Y772452D01*
X482913Y772584D01*
X481908Y772452D01*
X481190Y772154D01*
X471968Y781377D01*
X471571Y781642D01*
X471102Y781735D01*
D02*
G37*
G36*
X555472Y772584D02*
X554467Y772452D01*
X553531Y772064D01*
X552727Y771447D01*
X552109Y770642D01*
X551721Y769706D01*
X551589Y768701D01*
X551721Y767696D01*
X552109Y766759D01*
X552727Y765955D01*
X553531Y765338D01*
X554467Y764950D01*
X555472Y764818D01*
X556477Y764950D01*
X557414Y765338D01*
X558218Y765955D01*
X558835Y766759D01*
X559223Y767696D01*
X559356Y768701D01*
X559223Y769706D01*
X558835Y770642D01*
X558218Y771447D01*
X557414Y772064D01*
X556477Y772452D01*
X555472Y772584D01*
D02*
G37*
G36*
X605472D02*
X604467Y772452D01*
X603531Y772064D01*
X602727Y771447D01*
X602109Y770642D01*
X601721Y769706D01*
X601589Y768701D01*
X601721Y767696D01*
X602109Y766759D01*
X602727Y765955D01*
X603531Y765338D01*
X604467Y764950D01*
X605472Y764818D01*
X606477Y764950D01*
X607414Y765338D01*
X608218Y765955D01*
X608835Y766759D01*
X609223Y767696D01*
X609356Y768701D01*
X609223Y769706D01*
X608835Y770642D01*
X608218Y771447D01*
X607414Y772064D01*
X606477Y772452D01*
X605472Y772584D01*
D02*
G37*
G36*
X615472D02*
X614467Y772452D01*
X613531Y772064D01*
X612727Y771447D01*
X612110Y770642D01*
X611722Y769706D01*
X611589Y768701D01*
X611722Y767696D01*
X612110Y766759D01*
X612727Y765955D01*
X613531Y765338D01*
X614467Y764950D01*
X615472Y764818D01*
X616477Y764950D01*
X617414Y765338D01*
X618218Y765955D01*
X618835Y766759D01*
X619223Y767696D01*
X619356Y768701D01*
X619223Y769706D01*
X618835Y770642D01*
X618218Y771447D01*
X617414Y772064D01*
X616477Y772452D01*
X615472Y772584D01*
D02*
G37*
G36*
X718347D02*
X717341Y772452D01*
X716405Y772064D01*
X715601Y771447D01*
X714984Y770642D01*
X714596Y769706D01*
X714463Y768701D01*
X714596Y767696D01*
X714984Y766759D01*
X715601Y765955D01*
X716405Y765338D01*
X717341Y764950D01*
X718347Y764818D01*
X719351Y764950D01*
X720288Y765338D01*
X721092Y765955D01*
X721709Y766759D01*
X722097Y767696D01*
X722230Y768701D01*
X722097Y769706D01*
X721709Y770642D01*
X721092Y771447D01*
X720288Y772064D01*
X719351Y772452D01*
X718347Y772584D01*
D02*
G37*
G36*
X595472D02*
X594467Y772452D01*
X593531Y772064D01*
X592727Y771447D01*
X592109Y770642D01*
X591721Y769706D01*
X591589Y768701D01*
X591721Y767696D01*
X592109Y766759D01*
X592727Y765955D01*
X593531Y765338D01*
X594467Y764950D01*
X595472Y764818D01*
X596478Y764950D01*
X597414Y765338D01*
X598218Y765955D01*
X598835Y766759D01*
X599223Y767696D01*
X599356Y768701D01*
X599223Y769706D01*
X598835Y770642D01*
X598218Y771447D01*
X597414Y772064D01*
X596478Y772452D01*
X595472Y772584D01*
D02*
G37*
G36*
X565472D02*
X564467Y772452D01*
X563531Y772064D01*
X562727Y771447D01*
X562110Y770642D01*
X561722Y769706D01*
X561589Y768701D01*
X561722Y767696D01*
X562110Y766759D01*
X562727Y765955D01*
X563531Y765338D01*
X564467Y764950D01*
X565472Y764818D01*
X566477Y764950D01*
X567414Y765338D01*
X568218Y765955D01*
X568835Y766759D01*
X569223Y767696D01*
X569356Y768701D01*
X569223Y769706D01*
X568835Y770642D01*
X568218Y771447D01*
X567414Y772064D01*
X566477Y772452D01*
X565472Y772584D01*
D02*
G37*
G36*
X575472D02*
X574467Y772452D01*
X573531Y772064D01*
X572727Y771447D01*
X572110Y770642D01*
X571722Y769706D01*
X571589Y768701D01*
X571722Y767696D01*
X572110Y766759D01*
X572727Y765955D01*
X573531Y765338D01*
X574467Y764950D01*
X575472Y764818D01*
X576477Y764950D01*
X577414Y765338D01*
X578218Y765955D01*
X578835Y766759D01*
X579223Y767696D01*
X579356Y768701D01*
X579223Y769706D01*
X578835Y770642D01*
X578218Y771447D01*
X577414Y772064D01*
X576477Y772452D01*
X575472Y772584D01*
D02*
G37*
G36*
X585472D02*
X584467Y772452D01*
X583531Y772064D01*
X582727Y771447D01*
X582109Y770642D01*
X581721Y769706D01*
X581589Y768701D01*
X581721Y767696D01*
X582109Y766759D01*
X582727Y765955D01*
X583531Y765338D01*
X584467Y764950D01*
X585472Y764818D01*
X586478Y764950D01*
X587414Y765338D01*
X588218Y765955D01*
X588835Y766759D01*
X589223Y767696D01*
X589356Y768701D01*
X589223Y769706D01*
X588835Y770642D01*
X588218Y771447D01*
X587414Y772064D01*
X586478Y772452D01*
X585472Y772584D01*
D02*
G37*
G36*
X412402Y721718D02*
X411397Y721586D01*
X410460Y721198D01*
X409656Y720580D01*
X409039Y719776D01*
X408651Y718840D01*
X408518Y717835D01*
X408651Y716830D01*
X409039Y715893D01*
X409656Y715089D01*
X410460Y714472D01*
X411397Y714084D01*
X412402Y713951D01*
X413407Y714084D01*
X414343Y714472D01*
X415147Y715089D01*
X415765Y715893D01*
X416152Y716830D01*
X416285Y717835D01*
X416152Y718840D01*
X415765Y719776D01*
X415147Y720580D01*
X414343Y721198D01*
X413407Y721586D01*
X412402Y721718D01*
D02*
G37*
G36*
X581693Y689827D02*
X580991Y689688D01*
X580395Y689290D01*
X579997Y688694D01*
X579858Y687992D01*
X579997Y687290D01*
X580395Y686694D01*
X580991Y686297D01*
X581693Y686157D01*
X582395Y686297D01*
X582991Y686694D01*
X583389Y687290D01*
X583528Y687992D01*
X583389Y688694D01*
X582991Y689290D01*
X582395Y689688D01*
X581693Y689827D01*
D02*
G37*
G36*
X444882Y690812D02*
X444180Y690672D01*
X443584Y690274D01*
X443186Y689679D01*
X443047Y688976D01*
X443186Y688274D01*
X443584Y687679D01*
X444180Y687281D01*
X444882Y687141D01*
X445584Y687281D01*
X446180Y687679D01*
X446578Y688274D01*
X446717Y688976D01*
X446578Y689679D01*
X446180Y690274D01*
X445584Y690672D01*
X444882Y690812D01*
D02*
G37*
G36*
X577756Y694749D02*
X577054Y694609D01*
X576458Y694211D01*
X576060Y693616D01*
X575921Y692913D01*
X576060Y692211D01*
X576458Y691616D01*
X577054Y691218D01*
X577756Y691078D01*
X578458Y691218D01*
X579054Y691616D01*
X579452Y692211D01*
X579591Y692913D01*
X579452Y693616D01*
X579054Y694211D01*
X578458Y694609D01*
X577756Y694749D01*
D02*
G37*
G36*
X574803Y689827D02*
X574101Y689688D01*
X573505Y689290D01*
X573108Y688694D01*
X572968Y687992D01*
X573108Y687290D01*
X573505Y686694D01*
X574101Y686297D01*
X574803Y686157D01*
X575505Y686297D01*
X576101Y686694D01*
X576499Y687290D01*
X576638Y687992D01*
X576499Y688694D01*
X576101Y689290D01*
X575505Y689688D01*
X574803Y689827D01*
D02*
G37*
G36*
X412402Y681718D02*
X411397Y681586D01*
X410460Y681198D01*
X409656Y680581D01*
X409039Y679776D01*
X408651Y678840D01*
X408518Y677835D01*
X408651Y676830D01*
X409039Y675893D01*
X409656Y675089D01*
X410460Y674472D01*
X411397Y674084D01*
X412402Y673951D01*
X413407Y674084D01*
X414343Y674472D01*
X415147Y675089D01*
X415765Y675893D01*
X416152Y676830D01*
X416285Y677835D01*
X416152Y678840D01*
X415765Y679776D01*
X415147Y680581D01*
X414343Y681198D01*
X413407Y681586D01*
X412402Y681718D01*
D02*
G37*
G36*
X513779Y679985D02*
X513077Y679845D01*
X512482Y679447D01*
X512084Y678852D01*
X511944Y678150D01*
X512084Y677447D01*
X512482Y676852D01*
X513077Y676454D01*
X513779Y676314D01*
X514482Y676454D01*
X515077Y676852D01*
X515475Y677447D01*
X515615Y678150D01*
X515475Y678852D01*
X515077Y679447D01*
X514482Y679845D01*
X513779Y679985D01*
D02*
G37*
G36*
X412402Y691718D02*
X411397Y691585D01*
X410460Y691198D01*
X409656Y690581D01*
X409039Y689776D01*
X408651Y688840D01*
X408518Y687835D01*
X408651Y686830D01*
X409039Y685893D01*
X409656Y685089D01*
X410460Y684472D01*
X411397Y684084D01*
X412402Y683951D01*
X413407Y684084D01*
X414343Y684472D01*
X415147Y685089D01*
X415765Y685893D01*
X416152Y686830D01*
X416285Y687835D01*
X416152Y688840D01*
X415765Y689776D01*
X415147Y690581D01*
X414343Y691198D01*
X413407Y691585D01*
X412402Y691718D01*
D02*
G37*
G36*
Y701718D02*
X411397Y701585D01*
X410460Y701198D01*
X409656Y700581D01*
X409039Y699776D01*
X408651Y698840D01*
X408518Y697835D01*
X408651Y696830D01*
X409039Y695893D01*
X409656Y695089D01*
X410460Y694472D01*
X411397Y694084D01*
X412402Y693951D01*
X413407Y694084D01*
X414343Y694472D01*
X415147Y695089D01*
X415765Y695893D01*
X416152Y696830D01*
X416285Y697835D01*
X416152Y698840D01*
X415765Y699776D01*
X415147Y700581D01*
X414343Y701198D01*
X413407Y701585D01*
X412402Y701718D01*
D02*
G37*
G36*
X528150Y708135D02*
X527447Y707995D01*
X526852Y707597D01*
X526454Y707001D01*
X526314Y706299D01*
X526454Y705597D01*
X526852Y705001D01*
X527447Y704604D01*
X528150Y704464D01*
X528852Y704604D01*
X529447Y705001D01*
X529845Y705597D01*
X529985Y706299D01*
X529845Y707001D01*
X529447Y707597D01*
X528852Y707995D01*
X528150Y708135D01*
D02*
G37*
G36*
X444882Y710497D02*
X444180Y710357D01*
X443584Y709959D01*
X443186Y709364D01*
X443047Y708661D01*
X443186Y707959D01*
X443584Y707364D01*
X444180Y706966D01*
X444882Y706826D01*
X445584Y706966D01*
X446180Y707364D01*
X446578Y707959D01*
X446717Y708661D01*
X446578Y709364D01*
X446180Y709959D01*
X445584Y710357D01*
X444882Y710497D01*
D02*
G37*
G36*
X586614Y713449D02*
X585912Y713310D01*
X585316Y712912D01*
X584919Y712317D01*
X584779Y711614D01*
X584919Y710912D01*
X585316Y710316D01*
X585912Y709919D01*
X586614Y709779D01*
X587317Y709919D01*
X587912Y710316D01*
X588310Y710912D01*
X588449Y711614D01*
X588310Y712317D01*
X587912Y712912D01*
X587317Y713310D01*
X586614Y713449D01*
D02*
G37*
G36*
X412402Y711718D02*
X411397Y711586D01*
X410460Y711198D01*
X409656Y710580D01*
X409039Y709776D01*
X408651Y708840D01*
X408518Y707835D01*
X408651Y706830D01*
X409039Y705893D01*
X409656Y705089D01*
X410460Y704472D01*
X411397Y704084D01*
X412402Y703951D01*
X413407Y704084D01*
X414343Y704472D01*
X415147Y705089D01*
X415765Y705893D01*
X416152Y706830D01*
X416285Y707835D01*
X416152Y708840D01*
X415765Y709776D01*
X415147Y710580D01*
X414343Y711198D01*
X413407Y711586D01*
X412402Y711718D01*
D02*
G37*
G36*
X513779Y701638D02*
X513077Y701499D01*
X512482Y701101D01*
X512084Y700505D01*
X511944Y699803D01*
X512084Y699101D01*
X512482Y698505D01*
X513077Y698108D01*
X513779Y697968D01*
X514482Y698108D01*
X515077Y698505D01*
X515475Y699101D01*
X515615Y699803D01*
X515475Y700505D01*
X515077Y701101D01*
X514482Y701499D01*
X513779Y701638D01*
D02*
G37*
G36*
X586614Y703607D02*
X585912Y703467D01*
X585316Y703069D01*
X584919Y702474D01*
X584779Y701772D01*
X584919Y701069D01*
X585316Y700474D01*
X585912Y700076D01*
X586614Y699936D01*
X587317Y700076D01*
X587912Y700474D01*
X588310Y701069D01*
X588449Y701772D01*
X588310Y702474D01*
X587912Y703069D01*
X587317Y703467D01*
X586614Y703607D01*
D02*
G37*
G36*
X580709Y707544D02*
X580006Y707404D01*
X579411Y707006D01*
X579013Y706411D01*
X578873Y705709D01*
X579013Y705006D01*
X579411Y704411D01*
X580006Y704013D01*
X580709Y703873D01*
X581411Y704013D01*
X582006Y704411D01*
X582404Y705006D01*
X582544Y705709D01*
X582404Y706411D01*
X582006Y707006D01*
X581411Y707404D01*
X580709Y707544D01*
D02*
G37*
G36*
X480315Y604198D02*
X479613Y604058D01*
X479017Y603660D01*
X478619Y603064D01*
X478480Y602362D01*
X478619Y601660D01*
X479017Y601064D01*
X479613Y600667D01*
X480315Y600527D01*
X481017Y600667D01*
X481613Y601064D01*
X482011Y601660D01*
X482150Y602362D01*
X482011Y603064D01*
X481613Y603660D01*
X481017Y604058D01*
X480315Y604198D01*
D02*
G37*
G36*
X486221D02*
X485518Y604058D01*
X484923Y603660D01*
X484525Y603064D01*
X484385Y602362D01*
X484525Y601660D01*
X484923Y601064D01*
X485518Y600667D01*
X486221Y600527D01*
X486923Y600667D01*
X487518Y601064D01*
X487916Y601660D01*
X488056Y602362D01*
X487916Y603064D01*
X487518Y603660D01*
X486923Y604058D01*
X486221Y604198D01*
D02*
G37*
G36*
X492126D02*
X491424Y604058D01*
X490828Y603660D01*
X490430Y603064D01*
X490291Y602362D01*
X490430Y601660D01*
X490828Y601064D01*
X491424Y600667D01*
X492126Y600527D01*
X492828Y600667D01*
X493424Y601064D01*
X493821Y601660D01*
X493961Y602362D01*
X493821Y603064D01*
X493424Y603660D01*
X492828Y604058D01*
X492126Y604198D01*
D02*
G37*
G36*
X523622Y603213D02*
X522920Y603074D01*
X522324Y602676D01*
X521926Y602080D01*
X521787Y601378D01*
X521926Y600676D01*
X522139Y600358D01*
X522173Y600307D01*
X521740Y599874D01*
X521689Y599908D01*
X521372Y600121D01*
X520669Y600260D01*
X519967Y600121D01*
X519372Y599723D01*
X518974Y599127D01*
X518834Y598425D01*
X518974Y597723D01*
X519372Y597127D01*
X519967Y596730D01*
X520669Y596590D01*
X521372Y596730D01*
X521967Y597127D01*
X522365Y597723D01*
X522505Y598425D01*
X522365Y599127D01*
X522153Y599445D01*
X522119Y599496D01*
X522551Y599929D01*
X522602Y599895D01*
X522920Y599682D01*
X523622Y599543D01*
X524324Y599682D01*
X524920Y600080D01*
X525318Y600676D01*
X525457Y601378D01*
X525318Y602080D01*
X524920Y602676D01*
X524324Y603074D01*
X523622Y603213D01*
D02*
G37*
G36*
X658465Y601245D02*
X657762Y601105D01*
X657167Y600707D01*
X656769Y600112D01*
X656629Y599409D01*
X656769Y598707D01*
X657167Y598112D01*
X657762Y597714D01*
X658465Y597574D01*
X659167Y597714D01*
X659762Y598112D01*
X660160Y598707D01*
X660300Y599409D01*
X660160Y600112D01*
X659762Y600707D01*
X659167Y601105D01*
X658465Y601245D01*
D02*
G37*
G36*
X688976Y603213D02*
X688274Y603074D01*
X687679Y602676D01*
X687281Y602080D01*
X687141Y601378D01*
X687281Y600676D01*
X687679Y600080D01*
X688274Y599682D01*
X688976Y599543D01*
X689679Y599682D01*
X690274Y600080D01*
X690672Y600676D01*
X690812Y601378D01*
X690672Y602080D01*
X690274Y602676D01*
X689679Y603074D01*
X688976Y603213D01*
D02*
G37*
G36*
X702756D02*
X702054Y603074D01*
X701458Y602676D01*
X701060Y602080D01*
X700921Y601378D01*
X701060Y600676D01*
X701458Y600080D01*
X702054Y599682D01*
X702756Y599543D01*
X703458Y599682D01*
X704054Y600080D01*
X704452Y600676D01*
X704591Y601378D01*
X704452Y602080D01*
X704054Y602676D01*
X703458Y603074D01*
X702756Y603213D01*
D02*
G37*
G36*
X498032Y604198D02*
X497329Y604058D01*
X496734Y603660D01*
X496336Y603064D01*
X496196Y602362D01*
X496336Y601660D01*
X496734Y601064D01*
X497329Y600667D01*
X498032Y600527D01*
X498734Y600667D01*
X499329Y601064D01*
X499727Y601660D01*
X499867Y602362D01*
X499727Y603064D01*
X499329Y603660D01*
X498734Y604058D01*
X498032Y604198D01*
D02*
G37*
G36*
X538386Y608135D02*
X537683Y607995D01*
X537088Y607597D01*
X536690Y607001D01*
X536551Y606299D01*
X536555Y606275D01*
X536372Y606082D01*
X536027Y605855D01*
X535433Y605973D01*
X534731Y605834D01*
X534135Y605436D01*
X533738Y604840D01*
X533598Y604138D01*
X533738Y603436D01*
X534135Y602840D01*
X534731Y602443D01*
X535433Y602303D01*
X536135Y602443D01*
X536731Y602840D01*
X537129Y603436D01*
X537268Y604138D01*
X537263Y604163D01*
X537446Y604355D01*
X537792Y604582D01*
X538386Y604464D01*
X539088Y604604D01*
X539683Y605001D01*
X540081Y605597D01*
X540221Y606299D01*
X540081Y607001D01*
X539683Y607597D01*
X539088Y607995D01*
X538386Y608135D01*
D02*
G37*
G36*
X531496Y610103D02*
X530794Y609963D01*
X530198Y609565D01*
X529801Y608970D01*
X529661Y608268D01*
X529801Y607565D01*
X530013Y607248D01*
X530047Y607197D01*
X529614Y606764D01*
X529563Y606798D01*
X529246Y607011D01*
X528543Y607150D01*
X527841Y607011D01*
X527246Y606613D01*
X526848Y606017D01*
X526708Y605315D01*
X526848Y604613D01*
X527246Y604017D01*
X527841Y603619D01*
X528543Y603480D01*
X529246Y603619D01*
X529841Y604017D01*
X530239Y604613D01*
X530379Y605315D01*
X530239Y606017D01*
X530027Y606335D01*
X529993Y606386D01*
X530425Y606818D01*
X530476Y606784D01*
X530794Y606572D01*
X531496Y606432D01*
X532198Y606572D01*
X532794Y606970D01*
X533192Y607565D01*
X533331Y608268D01*
X533192Y608970D01*
X532794Y609565D01*
X532198Y609963D01*
X531496Y610103D01*
D02*
G37*
G36*
X651024Y611221D02*
X650322Y611081D01*
X649727Y610683D01*
X649329Y610087D01*
X649189Y609385D01*
X649329Y608683D01*
X649727Y608087D01*
X650322Y607690D01*
X651024Y607550D01*
X651727Y607690D01*
X652322Y608087D01*
X652720Y608683D01*
X652860Y609385D01*
X652720Y610087D01*
X652322Y610683D01*
X651727Y611081D01*
X651024Y611221D01*
D02*
G37*
G36*
X652559Y607150D02*
X651857Y607011D01*
X651261Y606613D01*
X650864Y606017D01*
X650724Y605315D01*
X650864Y604613D01*
X651261Y604017D01*
X651857Y603619D01*
X652559Y603480D01*
X653261Y603619D01*
X653857Y604017D01*
X654255Y604613D01*
X654394Y605315D01*
X654255Y606017D01*
X653857Y606613D01*
X653261Y607011D01*
X652559Y607150D01*
D02*
G37*
G36*
X503937Y604198D02*
X503235Y604058D01*
X502639Y603660D01*
X502241Y603064D01*
X502102Y602362D01*
X502241Y601660D01*
X502639Y601064D01*
X503235Y600667D01*
X503937Y600527D01*
X504639Y600667D01*
X505235Y601064D01*
X505633Y601660D01*
X505772Y602362D01*
X505633Y603064D01*
X505235Y603660D01*
X504639Y604058D01*
X503937Y604198D01*
D02*
G37*
G36*
X513779Y609118D02*
X513077Y608978D01*
X512481Y608580D01*
X512083Y607985D01*
X511944Y607283D01*
X512083Y606580D01*
X512481Y605985D01*
X512767Y605794D01*
X512798Y605662D01*
X512726Y605100D01*
X512306Y604820D01*
X511908Y604224D01*
X511769Y603522D01*
X511908Y602820D01*
X512306Y602224D01*
X512902Y601826D01*
X513604Y601687D01*
X514306Y601826D01*
X514902Y602224D01*
X515300Y602820D01*
X515439Y603522D01*
X515300Y604224D01*
X514902Y604820D01*
X514616Y605011D01*
X514585Y605143D01*
X514657Y605705D01*
X515077Y605985D01*
X515474Y606580D01*
X515614Y607283D01*
X515474Y607985D01*
X515077Y608580D01*
X514481Y608978D01*
X513779Y609118D01*
D02*
G37*
G36*
X656810Y605495D02*
X656107Y605356D01*
X655512Y604958D01*
X655114Y604362D01*
X654974Y603660D01*
X655114Y602958D01*
X655512Y602362D01*
X656107Y601964D01*
X656810Y601825D01*
X657512Y601964D01*
X658107Y602362D01*
X658505Y602958D01*
X658645Y603660D01*
X658505Y604362D01*
X658107Y604958D01*
X657512Y605356D01*
X656810Y605495D01*
D02*
G37*
G36*
X541339Y603676D02*
X540636Y603537D01*
X540041Y603139D01*
X539643Y602543D01*
X539503Y601841D01*
X539515Y601781D01*
X539024Y601176D01*
X538668Y601105D01*
X538072Y600707D01*
X537675Y600112D01*
X537535Y599409D01*
X537675Y598707D01*
X538072Y598112D01*
X538668Y597714D01*
X539370Y597574D01*
X540072Y597714D01*
X540668Y598112D01*
X541066Y598707D01*
X541205Y599409D01*
X541193Y599469D01*
X541685Y600074D01*
X542041Y600145D01*
X542636Y600543D01*
X543034Y601139D01*
X543174Y601841D01*
X543034Y602543D01*
X542636Y603139D01*
X542041Y603537D01*
X541339Y603676D01*
D02*
G37*
G36*
X498032Y592386D02*
X497329Y592247D01*
X496734Y591849D01*
X496336Y591254D01*
X496196Y590551D01*
X496336Y589849D01*
X496734Y589254D01*
X497329Y588856D01*
X498032Y588716D01*
X498734Y588856D01*
X499329Y589254D01*
X499727Y589849D01*
X499867Y590551D01*
X499727Y591254D01*
X499329Y591849D01*
X498734Y592247D01*
X498032Y592386D01*
D02*
G37*
G36*
X503937D02*
X503235Y592247D01*
X502639Y591849D01*
X502241Y591254D01*
X502102Y590551D01*
X502241Y589849D01*
X502639Y589254D01*
X503235Y588856D01*
X503937Y588716D01*
X504639Y588856D01*
X505235Y589254D01*
X505633Y589849D01*
X505772Y590551D01*
X505633Y591254D01*
X505235Y591849D01*
X504639Y592247D01*
X503937Y592386D01*
D02*
G37*
G36*
X526575Y593371D02*
X525873Y593231D01*
X525277Y592833D01*
X524879Y592238D01*
X524740Y591535D01*
X524879Y590833D01*
X525277Y590238D01*
X525873Y589840D01*
X526575Y589700D01*
X527277Y589840D01*
X527873Y590238D01*
X528270Y590833D01*
X528410Y591535D01*
X528270Y592238D01*
X527873Y592833D01*
X527277Y593231D01*
X526575Y593371D01*
D02*
G37*
G36*
X492126Y592386D02*
X491424Y592247D01*
X490828Y591849D01*
X490430Y591254D01*
X490291Y590551D01*
X490430Y589849D01*
X490828Y589254D01*
X491424Y588856D01*
X492126Y588716D01*
X492828Y588856D01*
X493424Y589254D01*
X493821Y589849D01*
X493961Y590551D01*
X493821Y591254D01*
X493424Y591849D01*
X492828Y592247D01*
X492126Y592386D01*
D02*
G37*
G36*
X638779Y591402D02*
X638077Y591262D01*
X637482Y590865D01*
X637084Y590269D01*
X636944Y589567D01*
X637084Y588865D01*
X637482Y588269D01*
X638077Y587871D01*
X638779Y587732D01*
X639482Y587871D01*
X640077Y588269D01*
X640475Y588865D01*
X640615Y589567D01*
X640475Y590269D01*
X640077Y590865D01*
X639482Y591262D01*
X638779Y591402D01*
D02*
G37*
G36*
X480315Y592386D02*
X479613Y592247D01*
X479017Y591849D01*
X478619Y591254D01*
X478480Y590551D01*
X478619Y589849D01*
X479017Y589254D01*
X479613Y588856D01*
X480315Y588716D01*
X481017Y588856D01*
X481613Y589254D01*
X482011Y589849D01*
X482150Y590551D01*
X482011Y591254D01*
X481613Y591849D01*
X481017Y592247D01*
X480315Y592386D01*
D02*
G37*
G36*
X486221D02*
X485518Y592247D01*
X484923Y591849D01*
X484525Y591254D01*
X484385Y590551D01*
X484525Y589849D01*
X484923Y589254D01*
X485518Y588856D01*
X486221Y588716D01*
X486923Y588856D01*
X487518Y589254D01*
X487916Y589849D01*
X488056Y590551D01*
X487916Y591254D01*
X487518Y591849D01*
X486923Y592247D01*
X486221Y592386D01*
D02*
G37*
G36*
X554134Y593371D02*
X553432Y593231D01*
X552836Y592833D01*
X552438Y592238D01*
X552299Y591535D01*
X552438Y590833D01*
X552836Y590238D01*
X553432Y589840D01*
X554134Y589700D01*
X554836Y589840D01*
X555432Y590238D01*
X555829Y590833D01*
X555969Y591535D01*
X555829Y592238D01*
X555432Y592833D01*
X554836Y593231D01*
X554134Y593371D01*
D02*
G37*
G36*
X515748Y597308D02*
X515046Y597168D01*
X514450Y596770D01*
X514052Y596175D01*
X513913Y595472D01*
X514052Y594770D01*
X514450Y594175D01*
X515046Y593777D01*
X515748Y593637D01*
X516450Y593777D01*
X517046Y594175D01*
X517444Y594770D01*
X517583Y595472D01*
X517444Y596175D01*
X517046Y596770D01*
X516450Y597168D01*
X515748Y597308D01*
D02*
G37*
G36*
X432087Y595339D02*
X431384Y595199D01*
X430789Y594802D01*
X430447Y594290D01*
X430118Y594355D01*
X429416Y594215D01*
X428820Y593817D01*
X428422Y593222D01*
X428283Y592520D01*
X428422Y591817D01*
X428820Y591222D01*
X429416Y590824D01*
X430118Y590684D01*
X430447Y590750D01*
X430789Y590238D01*
X431384Y589840D01*
X432087Y589700D01*
X432789Y589840D01*
X433384Y590238D01*
X433782Y590833D01*
X433922Y591535D01*
X433782Y592238D01*
X433594Y592520D01*
X433782Y592802D01*
X433922Y593504D01*
X433782Y594206D01*
X433384Y594802D01*
X432789Y595199D01*
X432087Y595339D01*
D02*
G37*
G36*
X662715Y599590D02*
X662013Y599450D01*
X661417Y599052D01*
X661020Y598457D01*
X660880Y597754D01*
X661020Y597052D01*
X661417Y596457D01*
X662013Y596059D01*
X662715Y595919D01*
X663417Y596059D01*
X664013Y596457D01*
X664411Y597052D01*
X664550Y597754D01*
X664411Y598457D01*
X664013Y599052D01*
X663417Y599450D01*
X662715Y599590D01*
D02*
G37*
G36*
X690945Y598292D02*
X690243Y598152D01*
X689647Y597754D01*
X689249Y597159D01*
X689110Y596457D01*
X689249Y595754D01*
X689647Y595159D01*
X690167Y594812D01*
X690208Y594488D01*
X690167Y594165D01*
X689647Y593817D01*
X689300Y593298D01*
X688976Y593257D01*
X688653Y593298D01*
X688306Y593817D01*
X687710Y594215D01*
X687008Y594355D01*
X686306Y594215D01*
X685710Y593817D01*
X685312Y593222D01*
X685173Y592520D01*
X685312Y591817D01*
X685710Y591222D01*
X686306Y590824D01*
X687008Y590684D01*
X687710Y590824D01*
X688306Y591222D01*
X688653Y591741D01*
X688976Y591783D01*
X689300Y591741D01*
X689647Y591222D01*
X690243Y590824D01*
X690945Y590684D01*
X691647Y590824D01*
X692243Y591222D01*
X692590Y591741D01*
X692913Y591783D01*
X693237Y591741D01*
X693584Y591222D01*
X694180Y590824D01*
X694882Y590684D01*
X695584Y590824D01*
X696180Y591222D01*
X696578Y591817D01*
X696717Y592520D01*
X696578Y593222D01*
X696180Y593817D01*
X695584Y594215D01*
X694882Y594355D01*
X694180Y594215D01*
X693584Y593817D01*
X693237Y593298D01*
X692913Y593257D01*
X692590Y593298D01*
X692243Y593817D01*
X691723Y594165D01*
X691682Y594488D01*
X691723Y594812D01*
X692243Y595159D01*
X692640Y595754D01*
X692780Y596457D01*
X692640Y597159D01*
X692243Y597754D01*
X691647Y598152D01*
X690945Y598292D01*
D02*
G37*
G36*
X535039Y593764D02*
X534337Y593625D01*
X533742Y593227D01*
X533344Y592631D01*
X533204Y591929D01*
X533344Y591227D01*
X533742Y590631D01*
X534337Y590234D01*
X535039Y590094D01*
X535742Y590234D01*
X536337Y590631D01*
X536735Y591227D01*
X536875Y591929D01*
X536735Y592631D01*
X536337Y593227D01*
X535742Y593625D01*
X535039Y593764D01*
D02*
G37*
G36*
X669290Y594354D02*
X668588Y594214D01*
X667993Y593817D01*
X667595Y593221D01*
X667455Y592519D01*
X667595Y591817D01*
X667993Y591221D01*
X668588Y590823D01*
X669290Y590684D01*
X669993Y590823D01*
X670588Y591221D01*
X670986Y591817D01*
X671126Y592519D01*
X670986Y593221D01*
X670588Y593817D01*
X669993Y594214D01*
X669290Y594354D01*
D02*
G37*
G36*
X457677Y594355D02*
X456975Y594215D01*
X456379Y593817D01*
X455982Y593222D01*
X455842Y592520D01*
X455982Y591817D01*
X456379Y591222D01*
X456975Y590824D01*
X457677Y590684D01*
X458380Y590824D01*
X458975Y591222D01*
X459373Y591817D01*
X459512Y592520D01*
X459373Y593222D01*
X458975Y593817D01*
X458380Y594215D01*
X457677Y594355D01*
D02*
G37*
G36*
X456693Y612072D02*
X455991Y611932D01*
X455395Y611534D01*
X454997Y610939D01*
X454858Y610236D01*
X454997Y609534D01*
X455395Y608939D01*
X455991Y608541D01*
X456693Y608401D01*
X457395Y608541D01*
X457991Y608939D01*
X458389Y609534D01*
X458528Y610236D01*
X458389Y610939D01*
X457991Y611534D01*
X457395Y611932D01*
X456693Y612072D01*
D02*
G37*
G36*
X517717Y622898D02*
X517014Y622759D01*
X516419Y622361D01*
X516021Y621765D01*
X515881Y621063D01*
X516021Y620361D01*
X516419Y619765D01*
X517014Y619367D01*
X517717Y619228D01*
X518419Y619367D01*
X519014Y619765D01*
X519412Y620361D01*
X519552Y621063D01*
X519412Y621765D01*
X519014Y622361D01*
X518419Y622759D01*
X517717Y622898D01*
D02*
G37*
G36*
X508858Y623882D02*
X508156Y623743D01*
X507560Y623345D01*
X507163Y622750D01*
X507023Y622047D01*
X507163Y621345D01*
X507560Y620750D01*
X508156Y620352D01*
X508858Y620212D01*
X509561Y620352D01*
X510156Y620750D01*
X510554Y621345D01*
X510694Y622047D01*
X510554Y622750D01*
X510156Y623345D01*
X509561Y623743D01*
X508858Y623882D01*
D02*
G37*
G36*
X513548Y625620D02*
X512846Y625480D01*
X512250Y625082D01*
X511853Y624487D01*
X511713Y623784D01*
X511853Y623082D01*
X512250Y622486D01*
X512846Y622089D01*
X513548Y621949D01*
X514250Y622089D01*
X514846Y622486D01*
X515244Y623082D01*
X515383Y623784D01*
X515244Y624487D01*
X514846Y625082D01*
X514250Y625480D01*
X513548Y625620D01*
D02*
G37*
G36*
X484252Y622898D02*
X483550Y622759D01*
X482954Y622361D01*
X482556Y621765D01*
X482417Y621063D01*
X482556Y620361D01*
X482954Y619765D01*
X483550Y619367D01*
X484252Y619228D01*
X484954Y619367D01*
X485550Y619765D01*
X485948Y620361D01*
X486087Y621063D01*
X485948Y621765D01*
X485550Y622361D01*
X484954Y622759D01*
X484252Y622898D01*
D02*
G37*
G36*
X467717Y620142D02*
X467014Y620003D01*
X466419Y619605D01*
X466021Y619009D01*
X465881Y618307D01*
X466021Y617605D01*
X466419Y617009D01*
X467014Y616611D01*
X467717Y616472D01*
X468419Y616611D01*
X469014Y617009D01*
X469412Y617605D01*
X469552Y618307D01*
X469412Y619009D01*
X469014Y619605D01*
X468419Y620003D01*
X467717Y620142D01*
D02*
G37*
G36*
X639173Y620339D02*
X638471Y620199D01*
X637876Y619802D01*
X637478Y619206D01*
X637338Y618504D01*
X637478Y617802D01*
X637876Y617206D01*
X638471Y616808D01*
X639173Y616669D01*
X639876Y616808D01*
X640471Y617206D01*
X640869Y617802D01*
X641009Y618504D01*
X640869Y619206D01*
X640471Y619802D01*
X639876Y620199D01*
X639173Y620339D01*
D02*
G37*
G36*
X494488Y622308D02*
X493786Y622168D01*
X493190Y621770D01*
X492793Y621175D01*
X492653Y620472D01*
X492793Y619770D01*
X493190Y619175D01*
X493786Y618777D01*
X494488Y618637D01*
X495190Y618777D01*
X495786Y619175D01*
X496184Y619770D01*
X496323Y620472D01*
X496184Y621175D01*
X495786Y621770D01*
X495190Y622168D01*
X494488Y622308D01*
D02*
G37*
G36*
X448000Y631922D02*
X447298Y631782D01*
X446702Y631384D01*
X446304Y630789D01*
X446165Y630087D01*
X446304Y629384D01*
X446493Y629102D01*
X446304Y628820D01*
X446165Y628118D01*
X446304Y627416D01*
X446493Y627134D01*
X446304Y626852D01*
X446165Y626150D01*
X446304Y625447D01*
X446702Y624852D01*
X447298Y624454D01*
X448000Y624314D01*
X448702Y624454D01*
X449298Y624852D01*
X449696Y625447D01*
X449835Y626150D01*
X449696Y626852D01*
X449507Y627134D01*
X449696Y627416D01*
X449835Y628118D01*
X449696Y628820D01*
X449507Y629102D01*
X449696Y629384D01*
X449835Y630087D01*
X449696Y630789D01*
X449298Y631384D01*
X448702Y631782D01*
X448000Y631922D01*
D02*
G37*
G36*
X464567Y630772D02*
X463865Y630633D01*
X463269Y630235D01*
X462871Y629639D01*
X462732Y628937D01*
X462871Y628235D01*
X463269Y627639D01*
X463865Y627241D01*
X464567Y627102D01*
X465269Y627241D01*
X465865Y627639D01*
X466262Y628235D01*
X466402Y628937D01*
X466262Y629639D01*
X465865Y630235D01*
X465269Y630633D01*
X464567Y630772D01*
D02*
G37*
G36*
X508858Y631756D02*
X508156Y631617D01*
X507560Y631219D01*
X507163Y630624D01*
X507023Y629921D01*
X507163Y629219D01*
X507560Y628623D01*
X508156Y628226D01*
X508858Y628086D01*
X509561Y628226D01*
X510156Y628623D01*
X510554Y629219D01*
X510694Y629921D01*
X510554Y630624D01*
X510156Y631219D01*
X509561Y631617D01*
X508858Y631756D01*
D02*
G37*
G36*
X506890Y635694D02*
X506187Y635554D01*
X505592Y635156D01*
X505194Y634561D01*
X505055Y633858D01*
X505194Y633156D01*
X505592Y632560D01*
X506187Y632163D01*
X506890Y632023D01*
X507592Y632163D01*
X508187Y632560D01*
X508585Y633156D01*
X508725Y633858D01*
X508585Y634561D01*
X508187Y635156D01*
X507592Y635554D01*
X506890Y635694D01*
D02*
G37*
G36*
X512795Y629788D02*
X512093Y629648D01*
X511497Y629250D01*
X511100Y628655D01*
X510960Y627953D01*
X511100Y627250D01*
X511497Y626655D01*
X512093Y626257D01*
X512795Y626118D01*
X513498Y626257D01*
X514093Y626655D01*
X514491Y627250D01*
X514631Y627953D01*
X514491Y628655D01*
X514093Y629250D01*
X513498Y629648D01*
X512795Y629788D01*
D02*
G37*
G36*
X575787Y628804D02*
X575085Y628664D01*
X574490Y628266D01*
X574092Y627671D01*
X573952Y626968D01*
X574092Y626266D01*
X574490Y625671D01*
X575085Y625273D01*
X575787Y625133D01*
X576490Y625273D01*
X577085Y625671D01*
X577483Y626266D01*
X577623Y626968D01*
X577483Y627671D01*
X577085Y628266D01*
X576490Y628664D01*
X575787Y628804D01*
D02*
G37*
G36*
X595472D02*
X594770Y628664D01*
X594175Y628266D01*
X593777Y627671D01*
X593637Y626968D01*
X593777Y626266D01*
X594175Y625671D01*
X594770Y625273D01*
X595472Y625133D01*
X596175Y625273D01*
X596770Y625671D01*
X597168Y626266D01*
X597308Y626968D01*
X597168Y627671D01*
X596770Y628266D01*
X596175Y628664D01*
X595472Y628804D01*
D02*
G37*
G36*
X611221D02*
X610518Y628664D01*
X609923Y628266D01*
X609525Y627671D01*
X609385Y626968D01*
X609525Y626266D01*
X609923Y625671D01*
X610518Y625273D01*
X611221Y625133D01*
X611923Y625273D01*
X612518Y625671D01*
X612916Y626266D01*
X613056Y626968D01*
X612916Y627671D01*
X612518Y628266D01*
X611923Y628664D01*
X611221Y628804D01*
D02*
G37*
G36*
X497206Y618803D02*
X496503Y618663D01*
X495908Y618265D01*
X495510Y617670D01*
X495370Y616967D01*
X495510Y616265D01*
X495908Y615670D01*
X496503Y615272D01*
X497206Y615132D01*
X497908Y615272D01*
X498503Y615670D01*
X498901Y616265D01*
X499041Y616967D01*
X498901Y617670D01*
X498503Y618265D01*
X497908Y618663D01*
X497206Y618803D01*
D02*
G37*
G36*
X685039Y613056D02*
X684337Y612916D01*
X683742Y612518D01*
X683344Y611923D01*
X683204Y611221D01*
X683344Y610518D01*
X683742Y609923D01*
X684337Y609525D01*
X685039Y609385D01*
X685742Y609525D01*
X686337Y609923D01*
X686735Y610518D01*
X686875Y611221D01*
X686735Y611923D01*
X686337Y612518D01*
X685742Y612916D01*
X685039Y613056D01*
D02*
G37*
G36*
X483268Y616993D02*
X482565Y616853D01*
X481970Y616455D01*
X481572Y615860D01*
X481432Y615158D01*
X481543Y614603D01*
X481401Y614276D01*
X481148Y614010D01*
X480597Y613900D01*
X480001Y613502D01*
X479604Y612907D01*
X479464Y612205D01*
X479604Y611502D01*
X480001Y610907D01*
X480597Y610509D01*
X481299Y610369D01*
X482001Y610509D01*
X482597Y610907D01*
X482995Y611502D01*
X483135Y612205D01*
X483024Y612759D01*
X483166Y613087D01*
X483419Y613352D01*
X483970Y613462D01*
X484565Y613860D01*
X484963Y614455D01*
X485103Y615158D01*
X484963Y615860D01*
X484565Y616455D01*
X483970Y616853D01*
X483268Y616993D01*
D02*
G37*
G36*
X495079Y614040D02*
X494376Y613900D01*
X493781Y613502D01*
X493383Y612907D01*
X493244Y612205D01*
X493383Y611502D01*
X493781Y610907D01*
X494376Y610509D01*
X495079Y610369D01*
X495781Y610509D01*
X496377Y610907D01*
X496774Y611502D01*
X496914Y612205D01*
X496774Y612907D01*
X496377Y613502D01*
X495781Y613900D01*
X495079Y614040D01*
D02*
G37*
G36*
X554134Y613056D02*
X553432Y612916D01*
X552836Y612518D01*
X552438Y611923D01*
X552299Y611221D01*
X552438Y610518D01*
X552836Y609923D01*
X553432Y609525D01*
X554134Y609385D01*
X554836Y609525D01*
X555432Y609923D01*
X555829Y610518D01*
X555969Y611221D01*
X555829Y611923D01*
X555432Y612518D01*
X554836Y612916D01*
X554134Y613056D01*
D02*
G37*
G36*
X626968D02*
X626266Y612916D01*
X625671Y612518D01*
X625273Y611923D01*
X625133Y611221D01*
X625273Y610518D01*
X625671Y609923D01*
X626266Y609525D01*
X626968Y609385D01*
X627671Y609525D01*
X628266Y609923D01*
X628664Y610518D01*
X628804Y611221D01*
X628664Y611923D01*
X628266Y612518D01*
X627671Y612916D01*
X626968Y613056D01*
D02*
G37*
G36*
X646654D02*
X645951Y612916D01*
X645356Y612518D01*
X644958Y611923D01*
X644818Y611221D01*
X644958Y610518D01*
X645356Y609923D01*
X645951Y609525D01*
X646654Y609385D01*
X647356Y609525D01*
X647951Y609923D01*
X648349Y610518D01*
X648489Y611221D01*
X648349Y611923D01*
X647951Y612518D01*
X647356Y612916D01*
X646654Y613056D01*
D02*
G37*
G36*
X499902Y614040D02*
X499199Y613900D01*
X498604Y613502D01*
X498206Y612907D01*
X498066Y612205D01*
X498206Y611502D01*
X498604Y610907D01*
X499199Y610509D01*
X499902Y610369D01*
X500604Y610509D01*
X501199Y610907D01*
X501597Y611502D01*
X501737Y612205D01*
X501597Y612907D01*
X501199Y613502D01*
X500604Y613900D01*
X499902Y614040D01*
D02*
G37*
G36*
X422736Y616402D02*
X422034Y616262D01*
X421439Y615865D01*
X421041Y615269D01*
X420901Y614567D01*
X421041Y613865D01*
X421439Y613269D01*
X422034Y612871D01*
X422736Y612732D01*
X423439Y612871D01*
X424034Y613269D01*
X424432Y613865D01*
X424572Y614567D01*
X424432Y615269D01*
X424034Y615865D01*
X423439Y616262D01*
X422736Y616402D01*
D02*
G37*
G36*
X429724D02*
X429022Y616262D01*
X428427Y615865D01*
X428029Y615269D01*
X427889Y614567D01*
X428029Y613865D01*
X428427Y613269D01*
X429022Y612871D01*
X429724Y612732D01*
X430427Y612871D01*
X431022Y613269D01*
X431420Y613865D01*
X431560Y614567D01*
X431420Y615269D01*
X431022Y615865D01*
X430427Y616262D01*
X429724Y616402D01*
D02*
G37*
G36*
X517717Y617977D02*
X517014Y617837D01*
X516419Y617440D01*
X516021Y616844D01*
X515881Y616142D01*
X516021Y615439D01*
X516419Y614844D01*
X517014Y614446D01*
X517717Y614306D01*
X518419Y614446D01*
X519014Y614844D01*
X519412Y615439D01*
X519552Y616142D01*
X519412Y616844D01*
X519014Y617440D01*
X518419Y617837D01*
X517717Y617977D01*
D02*
G37*
G36*
X506890D02*
X506187Y617837D01*
X505592Y617440D01*
X505194Y616844D01*
X505055Y616142D01*
X505194Y615439D01*
X505592Y614844D01*
X506111Y614497D01*
X506153Y614173D01*
X506111Y613849D01*
X505592Y613502D01*
X505194Y612907D01*
X505055Y612205D01*
X505194Y611502D01*
X505592Y610907D01*
X506187Y610509D01*
X506890Y610369D01*
X507592Y610509D01*
X508187Y610907D01*
X508585Y611502D01*
X508725Y612205D01*
X508585Y612907D01*
X508187Y613502D01*
X507668Y613849D01*
X507627Y614173D01*
X507668Y614497D01*
X508187Y614844D01*
X508585Y615439D01*
X508725Y616142D01*
X508585Y616844D01*
X508187Y617440D01*
X507592Y617837D01*
X506890Y617977D01*
D02*
G37*
G36*
X527953Y614434D02*
X527250Y614294D01*
X526655Y613896D01*
X526257Y613301D01*
X526118Y612598D01*
X526257Y611896D01*
X526655Y611301D01*
X527250Y610903D01*
X527953Y610763D01*
X528655Y610903D01*
X529250Y611301D01*
X529648Y611896D01*
X529788Y612598D01*
X529648Y613301D01*
X529250Y613896D01*
X528655Y614294D01*
X527953Y614434D01*
D02*
G37*
G36*
X415748Y616402D02*
X415046Y616262D01*
X414450Y615865D01*
X414052Y615269D01*
X413913Y614567D01*
X414052Y613865D01*
X414450Y613269D01*
X415046Y612871D01*
X415748Y612732D01*
X416450Y612871D01*
X417046Y613269D01*
X417444Y613865D01*
X417583Y614567D01*
X417444Y615269D01*
X417046Y615865D01*
X416450Y616262D01*
X415748Y616402D01*
D02*
G37*
%LPD*%
G36*
X481818Y562094D02*
X481784Y562044D01*
X481572Y561726D01*
X481432Y561024D01*
X481450Y560936D01*
X450233Y529719D01*
X449679Y529949D01*
Y531610D01*
X480227Y562158D01*
X480315Y562141D01*
X481017Y562281D01*
X481335Y562493D01*
X481386Y562527D01*
X481818Y562094D01*
D02*
G37*
G36*
X480275Y566327D02*
X480090Y565767D01*
X479613Y565672D01*
X479017Y565274D01*
X478619Y564679D01*
X478480Y563976D01*
X478497Y563889D01*
X475832Y561224D01*
X475181Y561421D01*
X475121Y561726D01*
X474723Y562321D01*
X474127Y562719D01*
X473425Y562859D01*
X472723Y562719D01*
X472127Y562321D01*
X471942Y562043D01*
X471457D01*
X471067Y561966D01*
X470736Y561745D01*
X465879Y556888D01*
X465551Y556953D01*
X464849Y556814D01*
X464254Y556416D01*
X463856Y555820D01*
X463716Y555118D01*
X463856Y554416D01*
X464254Y553820D01*
X464849Y553422D01*
X465551Y553283D01*
X466254Y553422D01*
X466849Y553820D01*
X467247Y554416D01*
X467386Y555118D01*
X467321Y555446D01*
X471484Y559609D01*
X472127Y559726D01*
X472723Y559328D01*
X473027Y559268D01*
X473225Y558616D01*
X448433Y533825D01*
X447879Y534055D01*
Y546542D01*
X464448Y563111D01*
X464713Y563508D01*
X464723Y563558D01*
X464880Y563663D01*
X465278Y564258D01*
X465418Y564961D01*
X465278Y565663D01*
X464993Y566090D01*
X465210Y566635D01*
X465259Y566690D01*
X479881D01*
X480275Y566327D01*
D02*
G37*
D10*
X589764Y514764D02*
D03*
X594488D02*
D03*
D12*
X548228Y568504D02*
D03*
Y573228D02*
D03*
D39*
X437655Y586447D02*
X445866Y594658D01*
X439456Y585702D02*
X449803Y596049D01*
X441256Y584956D02*
X453740Y597441D01*
X441256Y519011D02*
Y584956D01*
X445866Y594658D02*
Y602362D01*
X449803Y596049D02*
Y602362D01*
X453740Y597441D02*
Y602362D01*
X437655Y520503D02*
Y586447D01*
X439456Y519757D02*
Y585702D01*
X435039Y609252D02*
X441929Y602362D01*
X547835Y568898D02*
X548228Y568504D01*
X543307Y568898D02*
X547835D01*
X543307Y572835D02*
X547835D01*
X548228Y573228D01*
X455655Y524960D02*
X478108Y547413D01*
X453856Y525706D02*
X477362Y549213D01*
X452056Y527266D02*
X476955Y552165D01*
X450255Y528011D02*
X483268Y561024D01*
X455655Y435602D02*
Y524960D01*
X478108Y547413D02*
X499184D01*
X453856Y434857D02*
Y525706D01*
X477362Y549213D02*
X495079D01*
X452056Y434111D02*
Y527266D01*
X476955Y552165D02*
X479331D01*
X450255Y433365D02*
Y528011D01*
X450787Y573819D02*
Y588583D01*
X443055Y566087D02*
X450787Y573819D01*
X443055Y412929D02*
Y566087D01*
X471102Y780512D02*
X482913Y768701D01*
X445866Y780512D02*
X471102D01*
X400591Y735236D02*
X445866Y780512D01*
X400591Y622047D02*
Y735236D01*
Y622047D02*
X413386Y609252D01*
X435039D01*
X432087Y514934D02*
X437655Y520503D01*
X432087Y510236D02*
Y514934D01*
X431102Y509252D02*
X432087Y510236D01*
X434055Y514357D02*
X439456Y519757D01*
X434055Y494095D02*
Y514357D01*
X433071Y493110D02*
X434055Y494095D01*
X436024Y513779D02*
X441256Y519011D01*
X444855Y549859D02*
X462910Y567913D01*
X444855Y431129D02*
Y549859D01*
X446656Y547049D02*
X463583Y563976D01*
X446656Y431874D02*
Y547049D01*
X448455Y532117D02*
X480315Y563976D01*
X448455Y432620D02*
Y532117D01*
X436024Y488189D02*
Y513779D01*
X495079Y549213D02*
X499016Y553150D01*
X462910Y567913D02*
X481299D01*
X463583Y563976D02*
Y564961D01*
X499184Y547413D02*
X502953Y551181D01*
X455655Y435602D02*
X466158Y425100D01*
X500884D01*
X513583Y412402D01*
X453856Y434857D02*
X465412Y423300D01*
X492684D01*
X444855Y431129D02*
X453583Y422402D01*
X446656Y431874D02*
X463583Y414947D01*
X448455Y432620D02*
X463175Y417900D01*
X450255Y433365D02*
X463921Y419700D01*
X452056Y434111D02*
X464667Y421500D01*
X443055Y412929D02*
X443583Y412402D01*
X492684Y423300D02*
X503583Y412402D01*
X464667Y421500D02*
X484484D01*
X493583Y412402D01*
X463921Y419700D02*
X476284D01*
X483583Y412402D01*
X463175Y417900D02*
X468084D01*
X473583Y412402D01*
X463583D02*
Y414947D01*
X453583Y412402D02*
Y422402D01*
X587451Y508858D02*
X589764Y511171D01*
Y514764D01*
X594488Y511221D02*
X596851Y508858D01*
X594488Y511221D02*
Y514764D01*
D40*
X471457Y561024D02*
X473425D01*
X465551Y555118D02*
X471457Y561024D01*
D41*
X399606Y575787D02*
Y605315D01*
X875000Y473997D02*
Y464000D01*
X879998D01*
X881664Y465666D01*
Y467332D01*
X879998Y468998D01*
X875000D01*
X879998D01*
X881664Y470665D01*
Y472331D01*
X879998Y473997D01*
X875000D01*
X886663Y464000D02*
X889995D01*
X891661Y465666D01*
Y468998D01*
X889995Y470665D01*
X886663D01*
X884997Y468998D01*
Y465666D01*
X886663Y464000D01*
X896660Y472331D02*
Y470665D01*
X894993D01*
X898326D01*
X896660D01*
Y465666D01*
X898326Y464000D01*
X904990Y472331D02*
Y470665D01*
X903324D01*
X906656D01*
X904990D01*
Y465666D01*
X906656Y464000D01*
X913321D02*
X916653D01*
X918319Y465666D01*
Y468998D01*
X916653Y470665D01*
X913321D01*
X911655Y468998D01*
Y465666D01*
X913321Y464000D01*
X921652D02*
Y470665D01*
X923318D01*
X924984Y468998D01*
Y464000D01*
Y468998D01*
X926650Y470665D01*
X928316Y468998D01*
Y464000D01*
X941645Y473997D02*
Y464000D01*
X948310D01*
X953308Y470665D02*
X956640D01*
X958306Y468998D01*
Y464000D01*
X953308D01*
X951642Y465666D01*
X953308Y467332D01*
X958306D01*
X961639Y470665D02*
Y465666D01*
X963305Y464000D01*
X968303D01*
Y462334D01*
X966637Y460668D01*
X964971D01*
X968303Y464000D02*
Y470665D01*
X976634Y464000D02*
X973302D01*
X971635Y465666D01*
Y468998D01*
X973302Y470665D01*
X976634D01*
X978300Y468998D01*
Y467332D01*
X971635D01*
X981632Y470665D02*
Y464000D01*
Y467332D01*
X983298Y468998D01*
X984964Y470665D01*
X986631D01*
D42*
X422638Y605315D02*
X424606D01*
X420669D02*
X422638D01*
X411417D02*
X420669D01*
X396654Y620079D02*
X411417Y605315D01*
X396654Y620079D02*
Y774606D01*
X741142Y660433D02*
Y662402D01*
Y664370D01*
X738346Y667165D02*
X741142Y664370D01*
X738346Y667165D02*
Y768701D01*
Y778386D01*
X732283Y784449D02*
X738346Y778386D01*
X406496Y784449D02*
X732283D01*
X396654Y774606D02*
X406496Y784449D01*
D44*
X492913Y768701D02*
D03*
X738346D02*
D03*
X625472D02*
D03*
X679134Y412402D02*
D03*
X443583D02*
D03*
D45*
X482913Y768701D02*
D03*
X472913D02*
D03*
X462913D02*
D03*
X452913D02*
D03*
X442913D02*
D03*
X728346D02*
D03*
X718347D02*
D03*
X615472D02*
D03*
X605472D02*
D03*
X595472D02*
D03*
X585472D02*
D03*
X575472D02*
D03*
X565472D02*
D03*
X555472D02*
D03*
X768701Y452913D02*
D03*
Y462913D02*
D03*
Y472913D02*
D03*
Y482913D02*
D03*
Y492913D02*
D03*
Y502913D02*
D03*
Y512913D02*
D03*
X689134Y412402D02*
D03*
X412402Y647835D02*
D03*
Y667835D02*
D03*
Y677835D02*
D03*
Y687835D02*
D03*
Y697835D02*
D03*
Y707835D02*
D03*
Y717835D02*
D03*
Y727835D02*
D03*
Y657835D02*
D03*
X513583Y412402D02*
D03*
X503583D02*
D03*
X493583D02*
D03*
X483583D02*
D03*
X473583D02*
D03*
X463583D02*
D03*
X453583D02*
D03*
D46*
X768701Y442913D02*
D03*
X412402Y737835D02*
D03*
D47*
X626850Y659449D02*
D03*
X616850D02*
D03*
X606850D02*
D03*
X596850D02*
D03*
X574803Y456693D02*
D03*
X753937Y647638D02*
D03*
X715394Y644685D02*
D03*
X725394Y722441D02*
D03*
X537402Y565350D02*
D03*
Y555350D02*
D03*
Y545350D02*
D03*
Y535350D02*
D03*
D48*
X600236Y403386D02*
D03*
Y423386D02*
D03*
X620236D02*
D03*
Y403386D02*
D03*
X560866D02*
D03*
Y423386D02*
D03*
X580866D02*
D03*
Y403386D02*
D03*
D49*
X610236Y413386D02*
D03*
X570866D02*
D03*
D50*
X413386D02*
D03*
Y767717D02*
D03*
X767717D02*
D03*
Y413386D02*
D03*
D51*
X403543Y498032D02*
D03*
Y493110D02*
D03*
Y502953D02*
D03*
Y488189D02*
D03*
Y547244D02*
D03*
Y542323D02*
D03*
D52*
Y507874D02*
D03*
Y552165D02*
D03*
D53*
X513779Y699803D02*
D03*
Y678150D02*
D03*
X430118Y592520D02*
D03*
X432087Y593504D02*
D03*
Y591535D02*
D03*
X517717Y621063D02*
D03*
Y616142D02*
D03*
X502953Y635827D02*
D03*
X508858Y629921D02*
D03*
X506890Y633858D02*
D03*
X512795Y627953D02*
D03*
X444882Y708661D02*
D03*
Y688976D02*
D03*
Y669291D02*
D03*
X561614Y458858D02*
D03*
X562598Y472441D02*
D03*
X562008Y466535D02*
D03*
X607327Y489026D02*
D03*
Y482726D02*
D03*
X573776Y485826D02*
D03*
Y482726D02*
D03*
X596851Y475350D02*
D03*
X581151D02*
D03*
X640748Y493110D02*
D03*
X636811D02*
D03*
X640748Y477362D02*
D03*
X636811D02*
D03*
X548228Y482776D02*
D03*
X548228Y485236D02*
D03*
X631890Y485728D02*
D03*
X540488Y474409D02*
D03*
X544158D02*
D03*
X544291Y490158D02*
D03*
X540354D02*
D03*
X409646Y578346D02*
D03*
Y602756D02*
D03*
X399606Y605315D02*
D03*
Y575787D02*
D03*
X530512Y577756D02*
D03*
X530511Y581692D02*
D03*
X529528Y586614D02*
D03*
X525591Y583661D02*
D03*
X662715Y597754D02*
D03*
X656810Y603660D02*
D03*
X651024Y609385D02*
D03*
X456693Y610236D02*
D03*
X453740Y602362D02*
D03*
X445866D02*
D03*
X449803D02*
D03*
X441929D02*
D03*
X690945Y592520D02*
D03*
Y596457D02*
D03*
X688976Y601378D02*
D03*
X669290Y592519D02*
D03*
X690945Y584646D02*
D03*
X660433D02*
D03*
X651575Y589567D02*
D03*
X639173Y618504D02*
D03*
X626968Y611221D02*
D03*
X638779Y613189D02*
D03*
X646654Y611221D02*
D03*
X652559Y605315D02*
D03*
X658465Y599409D02*
D03*
X679134Y570866D02*
D03*
X694882Y592520D02*
D03*
X687008D02*
D03*
X694882Y584646D02*
D03*
X687008D02*
D03*
X626968Y569882D02*
D03*
X652559Y567913D02*
D03*
X638779D02*
D03*
X652559Y585630D02*
D03*
X664370Y582677D02*
D03*
X625000Y640748D02*
D03*
X633858Y641732D02*
D03*
Y627953D02*
D03*
X700787Y611221D02*
D03*
X685039D02*
D03*
X705709Y583661D02*
D03*
X702756Y596457D02*
D03*
X696850Y579724D02*
D03*
X669291Y587598D02*
D03*
X692913Y570866D02*
D03*
X701772Y586614D02*
D03*
X688976Y578740D02*
D03*
X671260Y580709D02*
D03*
X702756Y601378D02*
D03*
X574213Y656890D02*
D03*
X567520D02*
D03*
X593504Y649606D02*
D03*
X611221Y626968D02*
D03*
X595472D02*
D03*
X575787D02*
D03*
X554134Y569882D02*
D03*
Y591535D02*
D03*
Y611221D02*
D03*
X577756Y647638D02*
D03*
X573819Y638779D02*
D03*
X539370Y633858D02*
D03*
X553150Y633858D02*
D03*
X515748Y660433D02*
D03*
X523622Y617126D02*
D03*
X513548Y623784D02*
D03*
X607283Y643701D02*
D03*
X603346Y646654D02*
D03*
X599409Y649606D02*
D03*
X590551Y653543D02*
D03*
X586614Y647638D02*
D03*
X588583Y650591D02*
D03*
X574803Y687992D02*
D03*
X581693D02*
D03*
X546260Y540354D02*
D03*
X546260Y553150D02*
D03*
X523622Y601378D02*
D03*
X527953Y612598D02*
D03*
X543307D02*
D03*
X538386Y606299D02*
D03*
X535039Y591929D02*
D03*
X543307Y595472D02*
D03*
Y568898D02*
D03*
Y572835D02*
D03*
X638779Y477362D02*
D03*
Y493110D02*
D03*
X631890Y482283D02*
D03*
X631890Y489173D02*
D03*
X618110D02*
D03*
Y482283D02*
D03*
X535433Y604138D02*
D03*
X513221Y563453D02*
D03*
X521654Y557087D02*
D03*
X593651Y475350D02*
D03*
X577951D02*
D03*
X584251D02*
D03*
X595472Y464567D02*
D03*
X595472Y450787D02*
D03*
X582677Y450787D02*
D03*
Y464567D02*
D03*
X542323Y490158D02*
D03*
Y474409D02*
D03*
X548228Y480315D02*
D03*
X562008D02*
D03*
Y485236D02*
D03*
X607283Y485826D02*
D03*
X573672Y495226D02*
D03*
X573624Y479526D02*
D03*
X607283Y492126D02*
D03*
X574803Y554134D02*
D03*
X621063Y532480D02*
D03*
X613189Y543307D02*
D03*
X621063Y537402D02*
D03*
X583661Y544095D02*
D03*
X587205Y532480D02*
D03*
X587598Y554134D02*
D03*
X589567Y537402D02*
D03*
X587598Y522638D02*
D03*
X583661Y526575D02*
D03*
X550197Y537402D02*
D03*
X554134D02*
D03*
X520669Y509449D02*
D03*
X511811Y541339D02*
D03*
X478505Y537243D02*
D03*
X474409Y539370D02*
D03*
X529528Y557087D02*
D03*
X514763Y566928D02*
D03*
X518700Y562991D02*
D03*
X497206Y616967D02*
D03*
X478346Y533465D02*
D03*
X513779Y588583D02*
D03*
X526575Y591535D02*
D03*
X520669Y598425D02*
D03*
X513604Y603522D02*
D03*
X506890Y612205D02*
D03*
X508858Y622047D02*
D03*
X495079Y612205D02*
D03*
X478346Y644685D02*
D03*
X484252Y621063D02*
D03*
X528150Y706299D02*
D03*
X513189D02*
D03*
X457677Y592520D02*
D03*
X470472D02*
D03*
X462008Y578346D02*
D03*
Y585039D02*
D03*
X450787Y588583D02*
D03*
X469488D02*
D03*
X465551Y584646D02*
D03*
X467520Y578740D02*
D03*
X515748Y595472D02*
D03*
X513779Y607283D02*
D03*
X475197Y617913D02*
D03*
X459449Y622244D02*
D03*
X467717Y618307D02*
D03*
X464567Y628937D02*
D03*
X431102Y509252D02*
D03*
X433071Y493110D02*
D03*
X470472Y602362D02*
D03*
X498032Y590551D02*
D03*
X486221D02*
D03*
X480315Y602362D02*
D03*
X492126D02*
D03*
X498032D02*
D03*
X486221D02*
D03*
X494488Y620472D02*
D03*
X490158Y612205D02*
D03*
X483268Y615158D02*
D03*
X481299Y612205D02*
D03*
X499902D02*
D03*
X422638Y605315D02*
D03*
X424606D02*
D03*
X420669D02*
D03*
X419095Y585433D02*
D03*
X415158D02*
D03*
X417126D02*
D03*
X627953Y531496D02*
D03*
X593504Y533653D02*
D03*
X605315Y531307D02*
D03*
X506890Y616142D02*
D03*
X502953Y612205D02*
D03*
X436024Y488189D02*
D03*
X625000Y543701D02*
D03*
X623032Y559055D02*
D03*
X620079Y556102D02*
D03*
X492126Y544291D02*
D03*
X499016Y553150D02*
D03*
X497047Y558071D02*
D03*
X503937Y602362D02*
D03*
Y578740D02*
D03*
X480315D02*
D03*
X473425Y561024D02*
D03*
X481299Y567913D02*
D03*
X465551Y555118D02*
D03*
X463583Y564961D02*
D03*
X502953Y551181D02*
D03*
X521654Y565551D02*
D03*
X520669Y570866D02*
D03*
X715394Y651772D02*
D03*
Y649606D02*
D03*
Y653937D02*
D03*
X740551Y641339D02*
D03*
X730315D02*
D03*
X720079D02*
D03*
X422736Y614567D02*
D03*
X429724D02*
D03*
X415748D02*
D03*
X741142Y662402D02*
D03*
Y660433D02*
D03*
Y664370D02*
D03*
X479331Y552165D02*
D03*
X508504Y447933D02*
D03*
X483268Y561024D02*
D03*
X480315Y563976D02*
D03*
X439961Y472441D02*
D03*
Y511811D02*
D03*
Y492126D02*
D03*
X593504Y638779D02*
D03*
X528543Y605315D02*
D03*
X539370Y599409D02*
D03*
X522638Y581693D02*
D03*
X541339Y601841D02*
D03*
X492126Y463583D02*
D03*
Y520669D02*
D03*
X535433Y586614D02*
D03*
X531496Y608268D02*
D03*
X492126Y578740D02*
D03*
X503937Y590551D02*
D03*
X480315D02*
D03*
X492126D02*
D03*
X489605Y568929D02*
D03*
X524606Y570865D02*
D03*
X598425Y538878D02*
D03*
X568451Y531050D02*
D03*
X603839Y540354D02*
D03*
X565945Y534449D02*
D03*
X608268Y543307D02*
D03*
X599409Y523622D02*
D03*
X609252Y554134D02*
D03*
X576772Y522638D02*
D03*
X595472Y520669D02*
D03*
X581151D02*
D03*
X561024Y534449D02*
D03*
X556102D02*
D03*
X620079Y542323D02*
D03*
X573819Y526575D02*
D03*
X570866Y520669D02*
D03*
X587451Y508858D02*
D03*
X596851D02*
D03*
X558119Y476426D02*
D03*
X558071Y491142D02*
D03*
X725394Y699803D02*
D03*
X721457D02*
D03*
X717520D02*
D03*
Y703740D02*
D03*
X721457D02*
D03*
X725394D02*
D03*
X729331D02*
D03*
X733268D02*
D03*
Y699803D02*
D03*
X729331D02*
D03*
X733268Y695866D02*
D03*
X729331D02*
D03*
X721457D02*
D03*
X717520D02*
D03*
X725394D02*
D03*
X534449Y577756D02*
D03*
X512402Y514173D02*
D03*
X529134D02*
D03*
X586614Y711614D02*
D03*
X580709Y705709D02*
D03*
X586614Y701772D02*
D03*
X577756Y692913D02*
D03*
X590551Y737205D02*
D03*
X492942Y568898D02*
D03*
X488189Y565945D02*
D03*
X505905Y562008D02*
D03*
X497688Y569243D02*
D03*
X569882Y561024D02*
D03*
X574803Y559055D02*
D03*
X509842Y557086D02*
D03*
X490158Y552734D02*
D03*
X450000Y606000D02*
D03*
X448000Y630087D02*
D03*
Y628118D02*
D03*
Y626150D02*
D03*
X601378Y459646D02*
D03*
Y450787D02*
D03*
X607283Y452756D02*
D03*
X609252Y466535D02*
D03*
X613976Y449606D02*
D03*
X622244Y455512D02*
D03*
X638779Y585630D02*
D03*
Y589567D02*
D03*
X621063Y648622D02*
D03*
X616142D02*
D03*
X608266Y638778D02*
D03*
X612205Y648622D02*
D03*
X596850Y637795D02*
D03*
X615158Y639764D02*
D03*
X617126Y643701D02*
D03*
M02*
