G04 Layer_Physical_Order=2*
G04 Layer_Color=36540*
%FSLAX25Y25*%
%MOIN*%
G70*
G01*
G75*
%ADD40C,0.00800*%
%ADD43C,0.02000*%
%ADD46C,0.05000*%
%ADD47C,0.06500*%
%ADD49O,0.04331X0.03543*%
%ADD54C,0.11024*%
%ADD55C,0.02400*%
G36*
X787402Y393701D02*
X393701D01*
Y787402D01*
X787402D01*
Y393701D01*
D02*
G37*
%LPC*%
G36*
X537402Y548477D02*
X536592Y548371D01*
X535838Y548058D01*
X535191Y547561D01*
X534694Y546914D01*
X534381Y546160D01*
X534275Y545350D01*
X534381Y544541D01*
X534694Y543787D01*
X535191Y543139D01*
X535838Y542643D01*
X536592Y542330D01*
X537402Y542224D01*
X538211Y542330D01*
X538965Y542643D01*
X539612Y543139D01*
X540109Y543787D01*
X540422Y544541D01*
X540528Y545350D01*
X540422Y546160D01*
X540109Y546914D01*
X539612Y547561D01*
X538965Y548058D01*
X538211Y548371D01*
X537402Y548477D01*
D02*
G37*
G36*
X583661Y545930D02*
X582959Y545790D01*
X582364Y545392D01*
X581966Y544797D01*
X581826Y544095D01*
X581966Y543392D01*
X582364Y542797D01*
X582959Y542399D01*
X583661Y542259D01*
X584364Y542399D01*
X584959Y542797D01*
X585357Y543392D01*
X585497Y544095D01*
X585357Y544797D01*
X584959Y545392D01*
X584364Y545790D01*
X583661Y545930D01*
D02*
G37*
G36*
X492126Y546127D02*
X491424Y545987D01*
X490828Y545589D01*
X490430Y544994D01*
X490291Y544291D01*
X490430Y543589D01*
X490828Y542994D01*
X491424Y542596D01*
X492126Y542456D01*
X492828Y542596D01*
X493424Y542994D01*
X493821Y543589D01*
X493961Y544291D01*
X493821Y544994D01*
X493424Y545589D01*
X492828Y545987D01*
X492126Y546127D01*
D02*
G37*
G36*
X625000Y545536D02*
X624298Y545396D01*
X623702Y544999D01*
X623304Y544403D01*
X623165Y543701D01*
X623304Y542998D01*
X623702Y542403D01*
X624298Y542005D01*
X625000Y541865D01*
X625702Y542005D01*
X626298Y542403D01*
X626696Y542998D01*
X626835Y543701D01*
X626696Y544403D01*
X626298Y544999D01*
X625702Y545396D01*
X625000Y545536D01*
D02*
G37*
G36*
X620079Y544158D02*
X619376Y544018D01*
X618781Y543621D01*
X618383Y543025D01*
X618244Y542323D01*
X618383Y541620D01*
X618781Y541025D01*
X619376Y540627D01*
X620079Y540488D01*
X620781Y540627D01*
X621377Y541025D01*
X621774Y541620D01*
X621914Y542323D01*
X621774Y543025D01*
X621377Y543621D01*
X620781Y544018D01*
X620079Y544158D01*
D02*
G37*
G36*
X608268Y545142D02*
X607565Y545003D01*
X606970Y544605D01*
X606572Y544009D01*
X606432Y543307D01*
X606572Y542605D01*
X606970Y542009D01*
X607565Y541611D01*
X608268Y541472D01*
X608970Y541611D01*
X609565Y542009D01*
X609963Y542605D01*
X610103Y543307D01*
X609963Y544009D01*
X609565Y544605D01*
X608970Y545003D01*
X608268Y545142D01*
D02*
G37*
G36*
X613189D02*
X612487Y545003D01*
X611891Y544605D01*
X611493Y544009D01*
X611354Y543307D01*
X611493Y542605D01*
X611891Y542009D01*
X612487Y541611D01*
X613189Y541472D01*
X613891Y541611D01*
X614487Y542009D01*
X614885Y542605D01*
X615024Y543307D01*
X614885Y544009D01*
X614487Y544605D01*
X613891Y545003D01*
X613189Y545142D01*
D02*
G37*
G36*
X546260Y554985D02*
X545557Y554845D01*
X544962Y554447D01*
X544564Y553852D01*
X544425Y553150D01*
X544564Y552447D01*
X544962Y551852D01*
X545557Y551454D01*
X546260Y551314D01*
X546962Y551454D01*
X547557Y551852D01*
X547955Y552447D01*
X548095Y553150D01*
X547955Y553852D01*
X547557Y554447D01*
X546962Y554845D01*
X546260Y554985D01*
D02*
G37*
G36*
X499016Y554985D02*
X498313Y554845D01*
X497718Y554447D01*
X497320Y553852D01*
X497181Y553150D01*
X497320Y552447D01*
X497718Y551852D01*
X498313Y551454D01*
X499016Y551314D01*
X499718Y551454D01*
X500314Y551852D01*
X500711Y552447D01*
X500851Y553150D01*
X500711Y553852D01*
X500314Y554447D01*
X499718Y554845D01*
X499016Y554985D01*
D02*
G37*
G36*
X537402Y558477D02*
X536592Y558371D01*
X535838Y558058D01*
X535191Y557561D01*
X534694Y556914D01*
X534381Y556160D01*
X534275Y555350D01*
X534381Y554541D01*
X534694Y553787D01*
X535191Y553139D01*
X535838Y552643D01*
X536592Y552330D01*
X537402Y552224D01*
X538211Y552330D01*
X538965Y552643D01*
X539612Y553139D01*
X540109Y553787D01*
X540422Y554541D01*
X540528Y555350D01*
X540422Y556160D01*
X540109Y556914D01*
X539612Y557561D01*
X538965Y558058D01*
X538211Y558371D01*
X537402Y558477D01*
D02*
G37*
G36*
X490158Y554569D02*
X489455Y554429D01*
X488860Y554032D01*
X488462Y553436D01*
X488322Y552734D01*
X488462Y552032D01*
X488860Y551436D01*
X489455Y551038D01*
X490158Y550899D01*
X490860Y551038D01*
X491455Y551436D01*
X491853Y552032D01*
X491993Y552734D01*
X491853Y553436D01*
X491455Y554032D01*
X490860Y554429D01*
X490158Y554569D01*
D02*
G37*
G36*
X406309Y554537D02*
X400778D01*
Y549794D01*
X401617D01*
X401799Y549194D01*
X401440Y548954D01*
X400916Y548170D01*
X400732Y547244D01*
X400916Y546319D01*
X401440Y545534D01*
X402224Y545010D01*
X403150Y544826D01*
X403937D01*
X404862Y545010D01*
X405647Y545534D01*
X406171Y546319D01*
X406355Y547244D01*
X406171Y548170D01*
X405647Y548954D01*
X405288Y549194D01*
X405470Y549794D01*
X406309D01*
Y554537D01*
D02*
G37*
G36*
X502953Y553016D02*
X502250Y552877D01*
X501655Y552479D01*
X501257Y551883D01*
X501118Y551181D01*
X501257Y550479D01*
X501655Y549883D01*
X502250Y549485D01*
X502953Y549346D01*
X503655Y549485D01*
X504250Y549883D01*
X504648Y550479D01*
X504788Y551181D01*
X504648Y551883D01*
X504250Y552479D01*
X503655Y552877D01*
X502953Y553016D01*
D02*
G37*
G36*
X479331Y554001D02*
X478628Y553861D01*
X478033Y553463D01*
X477635Y552868D01*
X477495Y552165D01*
X477635Y551463D01*
X478033Y550868D01*
X478628Y550470D01*
X479331Y550330D01*
X480033Y550470D01*
X480628Y550868D01*
X481026Y551463D01*
X481166Y552165D01*
X481026Y552868D01*
X480628Y553463D01*
X480033Y553861D01*
X479331Y554001D01*
D02*
G37*
G36*
X537402Y538477D02*
X536592Y538371D01*
X535838Y538058D01*
X535191Y537561D01*
X534694Y536914D01*
X534381Y536160D01*
X534275Y535350D01*
X534381Y534541D01*
X534694Y533787D01*
X535191Y533139D01*
X535838Y532643D01*
X536592Y532330D01*
X537402Y532224D01*
X538211Y532330D01*
X538965Y532643D01*
X539612Y533139D01*
X540109Y533787D01*
X540422Y534541D01*
X540528Y535350D01*
X540422Y536160D01*
X540109Y536914D01*
X539612Y537561D01*
X538965Y538058D01*
X538211Y538371D01*
X537402Y538477D01*
D02*
G37*
G36*
X554134Y539237D02*
X553432Y539097D01*
X552836Y538699D01*
X552438Y538104D01*
X552299Y537402D01*
X552438Y536699D01*
X552836Y536104D01*
X553432Y535706D01*
X553983Y535596D01*
X554236Y535331D01*
X554377Y535003D01*
X554267Y534449D01*
X554407Y533746D01*
X554805Y533151D01*
X555400Y532753D01*
X556102Y532614D01*
X556805Y532753D01*
X557400Y533151D01*
X557798Y533746D01*
X557938Y534449D01*
X557798Y535151D01*
X557400Y535746D01*
X556805Y536144D01*
X556253Y536254D01*
X556001Y536519D01*
X555859Y536847D01*
X555969Y537402D01*
X555829Y538104D01*
X555432Y538699D01*
X554836Y539097D01*
X554134Y539237D01*
D02*
G37*
G36*
X561024Y536284D02*
X560321Y536144D01*
X559726Y535746D01*
X559328Y535151D01*
X559188Y534449D01*
X559328Y533746D01*
X559726Y533151D01*
X560321Y532753D01*
X561024Y532614D01*
X561726Y532753D01*
X562321Y533151D01*
X562719Y533746D01*
X562859Y534449D01*
X562719Y535151D01*
X562321Y535746D01*
X561726Y536144D01*
X561024Y536284D01*
D02*
G37*
G36*
X478505Y539078D02*
X477803Y538939D01*
X477207Y538541D01*
X476809Y537945D01*
X476670Y537243D01*
X476809Y536541D01*
X477207Y535945D01*
X477514Y535740D01*
X477547Y535596D01*
X477475Y535047D01*
X477049Y534762D01*
X476651Y534167D01*
X476511Y533465D01*
X476651Y532762D01*
X477049Y532167D01*
X477644Y531769D01*
X478346Y531629D01*
X479049Y531769D01*
X479644Y532167D01*
X480042Y532762D01*
X480182Y533465D01*
X480042Y534167D01*
X479644Y534762D01*
X479337Y534968D01*
X479305Y535112D01*
X479376Y535660D01*
X479803Y535945D01*
X480200Y536541D01*
X480340Y537243D01*
X480200Y537945D01*
X479803Y538541D01*
X479207Y538939D01*
X478505Y539078D01*
D02*
G37*
G36*
X583661Y528410D02*
X582959Y528270D01*
X582364Y527873D01*
X581966Y527277D01*
X581826Y526575D01*
X581966Y525873D01*
X582364Y525277D01*
X582959Y524879D01*
X583661Y524740D01*
X584364Y524879D01*
X584959Y525277D01*
X585357Y525873D01*
X585497Y526575D01*
X585357Y527277D01*
X584959Y527873D01*
X584364Y528270D01*
X583661Y528410D01*
D02*
G37*
G36*
X568451Y532885D02*
X567749Y532745D01*
X567154Y532347D01*
X566756Y531752D01*
X566616Y531050D01*
X566756Y530347D01*
X567154Y529752D01*
X567749Y529354D01*
X568451Y529214D01*
X569153Y529354D01*
X569749Y529752D01*
X570147Y530347D01*
X570286Y531050D01*
X570147Y531752D01*
X569749Y532347D01*
X569153Y532745D01*
X568451Y532885D01*
D02*
G37*
G36*
X605315Y533143D02*
X604613Y533003D01*
X604017Y532605D01*
X603619Y532010D01*
X603480Y531307D01*
X603619Y530605D01*
X604017Y530010D01*
X604613Y529612D01*
X605315Y529472D01*
X606017Y529612D01*
X606613Y530010D01*
X607011Y530605D01*
X607150Y531307D01*
X607011Y532010D01*
X606613Y532605D01*
X606017Y533003D01*
X605315Y533143D01*
D02*
G37*
G36*
X474409Y541205D02*
X473707Y541066D01*
X473112Y540668D01*
X472714Y540072D01*
X472574Y539370D01*
X472714Y538668D01*
X473112Y538072D01*
X473707Y537675D01*
X474409Y537535D01*
X475112Y537675D01*
X475707Y538072D01*
X476105Y538668D01*
X476245Y539370D01*
X476105Y540072D01*
X475707Y540668D01*
X475112Y541066D01*
X474409Y541205D01*
D02*
G37*
G36*
X603839Y542190D02*
X603136Y542050D01*
X602541Y541652D01*
X602143Y541057D01*
X602003Y540354D01*
X602143Y539652D01*
X602541Y539057D01*
X603136Y538659D01*
X603839Y538519D01*
X604541Y538659D01*
X605136Y539057D01*
X605534Y539652D01*
X605674Y540354D01*
X605534Y541057D01*
X605136Y541652D01*
X604541Y542050D01*
X603839Y542190D01*
D02*
G37*
G36*
X511811Y543174D02*
X511109Y543034D01*
X510513Y542636D01*
X510115Y542041D01*
X509976Y541339D01*
X510115Y540636D01*
X510513Y540041D01*
X511109Y539643D01*
X511811Y539503D01*
X512513Y539643D01*
X513109Y540041D01*
X513507Y540636D01*
X513646Y541339D01*
X513507Y542041D01*
X513109Y542636D01*
X512513Y543034D01*
X511811Y543174D01*
D02*
G37*
G36*
X598425Y540713D02*
X597723Y540574D01*
X597127Y540176D01*
X596730Y539580D01*
X596590Y538878D01*
X596730Y538176D01*
X597127Y537580D01*
X597723Y537182D01*
X598425Y537043D01*
X599127Y537182D01*
X599723Y537580D01*
X600121Y538176D01*
X600260Y538878D01*
X600121Y539580D01*
X599723Y540176D01*
X599127Y540574D01*
X598425Y540713D01*
D02*
G37*
G36*
X565945Y536284D02*
X565243Y536144D01*
X564647Y535746D01*
X564249Y535151D01*
X564110Y534449D01*
X564249Y533746D01*
X564647Y533151D01*
X565243Y532753D01*
X565945Y532614D01*
X566647Y532753D01*
X567243Y533151D01*
X567640Y533746D01*
X567780Y534449D01*
X567640Y535151D01*
X567243Y535746D01*
X566647Y536144D01*
X565945Y536284D01*
D02*
G37*
G36*
X589567Y539237D02*
X588865Y539097D01*
X588269Y538699D01*
X587871Y538104D01*
X587732Y537402D01*
X587871Y536699D01*
X588269Y536104D01*
X588865Y535706D01*
X589567Y535566D01*
X590269Y535706D01*
X590865Y536104D01*
X591262Y536699D01*
X591402Y537402D01*
X591262Y538104D01*
X590865Y538699D01*
X590269Y539097D01*
X589567Y539237D01*
D02*
G37*
G36*
X621063D02*
X620361Y539097D01*
X619765Y538699D01*
X619367Y538104D01*
X619228Y537402D01*
X619367Y536699D01*
X619765Y536104D01*
X620361Y535706D01*
X621063Y535566D01*
X621765Y535706D01*
X622361Y536104D01*
X622759Y536699D01*
X622898Y537402D01*
X622759Y538104D01*
X622361Y538699D01*
X621765Y539097D01*
X621063Y539237D01*
D02*
G37*
G36*
X692913Y572701D02*
X692211Y572562D01*
X691616Y572164D01*
X691218Y571568D01*
X691078Y570866D01*
X691218Y570164D01*
X691616Y569568D01*
X692211Y569171D01*
X692913Y569031D01*
X693616Y569171D01*
X694211Y569568D01*
X694609Y570164D01*
X694749Y570866D01*
X694609Y571568D01*
X694211Y572164D01*
X693616Y572562D01*
X692913Y572701D01*
D02*
G37*
G36*
X399606Y577623D02*
X398904Y577483D01*
X398309Y577085D01*
X397911Y576490D01*
X397771Y575787D01*
X397911Y575085D01*
X398309Y574490D01*
X398904Y574092D01*
X399606Y573952D01*
X400309Y574092D01*
X400904Y574490D01*
X401302Y575085D01*
X401442Y575787D01*
X401302Y576490D01*
X400904Y577085D01*
X400309Y577483D01*
X399606Y577623D01*
D02*
G37*
G36*
X530511Y583527D02*
X529809Y583388D01*
X529213Y582990D01*
X528816Y582395D01*
X528676Y581692D01*
X528816Y580990D01*
X529213Y580394D01*
X529732Y580048D01*
X529774Y579725D01*
X529733Y579400D01*
X529214Y579054D01*
X528816Y578458D01*
X528677Y577756D01*
X528816Y577054D01*
X529214Y576458D01*
X529810Y576060D01*
X530512Y575921D01*
X531214Y576060D01*
X531810Y576458D01*
X532157Y576978D01*
X532480Y577019D01*
X532804Y576978D01*
X533151Y576458D01*
X533746Y576060D01*
X534449Y575921D01*
X535151Y576060D01*
X535746Y576458D01*
X536144Y577054D01*
X536284Y577756D01*
X536144Y578458D01*
X535746Y579054D01*
X535151Y579452D01*
X534449Y579591D01*
X533746Y579452D01*
X533151Y579054D01*
X532804Y578534D01*
X532480Y578493D01*
X532157Y578534D01*
X531810Y579054D01*
X531291Y579400D01*
X531249Y579723D01*
X531290Y580048D01*
X531809Y580394D01*
X532207Y580990D01*
X532346Y581692D01*
X532207Y582395D01*
X531809Y582990D01*
X531214Y583388D01*
X530511Y583527D01*
D02*
G37*
G36*
X520669Y572701D02*
X519967Y572562D01*
X519372Y572164D01*
X518974Y571568D01*
X518834Y570866D01*
X518974Y570164D01*
X519372Y569568D01*
X519967Y569171D01*
X520669Y569031D01*
X521372Y569171D01*
X521967Y569568D01*
X522313Y570087D01*
X522638Y570128D01*
X522961Y570086D01*
X523308Y569568D01*
X523903Y569170D01*
X524606Y569030D01*
X525308Y569170D01*
X525903Y569568D01*
X526301Y570163D01*
X526441Y570865D01*
X526301Y571568D01*
X525903Y572163D01*
X525308Y572561D01*
X524606Y572701D01*
X523903Y572561D01*
X523308Y572163D01*
X522962Y571645D01*
X522637Y571603D01*
X522314Y571645D01*
X521967Y572164D01*
X521372Y572562D01*
X520669Y572701D01*
D02*
G37*
G36*
X489605Y570764D02*
X488902Y570625D01*
X488307Y570227D01*
X487909Y569631D01*
X487770Y568929D01*
X487897Y568287D01*
X487909Y568227D01*
X487569Y567657D01*
X487487Y567640D01*
X486891Y567243D01*
X486493Y566647D01*
X486354Y565945D01*
X486493Y565243D01*
X486891Y564647D01*
X487487Y564249D01*
X488189Y564110D01*
X488891Y564249D01*
X489487Y564647D01*
X489885Y565243D01*
X490024Y565945D01*
X489897Y566587D01*
X489885Y566647D01*
X490225Y567217D01*
X490307Y567234D01*
X490902Y567631D01*
X490963Y567722D01*
X491563D01*
X491645Y567600D01*
X492240Y567202D01*
X492942Y567062D01*
X493645Y567202D01*
X494240Y567600D01*
X494638Y568195D01*
X494778Y568898D01*
X494638Y569600D01*
X494240Y570195D01*
X493645Y570593D01*
X492942Y570733D01*
X492240Y570593D01*
X491645Y570195D01*
X491584Y570105D01*
X490984D01*
X490902Y570227D01*
X490307Y570625D01*
X489605Y570764D01*
D02*
G37*
G36*
X543307Y570733D02*
X542605Y570593D01*
X542009Y570195D01*
X541611Y569600D01*
X541472Y568898D01*
X541611Y568195D01*
X542009Y567600D01*
X542605Y567202D01*
X543307Y567062D01*
X544009Y567202D01*
X544605Y567600D01*
X545003Y568195D01*
X545142Y568898D01*
X545003Y569600D01*
X544605Y570195D01*
X544009Y570593D01*
X543307Y570733D01*
D02*
G37*
G36*
X497688Y571078D02*
X496986Y570939D01*
X496390Y570541D01*
X495993Y569945D01*
X495853Y569243D01*
X495993Y568541D01*
X496390Y567945D01*
X496986Y567548D01*
X497688Y567408D01*
X498390Y567548D01*
X498986Y567945D01*
X499384Y568541D01*
X499523Y569243D01*
X499384Y569945D01*
X498986Y570541D01*
X498390Y570939D01*
X497688Y571078D01*
D02*
G37*
G36*
X701772Y583528D02*
X701069Y583389D01*
X700474Y582991D01*
X700076Y582395D01*
X699936Y581693D01*
X700076Y580991D01*
X700474Y580395D01*
X701069Y579997D01*
X701772Y579858D01*
X702474Y579997D01*
X703069Y580395D01*
X703467Y580991D01*
X703607Y581693D01*
X703467Y582395D01*
X703069Y582991D01*
X702474Y583389D01*
X701772Y583528D01*
D02*
G37*
G36*
X664370Y584512D02*
X663668Y584373D01*
X663072Y583975D01*
X662675Y583380D01*
X662535Y582677D01*
X662675Y581975D01*
X663072Y581379D01*
X663668Y580982D01*
X664370Y580842D01*
X665072Y580982D01*
X665668Y581379D01*
X666066Y581975D01*
X666205Y582677D01*
X666066Y583380D01*
X665668Y583975D01*
X665072Y584373D01*
X664370Y584512D01*
D02*
G37*
G36*
X462008Y586875D02*
X461306Y586735D01*
X460710Y586337D01*
X460312Y585742D01*
X460173Y585039D01*
X460312Y584337D01*
X460710Y583742D01*
X461306Y583344D01*
X462008Y583204D01*
X462710Y583344D01*
X463306Y583742D01*
X463315Y583755D01*
X463352Y583768D01*
X464009Y583714D01*
X464254Y583348D01*
X464849Y582950D01*
X465551Y582810D01*
X466254Y582950D01*
X466849Y583348D01*
X467247Y583943D01*
X467386Y584646D01*
X467247Y585348D01*
X466849Y585943D01*
X466254Y586341D01*
X465551Y586481D01*
X464849Y586341D01*
X464254Y585943D01*
X464244Y585930D01*
X464207Y585917D01*
X463550Y585971D01*
X463306Y586337D01*
X462710Y586735D01*
X462008Y586875D01*
D02*
G37*
G36*
X671260Y582544D02*
X670557Y582404D01*
X669962Y582006D01*
X669564Y581411D01*
X669425Y580709D01*
X669564Y580006D01*
X669962Y579411D01*
X670557Y579013D01*
X671260Y578873D01*
X671962Y579013D01*
X672558Y579411D01*
X672955Y580006D01*
X673095Y580709D01*
X672955Y581411D01*
X672558Y582006D01*
X671962Y582404D01*
X671260Y582544D01*
D02*
G37*
G36*
X409646Y580182D02*
X408943Y580042D01*
X408348Y579644D01*
X407950Y579049D01*
X407810Y578346D01*
X407950Y577644D01*
X408348Y577049D01*
X408943Y576651D01*
X409646Y576511D01*
X410348Y576651D01*
X410943Y577049D01*
X411341Y577644D01*
X411481Y578346D01*
X411341Y579049D01*
X410943Y579644D01*
X410348Y580042D01*
X409646Y580182D01*
D02*
G37*
G36*
X467520Y580575D02*
X466817Y580436D01*
X466222Y580038D01*
X465824Y579443D01*
X465684Y578740D01*
X465824Y578038D01*
X466222Y577442D01*
X466817Y577045D01*
X467520Y576905D01*
X468222Y577045D01*
X468817Y577442D01*
X469215Y578038D01*
X469355Y578740D01*
X469215Y579443D01*
X468817Y580038D01*
X468222Y580436D01*
X467520Y580575D01*
D02*
G37*
G36*
X688976D02*
X688274Y580436D01*
X687679Y580038D01*
X687281Y579443D01*
X687141Y578740D01*
X687281Y578038D01*
X687679Y577442D01*
X688274Y577045D01*
X688976Y576905D01*
X689679Y577045D01*
X690274Y577442D01*
X690672Y578038D01*
X690812Y578740D01*
X690672Y579443D01*
X690274Y580038D01*
X689679Y580436D01*
X688976Y580575D01*
D02*
G37*
G36*
X574803Y560890D02*
X574101Y560751D01*
X573505Y560353D01*
X573108Y559757D01*
X572968Y559055D01*
X573108Y558353D01*
X573505Y557757D01*
X574101Y557360D01*
X574803Y557220D01*
X575505Y557360D01*
X576101Y557757D01*
X576499Y558353D01*
X576638Y559055D01*
X576499Y559757D01*
X576101Y560353D01*
X575505Y560751D01*
X574803Y560890D01*
D02*
G37*
G36*
X623032D02*
X622329Y560751D01*
X621734Y560353D01*
X621336Y559757D01*
X621196Y559055D01*
X621336Y558353D01*
X621548Y558035D01*
X621582Y557984D01*
X621150Y557552D01*
X621099Y557586D01*
X620781Y557798D01*
X620079Y557938D01*
X619376Y557798D01*
X618781Y557400D01*
X618383Y556805D01*
X618244Y556102D01*
X618383Y555400D01*
X618781Y554805D01*
X619376Y554407D01*
X620079Y554267D01*
X620781Y554407D01*
X621377Y554805D01*
X621774Y555400D01*
X621914Y556102D01*
X621774Y556805D01*
X621562Y557122D01*
X621528Y557173D01*
X621961Y557606D01*
X622011Y557572D01*
X622329Y557360D01*
X623032Y557220D01*
X623734Y557360D01*
X624329Y557757D01*
X624727Y558353D01*
X624867Y559055D01*
X624727Y559757D01*
X624329Y560353D01*
X623734Y560751D01*
X623032Y560890D01*
D02*
G37*
G36*
X473425Y562859D02*
X472723Y562719D01*
X472127Y562321D01*
X471730Y561726D01*
X471590Y561024D01*
X471730Y560321D01*
X472127Y559726D01*
X472723Y559328D01*
X473425Y559188D01*
X474127Y559328D01*
X474723Y559726D01*
X475121Y560321D01*
X475260Y561024D01*
X475121Y561726D01*
X474723Y562321D01*
X474127Y562719D01*
X473425Y562859D01*
D02*
G37*
G36*
X529528Y558922D02*
X528825Y558782D01*
X528230Y558384D01*
X527832Y557789D01*
X527692Y557087D01*
X527832Y556384D01*
X528230Y555789D01*
X528825Y555391D01*
X529528Y555251D01*
X530230Y555391D01*
X530825Y555789D01*
X531223Y556384D01*
X531363Y557087D01*
X531223Y557789D01*
X530825Y558384D01*
X530230Y558782D01*
X529528Y558922D01*
D02*
G37*
G36*
X465551Y556953D02*
X464849Y556814D01*
X464254Y556416D01*
X463856Y555820D01*
X463716Y555118D01*
X463856Y554416D01*
X464254Y553820D01*
X464849Y553422D01*
X465551Y553283D01*
X466254Y553422D01*
X466849Y553820D01*
X467247Y554416D01*
X467386Y555118D01*
X467247Y555820D01*
X466849Y556416D01*
X466254Y556814D01*
X465551Y556953D01*
D02*
G37*
G36*
X509842Y558921D02*
X509140Y558781D01*
X508544Y558384D01*
X508146Y557788D01*
X508007Y557086D01*
X508146Y556384D01*
X508544Y555788D01*
X509140Y555390D01*
X509842Y555251D01*
X510544Y555390D01*
X511140Y555788D01*
X511537Y556384D01*
X511677Y557086D01*
X511537Y557788D01*
X511140Y558384D01*
X510544Y558781D01*
X509842Y558921D01*
D02*
G37*
G36*
X521654Y558922D02*
X520951Y558782D01*
X520356Y558384D01*
X519958Y557789D01*
X519818Y557087D01*
X519958Y556384D01*
X520356Y555789D01*
X520951Y555391D01*
X521654Y555251D01*
X522356Y555391D01*
X522951Y555789D01*
X523349Y556384D01*
X523489Y557087D01*
X523349Y557789D01*
X522951Y558384D01*
X522356Y558782D01*
X521654Y558922D01*
D02*
G37*
G36*
X463583Y566796D02*
X462880Y566656D01*
X462285Y566258D01*
X461887Y565663D01*
X461747Y564961D01*
X461887Y564258D01*
X462285Y563663D01*
X462880Y563265D01*
X463583Y563125D01*
X464285Y563265D01*
X464880Y563663D01*
X465278Y564258D01*
X465418Y564961D01*
X465278Y565663D01*
X464880Y566258D01*
X464285Y566656D01*
X463583Y566796D01*
D02*
G37*
G36*
X521654Y567386D02*
X520951Y567247D01*
X520356Y566849D01*
X519958Y566254D01*
X519818Y565551D01*
X519915Y565066D01*
X519403Y564687D01*
X518700Y564827D01*
X517998Y564687D01*
X517402Y564289D01*
X517005Y563694D01*
X516865Y562991D01*
X517005Y562289D01*
X517402Y561694D01*
X517998Y561296D01*
X518700Y561156D01*
X519403Y561296D01*
X519998Y561694D01*
X520396Y562289D01*
X520535Y562991D01*
X520439Y563476D01*
X520951Y563856D01*
X521654Y563716D01*
X522356Y563856D01*
X522951Y564254D01*
X523349Y564849D01*
X523489Y565551D01*
X523349Y566254D01*
X522951Y566849D01*
X522356Y567247D01*
X521654Y567386D01*
D02*
G37*
G36*
X638779Y569749D02*
X638077Y569609D01*
X637482Y569211D01*
X637084Y568616D01*
X636944Y567913D01*
X637084Y567211D01*
X637482Y566616D01*
X638077Y566218D01*
X638779Y566078D01*
X639482Y566218D01*
X640077Y566616D01*
X640475Y567211D01*
X640615Y567913D01*
X640475Y568616D01*
X640077Y569211D01*
X639482Y569609D01*
X638779Y569749D01*
D02*
G37*
G36*
X537402Y568477D02*
X536592Y568371D01*
X535838Y568058D01*
X535191Y567561D01*
X534694Y566914D01*
X534381Y566160D01*
X534275Y565350D01*
X534381Y564541D01*
X534694Y563787D01*
X535191Y563139D01*
X535838Y562643D01*
X536592Y562330D01*
X537402Y562224D01*
X538211Y562330D01*
X538965Y562643D01*
X539612Y563139D01*
X540109Y563787D01*
X540422Y564541D01*
X540528Y565350D01*
X540422Y566160D01*
X540109Y566914D01*
X539612Y567561D01*
X538965Y568058D01*
X538211Y568371D01*
X537402Y568477D01*
D02*
G37*
G36*
X481299Y569749D02*
X480597Y569609D01*
X480001Y569211D01*
X479604Y568616D01*
X479464Y567913D01*
X479604Y567211D01*
X480001Y566616D01*
X480349Y566384D01*
X480342Y566265D01*
X480168Y565782D01*
X479613Y565672D01*
X479017Y565274D01*
X478619Y564679D01*
X478480Y563976D01*
X478619Y563274D01*
X479017Y562679D01*
X479613Y562281D01*
X480315Y562141D01*
X481017Y562281D01*
X481335Y562493D01*
X481386Y562527D01*
X481818Y562094D01*
X481784Y562044D01*
X481572Y561726D01*
X481432Y561024D01*
X481572Y560321D01*
X481970Y559726D01*
X482565Y559328D01*
X483268Y559188D01*
X483970Y559328D01*
X484565Y559726D01*
X484963Y560321D01*
X485103Y561024D01*
X484963Y561726D01*
X484565Y562321D01*
X483970Y562719D01*
X483268Y562859D01*
X482565Y562719D01*
X482248Y562507D01*
X482197Y562473D01*
X481764Y562906D01*
X481798Y562956D01*
X482011Y563274D01*
X482150Y563976D01*
X482011Y564679D01*
X481613Y565274D01*
X481265Y565506D01*
X481272Y565625D01*
X481446Y566107D01*
X482001Y566218D01*
X482597Y566616D01*
X482995Y567211D01*
X483135Y567913D01*
X482995Y568616D01*
X482597Y569211D01*
X482001Y569609D01*
X481299Y569749D01*
D02*
G37*
G36*
X569882Y562859D02*
X569180Y562719D01*
X568584Y562321D01*
X568186Y561726D01*
X568047Y561024D01*
X568186Y560321D01*
X568584Y559726D01*
X569180Y559328D01*
X569882Y559188D01*
X570584Y559328D01*
X571180Y559726D01*
X571578Y560321D01*
X571717Y561024D01*
X571578Y561726D01*
X571180Y562321D01*
X570584Y562719D01*
X569882Y562859D01*
D02*
G37*
G36*
X514763Y568764D02*
X514061Y568624D01*
X513465Y568226D01*
X513068Y567631D01*
X512928Y566928D01*
X513068Y566226D01*
X513306Y565870D01*
X513287Y565744D01*
X513036Y565251D01*
X512518Y565148D01*
X511923Y564750D01*
X511525Y564155D01*
X511385Y563453D01*
X511525Y562750D01*
X511923Y562155D01*
X512518Y561757D01*
X513221Y561617D01*
X513923Y561757D01*
X514518Y562155D01*
X514916Y562750D01*
X515056Y563453D01*
X514916Y564155D01*
X514678Y564511D01*
X514697Y564637D01*
X514948Y565130D01*
X515465Y565233D01*
X516061Y565631D01*
X516459Y566226D01*
X516598Y566928D01*
X516459Y567631D01*
X516061Y568226D01*
X515465Y568624D01*
X514763Y568764D01*
D02*
G37*
G36*
X573819Y528410D02*
X573117Y528270D01*
X572521Y527873D01*
X572123Y527277D01*
X571984Y526575D01*
X572123Y525873D01*
X572521Y525277D01*
X573117Y524879D01*
X573819Y524740D01*
X574521Y524879D01*
X575117Y525277D01*
X575515Y525873D01*
X575654Y526575D01*
X575515Y527277D01*
X575117Y527873D01*
X574521Y528270D01*
X573819Y528410D01*
D02*
G37*
G36*
X579134Y461678D02*
X578432Y461538D01*
X577836Y461140D01*
X577438Y460545D01*
X577299Y459842D01*
X577438Y459140D01*
X577836Y458545D01*
X578432Y458147D01*
X579134Y458007D01*
X579836Y458147D01*
X580432Y458545D01*
X580829Y459140D01*
X580969Y459842D01*
X580829Y460545D01*
X580432Y461140D01*
X579836Y461538D01*
X579134Y461678D01*
D02*
G37*
G36*
X586221D02*
X585518Y461538D01*
X584923Y461140D01*
X584525Y460545D01*
X584385Y459842D01*
X584525Y459140D01*
X584923Y458545D01*
X585518Y458147D01*
X586221Y458007D01*
X586923Y458147D01*
X587518Y458545D01*
X587916Y459140D01*
X588056Y459842D01*
X587916Y460545D01*
X587518Y461140D01*
X586923Y461538D01*
X586221Y461678D01*
D02*
G37*
G36*
X768701Y466797D02*
X767696Y466664D01*
X766759Y466276D01*
X765955Y465659D01*
X765338Y464855D01*
X764950Y463918D01*
X764818Y462913D01*
X764950Y461908D01*
X765338Y460972D01*
X765955Y460168D01*
X766759Y459550D01*
X767696Y459163D01*
X768701Y459030D01*
X769706Y459163D01*
X770642Y459550D01*
X771447Y460168D01*
X772064Y460972D01*
X772452Y461908D01*
X772584Y462913D01*
X772452Y463918D01*
X772064Y464855D01*
X771447Y465659D01*
X770642Y466276D01*
X769706Y466664D01*
X768701Y466797D01*
D02*
G37*
G36*
X601378Y461481D02*
X600676Y461341D01*
X600080Y460943D01*
X599682Y460348D01*
X599543Y459646D01*
X599682Y458943D01*
X600080Y458348D01*
X600676Y457950D01*
X601378Y457810D01*
X602080Y457950D01*
X602676Y458348D01*
X603074Y458943D01*
X603213Y459646D01*
X603074Y460348D01*
X602676Y460943D01*
X602080Y461341D01*
X601378Y461481D01*
D02*
G37*
G36*
X574803Y447024D02*
X573994Y446918D01*
X573240Y446605D01*
X572592Y446109D01*
X572095Y445461D01*
X571783Y444707D01*
X571676Y443898D01*
X571783Y443088D01*
X572095Y442334D01*
X572592Y441687D01*
X573240Y441190D01*
X573994Y440877D01*
X574803Y440771D01*
X575612Y440877D01*
X576367Y441190D01*
X577014Y441687D01*
X577511Y442334D01*
X577823Y443088D01*
X577930Y443898D01*
X577823Y444707D01*
X577511Y445461D01*
X577014Y446109D01*
X576367Y446605D01*
X575612Y446918D01*
X574803Y447024D01*
D02*
G37*
G36*
X508504Y449768D02*
X507802Y449629D01*
X507206Y449231D01*
X506808Y448635D01*
X506669Y447933D01*
X506808Y447231D01*
X507206Y446635D01*
X507802Y446238D01*
X508504Y446098D01*
X509206Y446238D01*
X509802Y446635D01*
X510199Y447231D01*
X510339Y447933D01*
X510199Y448635D01*
X509802Y449231D01*
X509206Y449629D01*
X508504Y449768D01*
D02*
G37*
G36*
X613976Y451442D02*
X613274Y451302D01*
X612679Y450904D01*
X612281Y450309D01*
X612141Y449606D01*
X612281Y448904D01*
X612679Y448309D01*
X613274Y447911D01*
X613976Y447771D01*
X614679Y447911D01*
X615274Y448309D01*
X615672Y448904D01*
X615812Y449606D01*
X615672Y450309D01*
X615274Y450904D01*
X614679Y451302D01*
X613976Y451442D01*
D02*
G37*
G36*
X541339Y476245D02*
X540636Y476105D01*
X540041Y475707D01*
X539643Y475112D01*
X539503Y474409D01*
X539643Y473707D01*
X540041Y473112D01*
X540636Y472714D01*
X541339Y472574D01*
X542041Y472714D01*
X542636Y473112D01*
X543034Y473707D01*
X543174Y474409D01*
X543034Y475112D01*
X542636Y475707D01*
X542041Y476105D01*
X541339Y476245D01*
D02*
G37*
G36*
X546063Y477032D02*
X545361Y476892D01*
X544765Y476495D01*
X544367Y475899D01*
X544228Y475197D01*
X544367Y474495D01*
X544765Y473899D01*
X545361Y473501D01*
X546063Y473362D01*
X546765Y473501D01*
X547361Y473899D01*
X547759Y474495D01*
X547898Y475197D01*
X547759Y475899D01*
X547361Y476495D01*
X546765Y476892D01*
X546063Y477032D01*
D02*
G37*
G36*
X581151Y477186D02*
X580449Y477046D01*
X579853Y476648D01*
X579456Y476053D01*
X579316Y475350D01*
X579456Y474648D01*
X579853Y474053D01*
X580449Y473655D01*
X581151Y473515D01*
X581853Y473655D01*
X582449Y474053D01*
X582847Y474648D01*
X582986Y475350D01*
X582847Y476053D01*
X582449Y476648D01*
X581853Y477046D01*
X581151Y477186D01*
D02*
G37*
G36*
X768701Y476797D02*
X767696Y476664D01*
X766759Y476276D01*
X765955Y475659D01*
X765338Y474855D01*
X764950Y473918D01*
X764818Y472913D01*
X764950Y471908D01*
X765338Y470972D01*
X765955Y470167D01*
X766759Y469550D01*
X767696Y469163D01*
X768701Y469030D01*
X769706Y469163D01*
X770642Y469550D01*
X771447Y470167D01*
X772064Y470972D01*
X772452Y471908D01*
X772584Y472913D01*
X772452Y473918D01*
X772064Y474855D01*
X771447Y475659D01*
X770642Y476276D01*
X769706Y476664D01*
X768701Y476797D01*
D02*
G37*
G36*
X582677Y466402D02*
X581975Y466262D01*
X581379Y465865D01*
X580982Y465269D01*
X580842Y464567D01*
X580982Y463865D01*
X581379Y463269D01*
X581975Y462871D01*
X582677Y462732D01*
X583380Y462871D01*
X583975Y463269D01*
X584373Y463865D01*
X584512Y464567D01*
X584373Y465269D01*
X583975Y465865D01*
X583380Y466262D01*
X582677Y466402D01*
D02*
G37*
G36*
X595472D02*
X594770Y466262D01*
X594175Y465865D01*
X593777Y465269D01*
X593637Y464567D01*
X593777Y463865D01*
X594175Y463269D01*
X594770Y462871D01*
X595472Y462732D01*
X596175Y462871D01*
X596770Y463269D01*
X597168Y463865D01*
X597308Y464567D01*
X597168Y465269D01*
X596770Y465865D01*
X596175Y466262D01*
X595472Y466402D01*
D02*
G37*
G36*
X609252Y468371D02*
X608550Y468231D01*
X607954Y467833D01*
X607556Y467238D01*
X607417Y466535D01*
X607556Y465833D01*
X607954Y465238D01*
X608550Y464840D01*
X609252Y464700D01*
X609954Y464840D01*
X610550Y465238D01*
X610948Y465833D01*
X611087Y466535D01*
X610948Y467238D01*
X610550Y467833D01*
X609954Y468231D01*
X609252Y468371D01*
D02*
G37*
G36*
X453583Y416285D02*
X452578Y416152D01*
X451641Y415765D01*
X450837Y415147D01*
X450220Y414343D01*
X449832Y413407D01*
X449699Y412402D01*
X449832Y411397D01*
X450220Y410460D01*
X450837Y409656D01*
X451641Y409039D01*
X452578Y408651D01*
X453583Y408518D01*
X454588Y408651D01*
X455524Y409039D01*
X456328Y409656D01*
X456946Y410460D01*
X457334Y411397D01*
X457466Y412402D01*
X457334Y413407D01*
X456946Y414343D01*
X456328Y415147D01*
X455524Y415765D01*
X454588Y416152D01*
X453583Y416285D01*
D02*
G37*
G36*
X463583D02*
X462578Y416152D01*
X461641Y415765D01*
X460837Y415147D01*
X460220Y414343D01*
X459832Y413407D01*
X459699Y412402D01*
X459832Y411397D01*
X460220Y410460D01*
X460837Y409656D01*
X461641Y409039D01*
X462578Y408651D01*
X463583Y408518D01*
X464588Y408651D01*
X465524Y409039D01*
X466328Y409656D01*
X466946Y410460D01*
X467334Y411397D01*
X467466Y412402D01*
X467334Y413407D01*
X466946Y414343D01*
X466328Y415147D01*
X465524Y415765D01*
X464588Y416152D01*
X463583Y416285D01*
D02*
G37*
G36*
X473583D02*
X472578Y416152D01*
X471641Y415765D01*
X470837Y415147D01*
X470220Y414343D01*
X469832Y413407D01*
X469699Y412402D01*
X469832Y411397D01*
X470220Y410460D01*
X470837Y409656D01*
X471641Y409039D01*
X472578Y408651D01*
X473583Y408518D01*
X474588Y408651D01*
X475524Y409039D01*
X476329Y409656D01*
X476946Y410460D01*
X477334Y411397D01*
X477466Y412402D01*
X477334Y413407D01*
X476946Y414343D01*
X476329Y415147D01*
X475524Y415765D01*
X474588Y416152D01*
X473583Y416285D01*
D02*
G37*
G36*
X610236Y418359D02*
X608949Y418190D01*
X607750Y417693D01*
X606720Y416902D01*
X605929Y415872D01*
X605432Y414673D01*
X605263Y413386D01*
X605432Y412099D01*
X605929Y410899D01*
X606720Y409869D01*
X607750Y409079D01*
X608949Y408582D01*
X610236Y408413D01*
X611523Y408582D01*
X612723Y409079D01*
X613753Y409869D01*
X614543Y410899D01*
X615040Y412099D01*
X615209Y413386D01*
X615040Y414673D01*
X614543Y415872D01*
X613753Y416902D01*
X612723Y417693D01*
X611523Y418190D01*
X610236Y418359D01*
D02*
G37*
G36*
X413386Y426526D02*
X411330Y426365D01*
X409325Y425883D01*
X407420Y425094D01*
X405662Y424017D01*
X404094Y422678D01*
X402755Y421110D01*
X401678Y419351D01*
X400888Y417447D01*
X400407Y415441D01*
X400245Y413386D01*
X400407Y411330D01*
X400888Y409325D01*
X401678Y407420D01*
X402755Y405662D01*
X404094Y404094D01*
X405662Y402755D01*
X407420Y401678D01*
X409325Y400888D01*
X411330Y400407D01*
X413386Y400245D01*
X415441Y400407D01*
X417447Y400888D01*
X419351Y401678D01*
X421110Y402755D01*
X422678Y404094D01*
X424017Y405662D01*
X425094Y407420D01*
X425883Y409325D01*
X426365Y411330D01*
X426526Y413386D01*
X426365Y415441D01*
X425883Y417447D01*
X425094Y419351D01*
X424017Y421110D01*
X422678Y422678D01*
X421110Y424017D01*
X419351Y425094D01*
X417447Y425883D01*
X415441Y426365D01*
X413386Y426526D01*
D02*
G37*
G36*
X767717D02*
X765661Y426365D01*
X763656Y425883D01*
X761751Y425094D01*
X759993Y424017D01*
X758425Y422678D01*
X757086Y421110D01*
X756008Y419351D01*
X755219Y417447D01*
X754738Y415441D01*
X754576Y413386D01*
X754738Y411330D01*
X755219Y409325D01*
X756008Y407420D01*
X757086Y405662D01*
X758425Y404094D01*
X759993Y402755D01*
X761751Y401678D01*
X763656Y400888D01*
X765661Y400407D01*
X767717Y400245D01*
X769772Y400407D01*
X771777Y400888D01*
X773682Y401678D01*
X775440Y402755D01*
X777008Y404094D01*
X778347Y405662D01*
X779425Y407420D01*
X780214Y409325D01*
X780695Y411330D01*
X780857Y413386D01*
X780695Y415441D01*
X780214Y417447D01*
X779425Y419351D01*
X778347Y421110D01*
X777008Y422678D01*
X775440Y424017D01*
X773682Y425094D01*
X771777Y425883D01*
X769772Y426365D01*
X767717Y426526D01*
D02*
G37*
G36*
X570866Y418359D02*
X569579Y418190D01*
X568379Y417693D01*
X567349Y416902D01*
X566559Y415872D01*
X566062Y414673D01*
X565893Y413386D01*
X566062Y412099D01*
X566559Y410899D01*
X567349Y409869D01*
X568379Y409079D01*
X569579Y408582D01*
X570866Y408413D01*
X572153Y408582D01*
X573353Y409079D01*
X574383Y409869D01*
X575173Y410899D01*
X575670Y412099D01*
X575839Y413386D01*
X575670Y414673D01*
X575173Y415872D01*
X574383Y416902D01*
X573353Y417693D01*
X572153Y418190D01*
X570866Y418359D01*
D02*
G37*
G36*
X447433Y416252D02*
X439733D01*
Y408552D01*
X447433D01*
Y416252D01*
D02*
G37*
G36*
X682984D02*
X675284D01*
Y408552D01*
X682984D01*
Y416252D01*
D02*
G37*
G36*
X772551Y446763D02*
X764851D01*
Y439063D01*
X772551D01*
Y446763D01*
D02*
G37*
G36*
X513583Y416285D02*
X512578Y416152D01*
X511641Y415765D01*
X510837Y415147D01*
X510220Y414343D01*
X509832Y413407D01*
X509699Y412402D01*
X509832Y411397D01*
X510220Y410460D01*
X510837Y409656D01*
X511641Y409039D01*
X512578Y408651D01*
X513583Y408518D01*
X514588Y408651D01*
X515524Y409039D01*
X516328Y409656D01*
X516946Y410460D01*
X517334Y411397D01*
X517466Y412402D01*
X517334Y413407D01*
X516946Y414343D01*
X516328Y415147D01*
X515524Y415765D01*
X514588Y416152D01*
X513583Y416285D01*
D02*
G37*
G36*
X483583D02*
X482578Y416152D01*
X481641Y415765D01*
X480837Y415147D01*
X480220Y414343D01*
X479832Y413407D01*
X479700Y412402D01*
X479832Y411397D01*
X480220Y410460D01*
X480837Y409656D01*
X481641Y409039D01*
X482578Y408651D01*
X483583Y408518D01*
X484588Y408651D01*
X485524Y409039D01*
X486329Y409656D01*
X486946Y410460D01*
X487334Y411397D01*
X487466Y412402D01*
X487334Y413407D01*
X486946Y414343D01*
X486329Y415147D01*
X485524Y415765D01*
X484588Y416152D01*
X483583Y416285D01*
D02*
G37*
G36*
X493583D02*
X492578Y416152D01*
X491641Y415765D01*
X490837Y415147D01*
X490220Y414343D01*
X489832Y413407D01*
X489699Y412402D01*
X489832Y411397D01*
X490220Y410460D01*
X490837Y409656D01*
X491641Y409039D01*
X492578Y408651D01*
X493583Y408518D01*
X494588Y408651D01*
X495524Y409039D01*
X496328Y409656D01*
X496946Y410460D01*
X497334Y411397D01*
X497466Y412402D01*
X497334Y413407D01*
X496946Y414343D01*
X496328Y415147D01*
X495524Y415765D01*
X494588Y416152D01*
X493583Y416285D01*
D02*
G37*
G36*
X503583D02*
X502578Y416152D01*
X501641Y415765D01*
X500837Y415147D01*
X500220Y414343D01*
X499832Y413407D01*
X499699Y412402D01*
X499832Y411397D01*
X500220Y410460D01*
X500837Y409656D01*
X501641Y409039D01*
X502578Y408651D01*
X503583Y408518D01*
X504588Y408651D01*
X505524Y409039D01*
X506328Y409656D01*
X506946Y410460D01*
X507334Y411397D01*
X507466Y412402D01*
X507334Y413407D01*
X506946Y414343D01*
X506328Y415147D01*
X505524Y415765D01*
X504588Y416152D01*
X503583Y416285D01*
D02*
G37*
G36*
X587451Y510694D02*
X586749Y510554D01*
X586154Y510156D01*
X585756Y509561D01*
X585616Y508858D01*
X585756Y508156D01*
X586154Y507560D01*
X586749Y507163D01*
X587451Y507023D01*
X588154Y507163D01*
X588749Y507560D01*
X589147Y508156D01*
X589286Y508858D01*
X589147Y509561D01*
X588749Y510156D01*
X588154Y510554D01*
X587451Y510694D01*
D02*
G37*
G36*
X431102Y511087D02*
X430400Y510948D01*
X429805Y510550D01*
X429407Y509954D01*
X429267Y509252D01*
X429407Y508550D01*
X429805Y507954D01*
X430400Y507556D01*
X431102Y507417D01*
X431805Y507556D01*
X432400Y507954D01*
X432798Y508550D01*
X432938Y509252D01*
X432798Y509954D01*
X432400Y510550D01*
X431805Y510948D01*
X431102Y511087D01*
D02*
G37*
G36*
X520669Y511284D02*
X519967Y511144D01*
X519372Y510746D01*
X518974Y510151D01*
X518834Y509449D01*
X518974Y508746D01*
X519372Y508151D01*
X519967Y507753D01*
X520669Y507614D01*
X521372Y507753D01*
X521967Y508151D01*
X522365Y508746D01*
X522505Y509449D01*
X522365Y510151D01*
X521967Y510746D01*
X521372Y511144D01*
X520669Y511284D01*
D02*
G37*
G36*
X406309Y510246D02*
X400778D01*
Y505502D01*
X401616D01*
X401798Y504902D01*
X401440Y504663D01*
X400916Y503878D01*
X400732Y502953D01*
X400916Y502027D01*
X401440Y501243D01*
X402224Y500719D01*
X403150Y500535D01*
X403937D01*
X404862Y500719D01*
X405647Y501243D01*
X406171Y502027D01*
X406355Y502953D01*
X406171Y503878D01*
X405647Y504663D01*
X405288Y504902D01*
X405470Y505502D01*
X406309D01*
Y510246D01*
D02*
G37*
G36*
X433071Y494945D02*
X432369Y494806D01*
X431773Y494408D01*
X431375Y493813D01*
X431236Y493110D01*
X431375Y492408D01*
X431773Y491813D01*
X432369Y491415D01*
X433071Y491275D01*
X433773Y491415D01*
X434369Y491813D01*
X434766Y492408D01*
X434906Y493110D01*
X434766Y493813D01*
X434369Y494408D01*
X433773Y494806D01*
X433071Y494945D01*
D02*
G37*
G36*
X640748Y494945D02*
X640046Y494806D01*
X639450Y494408D01*
X639052Y493813D01*
X638913Y493110D01*
X639052Y492408D01*
X639450Y491813D01*
X640046Y491415D01*
X640748Y491275D01*
X641450Y491415D01*
X642046Y491813D01*
X642444Y492408D01*
X642583Y493110D01*
X642444Y493813D01*
X642046Y494408D01*
X641450Y494806D01*
X640748Y494945D01*
D02*
G37*
G36*
X768701Y506797D02*
X767696Y506664D01*
X766759Y506276D01*
X765955Y505659D01*
X765338Y504855D01*
X764950Y503918D01*
X764818Y502913D01*
X764950Y501908D01*
X765338Y500972D01*
X765955Y500168D01*
X766759Y499550D01*
X767696Y499162D01*
X768701Y499030D01*
X769706Y499162D01*
X770642Y499550D01*
X771447Y500168D01*
X772064Y500972D01*
X772452Y501908D01*
X772584Y502913D01*
X772452Y503918D01*
X772064Y504855D01*
X771447Y505659D01*
X770642Y506276D01*
X769706Y506664D01*
X768701Y506797D01*
D02*
G37*
G36*
X576772Y524473D02*
X576069Y524333D01*
X575474Y523936D01*
X575076Y523340D01*
X574936Y522638D01*
X575076Y521936D01*
X575474Y521340D01*
X576069Y520942D01*
X576772Y520802D01*
X577474Y520942D01*
X578069Y521340D01*
X578467Y521936D01*
X578607Y522638D01*
X578467Y523340D01*
X578069Y523936D01*
X577474Y524333D01*
X576772Y524473D01*
D02*
G37*
G36*
X587598D02*
X586896Y524333D01*
X586301Y523936D01*
X585903Y523340D01*
X585763Y522638D01*
X585903Y521936D01*
X586301Y521340D01*
X586896Y520942D01*
X587598Y520802D01*
X588301Y520942D01*
X588896Y521340D01*
X589294Y521936D01*
X589434Y522638D01*
X589294Y523340D01*
X588896Y523936D01*
X588301Y524333D01*
X587598Y524473D01*
D02*
G37*
G36*
X599409Y525457D02*
X598707Y525318D01*
X598112Y524920D01*
X597714Y524324D01*
X597574Y523622D01*
X597714Y522920D01*
X598112Y522324D01*
X598707Y521926D01*
X599409Y521787D01*
X600112Y521926D01*
X600707Y522324D01*
X601105Y522920D01*
X601245Y523622D01*
X601105Y524324D01*
X600707Y524920D01*
X600112Y525318D01*
X599409Y525457D01*
D02*
G37*
G36*
X595472Y522505D02*
X594770Y522365D01*
X594175Y521967D01*
X593777Y521372D01*
X593637Y520669D01*
X593777Y519967D01*
X594175Y519372D01*
X594770Y518974D01*
X595472Y518834D01*
X596175Y518974D01*
X596770Y519372D01*
X597168Y519967D01*
X597308Y520669D01*
X597168Y521372D01*
X596770Y521967D01*
X596175Y522365D01*
X595472Y522505D01*
D02*
G37*
G36*
X512402Y516009D02*
X511699Y515869D01*
X511104Y515471D01*
X510706Y514876D01*
X510566Y514173D01*
X510706Y513471D01*
X511104Y512876D01*
X511699Y512478D01*
X512402Y512338D01*
X513104Y512478D01*
X513699Y512876D01*
X514097Y513471D01*
X514237Y514173D01*
X514097Y514876D01*
X513699Y515471D01*
X513104Y515869D01*
X512402Y516009D01*
D02*
G37*
G36*
X570866Y522505D02*
X570164Y522365D01*
X569568Y521967D01*
X569171Y521372D01*
X569031Y520669D01*
X569171Y519967D01*
X569568Y519372D01*
X570164Y518974D01*
X570866Y518834D01*
X571568Y518974D01*
X572164Y519372D01*
X572562Y519967D01*
X572701Y520669D01*
X572562Y521372D01*
X572164Y521967D01*
X571568Y522365D01*
X570866Y522505D01*
D02*
G37*
G36*
X581151D02*
X580449Y522365D01*
X579853Y521967D01*
X579456Y521372D01*
X579316Y520669D01*
X579456Y519967D01*
X579853Y519372D01*
X580449Y518974D01*
X581151Y518834D01*
X581853Y518974D01*
X582449Y519372D01*
X582847Y519967D01*
X582986Y520669D01*
X582847Y521372D01*
X582449Y521967D01*
X581853Y522365D01*
X581151Y522505D01*
D02*
G37*
G36*
X573776Y487661D02*
X573073Y487522D01*
X572478Y487124D01*
X572080Y486528D01*
X571940Y485826D01*
X572080Y485124D01*
X572478Y484528D01*
Y484024D01*
X572080Y483428D01*
X571940Y482726D01*
X572080Y482024D01*
X572478Y481428D01*
X573073Y481030D01*
X573776Y480891D01*
X574478Y481030D01*
X575073Y481428D01*
X575471Y482024D01*
X575611Y482726D01*
X575471Y483428D01*
X575073Y484024D01*
Y484528D01*
X575471Y485124D01*
X575611Y485826D01*
X575471Y486528D01*
X575073Y487124D01*
X574478Y487522D01*
X573776Y487661D01*
D02*
G37*
G36*
X607327Y484561D02*
X606624Y484422D01*
X606029Y484024D01*
X605631Y483428D01*
X605491Y482726D01*
X605631Y482024D01*
X606029Y481428D01*
X606624Y481030D01*
X607327Y480891D01*
X608029Y481030D01*
X608625Y481428D01*
X609022Y482024D01*
X609162Y482726D01*
X609022Y483428D01*
X608625Y484024D01*
X608029Y484422D01*
X607327Y484561D01*
D02*
G37*
G36*
X562008Y487072D02*
X561306Y486932D01*
X560710Y486534D01*
X560312Y485939D01*
X560173Y485236D01*
X560312Y484534D01*
X560710Y483939D01*
X561306Y483541D01*
X562008Y483401D01*
X562710Y483541D01*
X563306Y483939D01*
X563703Y484534D01*
X563843Y485236D01*
X563703Y485939D01*
X563306Y486534D01*
X562710Y486932D01*
X562008Y487072D01*
D02*
G37*
G36*
X618110Y484119D02*
X617408Y483979D01*
X616813Y483581D01*
X616415Y482986D01*
X616275Y482283D01*
X616415Y481581D01*
X616813Y480986D01*
X617408Y480588D01*
X618110Y480448D01*
X618813Y480588D01*
X619408Y480986D01*
X619806Y481581D01*
X619945Y482283D01*
X619806Y482986D01*
X619408Y483581D01*
X618813Y483979D01*
X618110Y484119D01*
D02*
G37*
G36*
X596851Y477186D02*
X596149Y477046D01*
X595553Y476648D01*
X595156Y476053D01*
X595016Y475350D01*
X595156Y474648D01*
X595553Y474053D01*
X596149Y473655D01*
X596851Y473515D01*
X597553Y473655D01*
X598149Y474053D01*
X598547Y474648D01*
X598686Y475350D01*
X598547Y476053D01*
X598149Y476648D01*
X597553Y477046D01*
X596851Y477186D01*
D02*
G37*
G36*
X537402Y480182D02*
X536699Y480042D01*
X536104Y479644D01*
X535706Y479049D01*
X535566Y478346D01*
X535706Y477644D01*
X536104Y477049D01*
X536699Y476651D01*
X537402Y476511D01*
X538104Y476651D01*
X538699Y477049D01*
X539097Y477644D01*
X539237Y478346D01*
X539097Y479049D01*
X538699Y479644D01*
X538104Y480042D01*
X537402Y480182D01*
D02*
G37*
G36*
X562008Y482150D02*
X561306Y482011D01*
X560710Y481613D01*
X560312Y481017D01*
X560173Y480315D01*
X560312Y479613D01*
X560710Y479017D01*
X561306Y478619D01*
X562008Y478480D01*
X562710Y478619D01*
X563306Y479017D01*
X563703Y479613D01*
X563843Y480315D01*
X563703Y481017D01*
X563306Y481613D01*
X562710Y482011D01*
X562008Y482150D01*
D02*
G37*
G36*
X643701Y491009D02*
X642999Y490869D01*
X642403Y490471D01*
X642005Y489876D01*
X641865Y489173D01*
X642005Y488471D01*
X642403Y487876D01*
X642999Y487478D01*
X643701Y487338D01*
X644403Y487478D01*
X644999Y487876D01*
X645396Y488471D01*
X645536Y489173D01*
X645396Y489876D01*
X644999Y490471D01*
X644403Y490869D01*
X643701Y491009D01*
D02*
G37*
G36*
X768701Y496797D02*
X767696Y496664D01*
X766759Y496276D01*
X765955Y495659D01*
X765338Y494855D01*
X764950Y493918D01*
X764818Y492913D01*
X764950Y491908D01*
X765338Y490972D01*
X765955Y490168D01*
X766759Y489550D01*
X767696Y489162D01*
X768701Y489030D01*
X769706Y489162D01*
X770642Y489550D01*
X771447Y490168D01*
X772064Y490972D01*
X772452Y491908D01*
X772584Y492913D01*
X772452Y493918D01*
X772064Y494855D01*
X771447Y495659D01*
X770642Y496276D01*
X769706Y496664D01*
X768701Y496797D01*
D02*
G37*
G36*
X635827Y493961D02*
X635124Y493821D01*
X634529Y493424D01*
X634131Y492828D01*
X633991Y492126D01*
X634131Y491424D01*
X634529Y490828D01*
X635124Y490430D01*
X635827Y490291D01*
X636529Y490430D01*
X637124Y490828D01*
X637522Y491424D01*
X637662Y492126D01*
X637522Y492828D01*
X637124Y493424D01*
X636529Y493821D01*
X635827Y493961D01*
D02*
G37*
G36*
X618110Y491009D02*
X617408Y490869D01*
X616813Y490471D01*
X616415Y489876D01*
X616275Y489173D01*
X616415Y488471D01*
X616813Y487876D01*
X617408Y487478D01*
X618110Y487338D01*
X618813Y487478D01*
X619408Y487876D01*
X619806Y488471D01*
X619945Y489173D01*
X619806Y489876D01*
X619408Y490471D01*
X618813Y490869D01*
X618110Y491009D01*
D02*
G37*
G36*
X403937Y495528D02*
X403150D01*
X402224Y495344D01*
X401440Y494820D01*
X400916Y494036D01*
X400732Y493110D01*
X400916Y492185D01*
X401440Y491400D01*
X402065Y490983D01*
X402095Y490876D01*
Y490423D01*
X402065Y490316D01*
X401440Y489899D01*
X400916Y489114D01*
X400732Y488189D01*
X400916Y487264D01*
X401440Y486479D01*
X402224Y485955D01*
X403150Y485771D01*
X403937D01*
X404862Y485955D01*
X405647Y486479D01*
X406171Y487264D01*
X406355Y488189D01*
X406171Y489114D01*
X405647Y489899D01*
X405022Y490316D01*
X404992Y490423D01*
Y490876D01*
X405022Y490983D01*
X405647Y491400D01*
X406171Y492185D01*
X406355Y493110D01*
X406171Y494036D01*
X405647Y494820D01*
X404862Y495344D01*
X403937Y495528D01*
D02*
G37*
G36*
X436024Y490024D02*
X435321Y489885D01*
X434726Y489487D01*
X434328Y488891D01*
X434188Y488189D01*
X434328Y487487D01*
X434726Y486891D01*
X435321Y486493D01*
X436024Y486354D01*
X436726Y486493D01*
X437321Y486891D01*
X437719Y487487D01*
X437859Y488189D01*
X437719Y488891D01*
X437321Y489487D01*
X436726Y489885D01*
X436024Y490024D01*
D02*
G37*
G36*
X607327Y490861D02*
X606624Y490722D01*
X606029Y490324D01*
X605631Y489728D01*
X605491Y489026D01*
X605631Y488324D01*
X606029Y487728D01*
X606624Y487330D01*
X607327Y487191D01*
X608029Y487330D01*
X608625Y487728D01*
X609022Y488324D01*
X609162Y489026D01*
X609022Y489728D01*
X608625Y490324D01*
X608029Y490722D01*
X607327Y490861D01*
D02*
G37*
G36*
X626850Y662576D02*
X626041Y662469D01*
X625287Y662157D01*
X624639Y661660D01*
X624143Y661012D01*
X623830Y660258D01*
X623724Y659449D01*
X623830Y658640D01*
X624143Y657885D01*
X624639Y657238D01*
X625287Y656741D01*
X626041Y656429D01*
X626850Y656322D01*
X627660Y656429D01*
X628414Y656741D01*
X629061Y657238D01*
X629558Y657885D01*
X629871Y658640D01*
X629977Y659449D01*
X629871Y660258D01*
X629558Y661012D01*
X629061Y661660D01*
X628414Y662157D01*
X627660Y662469D01*
X626850Y662576D01*
D02*
G37*
G36*
X515748Y662268D02*
X515046Y662129D01*
X514450Y661731D01*
X514052Y661135D01*
X513913Y660433D01*
X514052Y659731D01*
X514450Y659135D01*
X515046Y658738D01*
X515748Y658598D01*
X516450Y658738D01*
X517046Y659135D01*
X517444Y659731D01*
X517583Y660433D01*
X517444Y661135D01*
X517046Y661731D01*
X516450Y662129D01*
X515748Y662268D01*
D02*
G37*
G36*
X741142Y666205D02*
X740439Y666066D01*
X739844Y665668D01*
X739446Y665072D01*
X739306Y664370D01*
X739446Y663668D01*
X739635Y663386D01*
X739446Y663104D01*
X739306Y662402D01*
X739446Y661699D01*
X739635Y661417D01*
X739446Y661135D01*
X739306Y660433D01*
X739446Y659731D01*
X739844Y659135D01*
X740439Y658738D01*
X741142Y658598D01*
X741844Y658738D01*
X742440Y659135D01*
X742837Y659731D01*
X742977Y660433D01*
X742837Y661135D01*
X742649Y661417D01*
X742837Y661699D01*
X742977Y662402D01*
X742837Y663104D01*
X742649Y663386D01*
X742837Y663668D01*
X742977Y664370D01*
X742837Y665072D01*
X742440Y665668D01*
X741844Y666066D01*
X741142Y666205D01*
D02*
G37*
G36*
X616850Y662576D02*
X616041Y662469D01*
X615287Y662157D01*
X614639Y661660D01*
X614143Y661012D01*
X613830Y660258D01*
X613724Y659449D01*
X613830Y658640D01*
X614143Y657885D01*
X614639Y657238D01*
X615287Y656741D01*
X616041Y656429D01*
X616850Y656322D01*
X617660Y656429D01*
X618414Y656741D01*
X619061Y657238D01*
X619558Y657885D01*
X619871Y658640D01*
X619977Y659449D01*
X619871Y660258D01*
X619558Y661012D01*
X619061Y661660D01*
X618414Y662157D01*
X617660Y662469D01*
X616850Y662576D01*
D02*
G37*
G36*
X567520Y658725D02*
X566817Y658585D01*
X566222Y658187D01*
X565824Y657592D01*
X565684Y656890D01*
X565824Y656187D01*
X566222Y655592D01*
X566817Y655194D01*
X567520Y655055D01*
X568222Y655194D01*
X568817Y655592D01*
X569215Y656187D01*
X569355Y656890D01*
X569215Y657592D01*
X568817Y658187D01*
X568222Y658585D01*
X567520Y658725D01*
D02*
G37*
G36*
X596850Y662576D02*
X596041Y662469D01*
X595287Y662157D01*
X594639Y661660D01*
X594143Y661012D01*
X593830Y660258D01*
X593724Y659449D01*
X593830Y658640D01*
X594143Y657885D01*
X594639Y657238D01*
X595287Y656741D01*
X596041Y656429D01*
X596850Y656322D01*
X597660Y656429D01*
X598414Y656741D01*
X599061Y657238D01*
X599558Y657885D01*
X599871Y658640D01*
X599977Y659449D01*
X599871Y660258D01*
X599558Y661012D01*
X599061Y661660D01*
X598414Y662157D01*
X597660Y662469D01*
X596850Y662576D01*
D02*
G37*
G36*
X606850D02*
X606041Y662469D01*
X605287Y662157D01*
X604639Y661660D01*
X604143Y661012D01*
X603830Y660258D01*
X603724Y659449D01*
X603830Y658640D01*
X604143Y657885D01*
X604639Y657238D01*
X605287Y656741D01*
X606041Y656429D01*
X606850Y656322D01*
X607660Y656429D01*
X608414Y656741D01*
X609061Y657238D01*
X609558Y657885D01*
X609871Y658640D01*
X609977Y659449D01*
X609871Y660258D01*
X609558Y661012D01*
X609061Y661660D01*
X608414Y662157D01*
X607660Y662469D01*
X606850Y662576D01*
D02*
G37*
G36*
X581693Y689827D02*
X580991Y689688D01*
X580395Y689290D01*
X579997Y688694D01*
X579858Y687992D01*
X579997Y687290D01*
X580395Y686694D01*
X580991Y686297D01*
X581693Y686157D01*
X582395Y686297D01*
X582991Y686694D01*
X583389Y687290D01*
X583528Y687992D01*
X583389Y688694D01*
X582991Y689290D01*
X582395Y689688D01*
X581693Y689827D01*
D02*
G37*
G36*
X679134Y695733D02*
X678432Y695593D01*
X677836Y695195D01*
X677438Y694600D01*
X677299Y693898D01*
X677438Y693195D01*
X677627Y692913D01*
X677438Y692631D01*
X677299Y691929D01*
X677438Y691227D01*
X677627Y690945D01*
X677438Y690663D01*
X677299Y689961D01*
X677438Y689258D01*
X677836Y688663D01*
X678432Y688265D01*
X679134Y688125D01*
X679836Y688265D01*
X680432Y688663D01*
X680829Y689258D01*
X680969Y689961D01*
X680829Y690663D01*
X680641Y690945D01*
X680829Y691227D01*
X680969Y691929D01*
X680829Y692631D01*
X680641Y692913D01*
X680829Y693195D01*
X680969Y693898D01*
X680829Y694600D01*
X680432Y695195D01*
X679836Y695593D01*
X679134Y695733D01*
D02*
G37*
G36*
X577756Y694749D02*
X577054Y694609D01*
X576458Y694211D01*
X576060Y693616D01*
X575921Y692913D01*
X576060Y692211D01*
X576458Y691616D01*
X577054Y691218D01*
X577756Y691078D01*
X578458Y691218D01*
X579054Y691616D01*
X579452Y692211D01*
X579591Y692913D01*
X579452Y693616D01*
X579054Y694211D01*
X578458Y694609D01*
X577756Y694749D01*
D02*
G37*
G36*
X574803Y689827D02*
X574101Y689688D01*
X573505Y689290D01*
X573108Y688694D01*
X572968Y687992D01*
X573108Y687290D01*
X573505Y686694D01*
X574101Y686297D01*
X574803Y686157D01*
X575505Y686297D01*
X576101Y686694D01*
X576499Y687290D01*
X576638Y687992D01*
X576499Y688694D01*
X576101Y689290D01*
X575505Y689688D01*
X574803Y689827D01*
D02*
G37*
G36*
X412402Y671718D02*
X411397Y671586D01*
X410460Y671198D01*
X409656Y670580D01*
X409039Y669776D01*
X408651Y668840D01*
X408518Y667835D01*
X408651Y666830D01*
X409039Y665893D01*
X409656Y665089D01*
X410460Y664472D01*
X411397Y664084D01*
X412402Y663951D01*
X413407Y664084D01*
X414343Y664472D01*
X415147Y665089D01*
X415765Y665893D01*
X416152Y666830D01*
X416285Y667835D01*
X416152Y668840D01*
X415765Y669776D01*
X415147Y670580D01*
X414343Y671198D01*
X413407Y671586D01*
X412402Y671718D01*
D02*
G37*
G36*
Y681718D02*
X411397Y681586D01*
X410460Y681198D01*
X409656Y680581D01*
X409039Y679776D01*
X408651Y678840D01*
X408518Y677835D01*
X408651Y676830D01*
X409039Y675893D01*
X409656Y675089D01*
X410460Y674472D01*
X411397Y674084D01*
X412402Y673951D01*
X413407Y674084D01*
X414343Y674472D01*
X415147Y675089D01*
X415765Y675893D01*
X416152Y676830D01*
X416285Y677835D01*
X416152Y678840D01*
X415765Y679776D01*
X415147Y680581D01*
X414343Y681198D01*
X413407Y681586D01*
X412402Y681718D01*
D02*
G37*
G36*
Y691718D02*
X411397Y691585D01*
X410460Y691198D01*
X409656Y690581D01*
X409039Y689776D01*
X408651Y688840D01*
X408518Y687835D01*
X408651Y686830D01*
X409039Y685893D01*
X409656Y685089D01*
X410460Y684472D01*
X411397Y684084D01*
X412402Y683951D01*
X413407Y684084D01*
X414343Y684472D01*
X415147Y685089D01*
X415765Y685893D01*
X416152Y686830D01*
X416285Y687835D01*
X416152Y688840D01*
X415765Y689776D01*
X415147Y690581D01*
X414343Y691198D01*
X413407Y691585D01*
X412402Y691718D01*
D02*
G37*
G36*
X625000Y642583D02*
X624298Y642444D01*
X623702Y642046D01*
X623304Y641450D01*
X623165Y640748D01*
X623304Y640046D01*
X623702Y639450D01*
X624298Y639052D01*
X625000Y638913D01*
X625702Y639052D01*
X626298Y639450D01*
X626696Y640046D01*
X626835Y640748D01*
X626696Y641450D01*
X626298Y642046D01*
X625702Y642444D01*
X625000Y642583D01*
D02*
G37*
G36*
X607283Y645536D02*
X606581Y645396D01*
X605986Y644999D01*
X605588Y644403D01*
X605448Y643701D01*
X605588Y642999D01*
X605986Y642403D01*
X606581Y642005D01*
X607283Y641865D01*
X607986Y642005D01*
X608581Y642403D01*
X608979Y642999D01*
X609119Y643701D01*
X608979Y644403D01*
X608581Y644999D01*
X607986Y645396D01*
X607283Y645536D01*
D02*
G37*
G36*
X617126Y645536D02*
X616424Y645396D01*
X615828Y644999D01*
X615430Y644403D01*
X615291Y643701D01*
X615430Y642999D01*
X615828Y642403D01*
X616424Y642005D01*
X617126Y641865D01*
X617828Y642005D01*
X618424Y642403D01*
X618821Y642999D01*
X618961Y643701D01*
X618821Y644403D01*
X618424Y644999D01*
X617828Y645396D01*
X617126Y645536D01*
D02*
G37*
G36*
X615158Y641599D02*
X614455Y641459D01*
X613860Y641061D01*
X613462Y640466D01*
X613322Y639764D01*
X613462Y639061D01*
X613860Y638466D01*
X614455Y638068D01*
X615158Y637928D01*
X615860Y638068D01*
X616455Y638466D01*
X616853Y639061D01*
X616993Y639764D01*
X616853Y640466D01*
X616455Y641061D01*
X615860Y641459D01*
X615158Y641599D01*
D02*
G37*
G36*
X593504Y640615D02*
X592802Y640475D01*
X592206Y640077D01*
X591808Y639482D01*
X591669Y638779D01*
X591808Y638077D01*
X592206Y637482D01*
X592802Y637084D01*
X593504Y636944D01*
X594206Y637084D01*
X594505Y637284D01*
X595146Y637095D01*
X595174Y637064D01*
X595553Y636497D01*
X596148Y636100D01*
X596850Y635960D01*
X597553Y636100D01*
X598148Y636497D01*
X598546Y637093D01*
X598686Y637795D01*
X598546Y638498D01*
X598148Y639093D01*
X597553Y639491D01*
X596850Y639631D01*
X596148Y639491D01*
X595849Y639291D01*
X595208Y639479D01*
X595180Y639511D01*
X594802Y640077D01*
X594206Y640475D01*
X593504Y640615D01*
D02*
G37*
G36*
X608266Y640614D02*
X607564Y640474D01*
X606969Y640076D01*
X606571Y639481D01*
X606431Y638778D01*
X606571Y638076D01*
X606969Y637480D01*
X607564Y637083D01*
X608266Y636943D01*
X608969Y637083D01*
X609564Y637480D01*
X609962Y638076D01*
X610102Y638778D01*
X609962Y639481D01*
X609564Y640076D01*
X608969Y640474D01*
X608266Y640614D01*
D02*
G37*
G36*
X573819Y640615D02*
X573117Y640475D01*
X572521Y640077D01*
X572123Y639482D01*
X571984Y638779D01*
X572123Y638077D01*
X572521Y637482D01*
X573117Y637084D01*
X573819Y636944D01*
X574521Y637084D01*
X575117Y637482D01*
X575515Y638077D01*
X575654Y638779D01*
X575515Y639482D01*
X575117Y640077D01*
X574521Y640475D01*
X573819Y640615D01*
D02*
G37*
G36*
X621063Y650457D02*
X620361Y650318D01*
X619765Y649920D01*
X619367Y649324D01*
X619228Y648622D01*
X619367Y647920D01*
X619765Y647324D01*
X620361Y646926D01*
X621063Y646787D01*
X621765Y646926D01*
X622361Y647324D01*
X622759Y647920D01*
X622898Y648622D01*
X622759Y649324D01*
X622361Y649920D01*
X621765Y650318D01*
X621063Y650457D01*
D02*
G37*
G36*
X599409Y651442D02*
X598707Y651302D01*
X598112Y650904D01*
X597714Y650309D01*
X597574Y649606D01*
X597714Y648904D01*
X598112Y648309D01*
X598707Y647911D01*
X599409Y647771D01*
X600112Y647911D01*
X600707Y648309D01*
X601105Y648904D01*
X601245Y649606D01*
X601105Y650309D01*
X600707Y650904D01*
X600112Y651302D01*
X599409Y651442D01*
D02*
G37*
G36*
X412402Y661718D02*
X411397Y661586D01*
X410460Y661198D01*
X409656Y660580D01*
X409039Y659776D01*
X408651Y658840D01*
X408518Y657835D01*
X408651Y656830D01*
X409039Y655893D01*
X409656Y655089D01*
X410460Y654472D01*
X411397Y654084D01*
X412402Y653951D01*
X413407Y654084D01*
X414343Y654472D01*
X415147Y655089D01*
X415765Y655893D01*
X416152Y656830D01*
X416285Y657835D01*
X416152Y658840D01*
X415765Y659776D01*
X415147Y660580D01*
X414343Y661198D01*
X413407Y661586D01*
X412402Y661718D01*
D02*
G37*
G36*
X616142Y650457D02*
X615439Y650318D01*
X614844Y649920D01*
X614446Y649324D01*
X614306Y648622D01*
X614446Y647920D01*
X614844Y647324D01*
X615439Y646926D01*
X616142Y646787D01*
X616844Y646926D01*
X617440Y647324D01*
X617837Y647920D01*
X617977Y648622D01*
X617837Y649324D01*
X617440Y649920D01*
X616844Y650318D01*
X616142Y650457D01*
D02*
G37*
G36*
X478346Y646520D02*
X477644Y646381D01*
X477049Y645983D01*
X476651Y645387D01*
X476511Y644685D01*
X476651Y643983D01*
X477049Y643387D01*
X477644Y642989D01*
X478346Y642850D01*
X479049Y642989D01*
X479644Y643387D01*
X480042Y643983D01*
X480182Y644685D01*
X480042Y645387D01*
X479644Y645983D01*
X479049Y646381D01*
X478346Y646520D01*
D02*
G37*
G36*
X603346Y648489D02*
X602644Y648349D01*
X602049Y647951D01*
X601651Y647356D01*
X601511Y646654D01*
X601651Y645951D01*
X602049Y645356D01*
X602644Y644958D01*
X603346Y644818D01*
X604049Y644958D01*
X604644Y645356D01*
X605042Y645951D01*
X605182Y646654D01*
X605042Y647356D01*
X604644Y647951D01*
X604049Y648349D01*
X603346Y648489D01*
D02*
G37*
G36*
X590551Y655379D02*
X589849Y655239D01*
X589254Y654841D01*
X588856Y654246D01*
X588716Y653543D01*
X588826Y652989D01*
X588684Y652661D01*
X588432Y652396D01*
X587880Y652286D01*
X587285Y651888D01*
X586887Y651293D01*
X586747Y650591D01*
X586858Y650036D01*
X586716Y649709D01*
X586463Y649443D01*
X585912Y649333D01*
X585316Y648936D01*
X584919Y648340D01*
X584779Y647638D01*
X584919Y646936D01*
X585316Y646340D01*
X585912Y645942D01*
X586614Y645802D01*
X587317Y645942D01*
X587912Y646340D01*
X588310Y646936D01*
X588449Y647638D01*
X588339Y648192D01*
X588481Y648520D01*
X588734Y648785D01*
X589285Y648895D01*
X589880Y649293D01*
X590278Y649888D01*
X590418Y650591D01*
X590308Y651145D01*
X590449Y651473D01*
X590702Y651738D01*
X591254Y651848D01*
X591849Y652246D01*
X592247Y652841D01*
X592386Y653543D01*
X592247Y654246D01*
X591849Y654841D01*
X591254Y655239D01*
X590551Y655379D01*
D02*
G37*
G36*
X412402Y701718D02*
X411397Y701585D01*
X410460Y701198D01*
X409656Y700581D01*
X409039Y699776D01*
X408651Y698840D01*
X408518Y697835D01*
X408651Y696830D01*
X409039Y695893D01*
X409656Y695089D01*
X410460Y694472D01*
X411397Y694084D01*
X412402Y693951D01*
X413407Y694084D01*
X414343Y694472D01*
X415147Y695089D01*
X415765Y695893D01*
X416152Y696830D01*
X416285Y697835D01*
X416152Y698840D01*
X415765Y699776D01*
X415147Y700581D01*
X414343Y701198D01*
X413407Y701585D01*
X412402Y701718D01*
D02*
G37*
G36*
X575472Y772584D02*
X574467Y772452D01*
X573531Y772064D01*
X572727Y771447D01*
X572110Y770642D01*
X571722Y769706D01*
X571589Y768701D01*
X571722Y767696D01*
X572110Y766759D01*
X572727Y765955D01*
X573531Y765338D01*
X574467Y764950D01*
X575472Y764818D01*
X576477Y764950D01*
X577414Y765338D01*
X578218Y765955D01*
X578835Y766759D01*
X579223Y767696D01*
X579356Y768701D01*
X579223Y769706D01*
X578835Y770642D01*
X578218Y771447D01*
X577414Y772064D01*
X576477Y772452D01*
X575472Y772584D01*
D02*
G37*
G36*
X585472D02*
X584467Y772452D01*
X583531Y772064D01*
X582727Y771447D01*
X582109Y770642D01*
X581721Y769706D01*
X581589Y768701D01*
X581721Y767696D01*
X582109Y766759D01*
X582727Y765955D01*
X583531Y765338D01*
X584467Y764950D01*
X585472Y764818D01*
X586478Y764950D01*
X587414Y765338D01*
X588218Y765955D01*
X588835Y766759D01*
X589223Y767696D01*
X589356Y768701D01*
X589223Y769706D01*
X588835Y770642D01*
X588218Y771447D01*
X587414Y772064D01*
X586478Y772452D01*
X585472Y772584D01*
D02*
G37*
G36*
X595472D02*
X594467Y772452D01*
X593531Y772064D01*
X592727Y771447D01*
X592109Y770642D01*
X591721Y769706D01*
X591589Y768701D01*
X591721Y767696D01*
X592109Y766759D01*
X592727Y765955D01*
X593531Y765338D01*
X594467Y764950D01*
X595472Y764818D01*
X596478Y764950D01*
X597414Y765338D01*
X598218Y765955D01*
X598835Y766759D01*
X599223Y767696D01*
X599356Y768701D01*
X599223Y769706D01*
X598835Y770642D01*
X598218Y771447D01*
X597414Y772064D01*
X596478Y772452D01*
X595472Y772584D01*
D02*
G37*
G36*
X555472D02*
X554467Y772452D01*
X553531Y772064D01*
X552727Y771447D01*
X552109Y770642D01*
X551721Y769706D01*
X551589Y768701D01*
X551721Y767696D01*
X552109Y766759D01*
X552727Y765955D01*
X553531Y765338D01*
X554467Y764950D01*
X555472Y764818D01*
X556477Y764950D01*
X557414Y765338D01*
X558218Y765955D01*
X558835Y766759D01*
X559223Y767696D01*
X559356Y768701D01*
X559223Y769706D01*
X558835Y770642D01*
X558218Y771447D01*
X557414Y772064D01*
X556477Y772452D01*
X555472Y772584D01*
D02*
G37*
G36*
X462913D02*
X461908Y772452D01*
X460972Y772064D01*
X460168Y771447D01*
X459550Y770642D01*
X459163Y769706D01*
X459030Y768701D01*
X459163Y767696D01*
X459550Y766759D01*
X460168Y765955D01*
X460972Y765338D01*
X461908Y764950D01*
X462913Y764818D01*
X463918Y764950D01*
X464855Y765338D01*
X465659Y765955D01*
X466276Y766759D01*
X466664Y767696D01*
X466797Y768701D01*
X466664Y769706D01*
X466276Y770642D01*
X465659Y771447D01*
X464855Y772064D01*
X463918Y772452D01*
X462913Y772584D01*
D02*
G37*
G36*
X472913D02*
X471908Y772452D01*
X470972Y772064D01*
X470167Y771447D01*
X469550Y770642D01*
X469163Y769706D01*
X469030Y768701D01*
X469163Y767696D01*
X469550Y766759D01*
X470167Y765955D01*
X470972Y765338D01*
X471908Y764950D01*
X472913Y764818D01*
X473918Y764950D01*
X474855Y765338D01*
X475659Y765955D01*
X476276Y766759D01*
X476664Y767696D01*
X476797Y768701D01*
X476664Y769706D01*
X476276Y770642D01*
X475659Y771447D01*
X474855Y772064D01*
X473918Y772452D01*
X472913Y772584D01*
D02*
G37*
G36*
X482913D02*
X481908Y772452D01*
X480972Y772064D01*
X480168Y771447D01*
X479550Y770642D01*
X479163Y769706D01*
X479030Y768701D01*
X479163Y767696D01*
X479550Y766759D01*
X480168Y765955D01*
X480972Y765338D01*
X481908Y764950D01*
X482913Y764818D01*
X483919Y764950D01*
X484855Y765338D01*
X485659Y765955D01*
X486276Y766759D01*
X486664Y767696D01*
X486797Y768701D01*
X486664Y769706D01*
X486276Y770642D01*
X485659Y771447D01*
X484855Y772064D01*
X483919Y772452D01*
X482913Y772584D01*
D02*
G37*
G36*
X496763Y772551D02*
X489063D01*
Y764851D01*
X496763D01*
Y772551D01*
D02*
G37*
G36*
X629322D02*
X621623D01*
Y764851D01*
X629322D01*
Y772551D01*
D02*
G37*
G36*
X742197D02*
X734496D01*
Y764851D01*
X742197D01*
Y772551D01*
D02*
G37*
G36*
X728346Y772584D02*
X727341Y772452D01*
X726405Y772064D01*
X725601Y771447D01*
X724984Y770642D01*
X724596Y769706D01*
X724463Y768701D01*
X724596Y767696D01*
X724984Y766759D01*
X725601Y765955D01*
X726405Y765338D01*
X727341Y764950D01*
X728346Y764818D01*
X729352Y764950D01*
X730288Y765338D01*
X731092Y765955D01*
X731709Y766759D01*
X732097Y767696D01*
X732230Y768701D01*
X732097Y769706D01*
X731709Y770642D01*
X731092Y771447D01*
X730288Y772064D01*
X729352Y772452D01*
X728346Y772584D01*
D02*
G37*
G36*
X605472D02*
X604467Y772452D01*
X603531Y772064D01*
X602727Y771447D01*
X602109Y770642D01*
X601721Y769706D01*
X601589Y768701D01*
X601721Y767696D01*
X602109Y766759D01*
X602727Y765955D01*
X603531Y765338D01*
X604467Y764950D01*
X605472Y764818D01*
X606477Y764950D01*
X607414Y765338D01*
X608218Y765955D01*
X608835Y766759D01*
X609223Y767696D01*
X609356Y768701D01*
X609223Y769706D01*
X608835Y770642D01*
X608218Y771447D01*
X607414Y772064D01*
X606477Y772452D01*
X605472Y772584D01*
D02*
G37*
G36*
X615472D02*
X614467Y772452D01*
X613531Y772064D01*
X612727Y771447D01*
X612110Y770642D01*
X611722Y769706D01*
X611589Y768701D01*
X611722Y767696D01*
X612110Y766759D01*
X612727Y765955D01*
X613531Y765338D01*
X614467Y764950D01*
X615472Y764818D01*
X616477Y764950D01*
X617414Y765338D01*
X618218Y765955D01*
X618835Y766759D01*
X619223Y767696D01*
X619356Y768701D01*
X619223Y769706D01*
X618835Y770642D01*
X618218Y771447D01*
X617414Y772064D01*
X616477Y772452D01*
X615472Y772584D01*
D02*
G37*
G36*
X718347D02*
X717341Y772452D01*
X716405Y772064D01*
X715601Y771447D01*
X714984Y770642D01*
X714596Y769706D01*
X714463Y768701D01*
X714596Y767696D01*
X714984Y766759D01*
X715601Y765955D01*
X716405Y765338D01*
X717341Y764950D01*
X718347Y764818D01*
X719351Y764950D01*
X720288Y765338D01*
X721092Y765955D01*
X721709Y766759D01*
X722097Y767696D01*
X722230Y768701D01*
X722097Y769706D01*
X721709Y770642D01*
X721092Y771447D01*
X720288Y772064D01*
X719351Y772452D01*
X718347Y772584D01*
D02*
G37*
G36*
X733268Y705575D02*
X732565Y705436D01*
X731970Y705038D01*
X731623Y704518D01*
X731299Y704477D01*
X730975Y704518D01*
X730628Y705038D01*
X730033Y705436D01*
X729331Y705575D01*
X728628Y705436D01*
X728033Y705038D01*
X727686Y704519D01*
X727362Y704477D01*
X727038Y704519D01*
X726691Y705038D01*
X726096Y705436D01*
X725394Y705575D01*
X724691Y705436D01*
X724096Y705038D01*
X723749Y704518D01*
X723425Y704477D01*
X723102Y704518D01*
X722754Y705038D01*
X722159Y705436D01*
X721457Y705575D01*
X720754Y705436D01*
X720159Y705038D01*
X719812Y704518D01*
X719488Y704477D01*
X719165Y704518D01*
X718817Y705038D01*
X718222Y705436D01*
X717520Y705575D01*
X716817Y705436D01*
X716222Y705038D01*
X715824Y704443D01*
X715684Y703740D01*
X715824Y703038D01*
X716222Y702442D01*
X716741Y702095D01*
X716783Y701772D01*
X716741Y701448D01*
X716222Y701101D01*
X715824Y700505D01*
X715684Y699803D01*
X715824Y699101D01*
X716222Y698505D01*
X716741Y698158D01*
X716783Y697835D01*
X716741Y697511D01*
X716222Y697164D01*
X715824Y696568D01*
X715684Y695866D01*
X715824Y695164D01*
X716222Y694568D01*
X716817Y694171D01*
X717520Y694031D01*
X718222Y694171D01*
X718817Y694568D01*
X719165Y695088D01*
X719488Y695129D01*
X719812Y695088D01*
X720159Y694568D01*
X720754Y694171D01*
X721457Y694031D01*
X722159Y694171D01*
X722754Y694568D01*
X723102Y695088D01*
X723425Y695129D01*
X723749Y695088D01*
X724096Y694568D01*
X724691Y694171D01*
X725394Y694031D01*
X726096Y694171D01*
X726691Y694568D01*
X727038Y695088D01*
X727362Y695129D01*
X727686Y695088D01*
X728033Y694568D01*
X728628Y694171D01*
X729331Y694031D01*
X730033Y694171D01*
X730628Y694568D01*
X730975Y695088D01*
X731299Y695129D01*
X731623Y695088D01*
X731970Y694568D01*
X732565Y694171D01*
X733268Y694031D01*
X733970Y694171D01*
X734565Y694568D01*
X734963Y695164D01*
X735103Y695866D01*
X734963Y696568D01*
X734565Y697164D01*
X734046Y697511D01*
X734005Y697835D01*
X734046Y698158D01*
X734565Y698505D01*
X734963Y699101D01*
X735103Y699803D01*
X734963Y700505D01*
X734565Y701101D01*
X734046Y701448D01*
X734005Y701772D01*
X734046Y702095D01*
X734565Y702442D01*
X734963Y703038D01*
X735103Y703740D01*
X734963Y704443D01*
X734565Y705038D01*
X733970Y705436D01*
X733268Y705575D01*
D02*
G37*
G36*
X767717Y711788D02*
X766907Y711682D01*
X766153Y711369D01*
X765506Y710872D01*
X765009Y710225D01*
X764696Y709471D01*
X764590Y708661D01*
X764696Y707852D01*
X765009Y707098D01*
X765506Y706451D01*
X766153Y705954D01*
X766907Y705641D01*
X767717Y705535D01*
X768526Y705641D01*
X769280Y705954D01*
X769928Y706451D01*
X770424Y707098D01*
X770737Y707852D01*
X770843Y708661D01*
X770737Y709471D01*
X770424Y710225D01*
X769928Y710872D01*
X769280Y711369D01*
X768526Y711682D01*
X767717Y711788D01*
D02*
G37*
G36*
X586614Y713449D02*
X585912Y713310D01*
X585316Y712912D01*
X584919Y712317D01*
X584779Y711614D01*
X584919Y710912D01*
X585316Y710316D01*
X585912Y709919D01*
X586614Y709779D01*
X587317Y709919D01*
X587912Y710316D01*
X588310Y710912D01*
X588449Y711614D01*
X588310Y712317D01*
X587912Y712912D01*
X587317Y713310D01*
X586614Y713449D01*
D02*
G37*
G36*
X513189Y708135D02*
X512487Y707995D01*
X511891Y707597D01*
X511493Y707001D01*
X511354Y706299D01*
X511493Y705597D01*
X511891Y705001D01*
X512487Y704604D01*
X513189Y704464D01*
X513891Y704604D01*
X514487Y705001D01*
X514885Y705597D01*
X515024Y706299D01*
X514885Y707001D01*
X514487Y707597D01*
X513891Y707995D01*
X513189Y708135D01*
D02*
G37*
G36*
X586614Y703607D02*
X585912Y703467D01*
X585316Y703069D01*
X584919Y702474D01*
X584779Y701772D01*
X584919Y701069D01*
X585316Y700474D01*
X585912Y700076D01*
X586614Y699936D01*
X587317Y700076D01*
X587912Y700474D01*
X588310Y701069D01*
X588449Y701772D01*
X588310Y702474D01*
X587912Y703069D01*
X587317Y703467D01*
X586614Y703607D01*
D02*
G37*
G36*
X580709Y707544D02*
X580006Y707404D01*
X579411Y707006D01*
X579013Y706411D01*
X578873Y705709D01*
X579013Y705006D01*
X579411Y704411D01*
X580006Y704013D01*
X580709Y703873D01*
X581411Y704013D01*
X582006Y704411D01*
X582404Y705006D01*
X582544Y705709D01*
X582404Y706411D01*
X582006Y707006D01*
X581411Y707404D01*
X580709Y707544D01*
D02*
G37*
G36*
X412402Y711718D02*
X411397Y711586D01*
X410460Y711198D01*
X409656Y710580D01*
X409039Y709776D01*
X408651Y708840D01*
X408518Y707835D01*
X408651Y706830D01*
X409039Y705893D01*
X409656Y705089D01*
X410460Y704472D01*
X411397Y704084D01*
X412402Y703951D01*
X413407Y704084D01*
X414343Y704472D01*
X415147Y705089D01*
X415765Y705893D01*
X416152Y706830D01*
X416285Y707835D01*
X416152Y708840D01*
X415765Y709776D01*
X415147Y710580D01*
X414343Y711198D01*
X413407Y711586D01*
X412402Y711718D01*
D02*
G37*
G36*
X413386Y780857D02*
X411330Y780695D01*
X409325Y780214D01*
X407420Y779425D01*
X405662Y778347D01*
X404094Y777008D01*
X402755Y775440D01*
X401678Y773682D01*
X400888Y771777D01*
X400407Y769772D01*
X400245Y767717D01*
X400407Y765661D01*
X400888Y763656D01*
X401678Y761751D01*
X402755Y759993D01*
X404094Y758425D01*
X405662Y757086D01*
X407420Y756008D01*
X409325Y755219D01*
X411330Y754738D01*
X413386Y754576D01*
X415441Y754738D01*
X417447Y755219D01*
X419351Y756008D01*
X421110Y757086D01*
X422678Y758425D01*
X424017Y759993D01*
X425094Y761751D01*
X425883Y763656D01*
X426365Y765661D01*
X426526Y767717D01*
X426365Y769772D01*
X425883Y771777D01*
X425094Y773682D01*
X424017Y775440D01*
X422678Y777008D01*
X421110Y778347D01*
X419351Y779425D01*
X417447Y780214D01*
X415441Y780695D01*
X413386Y780857D01*
D02*
G37*
G36*
X767717D02*
X765661Y780695D01*
X763656Y780214D01*
X761751Y779425D01*
X759993Y778347D01*
X758425Y777008D01*
X757086Y775440D01*
X756008Y773682D01*
X755219Y771777D01*
X754738Y769772D01*
X754576Y767717D01*
X754738Y765661D01*
X755219Y763656D01*
X756008Y761751D01*
X757086Y759993D01*
X758425Y758425D01*
X759993Y757086D01*
X761751Y756008D01*
X763656Y755219D01*
X765661Y754738D01*
X767717Y754576D01*
X769772Y754738D01*
X771777Y755219D01*
X773682Y756008D01*
X775440Y757086D01*
X777008Y758425D01*
X778347Y759993D01*
X779425Y761751D01*
X780214Y763656D01*
X780695Y765661D01*
X780857Y767717D01*
X780695Y769772D01*
X780214Y771777D01*
X779425Y773682D01*
X778347Y775440D01*
X777008Y777008D01*
X775440Y778347D01*
X773682Y779425D01*
X771777Y780214D01*
X769772Y780695D01*
X767717Y780857D01*
D02*
G37*
G36*
X452913Y772584D02*
X451908Y772452D01*
X450972Y772064D01*
X450168Y771447D01*
X449550Y770642D01*
X449162Y769706D01*
X449030Y768701D01*
X449162Y767696D01*
X449550Y766759D01*
X450168Y765955D01*
X450972Y765338D01*
X451908Y764950D01*
X452913Y764818D01*
X453918Y764950D01*
X454855Y765338D01*
X455659Y765955D01*
X456276Y766759D01*
X456664Y767696D01*
X456797Y768701D01*
X456664Y769706D01*
X456276Y770642D01*
X455659Y771447D01*
X454855Y772064D01*
X453918Y772452D01*
X452913Y772584D01*
D02*
G37*
G36*
X590551Y739040D02*
X589849Y738900D01*
X589254Y738502D01*
X588856Y737907D01*
X588716Y737205D01*
X588856Y736502D01*
X589254Y735907D01*
X589849Y735509D01*
X590551Y735369D01*
X591254Y735509D01*
X591849Y735907D01*
X592247Y736502D01*
X592386Y737205D01*
X592247Y737907D01*
X591849Y738502D01*
X591254Y738900D01*
X590551Y739040D01*
D02*
G37*
G36*
X412402Y721718D02*
X411397Y721586D01*
X410460Y721198D01*
X409656Y720580D01*
X409039Y719776D01*
X408651Y718840D01*
X408518Y717835D01*
X408651Y716830D01*
X409039Y715893D01*
X409656Y715089D01*
X410460Y714472D01*
X411397Y714084D01*
X412402Y713951D01*
X413407Y714084D01*
X414343Y714472D01*
X415147Y715089D01*
X415765Y715893D01*
X416152Y716830D01*
X416285Y717835D01*
X416152Y718840D01*
X415765Y719776D01*
X415147Y720580D01*
X414343Y721198D01*
X413407Y721586D01*
X412402Y721718D01*
D02*
G37*
G36*
Y731718D02*
X411397Y731586D01*
X410460Y731198D01*
X409656Y730581D01*
X409039Y729776D01*
X408651Y728840D01*
X408518Y727835D01*
X408651Y726830D01*
X409039Y725893D01*
X409656Y725089D01*
X410460Y724472D01*
X411397Y724084D01*
X412402Y723951D01*
X413407Y724084D01*
X414343Y724472D01*
X415147Y725089D01*
X415765Y725893D01*
X416152Y726830D01*
X416285Y727835D01*
X416152Y728840D01*
X415765Y729776D01*
X415147Y730581D01*
X414343Y731198D01*
X413407Y731586D01*
X412402Y731718D01*
D02*
G37*
G36*
X416252Y741685D02*
X408552D01*
Y733985D01*
X416252D01*
Y741685D01*
D02*
G37*
G36*
X702756Y603213D02*
X702054Y603074D01*
X701458Y602676D01*
X701060Y602080D01*
X700921Y601378D01*
X701060Y600676D01*
X701458Y600080D01*
X702054Y599682D01*
X702756Y599543D01*
X703458Y599682D01*
X704054Y600080D01*
X704452Y600676D01*
X704591Y601378D01*
X704452Y602080D01*
X704054Y602676D01*
X703458Y603074D01*
X702756Y603213D01*
D02*
G37*
G36*
X409646Y604591D02*
X408943Y604452D01*
X408348Y604054D01*
X407950Y603458D01*
X407810Y602756D01*
X407950Y602054D01*
X408348Y601458D01*
X408943Y601060D01*
X409646Y600921D01*
X410348Y601060D01*
X410943Y601458D01*
X411341Y602054D01*
X411481Y602756D01*
X411341Y603458D01*
X410943Y604054D01*
X410348Y604452D01*
X409646Y604591D01*
D02*
G37*
G36*
X688976Y605182D02*
X688274Y605042D01*
X687679Y604644D01*
X687281Y604049D01*
X687141Y603346D01*
X687281Y602644D01*
X687679Y602049D01*
X688274Y601651D01*
X688976Y601511D01*
X689679Y601651D01*
X690274Y602049D01*
X690672Y602644D01*
X690812Y603346D01*
X690672Y604049D01*
X690274Y604644D01*
X689679Y605042D01*
X688976Y605182D01*
D02*
G37*
G36*
X658465Y601245D02*
X657762Y601105D01*
X657167Y600707D01*
X656769Y600112D01*
X656629Y599409D01*
X656769Y598707D01*
X657167Y598112D01*
X657762Y597714D01*
X658465Y597574D01*
X659167Y597714D01*
X659762Y598112D01*
X660160Y598707D01*
X660300Y599409D01*
X660160Y600112D01*
X659762Y600707D01*
X659167Y601105D01*
X658465Y601245D01*
D02*
G37*
G36*
X702756Y598292D02*
X702054Y598152D01*
X701458Y597754D01*
X701060Y597159D01*
X700921Y596457D01*
X701060Y595754D01*
X701458Y595159D01*
X702054Y594761D01*
X702756Y594621D01*
X703458Y594761D01*
X704054Y595159D01*
X704452Y595754D01*
X704591Y596457D01*
X704452Y597159D01*
X704054Y597754D01*
X703458Y598152D01*
X702756Y598292D01*
D02*
G37*
G36*
X662715Y599590D02*
X662013Y599450D01*
X661417Y599052D01*
X661020Y598457D01*
X660880Y597754D01*
X661020Y597052D01*
X661417Y596457D01*
X662013Y596059D01*
X662715Y595919D01*
X663417Y596059D01*
X664013Y596457D01*
X664411Y597052D01*
X664550Y597754D01*
X664411Y598457D01*
X664013Y599052D01*
X663417Y599450D01*
X662715Y599590D01*
D02*
G37*
G36*
X541339Y603676D02*
X540636Y603537D01*
X540041Y603139D01*
X539643Y602543D01*
X539503Y601841D01*
X539515Y601781D01*
X539024Y601176D01*
X538668Y601105D01*
X538072Y600707D01*
X537675Y600112D01*
X537535Y599409D01*
X537675Y598707D01*
X538072Y598112D01*
X538668Y597714D01*
X539370Y597574D01*
X540072Y597714D01*
X540668Y598112D01*
X541066Y598707D01*
X541205Y599409D01*
X541193Y599469D01*
X541685Y600074D01*
X542041Y600145D01*
X542636Y600543D01*
X543034Y601139D01*
X543174Y601841D01*
X543034Y602543D01*
X542636Y603139D01*
X542041Y603537D01*
X541339Y603676D01*
D02*
G37*
G36*
X538386Y608135D02*
X537683Y607995D01*
X537088Y607597D01*
X536690Y607001D01*
X536551Y606299D01*
X536555Y606275D01*
X536372Y606082D01*
X536027Y605855D01*
X535433Y605973D01*
X534731Y605834D01*
X534135Y605436D01*
X533738Y604840D01*
X533598Y604138D01*
X533738Y603436D01*
X534135Y602840D01*
X534731Y602443D01*
X535433Y602303D01*
X536135Y602443D01*
X536731Y602840D01*
X537129Y603436D01*
X537268Y604138D01*
X537263Y604163D01*
X537446Y604355D01*
X537792Y604582D01*
X538386Y604464D01*
X539088Y604604D01*
X539683Y605001D01*
X540081Y605597D01*
X540221Y606299D01*
X540081Y607001D01*
X539683Y607597D01*
X539088Y607995D01*
X538386Y608135D01*
D02*
G37*
G36*
X531496Y610103D02*
X530794Y609963D01*
X530198Y609565D01*
X529801Y608970D01*
X529661Y608268D01*
X529801Y607565D01*
X530013Y607248D01*
X530047Y607197D01*
X529614Y606764D01*
X529563Y606798D01*
X529246Y607011D01*
X528543Y607150D01*
X527841Y607011D01*
X527246Y606613D01*
X526848Y606017D01*
X526708Y605315D01*
X526848Y604613D01*
X527246Y604017D01*
X527841Y603619D01*
X528543Y603480D01*
X529246Y603619D01*
X529841Y604017D01*
X530239Y604613D01*
X530379Y605315D01*
X530239Y606017D01*
X530027Y606335D01*
X529993Y606386D01*
X530425Y606818D01*
X530476Y606784D01*
X530794Y606572D01*
X531496Y606432D01*
X532198Y606572D01*
X532794Y606970D01*
X533192Y607565D01*
X533331Y608268D01*
X533192Y608970D01*
X532794Y609565D01*
X532198Y609963D01*
X531496Y610103D01*
D02*
G37*
G36*
X424606Y607150D02*
X423904Y607011D01*
X423622Y606822D01*
X423340Y607011D01*
X422638Y607150D01*
X421936Y607011D01*
X421654Y606822D01*
X421372Y607011D01*
X420669Y607150D01*
X419967Y607011D01*
X419372Y606613D01*
X418974Y606017D01*
X418834Y605315D01*
X418974Y604613D01*
X419372Y604017D01*
X419967Y603619D01*
X420669Y603480D01*
X421372Y603619D01*
X421654Y603808D01*
X421936Y603619D01*
X422638Y603480D01*
X423340Y603619D01*
X423622Y603808D01*
X423904Y603619D01*
X424606Y603480D01*
X425309Y603619D01*
X425904Y604017D01*
X426302Y604613D01*
X426442Y605315D01*
X426302Y606017D01*
X425904Y606613D01*
X425309Y607011D01*
X424606Y607150D01*
D02*
G37*
G36*
X642717Y609119D02*
X642014Y608979D01*
X641419Y608581D01*
X641021Y607986D01*
X640881Y607283D01*
X641021Y606581D01*
X641419Y605986D01*
X642014Y605588D01*
X642717Y605448D01*
X643419Y605588D01*
X644014Y605986D01*
X644412Y606581D01*
X644552Y607283D01*
X644412Y607986D01*
X644014Y608581D01*
X643419Y608979D01*
X642717Y609119D01*
D02*
G37*
G36*
X656810Y605495D02*
X656107Y605356D01*
X655512Y604958D01*
X655114Y604362D01*
X654974Y603660D01*
X655114Y602958D01*
X655512Y602362D01*
X656107Y601964D01*
X656810Y601825D01*
X657512Y601964D01*
X658107Y602362D01*
X658505Y602958D01*
X658645Y603660D01*
X658505Y604362D01*
X658107Y604958D01*
X657512Y605356D01*
X656810Y605495D01*
D02*
G37*
G36*
X399606Y607150D02*
X398904Y607011D01*
X398309Y606613D01*
X397911Y606017D01*
X397771Y605315D01*
X397911Y604613D01*
X398309Y604017D01*
X398904Y603619D01*
X399606Y603480D01*
X400309Y603619D01*
X400904Y604017D01*
X401302Y604613D01*
X401442Y605315D01*
X401302Y606017D01*
X400904Y606613D01*
X400309Y607011D01*
X399606Y607150D01*
D02*
G37*
G36*
X652559D02*
X651857Y607011D01*
X651261Y606613D01*
X650864Y606017D01*
X650724Y605315D01*
X650864Y604613D01*
X651261Y604017D01*
X651857Y603619D01*
X652559Y603480D01*
X653261Y603619D01*
X653857Y604017D01*
X654255Y604613D01*
X654394Y605315D01*
X654255Y606017D01*
X653857Y606613D01*
X653261Y607011D01*
X652559Y607150D01*
D02*
G37*
G36*
X694882Y586481D02*
X694180Y586341D01*
X693584Y585943D01*
X693237Y585424D01*
X692913Y585383D01*
X692590Y585424D01*
X692243Y585943D01*
X691647Y586341D01*
X690945Y586481D01*
X690243Y586341D01*
X689647Y585943D01*
X689300Y585424D01*
X688976Y585383D01*
X688653Y585424D01*
X688306Y585943D01*
X687710Y586341D01*
X687008Y586481D01*
X686306Y586341D01*
X685710Y585943D01*
X685312Y585348D01*
X685173Y584646D01*
X685312Y583943D01*
X685710Y583348D01*
X686306Y582950D01*
X687008Y582810D01*
X687710Y582950D01*
X688306Y583348D01*
X688653Y583867D01*
X688976Y583909D01*
X689300Y583867D01*
X689647Y583348D01*
X690243Y582950D01*
X690945Y582810D01*
X691647Y582950D01*
X692243Y583348D01*
X692590Y583867D01*
X692913Y583909D01*
X693237Y583867D01*
X693584Y583348D01*
X694180Y582950D01*
X694882Y582810D01*
X695584Y582950D01*
X696180Y583348D01*
X696578Y583943D01*
X696717Y584646D01*
X696578Y585348D01*
X696180Y585943D01*
X695584Y586341D01*
X694882Y586481D01*
D02*
G37*
G36*
X669291Y589434D02*
X668589Y589294D01*
X667994Y588896D01*
X667596Y588301D01*
X667456Y587598D01*
X667596Y586896D01*
X667994Y586301D01*
X668589Y585903D01*
X669291Y585763D01*
X669994Y585903D01*
X670589Y586301D01*
X670987Y586896D01*
X671127Y587598D01*
X670987Y588301D01*
X670589Y588896D01*
X669994Y589294D01*
X669291Y589434D01*
D02*
G37*
G36*
X450787Y590418D02*
X450085Y590278D01*
X449490Y589880D01*
X449092Y589285D01*
X448952Y588583D01*
X449092Y587880D01*
X449490Y587285D01*
X450085Y586887D01*
X450787Y586747D01*
X451490Y586887D01*
X452085Y587285D01*
X452483Y587880D01*
X452623Y588583D01*
X452483Y589285D01*
X452085Y589880D01*
X451490Y590278D01*
X450787Y590418D01*
D02*
G37*
G36*
X535433Y588449D02*
X534731Y588310D01*
X534135Y587912D01*
X533738Y587317D01*
X533598Y586614D01*
X533738Y585912D01*
X534135Y585316D01*
X534731Y584919D01*
X535433Y584779D01*
X536135Y584919D01*
X536731Y585316D01*
X537129Y585912D01*
X537268Y586614D01*
X537129Y587317D01*
X536731Y587912D01*
X536135Y588310D01*
X535433Y588449D01*
D02*
G37*
G36*
X525591Y585497D02*
X524888Y585357D01*
X524293Y584959D01*
X523895Y584364D01*
X523785Y583813D01*
X523520Y583560D01*
X523192Y583418D01*
X522638Y583528D01*
X521936Y583389D01*
X521340Y582991D01*
X520942Y582395D01*
X520802Y581693D01*
X520942Y580991D01*
X521340Y580395D01*
X521936Y579997D01*
X522638Y579858D01*
X523340Y579997D01*
X523936Y580395D01*
X524333Y580991D01*
X524443Y581542D01*
X524709Y581795D01*
X525036Y581936D01*
X525591Y581826D01*
X526293Y581966D01*
X526888Y582364D01*
X527286Y582959D01*
X527426Y583661D01*
X527286Y584364D01*
X526888Y584959D01*
X526293Y585357D01*
X525591Y585497D01*
D02*
G37*
G36*
X638779Y587465D02*
X638077Y587325D01*
X637482Y586928D01*
X637084Y586332D01*
X636944Y585630D01*
X637084Y584928D01*
X637482Y584332D01*
X638077Y583934D01*
X638779Y583795D01*
X639482Y583934D01*
X640077Y584332D01*
X640475Y584928D01*
X640615Y585630D01*
X640475Y586332D01*
X640077Y586928D01*
X639482Y587325D01*
X638779Y587465D01*
D02*
G37*
G36*
X529528Y588449D02*
X528825Y588310D01*
X528230Y587912D01*
X527832Y587317D01*
X527692Y586614D01*
X527832Y585912D01*
X528230Y585316D01*
X528825Y584919D01*
X529528Y584779D01*
X530230Y584919D01*
X530825Y585316D01*
X531223Y585912D01*
X531363Y586614D01*
X531223Y587317D01*
X530825Y587912D01*
X530230Y588310D01*
X529528Y588449D01*
D02*
G37*
G36*
X651575Y591402D02*
X650873Y591262D01*
X650277Y590865D01*
X649879Y590269D01*
X649740Y589567D01*
X649879Y588865D01*
X650277Y588269D01*
X650873Y587871D01*
X651575Y587732D01*
X652277Y587871D01*
X652873Y588269D01*
X653270Y588865D01*
X653410Y589567D01*
X653270Y590269D01*
X652873Y590865D01*
X652277Y591262D01*
X651575Y591402D01*
D02*
G37*
G36*
X694882Y594355D02*
X694180Y594215D01*
X693584Y593817D01*
X693237Y593298D01*
X692913Y593257D01*
X692590Y593298D01*
X692243Y593817D01*
X691647Y594215D01*
X690945Y594355D01*
X690243Y594215D01*
X689647Y593817D01*
X689300Y593298D01*
X688976Y593257D01*
X688653Y593298D01*
X688306Y593817D01*
X687710Y594215D01*
X687008Y594355D01*
X686306Y594215D01*
X685710Y593817D01*
X685312Y593222D01*
X685173Y592520D01*
X685312Y591817D01*
X685710Y591222D01*
X686306Y590824D01*
X687008Y590684D01*
X687710Y590824D01*
X688306Y591222D01*
X688653Y591741D01*
X688976Y591783D01*
X689300Y591741D01*
X689647Y591222D01*
X690243Y590824D01*
X690945Y590684D01*
X691647Y590824D01*
X692243Y591222D01*
X692590Y591741D01*
X692913Y591783D01*
X693237Y591741D01*
X693584Y591222D01*
X694180Y590824D01*
X694882Y590684D01*
X695584Y590824D01*
X696180Y591222D01*
X696578Y591817D01*
X696717Y592520D01*
X696578Y593222D01*
X696180Y593817D01*
X695584Y594215D01*
X694882Y594355D01*
D02*
G37*
G36*
X543307Y597308D02*
X542605Y597168D01*
X542009Y596770D01*
X541611Y596175D01*
X541472Y595472D01*
X541611Y594770D01*
X542009Y594175D01*
X542605Y593777D01*
X543307Y593637D01*
X544009Y593777D01*
X544605Y594175D01*
X545003Y594770D01*
X545142Y595472D01*
X545003Y596175D01*
X544605Y596770D01*
X544009Y597168D01*
X543307Y597308D01*
D02*
G37*
G36*
X698817Y591401D02*
X698115Y591261D01*
X697520Y590864D01*
X697122Y590268D01*
X696982Y589566D01*
X697122Y588863D01*
X697520Y588268D01*
X698115Y587870D01*
X698817Y587731D01*
X699520Y587870D01*
X700115Y588268D01*
X700513Y588863D01*
X700653Y589566D01*
X700513Y590268D01*
X700115Y590864D01*
X699520Y591261D01*
X698817Y591401D01*
D02*
G37*
G36*
X470472Y594355D02*
X469770Y594215D01*
X469175Y593817D01*
X468777Y593222D01*
X468637Y592520D01*
X468777Y591817D01*
X469175Y591222D01*
X469522Y590990D01*
X469515Y590871D01*
X469342Y590389D01*
X468786Y590278D01*
X468190Y589880D01*
X467793Y589285D01*
X467653Y588583D01*
X467793Y587880D01*
X468190Y587285D01*
X468786Y586887D01*
X469488Y586747D01*
X470190Y586887D01*
X470786Y587285D01*
X471184Y587880D01*
X471323Y588583D01*
X471184Y589285D01*
X470786Y589880D01*
X470439Y590112D01*
X470446Y590231D01*
X470619Y590714D01*
X471175Y590824D01*
X471770Y591222D01*
X472168Y591817D01*
X472308Y592520D01*
X472168Y593222D01*
X471770Y593817D01*
X471175Y594215D01*
X470472Y594355D01*
D02*
G37*
G36*
X513779Y590418D02*
X513077Y590278D01*
X512482Y589880D01*
X512084Y589285D01*
X511944Y588583D01*
X512084Y587880D01*
X512482Y587285D01*
X513077Y586887D01*
X513779Y586747D01*
X514482Y586887D01*
X515077Y587285D01*
X515475Y587880D01*
X515615Y588583D01*
X515475Y589285D01*
X515077Y589880D01*
X514482Y590278D01*
X513779Y590418D01*
D02*
G37*
G36*
X767717Y593678D02*
X766907Y593571D01*
X766153Y593259D01*
X765506Y592762D01*
X765009Y592115D01*
X764696Y591360D01*
X764590Y590551D01*
X764696Y589742D01*
X765009Y588988D01*
X765506Y588340D01*
X766153Y587843D01*
X766907Y587531D01*
X767717Y587424D01*
X768526Y587531D01*
X769280Y587843D01*
X769928Y588340D01*
X770424Y588988D01*
X770737Y589742D01*
X770843Y590551D01*
X770737Y591360D01*
X770424Y592115D01*
X769928Y592762D01*
X769280Y593259D01*
X768526Y593571D01*
X767717Y593678D01*
D02*
G37*
G36*
X508858Y623882D02*
X508156Y623743D01*
X507560Y623345D01*
X507163Y622750D01*
X507023Y622047D01*
X507163Y621345D01*
X507560Y620750D01*
X508156Y620352D01*
X508858Y620212D01*
X509561Y620352D01*
X510156Y620750D01*
X510554Y621345D01*
X510694Y622047D01*
X510554Y622750D01*
X510156Y623345D01*
X509561Y623743D01*
X508858Y623882D01*
D02*
G37*
G36*
X459449Y624079D02*
X458746Y623940D01*
X458151Y623542D01*
X457753Y622946D01*
X457614Y622244D01*
X457753Y621542D01*
X458151Y620946D01*
X458746Y620548D01*
X459449Y620409D01*
X460151Y620548D01*
X460746Y620946D01*
X461144Y621542D01*
X461284Y622244D01*
X461144Y622946D01*
X460746Y623542D01*
X460151Y623940D01*
X459449Y624079D01*
D02*
G37*
G36*
X513548Y625620D02*
X512846Y625480D01*
X512250Y625082D01*
X511853Y624487D01*
X511713Y623784D01*
X511853Y623082D01*
X512250Y622486D01*
X512846Y622089D01*
X513548Y621949D01*
X514250Y622089D01*
X514846Y622486D01*
X515244Y623082D01*
X515383Y623784D01*
X515244Y624487D01*
X514846Y625082D01*
X514250Y625480D01*
X513548Y625620D01*
D02*
G37*
G36*
X517717Y622898D02*
X517014Y622759D01*
X516419Y622361D01*
X516021Y621765D01*
X515881Y621063D01*
X516021Y620361D01*
X516419Y619765D01*
X517014Y619367D01*
X517717Y619228D01*
X518419Y619367D01*
X519014Y619765D01*
X519412Y620361D01*
X519552Y621063D01*
X519412Y621765D01*
X519014Y622361D01*
X518419Y622759D01*
X517717Y622898D01*
D02*
G37*
G36*
X523622Y618961D02*
X522920Y618821D01*
X522324Y618424D01*
X521926Y617828D01*
X521787Y617126D01*
X521926Y616424D01*
X522324Y615828D01*
X522920Y615430D01*
X523622Y615291D01*
X524324Y615430D01*
X524920Y615828D01*
X525318Y616424D01*
X525457Y617126D01*
X525318Y617828D01*
X524920Y618424D01*
X524324Y618821D01*
X523622Y618961D01*
D02*
G37*
G36*
X475197Y619749D02*
X474495Y619609D01*
X473899Y619211D01*
X473501Y618616D01*
X473362Y617913D01*
X473501Y617211D01*
X473899Y616616D01*
X474495Y616218D01*
X475197Y616078D01*
X475899Y616218D01*
X476495Y616616D01*
X476892Y617211D01*
X477032Y617913D01*
X476892Y618616D01*
X476495Y619211D01*
X475899Y619609D01*
X475197Y619749D01*
D02*
G37*
G36*
X484252Y622898D02*
X483550Y622759D01*
X482954Y622361D01*
X482556Y621765D01*
X482417Y621063D01*
X482556Y620361D01*
X482954Y619765D01*
X483550Y619367D01*
X484252Y619228D01*
X484954Y619367D01*
X485550Y619765D01*
X485948Y620361D01*
X486087Y621063D01*
X485948Y621765D01*
X485550Y622361D01*
X484954Y622759D01*
X484252Y622898D01*
D02*
G37*
G36*
X506890Y635694D02*
X506187Y635554D01*
X505592Y635156D01*
X505194Y634561D01*
X505055Y633858D01*
X505194Y633156D01*
X505592Y632560D01*
X506187Y632163D01*
X506890Y632023D01*
X507592Y632163D01*
X508187Y632560D01*
X508585Y633156D01*
X508725Y633858D01*
X508585Y634561D01*
X508187Y635156D01*
X507592Y635554D01*
X506890Y635694D01*
D02*
G37*
G36*
X553150Y635694D02*
X552447Y635554D01*
X551852Y635156D01*
X551454Y634561D01*
X551314Y633858D01*
X551454Y633156D01*
X551852Y632560D01*
X552447Y632163D01*
X553150Y632023D01*
X553852Y632163D01*
X554447Y632560D01*
X554845Y633156D01*
X554985Y633858D01*
X554845Y634561D01*
X554447Y635156D01*
X553852Y635554D01*
X553150Y635694D01*
D02*
G37*
G36*
X502953Y637662D02*
X502250Y637522D01*
X501655Y637124D01*
X501257Y636529D01*
X501118Y635827D01*
X501257Y635124D01*
X501655Y634529D01*
X502250Y634131D01*
X502953Y633991D01*
X503655Y634131D01*
X504250Y634529D01*
X504648Y635124D01*
X504788Y635827D01*
X504648Y636529D01*
X504250Y637124D01*
X503655Y637522D01*
X502953Y637662D01*
D02*
G37*
G36*
X508858Y631756D02*
X508156Y631617D01*
X507560Y631219D01*
X507163Y630624D01*
X507023Y629921D01*
X507163Y629219D01*
X507560Y628623D01*
X508156Y628226D01*
X508858Y628086D01*
X509561Y628226D01*
X510156Y628623D01*
X510554Y629219D01*
X510694Y629921D01*
X510554Y630624D01*
X510156Y631219D01*
X509561Y631617D01*
X508858Y631756D01*
D02*
G37*
G36*
X512795Y629788D02*
X512093Y629648D01*
X511497Y629250D01*
X511100Y628655D01*
X510960Y627953D01*
X511100Y627250D01*
X511497Y626655D01*
X512093Y626257D01*
X512795Y626118D01*
X513498Y626257D01*
X514093Y626655D01*
X514491Y627250D01*
X514631Y627953D01*
X514491Y628655D01*
X514093Y629250D01*
X513498Y629648D01*
X512795Y629788D01*
D02*
G37*
G36*
X633858D02*
X633156Y629648D01*
X632560Y629250D01*
X632163Y628655D01*
X632023Y627953D01*
X632163Y627250D01*
X632560Y626655D01*
X633156Y626257D01*
X633858Y626118D01*
X634561Y626257D01*
X635156Y626655D01*
X635554Y627250D01*
X635694Y627953D01*
X635554Y628655D01*
X635156Y629250D01*
X634561Y629648D01*
X633858Y629788D01*
D02*
G37*
G36*
X767717Y633048D02*
X766907Y632941D01*
X766153Y632629D01*
X765506Y632132D01*
X765009Y631485D01*
X764696Y630730D01*
X764590Y629921D01*
X764696Y629112D01*
X765009Y628358D01*
X765506Y627710D01*
X766153Y627213D01*
X766907Y626901D01*
X767717Y626794D01*
X768526Y626901D01*
X769280Y627213D01*
X769928Y627710D01*
X770424Y628358D01*
X770737Y629112D01*
X770843Y629921D01*
X770737Y630730D01*
X770424Y631485D01*
X769928Y632132D01*
X769280Y632629D01*
X768526Y632941D01*
X767717Y633048D01*
D02*
G37*
G36*
X497206Y618803D02*
X496503Y618663D01*
X495908Y618265D01*
X495510Y617670D01*
X495370Y616967D01*
X495510Y616265D01*
X495908Y615670D01*
X496503Y615272D01*
X497206Y615132D01*
X497908Y615272D01*
X498503Y615670D01*
X498901Y616265D01*
X499041Y616967D01*
X498901Y617670D01*
X498503Y618265D01*
X497908Y618663D01*
X497206Y618803D01*
D02*
G37*
G36*
X682677Y613056D02*
X681975Y612916D01*
X681379Y612518D01*
X680982Y611923D01*
X680842Y611221D01*
X680982Y610518D01*
X681379Y609923D01*
X681975Y609525D01*
X682677Y609385D01*
X683380Y609525D01*
X683661Y609713D01*
X683943Y609525D01*
X684646Y609385D01*
X685348Y609525D01*
X685943Y609923D01*
X686341Y610518D01*
X686481Y611221D01*
X686341Y611923D01*
X685943Y612518D01*
X685348Y612916D01*
X684646Y613056D01*
X683943Y612916D01*
X683662Y612728D01*
X683380Y612916D01*
X682677Y613056D01*
D02*
G37*
G36*
X483268Y616993D02*
X482565Y616853D01*
X481970Y616455D01*
X481572Y615860D01*
X481432Y615158D01*
X481543Y614603D01*
X481401Y614276D01*
X481148Y614010D01*
X480597Y613900D01*
X480001Y613502D01*
X479604Y612907D01*
X479464Y612205D01*
X479604Y611502D01*
X480001Y610907D01*
X480597Y610509D01*
X481299Y610369D01*
X482001Y610509D01*
X482597Y610907D01*
X482995Y611502D01*
X483135Y612205D01*
X483024Y612759D01*
X483166Y613087D01*
X483419Y613352D01*
X483970Y613462D01*
X484565Y613860D01*
X484963Y614455D01*
X485103Y615158D01*
X484963Y615860D01*
X484565Y616455D01*
X483970Y616853D01*
X483268Y616993D01*
D02*
G37*
G36*
X490158Y614040D02*
X489455Y613900D01*
X488860Y613502D01*
X488462Y612907D01*
X488322Y612205D01*
X488462Y611502D01*
X488860Y610907D01*
X489455Y610509D01*
X490158Y610369D01*
X490860Y610509D01*
X491455Y610907D01*
X491853Y611502D01*
X491993Y612205D01*
X491853Y612907D01*
X491455Y613502D01*
X490860Y613900D01*
X490158Y614040D01*
D02*
G37*
G36*
X646654Y613056D02*
X645951Y612916D01*
X645356Y612518D01*
X644958Y611923D01*
X644818Y611221D01*
X644958Y610518D01*
X645356Y609923D01*
X645951Y609525D01*
X646654Y609385D01*
X647356Y609525D01*
X647951Y609923D01*
X648349Y610518D01*
X648489Y611221D01*
X648349Y611923D01*
X647951Y612518D01*
X647356Y612916D01*
X646654Y613056D01*
D02*
G37*
G36*
X651024Y611221D02*
X650322Y611081D01*
X649727Y610683D01*
X649329Y610087D01*
X649189Y609385D01*
X649329Y608683D01*
X649727Y608087D01*
X650322Y607690D01*
X651024Y607550D01*
X651727Y607690D01*
X652322Y608087D01*
X652720Y608683D01*
X652860Y609385D01*
X652720Y610087D01*
X652322Y610683D01*
X651727Y611081D01*
X651024Y611221D01*
D02*
G37*
G36*
X513779Y609118D02*
X513077Y608978D01*
X512481Y608580D01*
X512295Y608302D01*
X511974D01*
X511970Y608303D01*
X511579Y608225D01*
X511249Y608004D01*
X504426Y601182D01*
X479826D01*
X475725Y605283D01*
X475394Y605504D01*
X475004Y605582D01*
X454651D01*
X454651Y605582D01*
X452003D01*
X451613Y605504D01*
X451282Y605283D01*
X450131Y604132D01*
X449803Y604198D01*
X449101Y604058D01*
X448505Y603660D01*
X448158Y603140D01*
X447835Y603099D01*
X447511Y603140D01*
X447164Y603660D01*
X446568Y604058D01*
X445866Y604198D01*
X445164Y604058D01*
X444568Y603660D01*
X444221Y603140D01*
X443898Y603099D01*
X443574Y603140D01*
X443227Y603660D01*
X442631Y604058D01*
X441929Y604198D01*
X441227Y604058D01*
X440631Y603660D01*
X440234Y603064D01*
X440094Y602362D01*
X440234Y601660D01*
X440631Y601064D01*
X441227Y600667D01*
X441929Y600527D01*
X442257Y600592D01*
X446208Y596641D01*
X446539Y596420D01*
X446929Y596343D01*
X475842D01*
X476943Y595241D01*
X477274Y595020D01*
X477664Y594943D01*
X511883D01*
X512074Y594752D01*
X512405Y594530D01*
X512795Y594453D01*
X514264D01*
X514450Y594175D01*
X515046Y593777D01*
X515748Y593637D01*
X516450Y593777D01*
X517046Y594175D01*
X517444Y594770D01*
X517583Y595472D01*
X517444Y596175D01*
X517046Y596770D01*
X516993Y596806D01*
X517175Y597406D01*
X519186D01*
X519372Y597127D01*
X519967Y596730D01*
X520669Y596590D01*
X521372Y596730D01*
X521967Y597127D01*
X522365Y597723D01*
X522505Y598425D01*
X522365Y599127D01*
X521967Y599723D01*
X521372Y600121D01*
X520669Y600260D01*
X519967Y600121D01*
X519372Y599723D01*
X519186Y599445D01*
X516012D01*
X514214Y601243D01*
X514410Y601896D01*
X514902Y602224D01*
X515300Y602820D01*
X515439Y603522D01*
X515300Y604224D01*
X514902Y604820D01*
X514616Y605011D01*
X514585Y605143D01*
X514657Y605705D01*
X515077Y605985D01*
X515474Y606580D01*
X515614Y607283D01*
X515474Y607985D01*
X515077Y608580D01*
X514481Y608978D01*
X513779Y609118D01*
D02*
G37*
G36*
X456693Y612072D02*
X455991Y611932D01*
X455395Y611534D01*
X454997Y610939D01*
X454858Y610236D01*
X454997Y609534D01*
X455395Y608939D01*
X455991Y608541D01*
X456693Y608401D01*
X457395Y608541D01*
X457991Y608939D01*
X458389Y609534D01*
X458528Y610236D01*
X458389Y610939D01*
X457991Y611534D01*
X457395Y611932D01*
X456693Y612072D01*
D02*
G37*
G36*
X506890Y614040D02*
X506187Y613900D01*
X505592Y613502D01*
X505245Y612983D01*
X504921Y612942D01*
X504598Y612983D01*
X504250Y613502D01*
X503655Y613900D01*
X502953Y614040D01*
X502250Y613900D01*
X501655Y613502D01*
X501199D01*
X500604Y613900D01*
X499902Y614040D01*
X499199Y613900D01*
X498604Y613502D01*
X498206Y612907D01*
X498066Y612205D01*
X498206Y611502D01*
X498604Y610907D01*
X499199Y610509D01*
X499902Y610369D01*
X500604Y610509D01*
X501199Y610907D01*
X501655D01*
X502250Y610509D01*
X502953Y610369D01*
X503655Y610509D01*
X504250Y610907D01*
X504598Y611426D01*
X504921Y611468D01*
X505245Y611426D01*
X505592Y610907D01*
X506187Y610509D01*
X506890Y610369D01*
X507592Y610509D01*
X508187Y610907D01*
X508585Y611502D01*
X508725Y612205D01*
X508585Y612907D01*
X508187Y613502D01*
X507592Y613900D01*
X506890Y614040D01*
D02*
G37*
G36*
X517717Y617977D02*
X517014Y617837D01*
X516419Y617440D01*
X516021Y616844D01*
X515881Y616142D01*
X516021Y615439D01*
X516419Y614844D01*
X517014Y614446D01*
X517717Y614306D01*
X518419Y614446D01*
X519014Y614844D01*
X519412Y615439D01*
X519552Y616142D01*
X519412Y616844D01*
X519014Y617440D01*
X518419Y617837D01*
X517717Y617977D01*
D02*
G37*
G36*
X682875Y621914D02*
X682172Y621774D01*
X681577Y621377D01*
X681179Y620781D01*
X681039Y620079D01*
X681179Y619376D01*
X681368Y619095D01*
X681179Y618813D01*
X681039Y618110D01*
X681179Y617408D01*
X681368Y617126D01*
X681179Y616844D01*
X681039Y616142D01*
X681179Y615439D01*
X681577Y614844D01*
X682172Y614446D01*
X682875Y614306D01*
X683577Y614446D01*
X684172Y614844D01*
X684570Y615439D01*
X684710Y616142D01*
X684570Y616844D01*
X684382Y617126D01*
X684570Y617408D01*
X684710Y618110D01*
X684570Y618813D01*
X684382Y619095D01*
X684570Y619376D01*
X684710Y620079D01*
X684570Y620781D01*
X684172Y621377D01*
X683577Y621774D01*
X682875Y621914D01*
D02*
G37*
G36*
X638779Y615024D02*
X638077Y614885D01*
X637482Y614487D01*
X637084Y613891D01*
X636944Y613189D01*
X637084Y612487D01*
X637482Y611891D01*
X638077Y611493D01*
X638779Y611354D01*
X639482Y611493D01*
X640077Y611891D01*
X640475Y612487D01*
X640615Y613189D01*
X640475Y613891D01*
X640077Y614487D01*
X639482Y614885D01*
X638779Y615024D01*
D02*
G37*
G36*
X495079Y614040D02*
X494376Y613900D01*
X493781Y613502D01*
X493383Y612907D01*
X493244Y612205D01*
X493383Y611502D01*
X493781Y610907D01*
X494376Y610509D01*
X495079Y610369D01*
X495781Y610509D01*
X496377Y610907D01*
X496774Y611502D01*
X496914Y612205D01*
X496774Y612907D01*
X496377Y613502D01*
X495781Y613900D01*
X495079Y614040D01*
D02*
G37*
G36*
X543307Y614434D02*
X542605Y614294D01*
X542009Y613896D01*
X541611Y613301D01*
X541472Y612598D01*
X541611Y611896D01*
X542009Y611301D01*
X542605Y610903D01*
X543307Y610763D01*
X544009Y610903D01*
X544605Y611301D01*
X545003Y611896D01*
X545142Y612598D01*
X545003Y613301D01*
X544605Y613896D01*
X544009Y614294D01*
X543307Y614434D01*
D02*
G37*
%LPD*%
G36*
X468753Y602943D02*
X468637Y602362D01*
X468753Y601782D01*
X468430Y601182D01*
X456362D01*
X455510Y602034D01*
X455575Y602362D01*
X455460Y602943D01*
X455783Y603543D01*
X468430D01*
X468753Y602943D01*
D02*
G37*
D40*
X454651Y604562D02*
X475004D01*
X454651Y604562D02*
X454651Y604562D01*
X475004D02*
X479404Y600162D01*
X449803Y602362D02*
X452003Y604562D01*
X454651D01*
X504848Y600162D02*
X511970Y607283D01*
X479404Y600162D02*
X504848D01*
X478824Y598762D02*
X505428D01*
X478244Y597362D02*
X506008D01*
X510592Y601946D01*
X476844Y598762D02*
X478244Y597362D01*
X477424Y600162D02*
X478824Y598762D01*
X510592Y601946D02*
X512068D01*
X511970Y607283D02*
X511970Y607283D01*
X513779D01*
X505428Y598762D02*
X510188Y603522D01*
X512068Y601946D02*
X515590Y598425D01*
X512795Y595472D02*
X515748D01*
X512305Y595962D02*
X512795Y595472D01*
X477664Y595962D02*
X512305D01*
X476264Y597362D02*
X477664Y595962D01*
X455940Y600162D02*
X477424D01*
X449466Y598762D02*
X476844D01*
X446929Y597362D02*
X476264D01*
X510188Y603522D02*
X513604D01*
X515590Y598425D02*
X520669D01*
X441929Y602362D02*
X446929Y597362D01*
X445866Y602362D02*
X449466Y598762D01*
X453740Y602362D02*
X455940Y600162D01*
D43*
X881664Y508331D02*
X879998Y509997D01*
X876666D01*
X875000Y508331D01*
Y506665D01*
X876666Y504998D01*
X879998D01*
X881664Y503332D01*
Y501666D01*
X879998Y500000D01*
X876666D01*
X875000Y501666D01*
X884997Y500000D02*
X888329D01*
X886663D01*
Y506665D01*
X884997D01*
X896660Y496668D02*
X898326D01*
X899992Y498334D01*
Y506665D01*
X894993D01*
X893327Y504998D01*
Y501666D01*
X894993Y500000D01*
X899992D01*
X903324D02*
Y506665D01*
X908323D01*
X909989Y504998D01*
Y500000D01*
X914987Y506665D02*
X918319D01*
X919985Y504998D01*
Y500000D01*
X914987D01*
X913321Y501666D01*
X914987Y503332D01*
X919985D01*
X923318Y500000D02*
X926650D01*
X924984D01*
Y509997D01*
X923318D01*
X941645D02*
Y500000D01*
X948310D01*
X953308Y506665D02*
X956640D01*
X958306Y504998D01*
Y500000D01*
X953308D01*
X951642Y501666D01*
X953308Y503332D01*
X958306D01*
X961639Y506665D02*
Y501666D01*
X963305Y500000D01*
X968303D01*
Y498334D01*
X966637Y496668D01*
X964971D01*
X968303Y500000D02*
Y506665D01*
X976634Y500000D02*
X973302D01*
X971635Y501666D01*
Y504998D01*
X973302Y506665D01*
X976634D01*
X978300Y504998D01*
Y503332D01*
X971635D01*
X981632Y506665D02*
Y500000D01*
Y503332D01*
X983298Y504998D01*
X984964Y506665D01*
X986631D01*
X1001626Y500000D02*
X1004958D01*
X1003292D01*
Y509997D01*
X1001626Y508331D01*
D46*
X767717Y669291D02*
D03*
D47*
X708347Y768701D02*
D03*
X412402Y647835D02*
D03*
X689134Y412402D02*
D03*
X768701Y512913D02*
D03*
Y482913D02*
D03*
Y452913D02*
D03*
X565472Y768701D02*
D03*
X442913D02*
D03*
D49*
X403543Y542323D02*
D03*
Y498032D02*
D03*
D54*
X580866Y403386D02*
D03*
Y423386D02*
D03*
X560866D02*
D03*
Y403386D02*
D03*
X620236D02*
D03*
Y423386D02*
D03*
X600236D02*
D03*
Y403386D02*
D03*
D55*
X569685Y467717D02*
D03*
X564173Y463386D02*
D03*
X563386Y457874D02*
D03*
X568110Y453150D02*
D03*
X579134Y453937D02*
D03*
X586221D02*
D03*
X541339Y490158D02*
D03*
X537402Y485433D02*
D03*
X552165Y476378D02*
D03*
Y489173D02*
D03*
X599213Y455512D02*
D03*
X627953Y478346D02*
D03*
X643701Y481299D02*
D03*
X635827Y478346D02*
D03*
X682875Y616142D02*
D03*
X682677Y611221D02*
D03*
X684646Y611221D02*
D03*
X703150Y611220D02*
D03*
X701181Y611221D02*
D03*
X675394Y659646D02*
D03*
X675394Y661614D02*
D03*
Y663583D02*
D03*
X687599Y658465D02*
D03*
X687599Y656496D02*
D03*
X674409Y691929D02*
D03*
X674409Y689961D02*
D03*
X679134Y693898D02*
D03*
X682875Y620079D02*
D03*
Y618110D02*
D03*
X679134Y691929D02*
D03*
Y689961D02*
D03*
X660433Y583661D02*
D03*
X612205Y648622D02*
D03*
X638779Y589567D02*
D03*
X622244Y455512D02*
D03*
X607283Y452756D02*
D03*
X601378Y450787D02*
D03*
X448000Y626150D02*
D03*
Y628118D02*
D03*
Y630087D02*
D03*
X450000Y606000D02*
D03*
X505905Y562008D02*
D03*
X529134Y514173D02*
D03*
X558071Y491142D02*
D03*
X558119Y476426D02*
D03*
X596851Y508858D02*
D03*
X609252Y554134D02*
D03*
X492126Y590551D02*
D03*
X480315D02*
D03*
X503937D02*
D03*
X492126Y578740D02*
D03*
Y520669D02*
D03*
Y463583D02*
D03*
X439961Y492126D02*
D03*
Y511811D02*
D03*
Y472441D02*
D03*
X741142Y664370D02*
D03*
Y660433D02*
D03*
Y662402D02*
D03*
X415748Y614567D02*
D03*
X429724D02*
D03*
X422736D02*
D03*
X720079Y641339D02*
D03*
X730315D02*
D03*
X740551D02*
D03*
X715394Y653937D02*
D03*
Y649606D02*
D03*
Y651772D02*
D03*
X480315Y578740D02*
D03*
X503937D02*
D03*
Y602362D02*
D03*
X497047Y558071D02*
D03*
X506890Y616142D02*
D03*
X593504Y533653D02*
D03*
X627953Y531496D02*
D03*
X417126Y585433D02*
D03*
X415158D02*
D03*
X419095D02*
D03*
X420669Y605315D02*
D03*
X424606D02*
D03*
X422638D02*
D03*
X494488Y620472D02*
D03*
X486221Y602362D02*
D03*
X498032D02*
D03*
X492126D02*
D03*
X480315D02*
D03*
X486221Y590551D02*
D03*
X498032D02*
D03*
X464567Y628937D02*
D03*
X467717Y618307D02*
D03*
X513779Y607283D02*
D03*
X515748Y595472D02*
D03*
X462008Y578346D02*
D03*
X457677Y592520D02*
D03*
X528150Y706299D02*
D03*
X513604Y603522D02*
D03*
X520669Y598425D02*
D03*
X526575Y591535D02*
D03*
X550197Y537402D02*
D03*
X587598Y554134D02*
D03*
X587205Y532480D02*
D03*
X621063D02*
D03*
X574803Y554134D02*
D03*
X607283Y492126D02*
D03*
X573624Y479526D02*
D03*
X573672Y495226D02*
D03*
X607283Y485826D02*
D03*
X548228Y480315D02*
D03*
X582677Y450787D02*
D03*
X595669Y451181D02*
D03*
X584251Y475350D02*
D03*
X577951D02*
D03*
X593651D02*
D03*
X631890Y489173D02*
D03*
X631890Y482283D02*
D03*
X640748Y477362D02*
D03*
X543307Y572835D02*
D03*
X535039Y591929D02*
D03*
X527953Y612598D02*
D03*
X523622Y601378D02*
D03*
X546260Y540354D02*
D03*
X539370Y633858D02*
D03*
X577756Y647638D02*
D03*
X554134Y611221D02*
D03*
Y591535D02*
D03*
Y569882D02*
D03*
X575787Y626968D02*
D03*
X595472D02*
D03*
X611221D02*
D03*
X593504Y649606D02*
D03*
X574213Y656890D02*
D03*
X696850Y579724D02*
D03*
X705709Y583661D02*
D03*
X633858Y641732D02*
D03*
X652559Y585630D02*
D03*
Y567913D02*
D03*
X626968Y569882D02*
D03*
X679134Y570866D02*
D03*
X626968Y611221D02*
D03*
X639173Y618504D02*
D03*
X669290Y592519D02*
D03*
X690945Y596457D02*
D03*
X441929Y602362D02*
D03*
X449803D02*
D03*
X445866D02*
D03*
X453740D02*
D03*
X546063Y489370D02*
D03*
X627953Y494095D02*
D03*
X548228Y485236D02*
D03*
X444882Y669291D02*
D03*
Y688976D02*
D03*
Y708661D02*
D03*
X432087Y591535D02*
D03*
Y593504D02*
D03*
X430118Y592520D02*
D03*
X513779Y678150D02*
D03*
Y699803D02*
D03*
M02*
