M48
;Layer_Color=9474304
;FILE_FORMAT=2:5
INCH,LZ
;TYPE=PLATED
T1F00S00C0.01200
T2F00S00C0.01968
T3F00S00C0.02400
T4F00S00C0.04000
T5F00S00C0.05906
T6F00S00C0.06299
T7F00S00C0.13600
%
T01
X0492126Y0463583
X0508504Y0447933
X0563386Y0457874
X0564173Y0463386
X0569685Y0467717
X056811Y045315
X0579134Y0453937
Y0459842
X0586221
Y0453937
X0582677Y0450787
X0595669Y0451181
X0601378Y0450787
X0599213Y0455512
X0601378Y0459646
X0595472Y0464567
X0582677
X0609252Y0466535
X0607283Y0452756
X0613976Y0449606
X0622244Y0455512
X0627953Y0478346
X063189Y0482283
X063189Y0489173
X0635827Y0492126
X0640748Y049311
X0643701Y0489173
Y0481299
X0640748Y0477362
X0635827Y0478346
X0627953Y0494095
X0627953Y0531496
X0625Y0543701
X0626968Y0569882
X0638779Y0567913
X0652559
Y058563
X0651575Y0589567
X0638779
Y058563
X0660433Y0583661
X066437Y0582677
X067126Y0580709
X0669291Y0587598
X066929Y0592519
X0662715Y0597754
X0658465Y0599409
X065681Y060366
X0652559Y0605315
X0651024Y0609385
X0646654Y0611221
X0642717Y0607283
X0638779Y0613189
X0639173Y0618504
X0626968Y0611221
X0682677Y0611221
X0684646Y0611221
X0682875Y0616142
Y061811
Y0620079
X0688976Y0603346
X0690945Y0596457
Y059252
X0687008
Y0584646
X0690945
X0694882
X069685Y0579724
X0701772Y0581693
X0705709Y0583661
X0698817Y0589566
X0694882Y059252
X0702756Y0596457
X0702756Y0601378
X070315Y061122
X0701181Y0611221
X0688976Y057874
X0692913Y0570866
X0679134
X0623032Y0559055
X0620079Y0556102
X0609252Y0554134
X0608268Y0543307
X0613189
X0620079Y0542323
X0621063Y0537402
Y053248
X0605315Y0531307
X0603839Y0540354
X0598425Y0538878
X0593504Y0533653
X0587205Y053248
X0589567Y0537402
X0583661Y0544095
X0587598Y0554134
X0574803
Y0559055
X0569882Y0561024
X0554134Y0569882
X0543307Y0568898
Y0572835
X0534449Y0577756
X0530512
X0530511Y0581692
X0529528Y0586614
X0535433
X0535039Y0591929
X0526575Y0591535
X0525591Y0583661
X0522638Y0581693
X0520669Y0570866
X0524606Y0570865
X0521654Y0565551
X05187Y0562991
X0513221Y0563453
X0514763Y0566928
X0505905Y0562008
X0509842Y0557086
X0521654Y0557087
X0529528
X054626Y055315
X054626Y0540354
X0550197Y0537402
X0554134
X0556102Y0534449
X0561024
X0565945
X0568451Y053105
X0573819Y0526575
X0576772Y0522638
X0581151Y0520669
X0583661Y0526575
X0587598Y0522638
X0595472Y0520669
X0599409Y0523622
X0596851Y0508858
X0587451
X0573672Y0495226
X0573776Y0485826
Y0482726
X0573624Y0479526
X0577951Y047535
X0581151
X0584251
X0593651
X0596851
X0607327Y0482726
X0607283Y0485826
X0607327Y0489026
X0607283Y0492126
X061811Y0489173
Y0482283
X0562008Y0480315
Y0485236
X0558071Y0491142
X0552165Y0489173
X0546063Y048937
X0541339Y0490158
X0537402Y0485433
Y0478346
X0541339Y0474409
X0546063Y0475197
X0552165Y0476378
X0558119Y0476426
X0548228Y0480315
X0548228Y0485236
X0529134Y0514173
X0520669Y0509449
X0512402Y0514173
X0492126Y0520669
Y0544291
X0490158Y0552734
X0499016Y055315
X0502953Y0551181
X0497047Y0558071
X0497688Y0569243
X0492942Y0568898
X0489605Y0568929
X0488189Y0565945
X0481299Y0567913
X0480315Y0563976
X0483268Y0561024
X0473425
X0479331Y0552165
X0478505Y0537243
X0478346Y0533465
X0474409Y053937
X0511811Y0541339
X0503937Y057874
X0492126
X0480315
Y0590551
X0486221
X0492126
X0498032
X0503937
Y0602362
X0498032
X0492126
X0486221
X0480315
X0470472Y0602362
X0470472Y059252
X0469488Y0588583
X0475197Y0617913
X0483268Y0615158
X0481299Y0612205
X0490158
X0495079
X0499902
X0502953
X050689
Y0616142
X0508858Y0622047
X0513548Y0623784
X0517717Y0621063
Y0616142
X0523622Y0617126
X0527953Y0612598
X0528543Y0605315
X0531496Y0608268
X0535433Y0604138
X0538386Y0606299
X0541339Y0601841
X053937Y0599409
X0543307Y0595472
X0554134Y0591535
Y0611221
X0543307Y0612598
X0523622Y0601378
X0520669Y0598425
X0515748Y0595472
X0513779Y0588583
X0513604Y0603522
X0513779Y0607283
X0497206Y0616967
X0494488Y0620472
X0484252Y0621063
X0570866Y0520669
X0439961Y0511811
X0431102Y0509252
X0433071Y049311
X0439961Y0492126
X0436024Y0488189
X0439961Y0472441
X0465551Y0555118
X0463583Y0564961
X0462008Y0578346
X046752Y057874
X0465551Y0584646
X0462008Y0585039
X0457677Y059252
X0450787Y0588583
X0449803Y0602362
X045Y0606
X045374Y0602362
X0445866
X0441929
X0432087Y0593504
Y0591535
X0430118Y059252
X0419095Y0585433
X0417126
X0415158
X0409646Y0578346
X0399606Y0575787
Y0605315
X0409646Y0602756
X0420669Y0605315
X0422638
X0424606
X0422736Y0614567
X0429724
X0415748
X0456693Y0610236
X0459449Y0622244
X0467717Y0618307
X0464567Y0628937
X0448Y0628118
Y062615
Y0630087
X0444882Y0669291
Y0688976
Y0708661
X0513189Y0706299
X0513779Y0699803
X052815Y0706299
X0513779Y067815
X0515748Y0660433
X0512795Y0627953
X0508858Y0629921
X050689Y0633858
X0502953Y0635827
X0478346Y0644685
X053937Y0633858
X055315Y0633858
X0573819Y0638779
X0577756Y0647638
X0586614Y0647638
X0588583Y0650591
X0590551Y0653543
X0593504Y0649606
X0599409
X0603346Y0646654
X0607283Y0643701
X0608266Y0638778
X0615158Y0639764
X0617126Y0643701
X0616142Y0648622
X0612205Y0648622
X0621063Y0648622
X0611221Y0626968
X0595472
X059685Y0637795
X0593504Y0638779
X0575787Y0626968
X0574213Y065689
X056752
X0574803Y0687992
X0581693
X0577756Y0692913
X0580709Y0705709
X0586614Y0701772
Y0711614
X0590551Y0737205
X0674409Y0691929
X0674409Y0689961
X0679134
Y0691929
Y0693898
X0675394Y0663583
Y0661614
X0675394Y0659646
X0687599Y0658465
X0687599Y0656496
X0715394Y0653937
Y0651772
Y0649606
X0720079Y0641339
X0730315
X0740551
X0741142Y0660433
Y0662402
Y066437
X0733268Y0695866
X0729331
X0725394
X0721457
X071752
Y0699803
Y070374
X0721457
Y0699803
X0725394
X0729331
Y070374
X0725394
X0733268
Y0699803
X0633858Y0641732
X0625Y0640748
X0633858Y0627953
T02
X0403543Y0488189
Y049311
Y0498032
Y0502953
Y0507874
Y0542323
Y0547244
Y0552165
T03
X0574803Y0443898
X0767717Y0590551
X0537402Y056535
Y055535
Y054535
Y053535
X059685Y0659449
X060685
X061685
X062685
X0767717Y0669291
Y0708661
Y0629921
T04
X0443583Y0412402
X0453583
X0463583
X0473583
X0483583
X0493583
X0503583
X0513583
X0679134
X0689134
X0768701Y0442913
Y0452913
Y0462913
Y0472913
Y0482913
Y0492913
Y0502913
Y0512913
X0412402Y0647835
Y0657835
Y0667835
Y0677835
Y0687835
Y0697835
Y0707835
Y0717835
Y0727835
Y0737835
X0442913Y0768701
X0452913
X0462913
X0472913
X0482913
X0492913
X0555472
X0565472
X0575472
X0585472
X0595472
X0605472
X0615472
X0625472
X0708347
X0718347
X0728346
X0738346
T05
X0570866Y0413386
X0610236
T06
X0560866Y0403386
X0580866
X0600236
X0620236
Y0423386
X0600236
X0580866
X0560866
T07
X0413386Y0413386
X0767717
X0413386Y0767717
X0767717
M30
