G04 Layer_Color=16711935*
%FSLAX25Y25*%
%MOIN*%
G70*
G01*
G75*
%ADD41C,0.02000*%
%ADD43C,0.01000*%
D41*
X875000Y401997D02*
Y392000D01*
X879998D01*
X881664Y393666D01*
Y395332D01*
X879998Y396998D01*
X875000D01*
X879998D01*
X881664Y398664D01*
Y400331D01*
X879998Y401997D01*
X875000D01*
X886663Y392000D02*
X889995D01*
X891661Y393666D01*
Y396998D01*
X889995Y398664D01*
X886663D01*
X884997Y396998D01*
Y393666D01*
X886663Y392000D01*
X896660Y398664D02*
X899992D01*
X901658Y396998D01*
Y392000D01*
X896660D01*
X894993Y393666D01*
X896660Y395332D01*
X901658D01*
X904990Y398664D02*
Y392000D01*
Y395332D01*
X906656Y396998D01*
X908323Y398664D01*
X909989D01*
X921652Y401997D02*
Y392000D01*
X916653D01*
X914987Y393666D01*
Y396998D01*
X916653Y398664D01*
X921652D01*
X939979Y401997D02*
X936647D01*
X934981Y400331D01*
Y393666D01*
X936647Y392000D01*
X939979D01*
X941645Y393666D01*
Y400331D01*
X939979Y401997D01*
X944977Y398664D02*
Y393666D01*
X946644Y392000D01*
X951642D01*
Y398664D01*
X956640Y400331D02*
Y398664D01*
X954974D01*
X958306D01*
X956640D01*
Y393666D01*
X958306Y392000D01*
X963305D02*
X966637D01*
X964971D01*
Y401997D01*
X963305D01*
X971635Y392000D02*
X974968D01*
X973302D01*
Y398664D01*
X971635D01*
X979966Y392000D02*
Y398664D01*
X984964D01*
X986631Y396998D01*
Y392000D01*
X994961D02*
X991629D01*
X989963Y393666D01*
Y396998D01*
X991629Y398664D01*
X994961D01*
X996627Y396998D01*
Y395332D01*
X989963D01*
D43*
X393701Y393701D02*
Y787402D01*
X787402D01*
Y393701D02*
Y787402D01*
X393701Y393701D02*
X787402D01*
M02*
