G04 Layer_Color=32896*
%FSLAX25Y25*%
%MOIN*%
G70*
G01*
G75*
%ADD41C,0.02000*%
%ADD54C,0.00600*%
%ADD59C,0.00500*%
D41*
X875000Y437997D02*
Y428000D01*
X879998D01*
X881664Y429666D01*
Y431332D01*
X879998Y432998D01*
X875000D01*
X879998D01*
X881664Y434664D01*
Y436331D01*
X879998Y437997D01*
X875000D01*
X886663Y428000D02*
X889995D01*
X891661Y429666D01*
Y432998D01*
X889995Y434664D01*
X886663D01*
X884997Y432998D01*
Y429666D01*
X886663Y428000D01*
X896660Y436331D02*
Y434664D01*
X894993D01*
X898326D01*
X896660D01*
Y429666D01*
X898326Y428000D01*
X904990Y436331D02*
Y434664D01*
X903324D01*
X906656D01*
X904990D01*
Y429666D01*
X906656Y428000D01*
X913321D02*
X916653D01*
X918319Y429666D01*
Y432998D01*
X916653Y434664D01*
X913321D01*
X911655Y432998D01*
Y429666D01*
X913321Y428000D01*
X921652D02*
Y434664D01*
X923318D01*
X924984Y432998D01*
Y428000D01*
Y432998D01*
X926650Y434664D01*
X928316Y432998D01*
Y428000D01*
X946644Y437997D02*
X943311D01*
X941645Y436331D01*
Y429666D01*
X943311Y428000D01*
X946644D01*
X948310Y429666D01*
Y436331D01*
X946644Y437997D01*
X951642Y434664D02*
X954974Y428000D01*
X958306Y434664D01*
X966637Y428000D02*
X963305D01*
X961639Y429666D01*
Y432998D01*
X963305Y434664D01*
X966637D01*
X968303Y432998D01*
Y431332D01*
X961639D01*
X971635Y434664D02*
Y428000D01*
Y431332D01*
X973302Y432998D01*
X974968Y434664D01*
X976634D01*
X981632Y428000D02*
X984964D01*
X983298D01*
Y437997D01*
X981632D01*
X991629Y434664D02*
X994961D01*
X996627Y432998D01*
Y428000D01*
X991629D01*
X989963Y429666D01*
X991629Y431332D01*
X996627D01*
X999960Y434664D02*
Y429666D01*
X1001626Y428000D01*
X1006624D01*
Y426334D01*
X1004958Y424668D01*
X1003292D01*
X1006624Y428000D02*
Y434664D01*
D54*
X547588Y580334D02*
X548088Y580834D01*
X549088D01*
X549587Y580334D01*
Y578335D01*
X549088Y577835D01*
X548088D01*
X547588Y578335D01*
X544589Y580834D02*
X546588D01*
Y579334D01*
X545589Y579834D01*
X545089D01*
X544589Y579334D01*
Y578335D01*
X545089Y577835D01*
X546089D01*
X546588Y578335D01*
X543589Y580334D02*
X543089Y580834D01*
X542090D01*
X541590Y580334D01*
Y579834D01*
X542090Y579334D01*
X541590Y578834D01*
Y578335D01*
X542090Y577835D01*
X543089D01*
X543589Y578335D01*
Y578834D01*
X543089Y579334D01*
X543589Y579834D01*
Y580334D01*
X543089Y579334D02*
X542090D01*
X589536Y521200D02*
X590036Y521700D01*
X591036D01*
X591535Y521200D01*
Y519201D01*
X591036Y518701D01*
X590036D01*
X589536Y519201D01*
X588536Y518701D02*
X587537D01*
X588037D01*
Y521700D01*
X588536Y521200D01*
D59*
X546528Y570066D02*
Y571666D01*
X549928Y570066D02*
Y571666D01*
X591326Y516464D02*
X592926D01*
X591326Y513064D02*
X592926D01*
M02*
